<?xml version="1.0" encoding="UTF-8" standalone="no"?>
<svg
   xmlns:dc="http://purl.org/dc/elements/1.1/"
   xmlns:cc="http://creativecommons.org/ns#"
   xmlns:rdf="http://www.w3.org/1999/02/22-rdf-syntax-ns#"
   xmlns:svg="http://www.w3.org/2000/svg"
   xmlns="http://www.w3.org/2000/svg"
   viewBox="0 0 256 205.33333"
   height="205.33333"
   width="256"
   xml:space="preserve"
   id="svg2"
   version="1.1"><metadata
     id="metadata8"><rdf:RDF><cc:Work
         rdf:about=""><dc:format>image/svg+xml</dc:format><dc:type
           rdf:resource="http://purl.org/dc/dcmitype/StillImage" /></cc:Work></rdf:RDF></metadata><defs
     id="defs6"><clipPath
       id="clipPath18"
       clipPathUnits="userSpaceOnUse"><path
         id="path16"
         d="M 0,154 H 192 V 0 H 0 Z" /></clipPath></defs><g
     transform="matrix(1.3333333,0,0,-1.3333333,0,205.33333)"
     id="g10"><g
       id="g12"><g
         clip-path="url(#clipPath18)"
         id="g14"><g
           transform="translate(164.9521,88.8027)"
           id="g20"><path
             id="path22"
             style="fill:none;stroke:#58595b;stroke-width:2;stroke-linecap:butt;stroke-linejoin:miter;stroke-miterlimit:4;stroke-dasharray:none;stroke-opacity:1"
             d="m 0,0 c 5.984,-37.574 -19.626,-72.889 -57.201,-78.873 -37.575,-5.984 -72.889,19.626 -78.873,57.201 -5.985,37.575 19.625,72.888 57.2,78.873 C -41.299,63.186 -5.985,37.576 0,0 Z" /></g><g
           transform="translate(149.1309,86.8936)"
           id="g24"><path
             id="path26"
             style="fill:none;stroke:#58595b;stroke-width:1;stroke-linecap:butt;stroke-linejoin:miter;stroke-miterlimit:4;stroke-dasharray:none;stroke-opacity:1"
             d="m 0,0 c 4.593,-28.833 -15.061,-55.931 -43.894,-60.522 -28.833,-4.592 -55.93,15.06 -60.522,43.892 -4.592,28.833 15.06,55.93 43.893,60.523 C -31.69,48.485 -4.592,28.833 0,0 Z" /></g><g
           transform="translate(70.1367,24.0352)"
           id="g28"><path
             id="path30"
             style="fill:#231f20;fill-opacity:1;fill-rule:nonzero;stroke:none"
             d="M 0,0 0.505,3.201 -1.847,0.938 Z m 2.005,4.033 -1.038,-7.589 -1.392,0.708 0.243,1.627 -2.552,1.297 -1.189,-1.146 -1.32,0.67 5.606,5.267 z" /></g><g
           transform="translate(75.3027,26.5859)"
           id="g32"><path
             id="path34"
             style="fill:#231f20;fill-opacity:1;fill-rule:nonzero;stroke:none"
             d="m 0,0 1.479,-0.551 -2.086,-5.611 2.903,-1.08 -0.429,-1.153 -4.384,1.631 z" /></g><g
           transform="translate(80.6738,24.6729)"
           id="g36"><path
             id="path38"
             style="fill:#231f20;fill-opacity:1;fill-rule:nonzero;stroke:none"
             d="m 0,0 1.528,-0.398 -1.51,-5.798 3,-0.782 -0.31,-1.191 -4.53,1.181 z" /></g><g
           transform="translate(89.21,21.6328)"
           id="g40"><path
             id="path42"
             style="fill:#231f20;fill-opacity:1;fill-rule:nonzero;stroke:none"
             d="M 0,0 -2.133,0.262 -1.986,1.452 3.827,0.74 3.683,-0.45 1.548,-0.189 0.816,-6.172 -0.731,-5.982 Z" /></g><g
           transform="translate(95.4033,16.6348)"
           id="g44"><path
             id="path46"
             style="fill:#231f20;fill-opacity:1;fill-rule:nonzero;stroke:none"
             d="M 0,0 C 0.219,-0.302 0.588,-0.582 1.308,-0.585 1.937,-0.587 2.368,-0.369 2.659,0.08 2.9,0.439 3.152,0.998 3.155,2.147 3.157,2.498 3.129,2.998 2.98,3.438 2.684,4.328 2.075,4.721 1.336,4.723 0.757,4.725 0.295,4.486 0.004,4.117 -0.407,3.619 -0.53,2.84 -0.532,2.021 -0.535,1.331 -0.427,0.561 0,0 M 1.329,5.832 C 2.099,5.829 3.157,5.646 3.864,4.844 4.632,3.962 4.778,2.832 4.775,2.122 4.772,1.072 4.448,-0.046 3.855,-0.703 3.054,-1.601 1.884,-1.727 1.283,-1.724 c -0.949,0.002 -1.897,0.306 -2.554,0.998 -0.788,0.842 -0.883,2.042 -0.881,2.702 0.006,1.919 0.882,3.866 3.481,3.856" /></g><g
           transform="translate(103.2637,19.3848)"
           id="g48"><path
             id="path50"
             style="fill:#231f20;fill-opacity:1;fill-rule:nonzero;stroke:none"
             d="M 0,0 0.615,0.074 C 1.11,0.136 2.034,0.248 1.9,1.34 1.781,2.313 0.957,2.211 0.521,2.158 L -0.253,2.063 Z M -1.914,3.038 0.299,3.31 C 1.331,3.436 2.203,3.472 2.886,2.83 3.318,2.42 3.441,1.911 3.486,1.544 3.589,0.711 3.327,-0.037 2.808,-0.473 2.322,-0.875 1.598,-0.963 1.221,-1.009 L 0.18,-1.137 0.52,-3.925 -1.037,-4.116 Z" /></g><g
           transform="translate(109.7793,18.3398)"
           id="g52"><path
             id="path54"
             style="fill:#231f20;fill-opacity:1;fill-rule:nonzero;stroke:none"
             d="M 0,0 C 0.059,-0.213 0.277,-0.891 1.085,-0.704 1.63,-0.578 1.87,-0.103 1.748,0.422 1.518,1.426 0.554,1.204 -0.157,1.041 L -0.42,2.18 C 0.258,2.356 1.256,2.606 1.032,3.58 0.909,4.116 0.446,4.297 0.008,4.196 -0.41,4.1 -0.754,3.723 -0.625,3.158 L -2.114,2.815 c -0.04,0.308 -0.111,0.744 0.135,1.242 0.322,0.648 0.996,1.018 1.716,1.184 C 1.471,5.641 2.281,4.657 2.451,3.918 2.714,2.778 1.782,2.235 1.501,2.079 1.731,2.06 2.033,2.037 2.405,1.846 2.976,1.557 3.167,1.078 3.24,0.756 3.506,-0.393 2.65,-1.492 1.238,-1.817 0.751,-1.93 0.016,-1.986 -0.503,-1.736 -1.221,-1.379 -1.418,-0.614 -1.48,-0.34 Z" /></g><g
           transform="translate(118.5654,23.1045)"
           id="g56"><path
             id="path58"
             style="fill:#231f20;fill-opacity:1;fill-rule:nonzero;stroke:none"
             d="M 0,0 0.575,0.232 C 1.039,0.419 1.901,0.767 1.489,1.788 1.124,2.696 0.353,2.386 -0.056,2.222 L -0.778,1.93 Z m -2.636,2.441 2.069,0.835 C 0.397,3.665 1.229,3.927 2.057,3.483 2.581,3.199 2.831,2.739 2.971,2.396 3.284,1.617 3.226,0.827 2.835,0.271 2.472,-0.243 1.794,-0.517 1.442,-0.659 L 0.468,-1.052 1.521,-3.658 0.063,-4.247 Z" /></g><g
           transform="translate(124.4756,25.8789)"
           id="g60"><path
             id="path62"
             style="fill:#231f20;fill-opacity:1;fill-rule:nonzero;stroke:none"
             d="M 0,0 1.099,0.597 C 1.257,0.683 1.573,0.855 1.697,1.15 1.755,1.273 1.891,1.631 1.647,2.079 1.412,2.51 1.092,2.598 0.927,2.609 0.634,2.645 0.38,2.506 -0.052,2.271 L -0.965,1.774 Z M -2.854,2.045 -0.42,3.369 C 0.278,3.76 0.99,4.147 1.738,3.984 2.319,3.857 2.731,3.478 2.956,3.064 3.602,1.878 2.734,1.042 2.476,0.787 3.481,1.221 3.847,0.714 4.41,-0.05 4.914,-0.744 5.134,-1.023 5.272,-1.175 5.496,-1.419 5.587,-1.46 5.715,-1.527 L 4.212,-2.344 C 3.959,-2.026 2.892,-0.523 2.67,-0.325 2.351,-0.031 2.017,-0.213 1.788,-0.337 L 0.593,-0.987 1.989,-3.553 0.6,-4.309 Z" /></g><g
           transform="translate(132.3633,27.6748)"
           id="g64"><path
             id="path66"
             style="fill:#231f20;fill-opacity:1;fill-rule:nonzero;stroke:none"
             d="M 0,0 C 0.354,-0.114 0.817,-0.123 1.4,0.3 1.91,0.669 2.129,1.099 2.1,1.634 2.083,2.065 1.957,2.666 1.282,3.597 1.077,3.88 0.76,4.267 0.38,4.534 -0.385,5.08 -1.107,5.037 -1.707,4.604 -2.176,4.263 -2.407,3.799 -2.426,3.329 -2.464,2.685 -2.104,1.982 -1.623,1.319 -1.219,0.76 -0.677,0.201 0,0 M -2.365,5.496 C -1.742,5.948 -0.778,6.424 0.266,6.192 1.405,5.933 2.189,5.105 2.605,4.53 3.222,3.681 3.619,2.586 3.528,1.706 3.409,0.508 2.538,-0.283 2.053,-0.636 1.283,-1.192 0.338,-1.507 -0.6,-1.335 c -1.132,0.217 -1.918,1.129 -2.304,1.663 -1.127,1.554 -1.566,3.643 0.539,5.168" /></g><g
           transform="translate(139.0381,32.5352)"
           id="g68"><path
             id="path70"
             style="fill:#231f20;fill-opacity:1;fill-rule:nonzero;stroke:none"
             d="M 0,0 C 0.13,0.109 0.325,0.281 0.455,0.406 0.933,0.86 1.312,1.289 1.328,1.926 1.35,2.788 0.635,3.598 0.394,3.852 -0.311,4.591 -1.212,5.03 -2.101,4.558 -2.394,4.402 -2.726,4.156 -3.343,3.513 Z m -5.286,3.279 1.738,1.64 c 0.289,0.276 1.18,1.109 2.251,1.245 C -0.176,6.306 0.843,5.7 1.552,4.954 3.081,3.346 3.019,1.686 2.199,0.561 2.038,0.338 1.841,0.109 1.312,-0.394 l -1.629,-1.55 z" /></g><g
           transform="translate(139.9805,42.1484)"
           id="g72"><path
             id="path74"
             style="fill:#231f20;fill-opacity:1;fill-rule:nonzero;stroke:none"
             d="m 0,0 3.432,-2.758 c 0.617,-0.495 1.427,-1.069 2.374,0.11 0.156,0.195 0.619,0.786 0.385,1.486 -0.077,0.256 -0.246,0.493 -0.815,0.95 L 2.006,2.496 2.952,3.675 6.471,0.848 C 8.148,-0.5 7.615,-2.267 6.7,-3.405 6.248,-3.967 5.297,-4.896 4.02,-4.744 3.371,-4.673 2.922,-4.337 2.398,-3.917 l -3.369,2.708 z" /></g><g
           transform="translate(147.9385,49.377)"
           id="g76"><path
             id="path78"
             style="fill:#231f20;fill-opacity:1;fill-rule:nonzero;stroke:none"
             d="m 0,0 c -0.229,0.105 -1.146,0.561 -1.694,-0.336 -0.6,-0.98 0.173,-2.016 1.445,-2.793 0.366,-0.225 2.115,-1.295 2.903,-0.006 0.339,0.555 0.313,1.298 -0.491,1.824 L 3.014,0.08 C 3.365,-0.17 3.916,-0.554 4.125,-1.361 4.354,-2.252 4.06,-3.021 3.716,-3.584 2.417,-5.709 0.425,-5.44 -1.103,-4.506 c -1.954,1.195 -2.584,3.08 -1.524,4.812 0.825,1.348 2.223,1.794 3.451,1.043 z" /></g><g
           transform="translate(148.9941,53.8867)"
           id="g80"><path
             id="path82"
             style="fill:#231f20;fill-opacity:1;fill-rule:nonzero;stroke:none"
             d="M 0,0 -0.904,-1.949 -1.992,-1.444 0.473,3.869 1.561,3.364 0.656,1.414 6.123,-1.122 5.467,-2.536 Z" /></g><g
           transform="translate(37.6855,82.2051)"
           id="g84"><path
             id="path86"
             style="fill:#231f20;fill-opacity:1;fill-rule:nonzero;stroke:none"
             d="m 0,0 -3.127,-0.847 3.023,-1.221 z M -4.497,0.183 2.85,2.332 2.771,0.773 1.187,0.331 1.046,-2.525 2.576,-3.143 2.504,-4.621 -4.588,-1.655 Z" /></g><g
           transform="translate(33.8047,88.0454)"
           id="g88"><path
             id="path90"
             style="fill:#231f20;fill-opacity:1;fill-rule:nonzero;stroke:none"
             d="M 0,0 4.329,-0.776 C 5.106,-0.916 6.092,-1.031 6.358,0.455 6.402,0.701 6.524,1.44 5.985,1.943 5.795,2.13 5.533,2.258 4.815,2.387 L 0.564,3.149 0.83,4.635 5.269,3.839 C 7.385,3.46 7.762,1.655 7.504,0.218 7.377,-0.49 6.986,-1.761 5.794,-2.238 5.19,-2.485 4.637,-2.406 3.977,-2.287 l -4.251,0.762 z" /></g><g
           transform="translate(36.9023,96.3394)"
           id="g92"><path
             id="path94"
             style="fill:#231f20;fill-opacity:1;fill-rule:nonzero;stroke:none"
             d="M 0,0 -0.644,-2.05 -1.788,-1.69 -0.033,3.897 1.111,3.538 0.467,1.488 6.216,-0.318 5.749,-1.805 Z" /></g><g
           transform="translate(37.5273,101.9731)"
           id="g96"><path
             id="path98"
             style="fill:#231f20;fill-opacity:1;fill-rule:nonzero;stroke:none"
             d="M 0,0 0.641,1.412 3.271,0.217 4.399,2.703 1.77,3.897 2.418,5.326 9,2.338 8.359,0.927 5.473,2.237 4.336,-0.267 7.223,-1.577 6.582,-2.988 Z" /></g><g
           transform="translate(41.1406,109.4888)"
           id="g100"><path
             id="path102"
             style="fill:#231f20;fill-opacity:1;fill-rule:nonzero;stroke:none"
             d="M 0,0 2.514,4.134 3.521,3.521 1.812,0.711 3.282,-0.183 4.883,2.448 5.89,1.835 4.289,-0.796 5.955,-1.809 7.721,1.095 8.746,0.472 6.175,-3.756 Z" /></g><g
           transform="translate(44.9512,115.5605)"
           id="g104"><path
             id="path106"
             style="fill:#231f20;fill-opacity:1;fill-rule:nonzero;stroke:none"
             d="M 0,0 1.392,1.756 7.537,0.346 3.075,3.88 3.971,5.01 9.639,0.517 8.314,-1.153 1.871,0.38 6.575,-3.348 5.668,-4.493 Z" /></g><g
           transform="translate(52.5713,122.6045)"
           id="g108"><path
             id="path110"
             style="fill:#231f20;fill-opacity:1;fill-rule:nonzero;stroke:none"
             d="M 0,0 -1.534,-1.505 -2.374,-0.65 1.806,3.454 2.646,2.598 1.112,1.093 5.335,-3.208 4.223,-4.301 Z" /></g><g
           transform="translate(55.5928,127.063)"
           id="g112"><path
             id="path114"
             style="fill:#231f20;fill-opacity:1;fill-rule:nonzero;stroke:none"
             d="M 0,0 1.193,0.989 5.821,-4.595 4.628,-5.584 Z" /></g><g
           transform="translate(63.1953,129.8003)"
           id="g116"><path
             id="path118"
             style="fill:#231f20;fill-opacity:1;fill-rule:nonzero;stroke:none"
             d="m 0,0 c -0.167,0.189 -0.82,0.978 -1.684,0.381 -0.947,-0.653 -0.66,-1.913 0.186,-3.139 0.245,-0.354 1.41,-2.041 2.652,-1.183 0.535,0.369 0.813,1.058 0.291,1.865 L 2.787,-1.15 C 3.006,-1.521 3.354,-2.095 3.218,-2.917 3.066,-3.825 2.484,-4.408 1.941,-4.783 c -2.048,-1.415 -3.76,-0.361 -4.777,1.113 -1.301,1.884 -1.111,3.862 0.559,5.015 1.3,0.898 2.759,0.738 3.578,-0.447 z" /></g><g
           transform="translate(64.7422,133.5386)"
           id="g120"><path
             id="path122"
             style="fill:#231f20;fill-opacity:1;fill-rule:nonzero;stroke:none"
             d="M 0,0 1.348,0.764 4.919,-5.543 3.57,-6.306 Z" /></g><g
           transform="translate(69.9355,134.9116)"
           id="g124"><path
             id="path126"
             style="fill:#231f20;fill-opacity:1;fill-rule:nonzero;stroke:none"
             d="M 0,0 -1.951,-0.903 -2.455,0.187 2.863,2.647 3.367,1.558 1.416,0.655 3.947,-4.818 2.531,-5.474 Z" /></g><g
           transform="translate(75.5605,138.5186)"
           id="g128"><path
             id="path130"
             style="fill:#231f20;fill-opacity:1;fill-rule:nonzero;stroke:none"
             d="m 0,0 2.448,-2.656 0.41,3.601 1.51,0.5 -0.882,-5.106 0.826,-2.498 -1.453,-0.481 -0.832,2.517 -3.746,3.555 z" /></g><g
           transform="translate(90.2461,139.6587)"
           id="g132"><path
             id="path134"
             style="fill:#231f20;fill-opacity:1;fill-rule:nonzero;stroke:none"
             d="m 0,0 c -0.035,0.187 -0.081,0.443 -0.297,0.696 -0.362,0.434 -0.937,0.436 -1.274,0.39 -1.742,-0.239 -1.867,-1.911 -1.716,-3.01 0.067,-0.485 0.256,-1.347 0.858,-1.839 0.411,-0.346 0.916,-0.499 1.767,-0.383 0.743,0.102 0.988,0.227 1.15,0.299 l -0.207,1.505 -1.385,-0.19 -0.164,1.188 2.92,0.401 0.491,-3.575 C 1.718,-4.727 1.02,-5.075 -0.416,-5.272 c -1.635,-0.225 -2.53,0.057 -3.17,0.534 -0.909,0.672 -1.215,1.79 -1.317,2.543 -0.348,2.534 1.049,4.108 3.218,4.405 C -0.764,2.336 0.222,2.209 0.874,1.643 1.424,1.164 1.531,0.604 1.594,0.22 Z" /></g><g
           transform="translate(95.6113,142.2192)"
           id="g136"><path
             id="path138"
             style="fill:#231f20;fill-opacity:1;fill-rule:nonzero;stroke:none"
             d="m 0,0 -0.015,-4.402 c -0.003,-0.789 0.054,-1.78 1.564,-1.785 0.251,-10e-4 1.002,0.006 1.404,0.625 0.15,0.219 0.231,0.499 0.234,1.229 l 0.014,4.322 1.511,-0.006 -0.016,-4.511 c -0.007,-2.151 -1.72,-2.835 -3.18,-2.829 -0.721,0.002 -2.039,0.167 -2.717,1.259 -0.348,0.552 -0.365,1.112 -0.363,1.782 l 0.014,4.321 z" /></g><g
           transform="translate(105.7451,137.1001)"
           id="g140"><path
             id="path142"
             style="fill:#231f20;fill-opacity:1;fill-rule:nonzero;stroke:none"
             d="M 0,0 -0.589,3.183 -2.052,0.27 Z m 0.548,4.464 1.543,-7.492 -1.545,0.204 -0.313,1.613 -2.834,0.374 -0.738,-1.476 -1.467,0.194 3.532,6.824 z" /></g><g
           transform="translate(111.3047,137.3882)"
           id="g144"><path
             id="path146"
             style="fill:#231f20;fill-opacity:1;fill-rule:nonzero;stroke:none"
             d="M 0,0 1.208,-0.318 C 1.383,-0.364 1.73,-0.456 2.023,-0.326 2.15,-0.276 2.494,-0.108 2.624,0.385 2.749,0.859 2.575,1.142 2.463,1.264 2.274,1.49 1.993,1.564 1.52,1.689 L 0.515,1.954 Z M -0.675,3.446 2.004,2.74 C 2.779,2.546 3.563,2.34 3.996,1.709 4.332,1.218 4.372,0.659 4.252,0.205 3.908,-1.101 2.705,-1.115 2.341,-1.123 3.369,-1.498 3.289,-2.117 3.175,-3.06 3.065,-3.909 3.034,-4.262 3.031,-4.47 3.027,-4.799 3.064,-4.892 3.112,-5.028 l -1.654,0.436 c 0.034,0.404 0.288,2.23 0.263,2.526 -0.032,0.432 -0.399,0.529 -0.65,0.596 l -1.315,0.345 -0.744,-2.823 -1.528,0.402 z" /></g><g
           transform="translate(120.0723,133.0864)"
           id="g148"><path
             id="path150"
             style="fill:#231f20;fill-opacity:1;fill-rule:nonzero;stroke:none"
             d="M 0,0 0.227,3.23 -1.919,0.775 Z m 1.648,4.187 -0.38,-7.644 -1.448,0.584 0.103,1.641 -2.652,1.071 -1.084,-1.243 -1.373,0.554 5.128,5.726 z" /></g><g
           transform="translate(125.8984,135.4233)"
           id="g152"><path
             id="path154"
             style="fill:#231f20;fill-opacity:1;fill-rule:nonzero;stroke:none"
             d="m 0,0 1.947,-1.112 -0.468,-6.289 2.824,4.944 1.25,-0.715 -3.588,-6.283 -1.852,1.058 0.545,6.603 -2.976,-5.213 -1.27,0.724 z" /></g><g
           transform="translate(134.0215,128.9355)"
           id="g156"><path
             id="path158"
             style="fill:#231f20;fill-opacity:1;fill-rule:nonzero;stroke:none"
             d="m 0,0 -1.719,1.291 0.72,0.959 4.684,-3.518 -0.72,-0.959 -1.719,1.291 -3.621,-4.819 -1.246,0.936 z" /></g><g
           transform="translate(139.1172,126.4438)"
           id="g160"><path
             id="path162"
             style="fill:#231f20;fill-opacity:1;fill-rule:nonzero;stroke:none"
             d="M 0,0 3.525,-3.315 2.719,-4.174 0.321,-1.921 -0.856,-3.174 1.387,-5.284 0.58,-6.144 -1.665,-4.035 -3,-5.455 l 2.477,-2.328 -0.822,-0.874 -3.606,3.389 z" /></g><g
           transform="translate(144.1914,121.4971)"
           id="g164"><path
             id="path166"
             style="fill:#231f20;fill-opacity:1;fill-rule:nonzero;stroke:none"
             d="M 0,0 3.141,-3.683 2.242,-4.448 0.107,-1.944 -1.201,-3.06 0.797,-5.404 -0.1,-6.17 l -2,2.343 -1.482,-1.265 2.205,-2.587 -0.912,-0.779 -3.213,3.767 z" /></g><g
           transform="translate(182.9258,85.7754)"
           id="g168"><path
             id="path170"
             style="fill:none;stroke:#58595b;stroke-width:1;stroke-linecap:butt;stroke-linejoin:miter;stroke-miterlimit:4;stroke-dasharray:none;stroke-opacity:1"
             d="m 0,0 -161.712,-55.682 -11.168,32.436 161.711,55.682 z" /></g><g
           transform="translate(40.876,55.2188)"
           id="g172"><path
             id="path174"
             style="fill:#231f20;fill-opacity:1;fill-rule:nonzero;stroke:none"
             d="M 0,0 C -2.168,6.296 -3.479,8.891 -6.373,7.895 -9.266,6.898 -8.702,4.046 -6.534,-2.25 c 2.168,-6.297 3.479,-8.891 6.372,-7.895 C 2.731,-9.148 2.168,-6.297 0,0 M -11.742,-4.044 C -13.98,2.457 -16.113,8.651 -7.639,11.57 0.836,14.488 2.969,8.293 5.207,1.793 7.422,-4.64 9.579,-10.902 1.104,-13.82 c -8.474,-2.918 -10.631,3.344 -12.846,9.776" /></g><g
           transform="translate(54.6328,61.8203)"
           id="g176"><path
             id="path178"
             style="fill:#231f20;fill-opacity:1;fill-rule:nonzero;stroke:none"
             d="M 0,0 2.28,0.785 C 4.322,1.488 4.197,3.73 3.658,5.296 2.85,7.645 1.559,8.189 -0.075,7.627 L -2.355,6.842 Z M 4.805,-13.953 -0.334,-15.724 -8.796,8.85 0.7,12.119 C 4.206,13.326 7.225,11.854 8.667,7.667 9.745,4.536 9.328,1.766 6.181,0.072 L 6.204,0.004 c 1.17,0.252 4.599,1.127 6.122,-3.297 0.539,-1.566 2.236,-6.159 3.063,-7.016 l -5.036,-1.734 C 9.155,-10.78 8.718,-9.066 8.167,-7.466 7.159,-4.539 6.576,-1.961 2.628,-3.32 L 1.301,-3.777 Z" /></g><g
           transform="translate(73.3262,52.6484)"
           id="g180"><path
             id="path182"
             style="fill:#231f20;fill-opacity:1;fill-rule:nonzero;stroke:none"
             d="m 0,0 -8.462,24.573 5.14,1.77 L 5.139,1.77 Z" /></g><g
           transform="translate(88.1602,76.791)"
           id="g184"><path
             id="path186"
             style="fill:#231f20;fill-opacity:1;fill-rule:nonzero;stroke:none"
             d="m 0,0 c -0.751,2.293 -1.816,4.172 -4.539,3.234 -3.2,-1.101 -1.712,-5.423 -0.071,-10.189 2.648,-7.691 3.866,-8.795 6.794,-7.787 0.85,0.293 1.699,0.813 2.387,1.355 l -1.875,5.446 -2.79,-0.961 -1.301,3.778 7.93,2.73 4.289,-12.456 C 9.523,-15.604 6.205,-17.355 4.162,-18.059 -4.482,-21.035 -6.7,-17.801 -9.911,-8.476 -12.044,-2.281 -13.905,4.121 -5.499,7.016 -0.462,8.75 3.643,7.003 5.105,1.758 Z" /></g><g
           transform="translate(103.5859,63.0684)"
           id="g188"><path
             id="path190"
             style="fill:#231f20;fill-opacity:1;fill-rule:nonzero;stroke:none"
             d="m 0,0 -8.461,24.572 5.139,1.77 L 5.139,1.77 Z" /></g><g
           transform="translate(113.082,66.3379)"
           id="g192"><path
             id="path194"
             style="fill:#231f20;fill-opacity:1;fill-rule:nonzero;stroke:none"
             d="M 0,0 -8.461,24.573 -1.518,26.964 10.877,12.197 10.944,12.22 5.085,29.237 9.884,30.89 18.345,6.316 11.572,3.984 -1.32,19.646 -1.389,19.623 4.799,1.652 Z" /></g><g
           transform="translate(136.9521,96.752)"
           id="g196"><path
             id="path198"
             style="fill:#231f20;fill-opacity:1;fill-rule:nonzero;stroke:none"
             d="m 0,0 -0.068,-0.023 1.307,-11.428 4.902,1.688 z m -3.071,-23.252 -1.656,26.916 6.774,2.332 15.132,-22.275 -5.412,-1.864 -3.237,4.977 -7.01,-2.415 0.479,-5.925 z" /></g><g
           transform="translate(156.584,81.3164)"
           id="g200"><path
             id="path202"
             style="fill:#231f20;fill-opacity:1;fill-rule:nonzero;stroke:none"
             d="m 0,0 -8.462,24.573 5.14,1.77 7.054,-20.489 7.692,2.648 1.406,-4.084 z" /></g><g
           transform="translate(58.1299,103.6533)"
           id="g204"><path
             id="path206"
             style="fill:#231f20;fill-opacity:1;fill-rule:nonzero;stroke:none"
             d="M 0,0 C 1.145,1.282 2.213,2.696 2.774,4.381 L 6.575,5.689 13.393,-14.108 9.109,-15.583 3.865,-0.352 C 3.137,-1.554 2.228,-2.692 1.279,-3.716 Z" /></g><g
           transform="translate(76.2549,102.2471)"
           id="g208"><path
             id="path210"
             style="fill:#231f20;fill-opacity:1;fill-rule:nonzero;stroke:none"
             d="M 0,0 C 2.061,-5.984 2.642,-7.212 4.23,-6.665 5.818,-6.118 5.521,-4.793 3.46,1.191 1.36,7.29 0.932,8.443 -0.771,7.857 -2.473,7.271 -2.101,6.099 0,0 M 7.44,2.626 C 9.579,-3.586 10.559,-7.723 5.227,-9.559 -0.106,-11.395 -1.88,-7.531 -4.02,-1.319 -6.627,6.253 -6.646,9.07 -1.767,10.75 3.111,12.43 4.833,10.199 7.44,2.626" /></g><g
           transform="translate(88.8486,106.584)"
           id="g212"><path
             id="path214"
             style="fill:#231f20;fill-opacity:1;fill-rule:nonzero;stroke:none"
             d="M 0,0 C 2.061,-5.985 2.642,-7.213 4.23,-6.666 5.818,-6.119 5.521,-4.794 3.46,1.191 1.36,7.29 0.932,8.442 -0.771,7.856 -2.473,7.271 -2.101,6.099 0,0 m 7.439,2.626 c 2.14,-6.212 3.12,-10.349 -2.212,-12.185 -5.333,-1.836 -7.107,2.027 -9.247,8.239 -2.607,7.573 -2.626,10.39 2.253,12.07 4.878,1.68 6.599,-0.552 9.206,-8.124" /></g><g
           transform="translate(116.8838,111.2246)"
           id="g216"><path
             id="path218"
             style="fill:#231f20;fill-opacity:1;fill-rule:nonzero;stroke:none"
             d="M 0,0 C -0.342,0.992 -0.91,2.827 -2.357,2.329 -3.804,1.831 -3.121,0.035 -2.779,-0.957 -1.969,-3.312 -1.544,-4.085 -0.296,-3.655 0.952,-3.226 0.811,-2.354 0,0 m -5.367,-2.197 c -1.016,2.949 -1.194,5.585 2.238,6.766 3.433,1.182 4.915,-1.004 5.931,-3.954 1.152,-3.346 0.85,-5.418 -2.326,-6.511 -3.178,-1.095 -4.691,0.351 -5.843,3.699 m -3.171,-7.469 -2.099,-0.723 1.133,23.615 2.1,0.722 z m -6.759,14.837 c -0.342,0.993 -0.91,2.828 -2.357,2.33 -1.446,-0.498 -0.764,-2.294 -0.422,-3.287 0.81,-2.355 1.235,-3.128 2.483,-2.698 1.248,0.429 1.107,1.3 0.296,3.655 m -5.367,-2.196 c -1.016,2.949 -1.193,5.585 2.238,6.766 3.433,1.182 4.915,-1.005 5.931,-3.954 1.153,-3.348 0.85,-5.419 -2.326,-6.513 -3.177,-1.093 -4.691,0.353 -5.843,3.701" /></g><g
           transform="translate(89.8003,37.4766)"
           id="g220"><path
             id="path222"
             style="fill:#231f20;fill-opacity:1;fill-rule:nonzero;stroke:none"
             d="M 0,0 1.035,0.357 C 2.34,0.807 2.258,1.873 1.375,4.439 0.725,6.326 0.153,7.986 -1.336,7.473 L -2.441,7.092 Z m -5.125,7.928 3.574,1.23 C 1.257,10.125 2.426,8.435 3.524,5.243 4.066,3.669 5.549,0.15 1.89,-1.109 L -1.6,-2.311 Z" /></g><g
           transform="translate(96.8237,38.1348)"
           id="g224"><path
             id="path226"
             style="fill:#231f20;fill-opacity:1;fill-rule:nonzero;stroke:none"
             d="M 0,0 -3.525,10.238 2.063,12.163 2.604,10.59 -0.842,9.402 0.027,6.879 3.204,7.973 3.746,6.398 0.569,5.305 1.6,2.312 5.159,3.537 5.702,1.963 Z" /></g><g
           transform="translate(106.7539,41.3633)"
           id="g228"><path
             id="path230"
             style="fill:#231f20;fill-opacity:1;fill-rule:nonzero;stroke:none"
             d="m 0,0 c -2.652,-0.912 -3.686,0.477 -4.184,2.287 l 2.143,0.738 c 0.336,-0.978 0.662,-1.787 1.84,-1.38 0.722,0.248 0.916,0.837 0.678,1.533 -0.635,1.843 -4.987,0.472 -6.036,3.521 -0.552,1.604 -0.226,3.143 2.383,4.042 2.086,0.718 3.444,0.138 4.039,-2.052 L -1.223,7.972 C -1.486,8.736 -1.881,9.473 -2.746,9.176 -3.441,8.936 -3.721,8.411 -3.477,7.702 -2.809,5.76 1.445,7.414 2.553,4.195 3.467,1.543 1.631,0.562 0,0" /></g><g
           transform="translate(111.8008,43.291)"
           id="g232"><path
             id="path234"
             style="fill:#231f20;fill-opacity:1;fill-rule:nonzero;stroke:none"
             d="M 0,0 -3.525,10.24 -1.383,10.977 2.143,0.738 Z" /></g><g
           transform="translate(117.9824,53.3516)"
           id="g236"><path
             id="path238"
             style="fill:#231f20;fill-opacity:1;fill-rule:nonzero;stroke:none"
             d="m 0,0 c -0.314,0.955 -0.758,1.738 -1.893,1.348 -1.332,-0.459 -0.712,-2.26 -0.029,-4.246 1.104,-3.206 1.611,-3.665 2.832,-3.246 0.354,0.123 0.707,0.34 0.994,0.566 l -0.781,2.269 -1.162,-0.4 -0.543,1.574 3.305,1.137 1.787,-5.19 C 3.969,-6.502 2.586,-7.231 1.734,-7.524 c -3.603,-1.242 -4.527,0.106 -5.865,3.993 -0.889,2.58 -1.664,5.248 1.838,6.455 2.1,0.722 3.811,-0.006 4.42,-2.192 z" /></g><g
           transform="translate(124.4238,47.6387)"
           id="g240"><path
             id="path242"
             style="fill:#231f20;fill-opacity:1;fill-rule:nonzero;stroke:none"
             d="m 0,0 -3.525,10.238 2.892,0.996 5.164,-6.152 0.03,0.01 -2.442,7.09 2,0.689 L 7.645,2.631 4.822,1.66 -0.551,8.186 -0.578,8.176 2,0.687 Z" /></g></g></g></g></svg>