<svg xmlns="http://www.w3.org/2000/svg" xmlns:xlink="http://www.w3.org/1999/xlink" viewBox="0 0 540 535"><defs><style>.a{fill:#A07B5D;}.b{fill:#5F635E;}.c{opacity:0.45;}.d{fill:#fff;opacity:0.1;}.e{opacity:0.15;}.f,.o,.p{fill:none;}.g{fill:url(#a);}.h{opacity:0.6;}.i{fill:url(#b);}.j{opacity:0.12;}.k{fill:url(#c);}.l{fill:url(#d);}.m{fill:url(#e);}.n{fill:url(#f);}.o,.p{stroke:#000;stroke-miterlimit:10;isolation:isolate;}.o{stroke-width:4px;opacity:0.2;}.p{opacity:0.24;}</style><linearGradient id="a" x1="873.2" y1="346.89" x2="918.8" y2="346.89" gradientTransform="matrix(-1, 0, 0, 1, 1004.1, 44.11)" gradientUnits="userSpaceOnUse"><stop offset="0" stop-opacity="0.45"/><stop offset="1" stop-opacity="0.6"/></linearGradient><linearGradient id="b" x1="548" y1="346.89" x2="593.6" y2="346.89" gradientTransform="matrix(-1, 0, 0, 1, 1004.1, 44.11)" gradientUnits="userSpaceOnUse"><stop offset="0" stop-opacity="0.6"/><stop offset="1" stop-opacity="0.45"/></linearGradient><linearGradient id="c" x1="945.75" y1="376.72" x2="945.75" y2="397.73" gradientTransform="matrix(-1, 0, 0, 1, 1004.1, 44.11)" gradientUnits="userSpaceOnUse"><stop offset="0" stop-opacity="0"/><stop offset="1" stop-opacity="0.6"/></linearGradient><linearGradient id="d" x1="520.9" y1="376.89" x2="520.9" y2="397.9" xlink:href="#c"/><linearGradient id="e" x1="476.73" y1="473.7" x2="466.83" y2="463.62" gradientTransform="matrix(-1, 0, 0, 1, 1004.1, 44.11)" gradientUnits="userSpaceOnUse"><stop offset="0" stop-opacity="0"/><stop offset="1" stop-opacity="0.35"/></linearGradient><linearGradient id="f" x1="383.6" y1="474.4" x2="373.17" y2="463.78" gradientTransform="translate(-368.9 44.1)" xlink:href="#e"/></defs><title>01</title><path class="a" d="M456,398H85v45.7L59,511.4V535H482V511.4L456.4,444ZM510,82H31V0H510Zm0,302H31V323H510Zm0-76H31V247H510Zm0-75H31V172H510Zm0-76H31V96H510Z"/><path class="b" d="M30.9,444.5,1.8,511.6s-2,2.6,4.7,6.6S59,535,59,535V511.4l26-66.9V398h45V384H31"/><path class="b" d="M510,384H410v14h46v46.5l26,66.9V535s44.6-11.6,52-16.8,5.2-6.8,5.2-6.8L510.4,445"/><g class="c"><polygon points="59.3 511.4 85.4 444.5 455.5 444 482.3 511.4 59.3 511.4"/></g><path class="d" d="M63.9,501.2l1-2.4H477.1l1.4,2.4Zm5.1-14,1-2.4H471.4l1.3,2.4Zm5.8-14.7,1-2.4H465.6l1.3,2.4Zm5.1-14,1-2.4H460.2l1.3,2.4Z"/><g class="e"><line class="f" x1="455.9" y1="444.5" x2="491.9" y2="518.4"/></g><rect class="g" x="85.3" y="384" width="45.6" height="14"/><g class="h"><polygon points="59.3 511.2 1.9 511.6 31 444.8 85.2 444.8 59.3 511.2"/></g><g class="h"><polygon points="482.3 511.4 539.3 511.6 511.1 444.9 455.8 444.9 482.3 511.4"/></g><rect class="i" x="410.5" y="384" width="45.6" height="14"/><path class="j" d="M510,6H31V0H510Zm0,320H31v-3H510Zm0-76H31v-3H510Zm0-151H31V96H510Zm0,76H31v-3H510ZM456,401H85v-3H456Z"/><rect class="k" x="31.3" y="420.8" width="54.1" height="24"/><rect class="l" x="455.9" y="421" width="54.6" height="24"/><path class="m" d="M526.2,522.2s15.3-4.8,13.5-10.7l-15.3.3Z"/><path class="n" d="M16.9,522.2s-17.5-5-15.1-10.3H17.1Z"/><path class="o" d="M33,445V0M86,398v47m422,0V0M455,444V397"/><path class="p" d="M500,345.5H485m-18,15H444m-41-18H379m31,27H386m59-37H421m71,38H468m-237,1H208m-115-5H76m-9-33H49m50,11H82m86-5H151m29,10H163m-28-14H118m84-1H184m38,14H205m67-3H255m7,17H244m-128,12H98m285-13H366m-217,6H132m45,6H160m-100-17H42m22,19H46m296-2H325m33-39H340m85,18H408m-55,0H336m112,23H431m-111-35H304m161,2H449m-157,26H276m-8-33H232m-30,25H178m131-7H285m-151,2H111m333,60H433m-14,10H402m-31-11H353m23,17H359m44-24H384m53,25H420m-177,0H225m-86-3H127m-7-21H107m37,7H131m64-3H182m23,6H192m-21-9H159m62-1H208m27,9H223m50-2H260m6,12H253m-96,7H143m214-8H344m-162,4H169m34,4H189m-74-11H101m17,12H105m221-1H313m24-26H324m63,12H374m-41,0H321m84,15H393m-83-23H298m119,2H406m-118,16H277m-7-21H243m-22,16H203m98-4H283m-112,1H153m299,100H431m-30,4H380m94,1H454m-213,0H219m-103-2H101m21-9H107m87,2H180m51-1H217m60-1H261m7,8H253m-116,4H121m256-5H362m-194,3H152m40,2H176m-89-7H71m19,8H75m265-1H325m89-9H399m-49,0H334m101,10H420m-124-3H282m-68-4H192m118-2H289m-134,1H132m368-250H485m-18,15H444m-41-18H379m31,27H386m59-37H421m71,38H468m-237,1H208m-115-5H76m-9-33H49m50,11H82m86-5H151m29,10H163m-28-14H118m84-1H184m38,14H205m67-3H255m7,17H244m-128,12H98m285-13H366m-217,6H132m45,6H160m-100-17H42m22,19H46m296-2H325m33-39H340m85,18H408m-55,0H336m112,23H431m-111-35H304m161,2H449m-157,26H276m-8-33H232m-30,25H178m131-7H285m-151,2H111m389-83H485m-18,15H444m-41-18H379m31,27H386m59-37H421m71,38H468m-237,1H208m-115-5H76m-9-33H49m50,11H82m86-5H151m29,10H163m-28-14H118m84-1H184m38,14H205m67-3H255m7,17H244m-128,12H98m285-13H366m-217,6H132m45,6H160m-100-17H42m22,19H46m296-2H325m33-39H340m85,18H408m-55,0H336m112,23H431m-111-35H304m161,2H449m-157,26H276m-8-33H232m-30,25H178m131-7H285m-151,2H111m389-89H485m-18,15H444m-41-18H379m31,27H386m59-37H421m71,38H468m-237,1H208m-115-5H76m-9-33H49m50,11H82m86-5H151m29,10H163m-28-14H118m84-1H184m38,14H205m67-3H255m7,17H244m-128,12H98m285-13H366m-217,6H132m45,6H160m-100-17H42m22,19H46m296-2H325m33-39H340m85,18H408m-55,0H336m112,23H431m-111-35H304m161,2H449m-157,26H276m-8-33H232m-30,25H178m131-7H285m-151,2H111m384-92H481m-14,15H444m-44-18H377m33,27H386m55-37H418m74,38H468m-237,1H208m-115-5H76m-5-33H54m49,11H86m84-5H153m27,10H163m-25-14H121m82-1H186m37,14H206m66-3H255m7,17H244m-128,12H98m285-13H366m-217,6H132m45,6H160M60,48.5H42m22,19H46m296-2H325m31-39H339m86,18H408m-55,0H336m112,23H431m-112-35H303m158,2H445m-153,26H276m-8-33H233m-31,25H178m131-7H285m-151,2H111"/></svg>