<?xml version="1.0" encoding="utf-8"?>
<!-- Generator: Adobe Illustrator 21.1.0, SVG Export Plug-In . SVG Version: 6.00 Build 0)  -->
<svg version="1.1" id="Layer_1" xmlns="http://www.w3.org/2000/svg" xmlns:xlink="http://www.w3.org/1999/xlink" x="0px" y="0px"
	 viewBox="0 0 1140.5 535" style="enable-background:new 0 0 1140.5 535;" xml:space="preserve">
<style type="text/css">
	.st0{fill:#FF0086;fill-opacity:0;}
	.st1{fill:#DEB074;}
	.st2{fill:#DBDBDA;}
	.st3{opacity:0.45;}
	.st4{opacity:0.1;}
	.st5{fill:#FFFFFF;}
	.st6{opacity:0.15;}
	.st7{fill:none;}
	.st8{fill:url(#XMLID_2_);}
	.st9{opacity:0.6;}
	.st10{fill:none;stroke:#B2B2B2;stroke-width:4.4866;stroke-miterlimit:10;}
	.st11{fill:url(#XMLID_3_);}
	.st12{opacity:0.12;}
	.st13{fill:url(#XMLID_4_);}
	.st14{fill:url(#XMLID_5_);}
	.st15{fill:url(#XMLID_6_);}
	.st16{fill:url(#XMLID_7_);}
	.st17{opacity:0.2;fill:none;stroke:#000000;stroke-width:4;stroke-miterlimit:10;enable-background:new    ;}
	.st18{opacity:0.2;fill:none;stroke:#000000;stroke-width:2;stroke-miterlimit:10;enable-background:new    ;}
	.st19{fill:none;stroke:#000000;stroke-miterlimit:10;}
</style>
<g id="seat-2">
	<rect id="bounds_4_" x="0.7" y="0" class="st0" width="1140" height="535"/>
	<g id="style1">
		<g id="XMLID_2169_">
			<polygon id="XMLID_592_" class="st1" points="83.6,137 1055.7,137 1055.7,91.3 1081.7,23.6 1081.7,0 57.7,0 57.7,23.6 83.2,91 
							"/>
		</g>
		<g id="XMLID_2167_">
			<rect id="XMLID_2168_" x="29.7" y="453" class="st1" width="1080" height="82"/>
		</g>
		<g id="XMLID_2165_">
			<rect id="XMLID_2166_" x="29.7" y="151" class="st1" width="1080" height="61"/>
		</g>
		<g id="XMLID_2163_">
			<rect id="XMLID_2164_" x="29.7" y="227" class="st1" width="1080" height="61"/>
		</g>
		<g id="XMLID_2161_">
			<rect id="XMLID_2162_" x="29.7" y="302" class="st1" width="1080" height="61"/>
		</g>
		<g id="XMLID_2159_">
			<rect id="XMLID_2160_" x="29.7" y="378" class="st1" width="1080" height="61"/>
		</g>
	</g>
	<g id="style2">
		<g id="XMLID_2157_">
			<path id="XMLID_591_" class="st2" d="M1108.8,90.5l29.1-67.1c0,0,2-2.6-4.7-6.6c-7.5-4.5-52.6-16.8-52.6-16.8v23.6l-26,66.9V137
				h-45v14h47.3h51.7"/>
		</g>
		<g id="XMLID_2155_">
			<path id="XMLID_590_" class="st2" d="M29.7,151h51.9h48.1v-14h-46V90.5l-26-66.9V0c0,0-44.6,11.6-52,16.8
				c-7.5,5.2-5.2,6.8-5.2,6.8L29.3,90"/>
		</g>
	</g>
	<g id="accent_6_">
		<g id="XMLID_2153_" class="st3">
			<polygon id="XMLID_589_" points="1081.4,23.6 1055.3,90.5 84.1,91 57.4,23.6 			"/>
		</g>
		<g id="XMLID_2151_" class="st4">
			<polygon id="XMLID_2152_" class="st5" points="1076.8,33.8 1075.7,36.2 62.5,36.3 61.2,33.9 			"/>
		</g>
		<g id="XMLID_2149_" class="st4">
			<polygon id="XMLID_2150_" class="st5" points="1071.7,47.8 1070.7,50.2 68.3,50.3 67,47.9 			"/>
		</g>
		<g id="XMLID_2147_" class="st4">
			<polygon id="XMLID_2148_" class="st5" points="1065.9,62.5 1064.9,64.9 74,64.9 72.7,62.5 			"/>
		</g>
		<g id="XMLID_2145_" class="st4">
			<polygon id="XMLID_2146_" class="st5" points="1060.8,76.5 1059.8,78.9 79.4,78.9 78.2,76.5 			"/>
		</g>
		<g id="XMLID_2143_" class="st6">
			<line id="XMLID_588_" class="st7" x1="83.8" y1="90.5" x2="47.7" y2="16.6"/>
		</g>
		<g id="XMLID_2141_">
			
				<linearGradient id="XMLID_2_" gradientUnits="userSpaceOnUse" x1="2071.209" y1="652.89" x2="2116.844" y2="652.89" gradientTransform="matrix(1 0 0 -1 -1061.4001 796.89)">
				<stop  offset="0" style="stop-color:#000000;stop-opacity:0.45"/>
				<stop  offset="1" style="stop-color:#000000;stop-opacity:0.6"/>
			</linearGradient>
			<rect id="XMLID_2142_" x="1009.8" y="137" class="st8" width="45.6" height="14"/>
		</g>
		<g id="XMLID_2139_" class="st9">
			<polygon id="XMLID_587_" points="1081.4,23.8 1138.8,23.4 1109.7,90.2 1055.4,90.2 			"/>
		</g>
		<g id="XMLID_2137_">
			<path id="XMLID_2138_" class="st10" d="M27.1,531.2"/>
		</g>
		<g id="XMLID_2135_" class="st9">
			<polygon id="XMLID_586_" points="57.4,23.6 0.3,23.4 29.2,90 83.9,90.1 			"/>
		</g>
		<g id="XMLID_2133_">
			
				<linearGradient id="XMLID_3_" gradientUnits="userSpaceOnUse" x1="1144.9491" y1="652.89" x2="1190.5841" y2="652.89" gradientTransform="matrix(1 0 0 -1 -1061.4001 796.89)">
				<stop  offset="0" style="stop-color:#000000;stop-opacity:0.6"/>
				<stop  offset="1" style="stop-color:#000000;stop-opacity:0.45"/>
			</linearGradient>
			<rect id="XMLID_2134_" x="83.5" y="137" class="st11" width="45.6" height="14"/>
		</g>
		<g id="XMLID_2131_" class="st12">
			<rect id="XMLID_2132_" x="29.7" y="529" width="1080" height="6"/>
		</g>
		<g id="XMLID_2129_" class="st12">
			<rect id="XMLID_2130_" x="29.7" y="209" width="1080" height="3"/>
		</g>
		<g id="XMLID_2127_" class="st12">
			<rect id="XMLID_2128_" x="29.7" y="285" width="1080" height="3"/>
		</g>
		<g id="XMLID_2125_" class="st12">
			<rect id="XMLID_2126_" x="29.7" y="360" width="1080" height="3"/>
		</g>
		<g id="XMLID_2123_" class="st12">
			<rect id="XMLID_2124_" x="29.7" y="436" width="1080" height="3"/>
		</g>
		<g id="XMLID_2121_" class="st12">
			<rect id="XMLID_2122_" x="83.7" y="134" width="972" height="3"/>
		</g>
		
			<linearGradient id="XMLID_4_" gradientUnits="userSpaceOnUse" x1="2143.781" y1="682.723" x2="2143.781" y2="703.729" gradientTransform="matrix(1 0 0 -1 -1061.4001 796.89)">
			<stop  offset="0" style="stop-color:#000000;stop-opacity:0"/>
			<stop  offset="1" style="stop-color:#000000;stop-opacity:0.6"/>
		</linearGradient>
		<rect id="XMLID_2120_" x="1055.3" y="90.2" class="st13" width="54.1" height="24"/>
		
			<linearGradient id="XMLID_5_" gradientUnits="userSpaceOnUse" x1="1117.8895" y1="682.89" x2="1117.8895" y2="703.896" gradientTransform="matrix(1 0 0 -1 -1061.4001 796.89)">
			<stop  offset="0" style="stop-color:#000000;stop-opacity:0"/>
			<stop  offset="1" style="stop-color:#000000;stop-opacity:0.6"/>
		</linearGradient>
		<rect id="XMLID_2119_" x="29.2" y="90" class="st14" width="54.6" height="24"/>
		
			<linearGradient id="XMLID_6_" gradientUnits="userSpaceOnUse" x1="1073.7635" y1="779.6643" x2="1063.8687" y2="769.5904" gradientTransform="matrix(1 0 0 -1 -1061.4001 796.89)">
			<stop  offset="0" style="stop-color:#000000;stop-opacity:0"/>
			<stop  offset="1" style="stop-color:#000000;stop-opacity:0.35"/>
		</linearGradient>
		<path id="XMLID_585_" class="st15" d="M13.5,12.8c0,0-15.3,4.8-13.5,10.7l15.3-0.3L13.5,12.8z"/>
		
			<linearGradient id="XMLID_7_" gradientUnits="userSpaceOnUse" x1="491.6523" y1="780.351" x2="481.221" y2="769.731" gradientTransform="matrix(-1 0 0 -1 1617.5464 796.89)">
			<stop  offset="0" style="stop-color:#000000;stop-opacity:0"/>
			<stop  offset="1" style="stop-color:#000000;stop-opacity:0.35"/>
		</linearGradient>
		<path id="XMLID_584_" class="st16" d="M1123.7,12.8c0,0,17.5,5,15.1,10.3l-15.3,0.1L1123.7,12.8z"/>
		<line id="XMLID_2116_" class="st17" x1="1107.7" y1="90" x2="1107.7" y2="535"/>
		<line id="XMLID_2115_" class="st18" x1="1054.7" y1="90" x2="1054.7" y2="137"/>
		<line id="XMLID_2114_" class="st17" x1="31.7" y1="90" x2="31.7" y2="535"/>
		<line id="XMLID_2113_" class="st18" x1="84.7" y1="91" x2="84.7" y2="138"/>
	</g>
	<g id="texture" class="st12">
		<line id="XMLID_2112_" class="st19" x1="47.7" y1="189.5" x2="81.7" y2="189.5"/>
		<line id="XMLID_2111_" class="st19" x1="122.7" y1="174.5" x2="174.7" y2="174.5"/>
		<line id="XMLID_2110_" class="st19" x1="268.7" y1="192.5" x2="322.7" y2="192.5"/>
		<line id="XMLID_2109_" class="st19" x1="252.7" y1="165.5" x2="307.7" y2="165.5"/>
		<line id="XMLID_2108_" class="st19" x1="173.7" y1="202.5" x2="227.7" y2="202.5"/>
		<line id="XMLID_2107_" class="st19" x1="65.7" y1="164.5" x2="119.7" y2="164.5"/>
		<line id="XMLID_2106_" class="st19" x1="659.7" y1="163.5" x2="711.7" y2="163.5"/>
		<line id="XMLID_2105_" class="st19" x1="973.7" y1="168.5" x2="1011.7" y2="168.5"/>
		<line id="XMLID_2104_" class="st19" x1="1032.7" y1="201.5" x2="1073.7" y2="201.5"/>
		<line id="XMLID_2103_" class="st19" x1="959.7" y1="190.5" x2="999.7" y2="190.5"/>
		<line id="XMLID_2102_" class="st19" x1="802.7" y1="195.5" x2="841.7" y2="195.5"/>
		<line id="XMLID_2101_" class="st19" x1="775.7" y1="185.5" x2="813.7" y2="185.5"/>
		<line id="XMLID_2100_" class="st19" x1="878.7" y1="199.5" x2="915.7" y2="199.5"/>
		<line id="XMLID_2099_" class="st19" x1="724.7" y1="200.5" x2="765.7" y2="200.5"/>
		<line id="XMLID_2098_" class="st19" x1="679.7" y1="186.5" x2="719.7" y2="186.5"/>
		<line id="XMLID_2097_" class="st19" x1="565.7" y1="189.5" x2="604.7" y2="189.5"/>
		<line id="XMLID_2096_" class="st19" x1="588.7" y1="172.5" x2="630.7" y2="172.5"/>
		<line id="XMLID_2095_" class="st19" x1="921.7" y1="160.5" x2="961.7" y2="160.5"/>
		<line id="XMLID_2094_" class="st19" x1="313.7" y1="173.5" x2="352.7" y2="173.5"/>
		<line id="XMLID_2093_" class="st19" x1="845.7" y1="167.5" x2="884.7" y2="167.5"/>
		<line id="XMLID_2092_" class="st19" x1="782.7" y1="161.5" x2="821.7" y2="161.5"/>
		<line id="XMLID_2091_" class="st19" x1="1047.7" y1="178.5" x2="1090.7" y2="178.5"/>
		<line id="XMLID_2090_" class="st19" x1="1039.7" y1="159.5" x2="1080.7" y2="159.5"/>
		<line id="XMLID_2089_" class="st19" x1="407.7" y1="161.5" x2="445.7" y2="161.5"/>
		<line id="XMLID_2088_" class="st19" x1="370.7" y1="200.5" x2="411.7" y2="200.5"/>
		<line id="XMLID_2087_" class="st19" x1="218.7" y1="182.5" x2="256.7" y2="182.5"/>
		<line id="XMLID_2086_" class="st19" x1="381.7" y1="182.5" x2="420.7" y2="182.5"/>
		<line id="XMLID_2085_" class="st19" x1="165.7" y1="159.5" x2="205.7" y2="159.5"/>
		<line id="XMLID_2084_" class="st19" x1="457.7" y1="194.5" x2="493.7" y2="194.5"/>
		<line id="XMLID_2083_" class="st19" x1="127.7" y1="192.5" x2="163.7" y2="192.5"/>
		<line id="XMLID_2082_" class="st19" x1="520.7" y1="166.5" x2="557.7" y2="166.5"/>
		<line id="XMLID_2081_" class="st19" x1="576.7" y1="199.5" x2="657.7" y2="199.5"/>
		<line id="XMLID_2080_" class="st19" x1="724.7" y1="174.5" x2="779.7" y2="174.5"/>
		<line id="XMLID_2079_" class="st19" x1="481.7" y1="181.5" x2="536.7" y2="181.5"/>
		<line id="XMLID_2078_" class="st19" x1="879.7" y1="179.5" x2="932.7" y2="179.5"/>
		<line id="XMLID_2077_" class="st19" x1="105.7" y1="119.5" x2="134.7" y2="119.5"/>
		<line id="XMLID_2076_" class="st19" x1="171.7" y1="109.5" x2="218.7" y2="109.5"/>
		<line id="XMLID_2075_" class="st19" x1="301.7" y1="120.5" x2="349.7" y2="120.5"/>
		<line id="XMLID_2074_" class="st19" x1="288.7" y1="103.5" x2="333.7" y2="103.5"/>
		<line id="XMLID_2073_" class="st19" x1="215.7" y1="127.5" x2="265.7" y2="127.5"/>
		<line id="XMLID_2072_" class="st19" x1="124.7" y1="102.5" x2="170.7" y2="102.5"/>
		<line id="XMLID_2071_" class="st19" x1="645.7" y1="102.5" x2="692.7" y2="102.5"/>
		<line id="XMLID_2070_" class="st19" x1="923.7" y1="105.5" x2="955.7" y2="105.5"/>
		<line id="XMLID_2069_" class="st19" x1="973.7" y1="126.5" x2="1009.7" y2="126.5"/>
		<line id="XMLID_2068_" class="st19" x1="908.7" y1="119.5" x2="944.7" y2="119.5"/>
		<line id="XMLID_2067_" class="st19" x1="773.7" y1="122.5" x2="808.7" y2="122.5"/>
		<line id="XMLID_2066_" class="st19" x1="747.7" y1="116.5" x2="781.7" y2="116.5"/>
		<line id="XMLID_2065_" class="st19" x1="837.7" y1="125.5" x2="869.7" y2="125.5"/>
		<line id="XMLID_2064_" class="st19" x1="703.7" y1="126.5" x2="737.7" y2="126.5"/>
		<line id="XMLID_2063_" class="st19" x1="666.7" y1="117.5" x2="698.7" y2="117.5"/>
		<line id="XMLID_2062_" class="st19" x1="564.7" y1="119.5" x2="598.7" y2="119.5"/>
		<line id="XMLID_2061_" class="st19" x1="582.7" y1="107.5" x2="618.7" y2="107.5"/>
		<line id="XMLID_2060_" class="st19" x1="875.7" y1="100.5" x2="912.7" y2="100.5"/>
		<line id="XMLID_2059_" class="st19" x1="338.7" y1="108.5" x2="373.7" y2="108.5"/>
		<line id="XMLID_2058_" class="st19" x1="808.7" y1="104.5" x2="842.7" y2="104.5"/>
		<line id="XMLID_2057_" class="st19" x1="751.7" y1="100.5" x2="789.7" y2="100.5"/>
		<line id="XMLID_2056_" class="st19" x1="987.7" y1="111.5" x2="1025.7" y2="111.5"/>
		<line id="XMLID_2055_" class="st19" x1="979.7" y1="99.5" x2="1013.7" y2="99.5"/>
		<line id="XMLID_2054_" class="st19" x1="421.7" y1="100.5" x2="456.7" y2="100.5"/>
		<line id="XMLID_2053_" class="st19" x1="393.7" y1="126.5" x2="427.7" y2="126.5"/>
		<line id="XMLID_2052_" class="st19" x1="259.7" y1="114.5" x2="292.7" y2="114.5"/>
		<line id="XMLID_2051_" class="st19" x1="403.7" y1="114.5" x2="434.7" y2="114.5"/>
		<line id="XMLID_2050_" class="st19" x1="211.7" y1="99.5" x2="242.7" y2="99.5"/>
		<line id="XMLID_2049_" class="st19" x1="464.7" y1="122.5" x2="497.7" y2="122.5"/>
		<line id="XMLID_2048_" class="st19" x1="178.7" y1="120.5" x2="207.7" y2="120.5"/>
		<line id="XMLID_2047_" class="st19" x1="524.7" y1="104.5" x2="552.7" y2="104.5"/>
		<line id="XMLID_2046_" class="st19" x1="572.7" y1="125.5" x2="645.7" y2="125.5"/>
		<line id="XMLID_2045_" class="st19" x1="703.7" y1="109.5" x2="751.7" y2="109.5"/>
		<line id="XMLID_2044_" class="st19" x1="488.7" y1="113.5" x2="537.7" y2="113.5"/>
		<line id="XMLID_2043_" class="st19" x1="837.7" y1="112.5" x2="884.7" y2="112.5"/>
		<line id="XMLID_2042_" class="st19" x1="202.7" y1="12.5" x2="245.7" y2="12.5"/>
		<line id="XMLID_2041_" class="st19" x1="305.7" y1="8.5" x2="347.7" y2="8.5"/>
		<line id="XMLID_2040_" class="st19" x1="158.7" y1="7.5" x2="197.7" y2="7.5"/>
		<line id="XMLID_2039_" class="st19" x1="629.7" y1="7.5" x2="674.7" y2="7.5"/>
		<line id="XMLID_2038_" class="st19" x1="882.7" y1="9.5" x2="912.7" y2="9.5"/>
		<line id="XMLID_2037_" class="st19" x1="869.7" y1="18.5" x2="900.7" y2="18.5"/>
		<line id="XMLID_2036_" class="st19" x1="724.7" y1="16.5" x2="752.7" y2="16.5"/>
		<line id="XMLID_2035_" class="st19" x1="649.7" y1="17.5" x2="677.7" y2="17.5"/>
		<line id="XMLID_2034_" class="st19" x1="555.7" y1="18.5" x2="588.7" y2="18.5"/>
		<line id="XMLID_2033_" class="st19" x1="575.7" y1="10.5" x2="605.7" y2="10.5"/>
		<line id="XMLID_2032_" class="st19" x1="839.7" y1="6.5" x2="872.7" y2="6.5"/>
		<line id="XMLID_2031_" class="st19" x1="354.7" y1="11.5" x2="384.7" y2="11.5"/>
		<line id="XMLID_2030_" class="st19" x1="776.7" y1="8.5" x2="809.7" y2="8.5"/>
		<line id="XMLID_2029_" class="st19" x1="728.7" y1="6.5" x2="760.7" y2="6.5"/>
		<line id="XMLID_2028_" class="st19" x1="940.7" y1="13.5" x2="972.7" y2="13.5"/>
		<line id="XMLID_2027_" class="st19" x1="934.7" y1="5.5" x2="964.7" y2="5.5"/>
		<line id="XMLID_2026_" class="st19" x1="428.7" y1="6.5" x2="459.7" y2="6.5"/>
		<line id="XMLID_2025_" class="st19" x1="278.7" y1="15.5" x2="309.7" y2="15.5"/>
		<line id="XMLID_2024_" class="st19" x1="408.7" y1="15.5" x2="441.7" y2="15.5"/>
		<line id="XMLID_2023_" class="st19" x1="237.7" y1="5.5" x2="267.7" y2="5.5"/>
		<line id="XMLID_2022_" class="st19" x1="517.7" y1="8.5" x2="545.7" y2="8.5"/>
		<line id="XMLID_2021_" class="st19" x1="684.7" y1="12.5" x2="728.7" y2="12.5"/>
		<line id="XMLID_2020_" class="st19" x1="489.7" y1="14.5" x2="532.7" y2="14.5"/>
		<line id="XMLID_2019_" class="st19" x1="803.7" y1="13.5" x2="849.7" y2="13.5"/>
		<line id="XMLID_2018_" class="st19" x1="47.7" y1="263.5" x2="81.7" y2="263.5"/>
		<line id="XMLID_2017_" class="st19" x1="122.7" y1="248.5" x2="174.7" y2="248.5"/>
		<line id="XMLID_2016_" class="st19" x1="268.7" y1="266.5" x2="322.7" y2="266.5"/>
		<line id="XMLID_2015_" class="st19" x1="252.7" y1="239.5" x2="307.7" y2="239.5"/>
		<line id="XMLID_2014_" class="st19" x1="173.7" y1="276.5" x2="227.7" y2="276.5"/>
		<line id="XMLID_2013_" class="st19" x1="65.7" y1="238.5" x2="119.7" y2="238.5"/>
		<line id="XMLID_2012_" class="st19" x1="659.7" y1="237.5" x2="711.7" y2="237.5"/>
		<line id="XMLID_2011_" class="st19" x1="973.7" y1="242.5" x2="1011.7" y2="242.5"/>
		<line id="XMLID_2010_" class="st19" x1="1032.7" y1="275.5" x2="1073.7" y2="275.5"/>
		<line id="XMLID_2009_" class="st19" x1="959.7" y1="264.5" x2="999.7" y2="264.5"/>
		<line id="XMLID_2008_" class="st19" x1="802.7" y1="269.5" x2="841.7" y2="269.5"/>
		<line id="XMLID_2007_" class="st19" x1="775.7" y1="259.5" x2="813.7" y2="259.5"/>
		<line id="XMLID_2006_" class="st19" x1="878.7" y1="273.5" x2="915.7" y2="273.5"/>
		<line id="XMLID_2005_" class="st19" x1="724.7" y1="274.5" x2="765.7" y2="274.5"/>
		<line id="XMLID_2004_" class="st19" x1="679.7" y1="260.5" x2="719.7" y2="260.5"/>
		<line id="XMLID_2003_" class="st19" x1="565.7" y1="263.5" x2="604.7" y2="263.5"/>
		<line id="XMLID_2002_" class="st19" x1="588.7" y1="246.5" x2="630.7" y2="246.5"/>
		<line id="XMLID_2001_" class="st19" x1="921.7" y1="234.5" x2="961.7" y2="234.5"/>
		<line id="XMLID_2000_" class="st19" x1="313.7" y1="247.5" x2="352.7" y2="247.5"/>
		<line id="XMLID_1999_" class="st19" x1="845.7" y1="241.5" x2="884.7" y2="241.5"/>
		<line id="XMLID_1998_" class="st19" x1="782.7" y1="235.5" x2="821.7" y2="235.5"/>
		<line id="XMLID_1997_" class="st19" x1="1047.7" y1="252.5" x2="1090.7" y2="252.5"/>
		<line id="XMLID_1996_" class="st19" x1="1039.7" y1="233.5" x2="1080.7" y2="233.5"/>
		<line id="XMLID_1995_" class="st19" x1="407.7" y1="235.5" x2="445.7" y2="235.5"/>
		<line id="XMLID_1994_" class="st19" x1="370.7" y1="274.5" x2="411.7" y2="274.5"/>
		<line id="XMLID_1993_" class="st19" x1="218.7" y1="256.5" x2="256.7" y2="256.5"/>
		<line id="XMLID_1992_" class="st19" x1="381.7" y1="256.5" x2="420.7" y2="256.5"/>
		<line id="XMLID_1991_" class="st19" x1="165.7" y1="233.5" x2="205.7" y2="233.5"/>
		<line id="XMLID_1990_" class="st19" x1="457.7" y1="268.5" x2="493.7" y2="268.5"/>
		<line id="XMLID_1989_" class="st19" x1="127.7" y1="266.5" x2="163.7" y2="266.5"/>
		<line id="XMLID_1988_" class="st19" x1="520.7" y1="240.5" x2="557.7" y2="240.5"/>
		<line id="XMLID_1987_" class="st19" x1="576.7" y1="273.5" x2="657.7" y2="273.5"/>
		<line id="XMLID_1986_" class="st19" x1="724.7" y1="248.5" x2="779.7" y2="248.5"/>
		<line id="XMLID_1985_" class="st19" x1="481.7" y1="255.5" x2="536.7" y2="255.5"/>
		<line id="XMLID_1984_" class="st19" x1="879.7" y1="253.5" x2="932.7" y2="253.5"/>
		<line id="XMLID_1983_" class="st19" x1="47.7" y1="336.5" x2="81.7" y2="336.5"/>
		<line id="XMLID_1982_" class="st19" x1="122.7" y1="321.5" x2="174.7" y2="321.5"/>
		<line id="XMLID_1981_" class="st19" x1="268.7" y1="339.5" x2="322.7" y2="339.5"/>
		<line id="XMLID_1980_" class="st19" x1="252.7" y1="312.5" x2="307.7" y2="312.5"/>
		<line id="XMLID_1979_" class="st19" x1="173.7" y1="349.5" x2="227.7" y2="349.5"/>
		<line id="XMLID_1978_" class="st19" x1="65.7" y1="311.5" x2="119.7" y2="311.5"/>
		<line id="XMLID_1977_" class="st19" x1="659.7" y1="310.5" x2="711.7" y2="310.5"/>
		<line id="XMLID_1976_" class="st19" x1="973.7" y1="315.5" x2="1011.7" y2="315.5"/>
		<line id="XMLID_1975_" class="st19" x1="1032.7" y1="348.5" x2="1073.7" y2="348.5"/>
		<line id="XMLID_1974_" class="st19" x1="959.7" y1="337.5" x2="999.7" y2="337.5"/>
		<line id="XMLID_1973_" class="st19" x1="802.7" y1="342.5" x2="841.7" y2="342.5"/>
		<line id="XMLID_1972_" class="st19" x1="775.7" y1="332.5" x2="813.7" y2="332.5"/>
		<line id="XMLID_1971_" class="st19" x1="878.7" y1="346.5" x2="915.7" y2="346.5"/>
		<line id="XMLID_1970_" class="st19" x1="724.7" y1="347.5" x2="765.7" y2="347.5"/>
		<line id="XMLID_1969_" class="st19" x1="679.7" y1="333.5" x2="719.7" y2="333.5"/>
		<line id="XMLID_1968_" class="st19" x1="565.7" y1="336.5" x2="604.7" y2="336.5"/>
		<line id="XMLID_1967_" class="st19" x1="588.7" y1="319.5" x2="630.7" y2="319.5"/>
		<line id="XMLID_1966_" class="st19" x1="921.7" y1="307.5" x2="961.7" y2="307.5"/>
		<line id="XMLID_1965_" class="st19" x1="313.7" y1="320.5" x2="352.7" y2="320.5"/>
		<line id="XMLID_1962_" class="st19" x1="845.7" y1="314.5" x2="884.7" y2="314.5"/>
		<line id="XMLID_1961_" class="st19" x1="782.7" y1="308.5" x2="821.7" y2="308.5"/>
		<line id="XMLID_1960_" class="st19" x1="1047.7" y1="325.5" x2="1090.7" y2="325.5"/>
		<line id="XMLID_1959_" class="st19" x1="1039.7" y1="306.5" x2="1080.7" y2="306.5"/>
		<line id="XMLID_1956_" class="st19" x1="407.7" y1="308.5" x2="445.7" y2="308.5"/>
		<line id="XMLID_1955_" class="st19" x1="370.7" y1="347.5" x2="411.7" y2="347.5"/>
		<line id="XMLID_1954_" class="st19" x1="218.7" y1="329.5" x2="256.7" y2="329.5"/>
		<line id="XMLID_1953_" class="st19" x1="381.7" y1="329.5" x2="420.7" y2="329.5"/>
		<line id="XMLID_1952_" class="st19" x1="165.7" y1="306.5" x2="205.7" y2="306.5"/>
		<line id="XMLID_1951_" class="st19" x1="457.7" y1="341.5" x2="493.7" y2="341.5"/>
		<line id="XMLID_1950_" class="st19" x1="127.7" y1="339.5" x2="163.7" y2="339.5"/>
		<line id="XMLID_1949_" class="st19" x1="520.7" y1="313.5" x2="557.7" y2="313.5"/>
		<line id="XMLID_1948_" class="st19" x1="576.7" y1="346.5" x2="657.7" y2="346.5"/>
		<line id="XMLID_1947_" class="st19" x1="724.7" y1="321.5" x2="779.7" y2="321.5"/>
		<line id="XMLID_1946_" class="st19" x1="481.7" y1="328.5" x2="536.7" y2="328.5"/>
		<line id="XMLID_1945_" class="st19" x1="879.7" y1="326.5" x2="932.7" y2="326.5"/>
		<line id="XMLID_1944_" class="st19" x1="47.7" y1="415.5" x2="81.7" y2="415.5"/>
		<line id="XMLID_1943_" class="st19" x1="122.7" y1="400.5" x2="174.7" y2="400.5"/>
		<line id="XMLID_1942_" class="st19" x1="268.7" y1="418.5" x2="322.7" y2="418.5"/>
		<line id="XMLID_1941_" class="st19" x1="252.7" y1="391.5" x2="307.7" y2="391.5"/>
		<line id="XMLID_1940_" class="st19" x1="173.7" y1="428.5" x2="227.7" y2="428.5"/>
		<line id="XMLID_1939_" class="st19" x1="65.7" y1="390.5" x2="119.7" y2="390.5"/>
		<line id="XMLID_1938_" class="st19" x1="659.7" y1="389.5" x2="711.7" y2="389.5"/>
		<line id="XMLID_1937_" class="st19" x1="973.7" y1="394.5" x2="1011.7" y2="394.5"/>
		<line id="XMLID_1936_" class="st19" x1="1032.7" y1="427.5" x2="1073.7" y2="427.5"/>
		<line id="XMLID_1935_" class="st19" x1="959.7" y1="416.5" x2="999.7" y2="416.5"/>
		<line id="XMLID_1934_" class="st19" x1="802.7" y1="421.5" x2="841.7" y2="421.5"/>
		<line id="XMLID_1933_" class="st19" x1="775.7" y1="411.5" x2="813.7" y2="411.5"/>
		<line id="XMLID_1932_" class="st19" x1="878.7" y1="425.5" x2="915.7" y2="425.5"/>
		<line id="XMLID_1931_" class="st19" x1="724.7" y1="426.5" x2="765.7" y2="426.5"/>
		<line id="XMLID_1930_" class="st19" x1="679.7" y1="412.5" x2="719.7" y2="412.5"/>
		<line id="XMLID_1929_" class="st19" x1="565.7" y1="415.5" x2="604.7" y2="415.5"/>
		<line id="XMLID_1928_" class="st19" x1="588.7" y1="398.5" x2="630.7" y2="398.5"/>
		<line id="XMLID_1927_" class="st19" x1="921.7" y1="386.5" x2="961.7" y2="386.5"/>
		<line id="XMLID_1926_" class="st19" x1="313.7" y1="399.5" x2="352.7" y2="399.5"/>
		<line id="XMLID_1925_" class="st19" x1="845.7" y1="393.5" x2="884.7" y2="393.5"/>
		<line id="XMLID_1924_" class="st19" x1="782.7" y1="387.5" x2="821.7" y2="387.5"/>
		<line id="XMLID_1923_" class="st19" x1="1047.7" y1="404.5" x2="1090.7" y2="404.5"/>
		<line id="XMLID_1922_" class="st19" x1="1039.7" y1="385.5" x2="1080.7" y2="385.5"/>
		<line id="XMLID_1921_" class="st19" x1="407.7" y1="387.5" x2="445.7" y2="387.5"/>
		<line id="XMLID_1920_" class="st19" x1="370.7" y1="426.5" x2="411.7" y2="426.5"/>
		<line id="XMLID_1919_" class="st19" x1="218.7" y1="408.5" x2="256.7" y2="408.5"/>
		<line id="XMLID_1918_" class="st19" x1="381.7" y1="408.5" x2="420.7" y2="408.5"/>
		<line id="XMLID_1917_" class="st19" x1="165.7" y1="385.5" x2="205.7" y2="385.5"/>
		<line id="XMLID_1916_" class="st19" x1="457.7" y1="420.5" x2="493.7" y2="420.5"/>
		<line id="XMLID_1915_" class="st19" x1="127.7" y1="418.5" x2="163.7" y2="418.5"/>
		<line id="XMLID_1914_" class="st19" x1="520.7" y1="392.5" x2="557.7" y2="392.5"/>
		<line id="XMLID_1913_" class="st19" x1="576.7" y1="425.5" x2="657.7" y2="425.5"/>
		<line id="XMLID_1912_" class="st19" x1="724.7" y1="400.5" x2="779.7" y2="400.5"/>
		<line id="XMLID_1911_" class="st19" x1="481.7" y1="407.5" x2="536.7" y2="407.5"/>
		<line id="XMLID_1910_" class="st19" x1="879.7" y1="405.5" x2="932.7" y2="405.5"/>
		<line id="XMLID_1909_" class="st19" x1="59.7" y1="497.5" x2="90.7" y2="497.5"/>
		<line id="XMLID_1908_" class="st19" x1="122.7" y1="482.5" x2="174.7" y2="482.5"/>
		<line id="XMLID_1907_" class="st19" x1="274.7" y1="500.5" x2="327.7" y2="500.5"/>
		<line id="XMLID_1906_" class="st19" x1="252.7" y1="473.5" x2="307.7" y2="473.5"/>
		<line id="XMLID_1905_" class="st19" x1="181.7" y1="510.5" x2="234.7" y2="510.5"/>
		<line id="XMLID_1904_" class="st19" x1="65.7" y1="472.5" x2="119.7" y2="472.5"/>
		<line id="XMLID_1903_" class="st19" x1="659.7" y1="471.5" x2="711.7" y2="471.5"/>
		<line id="XMLID_1902_" class="st19" x1="973.7" y1="476.5" x2="1011.7" y2="476.5"/>
		<line id="XMLID_1901_" class="st19" x1="1022.7" y1="509.5" x2="1062.7" y2="509.5"/>
		<line id="XMLID_1900_" class="st19" x1="950.7" y1="498.5" x2="990.7" y2="498.5"/>
		<line id="XMLID_1899_" class="st19" x1="798.7" y1="503.5" x2="836.7" y2="503.5"/>
		<line id="XMLID_1898_" class="st19" x1="775.7" y1="493.5" x2="813.7" y2="493.5"/>
		<line id="XMLID_1897_" class="st19" x1="870.7" y1="507.5" x2="910.7" y2="507.5"/>
		<line id="XMLID_1896_" class="st19" x1="722.7" y1="508.5" x2="761.7" y2="508.5"/>
		<line id="XMLID_1895_" class="st19" x1="677.7" y1="494.5" x2="715.7" y2="494.5"/>
		<line id="XMLID_1894_" class="st19" x1="565.7" y1="497.5" x2="604.7" y2="497.5"/>
		<line id="XMLID_1893_" class="st19" x1="588.7" y1="480.5" x2="630.7" y2="480.5"/>
		<line id="XMLID_1892_" class="st19" x1="921.7" y1="468.5" x2="961.7" y2="468.5"/>
		<line id="XMLID_1891_" class="st19" x1="313.7" y1="481.5" x2="352.7" y2="481.5"/>
		<line id="XMLID_1890_" class="st19" x1="845.7" y1="475.5" x2="884.7" y2="475.5"/>
		<line id="XMLID_1889_" class="st19" x1="782.7" y1="469.5" x2="821.7" y2="469.5"/>
		<line id="XMLID_1888_" class="st19" x1="1047.7" y1="486.5" x2="1090.7" y2="486.5"/>
		<line id="XMLID_1887_" class="st19" x1="1039.7" y1="467.5" x2="1080.7" y2="467.5"/>
		<line id="XMLID_1886_" class="st19" x1="407.7" y1="469.5" x2="445.7" y2="469.5"/>
		<line id="XMLID_1885_" class="st19" x1="376.7" y1="508.5" x2="413.7" y2="508.5"/>
		<line id="XMLID_1884_" class="st19" x1="218.7" y1="490.5" x2="256.7" y2="490.5"/>
		<line id="XMLID_1883_" class="st19" x1="381.7" y1="490.5" x2="420.7" y2="490.5"/>
		<line id="XMLID_1882_" class="st19" x1="165.7" y1="467.5" x2="205.7" y2="467.5"/>
		<line id="XMLID_1881_" class="st19" x1="459.7" y1="502.5" x2="496.7" y2="502.5"/>
		<line id="XMLID_1880_" class="st19" x1="136.7" y1="500.5" x2="173.7" y2="500.5"/>
		<line id="XMLID_1879_" class="st19" x1="520.7" y1="474.5" x2="557.7" y2="474.5"/>
		<line id="XMLID_1878_" class="st19" x1="576.7" y1="507.5" x2="653.7" y2="507.5"/>
		<line id="XMLID_1877_" class="st19" x1="724.7" y1="482.5" x2="779.7" y2="482.5"/>
		<line id="XMLID_1876_" class="st19" x1="481.7" y1="489.5" x2="536.7" y2="489.5"/>
		<line id="XMLID_1667_" class="st19" x1="879.7" y1="487.5" x2="932.7" y2="487.5"/>
	</g>
</g>
<g id="Layer_1_1_">
</g>
</svg>
