<?xml version="1.0" encoding="utf-8"?>
<!-- Generator: Adobe Illustrator 21.1.0, SVG Export Plug-In . SVG Version: 6.00 Build 0)  -->
<svg version="1.1" id="Layer_1" xmlns="http://www.w3.org/2000/svg" xmlns:xlink="http://www.w3.org/1999/xlink" x="0px" y="0px"
	 viewBox="0 0 1741.7 535" style="enable-background:new 0 0 1741.7 535;" xml:space="preserve">
<style type="text/css">
	.st0{fill:#FFFFFF;fill-opacity:0;}
	.st1{fill:#DEB074;}
	.st2{fill:#DBDBDA;}
	.st3{opacity:0.45;}
	.st4{opacity:0.1;}
	.st5{fill:#FFFFFF;}
	.st6{opacity:0.15;}
	.st7{fill:none;}
	.st8{fill:url(#XMLID_2_);}
	.st9{opacity:0.6;}
	.st10{fill:none;stroke:#B2B2B2;stroke-width:4.4866;stroke-miterlimit:10;}
	.st11{fill:url(#XMLID_3_);}
	.st12{opacity:0.12;}
	.st13{fill:url(#XMLID_4_);}
	.st14{fill:url(#XMLID_5_);}
	.st15{fill:url(#XMLID_6_);}
	.st16{fill:url(#XMLID_7_);}
	.st17{opacity:0.2;fill:none;stroke:#000000;stroke-width:4;stroke-miterlimit:10;enable-background:new    ;}
	.st18{opacity:0.2;fill:none;stroke:#000000;stroke-width:2;stroke-miterlimit:10;enable-background:new    ;}
	.st19{fill:none;stroke:#000000;stroke-miterlimit:10;}
</style>
<g id="seat-3">
	<rect id="bounds_9_" x="0.1" y="0" class="st0" width="1740" height="535"/>
	<g id="style1">
		<g id="XMLID_2223_">
			<rect id="XMLID_2224_" x="30.1" y="453" class="st1" width="1682" height="82"/>
		</g>
		<g id="XMLID_2221_">
			<rect id="XMLID_2222_" x="30.1" y="151" class="st1" width="1682" height="61"/>
		</g>
		<g id="XMLID_2219_">
			<rect id="XMLID_2220_" x="30.1" y="227" class="st1" width="1682" height="61"/>
		</g>
		<g id="XMLID_2217_">
			<rect id="XMLID_2218_" x="30.1" y="302" class="st1" width="1682" height="61"/>
		</g>
		<g id="XMLID_2215_">
			<rect id="XMLID_2216_" x="30.1" y="378" class="st1" width="1682" height="61"/>
		</g>
		<g id="XMLID_280_">
			<polygon id="XMLID_694_" class="st1" points="83.4,137 1659.1,137 1659.1,91.3 1685.1,23.6 1685.1,0 57.1,0 57.1,23.6 82.9,91 
							"/>
		</g>
	</g>
	<g id="style2">
		<g id="XMLID_284_">
			<path id="XMLID_693_" class="st2" d="M1712.4,90.5l29.2-67.1c0,0,1.8-2.6-4.8-6.6c-7.5-4.5-52.7-16.8-52.7-16.8v23.6l-26,66.9
				V137h-45v14h47.6h51.4"/>
		</g>
		<g id="XMLID_282_">
			<path id="XMLID_692_" class="st2" d="M30.1,151h53.2h47.8v-14h-46V90.5l-26-66.9V0c0,0-44.4,11.6-51.9,16.8
				c-7.5,5.2-5.1,6.8-5.1,6.8l28,66.9"/>
		</g>
		<g id="style2_5_">
			<rect id="XMLID_80_" x="848" y="138" class="st2" width="46.4" height="14"/>
			<rect id="XMLID_144_" x="848" y="213" class="st2" width="46.4" height="15"/>
			<rect id="XMLID_145_" x="848" y="289" class="st2" width="46.4" height="15"/>
			<rect id="XMLID_269_" x="848" y="364" class="st2" width="46.4" height="15"/>
			<rect id="XMLID_272_" x="848" y="439" class="st2" width="46.4" height="15"/>
		</g>
	</g>
	<g id="accent_7_">
		<g id="XMLID_2209_" class="st3">
			<polygon id="XMLID_691_" points="1684.2,23.6 1658.1,90.5 84.9,91 58.2,23.6 			"/>
		</g>
		<g id="XMLID_2207_" class="st4">
			<polygon id="XMLID_2208_" class="st5" points="1679.5,33.8 1678.5,36.2 63.3,36.3 61.9,33.9 			"/>
		</g>
		<g id="XMLID_2205_" class="st4">
			<polygon id="XMLID_2206_" class="st5" points="1674.4,47.8 1673.4,50.2 69,50.3 67.7,47.9 			"/>
		</g>
		<g id="XMLID_2203_" class="st4">
			<polygon id="XMLID_2204_" class="st5" points="1668.6,62.5 1667.7,64.9 74.8,64.9 73.5,62.5 			"/>
		</g>
		<g id="XMLID_2201_" class="st4">
			<polygon id="XMLID_2202_" class="st5" points="1663.5,76.5 1662.6,78.9 80.2,78.9 79,76.5 			"/>
		</g>
		<g id="XMLID_2199_" class="st6">
			<line id="XMLID_690_" class="st7" x1="84.6" y1="90.5" x2="48.5" y2="16.6"/>
		</g>
		<g id="XMLID_2197_">
			
				<linearGradient id="XMLID_2_" gradientUnits="userSpaceOnUse" x1="3276.5059" y1="652.89" x2="3322.1409" y2="652.89" gradientTransform="matrix(1 0 0 -1 -1663.9305 796.89)">
				<stop  offset="0" style="stop-color:#000000;stop-opacity:0.45"/>
				<stop  offset="1" style="stop-color:#000000;stop-opacity:0.6"/>
			</linearGradient>
			<rect id="XMLID_2198_" x="1612.6" y="137" class="st8" width="45.6" height="14"/>
		</g>
		<g id="XMLID_2195_" class="st9">
			<polygon id="XMLID_689_" points="1684.2,23.8 1741.6,23.4 1712.4,90.2 1658.2,90.2 			"/>
		</g>
		<g id="XMLID_2193_">
			<path id="XMLID_2194_" class="st10" d="M27.9,531.2"/>
		</g>
		<g id="XMLID_2191_" class="st9">
			<polygon id="XMLID_688_" points="58.2,23.6 1.1,23.4 29.4,90.1 84.6,90.1 			"/>
		</g>
		<g id="XMLID_2189_">
			
				<linearGradient id="XMLID_3_" gradientUnits="userSpaceOnUse" x1="1748.2458" y1="652.89" x2="1793.8809" y2="652.89" gradientTransform="matrix(1 0 0 -1 -1663.9305 796.89)">
				<stop  offset="0" style="stop-color:#000000;stop-opacity:0.6"/>
				<stop  offset="1" style="stop-color:#000000;stop-opacity:0.45"/>
			</linearGradient>
			<rect id="XMLID_2190_" x="84.3" y="137" class="st11" width="45.6" height="14"/>
		</g>
		<g id="XMLID_2187_" class="st12">
			<rect id="XMLID_2188_" x="30.1" y="529" width="1682" height="6"/>
		</g>
		<g id="XMLID_2185_" class="st12">
			<rect id="XMLID_2186_" x="30.1" y="209" width="1682" height="3"/>
		</g>
		<g id="XMLID_2183_" class="st12">
			<rect id="XMLID_2184_" x="30.1" y="285" width="1682" height="3"/>
		</g>
		<g id="XMLID_2181_" class="st12">
			<rect id="XMLID_2182_" x="30.1" y="360" width="1682" height="3"/>
		</g>
		<g id="XMLID_2179_" class="st12">
			<rect id="XMLID_2180_" x="30.1" y="436" width="1682" height="3"/>
		</g>
		<g id="XMLID_2177_" class="st12">
			<rect id="XMLID_2178_" x="84.1" y="134" width="1574" height="3"/>
		</g>
		
			<linearGradient id="XMLID_4_" gradientUnits="userSpaceOnUse" x1="3349.0779" y1="682.723" x2="3349.0779" y2="703.729" gradientTransform="matrix(1 0 0 -1 -1663.9305 796.89)">
			<stop  offset="0" style="stop-color:#000000;stop-opacity:0"/>
			<stop  offset="1" style="stop-color:#000000;stop-opacity:0.6"/>
		</linearGradient>
		<rect id="XMLID_2176_" x="1658.1" y="90.2" class="st13" width="54.1" height="24"/>
		
			<linearGradient id="XMLID_5_" gradientUnits="userSpaceOnUse" x1="1721.1864" y1="682.89" x2="1721.1864" y2="703.896" gradientTransform="matrix(1 0 0 -1 -1663.9305 796.89)">
			<stop  offset="0" style="stop-color:#000000;stop-opacity:0"/>
			<stop  offset="1" style="stop-color:#000000;stop-opacity:0.6"/>
		</linearGradient>
		<rect id="XMLID_2175_" x="29.9" y="90" class="st14" width="54.6" height="24"/>
		
			<linearGradient id="XMLID_6_" gradientUnits="userSpaceOnUse" x1="1677.0607" y1="779.6645" x2="1667.1658" y2="769.5906" gradientTransform="matrix(1 0 0 -1 -1663.9305 796.89)">
			<stop  offset="0" style="stop-color:#000000;stop-opacity:0"/>
			<stop  offset="1" style="stop-color:#000000;stop-opacity:0.35"/>
		</linearGradient>
		<path id="XMLID_663_" class="st15" d="M14.3,12.8c0,0-15.3,4.8-13.5,10.7l15.3-0.3L14.3,12.8z"/>
		
			<linearGradient id="XMLID_7_" gradientUnits="userSpaceOnUse" x1="490.3552" y1="780.351" x2="479.9239" y2="769.7308" gradientTransform="matrix(-1 0 0 -1 2219.0159 796.89)">
			<stop  offset="0" style="stop-color:#000000;stop-opacity:0"/>
			<stop  offset="1" style="stop-color:#000000;stop-opacity:0.35"/>
		</linearGradient>
		<path id="XMLID_593_" class="st16" d="M1726.5,12.8c0,0,17.5,5,15.1,10.3l-15.3,0.1L1726.5,12.8z"/>
		<line id="XMLID_2172_" class="st17" x1="1710.1" y1="90" x2="1710.1" y2="535"/>
		<line id="XMLID_2171_" class="st18" x1="1657.1" y1="90" x2="1657.1" y2="137"/>
		<line id="XMLID_1421_" class="st17" x1="32.1" y1="90" x2="32.1" y2="535"/>
		<line id="XMLID_1420_" class="st18" x1="85.1" y1="91" x2="85.1" y2="138"/>
	</g>
	<g id="texture" class="st12">
		<line id="XMLID_1361_" class="st19" x1="58.1" y1="189.5" x2="111.1" y2="189.5"/>
		<line id="XMLID_1360_" class="st19" x1="175.1" y1="174.5" x2="256.1" y2="174.5"/>
		<line id="XMLID_1359_" class="st19" x1="402.1" y1="192.5" x2="486.1" y2="192.5"/>
		<line id="XMLID_1358_" class="st19" x1="377.1" y1="165.5" x2="463.1" y2="165.5"/>
		<line id="XMLID_1357_" class="st19" x1="254.1" y1="202.5" x2="338.1" y2="202.5"/>
		<line id="XMLID_1356_" class="st19" x1="86.1" y1="164.5" x2="170.1" y2="164.5"/>
		<line id="XMLID_1355_" class="st19" x1="1010.1" y1="163.5" x2="1091.1" y2="163.5"/>
		<line id="XMLID_1354_" class="st19" x1="1500.1" y1="168.5" x2="1559.1" y2="168.5"/>
		<line id="XMLID_1353_" class="st19" x1="1592.1" y1="201.5" x2="1656.1" y2="201.5"/>
		<line id="XMLID_1352_" class="st19" x1="1478.1" y1="190.5" x2="1540.1" y2="190.5"/>
		<line id="XMLID_1351_" class="st19" x1="1233.1" y1="195.5" x2="1294.1" y2="195.5"/>
		<line id="XMLID_1350_" class="st19" x1="1191.1" y1="185.5" x2="1250.1" y2="185.5"/>
		<line id="XMLID_1349_" class="st19" x1="1352.1" y1="199.5" x2="1409.1" y2="199.5"/>
		<line id="XMLID_1348_" class="st19" x1="1112.1" y1="200.5" x2="1176.1" y2="200.5"/>
		<line id="XMLID_1347_" class="st19" x1="1042.1" y1="186.5" x2="1104.1" y2="186.5"/>
		<line id="XMLID_1346_" class="st19" x1="864.1" y1="189.5" x2="925.1" y2="189.5"/>
		<line id="XMLID_1345_" class="st19" x1="900.1" y1="172.5" x2="965.1" y2="172.5"/>
		<line id="XMLID_1344_" class="st19" x1="1419.1" y1="160.5" x2="1481.1" y2="160.5"/>
		<line id="XMLID_1343_" class="st19" x1="472.1" y1="173.5" x2="533.1" y2="173.5"/>
		<line id="XMLID_1342_" class="st19" x1="1300.1" y1="167.5" x2="1361.1" y2="167.5"/>
		<line id="XMLID_1341_" class="st19" x1="1202.1" y1="161.5" x2="1263.1" y2="161.5"/>
		<line id="XMLID_1340_" class="st19" x1="1615.1" y1="178.5" x2="1682.1" y2="178.5"/>
		<line id="XMLID_1339_" class="st19" x1="1603.1" y1="159.5" x2="1666.1" y2="159.5"/>
		<line id="XMLID_1338_" class="st19" x1="619.1" y1="161.5" x2="678.1" y2="161.5"/>
		<line id="XMLID_1337_" class="st19" x1="561.1" y1="200.5" x2="625.1" y2="200.5"/>
		<line id="XMLID_1336_" class="st19" x1="324.1" y1="182.5" x2="383.1" y2="182.5"/>
		<line id="XMLID_1335_" class="st19" x1="578.1" y1="182.5" x2="639.1" y2="182.5"/>
		<line id="XMLID_1334_" class="st19" x1="242.1" y1="159.5" x2="304.1" y2="159.5"/>
		<line id="XMLID_1333_" class="st19" x1="697.1" y1="194.5" x2="753.1" y2="194.5"/>
		<line id="XMLID_1332_" class="st19" x1="182.1" y1="192.5" x2="239.1" y2="192.5"/>
		<line id="XMLID_1331_" class="st19" x1="794.1" y1="166.5" x2="852.1" y2="166.5"/>
		<line id="XMLID_1330_" class="st19" x1="881.1" y1="199.5" x2="1007.1" y2="199.5"/>
		<line id="XMLID_1329_" class="st19" x1="1112.1" y1="174.5" x2="1197.1" y2="174.5"/>
		<line id="XMLID_1328_" class="st19" x1="734.1" y1="181.5" x2="819.1" y2="181.5"/>
		<line id="XMLID_1327_" class="st19" x1="1353.1" y1="179.5" x2="1436.1" y2="179.5"/>
		<line id="XMLID_1326_" class="st19" x1="148.1" y1="119.5" x2="193.1" y2="119.5"/>
		<line id="XMLID_1325_" class="st19" x1="251.1" y1="109.5" x2="324.1" y2="109.5"/>
		<line id="XMLID_1324_" class="st19" x1="454.1" y1="120.5" x2="528.1" y2="120.5"/>
		<line id="XMLID_1323_" class="st19" x1="433.1" y1="103.5" x2="503.1" y2="103.5"/>
		<line id="XMLID_1322_" class="st19" x1="320.1" y1="127.5" x2="398.1" y2="127.5"/>
		<line id="XMLID_1321_" class="st19" x1="178.1" y1="102.5" x2="249.1" y2="102.5"/>
		<line id="XMLID_1320_" class="st19" x1="989.1" y1="102.5" x2="1062.1" y2="102.5"/>
		<line id="XMLID_1319_" class="st19" x1="1422.1" y1="105.5" x2="1472.1" y2="105.5"/>
		<line id="XMLID_1318_" class="st19" x1="1500.1" y1="126.5" x2="1556.1" y2="126.5"/>
		<line id="XMLID_1317_" class="st19" x1="1398.1" y1="119.5" x2="1455.1" y2="119.5"/>
		<line id="XMLID_1316_" class="st19" x1="1188.1" y1="122.5" x2="1243.1" y2="122.5"/>
		<line id="XMLID_1315_" class="st19" x1="1148.1" y1="116.5" x2="1201.1" y2="116.5"/>
		<line id="XMLID_1314_" class="st19" x1="1288.1" y1="125.5" x2="1338.1" y2="125.5"/>
		<line id="XMLID_1313_" class="st19" x1="1079.1" y1="126.5" x2="1132.1" y2="126.5"/>
		<line id="XMLID_1312_" class="st19" x1="1021.1" y1="117.5" x2="1071.1" y2="117.5"/>
		<line id="XMLID_1311_" class="st19" x1="862.1" y1="119.5" x2="915.1" y2="119.5"/>
		<line id="XMLID_1310_" class="st19" x1="890.1" y1="107.5" x2="947.1" y2="107.5"/>
		<line id="XMLID_1309_" class="st19" x1="1347.1" y1="100.5" x2="1405.1" y2="100.5"/>
		<line id="XMLID_1308_" class="st19" x1="511.1" y1="108.5" x2="566.1" y2="108.5"/>
		<line id="XMLID_1307_" class="st19" x1="1243.1" y1="104.5" x2="1296.1" y2="104.5"/>
		<line id="XMLID_1306_" class="st19" x1="1154.1" y1="100.5" x2="1213.1" y2="100.5"/>
		<line id="XMLID_1305_" class="st19" x1="1522.1" y1="111.5" x2="1581.1" y2="111.5"/>
		<line id="XMLID_1304_" class="st19" x1="1509.1" y1="99.5" x2="1562.1" y2="99.5"/>
		<line id="XMLID_1303_" class="st19" x1="641.1" y1="100.5" x2="695.1" y2="100.5"/>
		<line id="XMLID_1302_" class="st19" x1="597.1" y1="126.5" x2="650.1" y2="126.5"/>
		<line id="XMLID_1301_" class="st19" x1="388.1" y1="114.5" x2="440.1" y2="114.5"/>
		<line id="XMLID_1300_" class="st19" x1="613.1" y1="114.5" x2="661.1" y2="114.5"/>
		<line id="XMLID_1299_" class="st19" x1="313.1" y1="99.5" x2="362.1" y2="99.5"/>
		<line id="XMLID_1298_" class="st19" x1="708.1" y1="122.5" x2="759.1" y2="122.5"/>
		<line id="XMLID_1297_" class="st19" x1="262.1" y1="120.5" x2="307.1" y2="120.5"/>
		<line id="XMLID_1296_" class="st19" x1="800.1" y1="104.5" x2="844.1" y2="104.5"/>
		<line id="XMLID_1295_" class="st19" x1="875.1" y1="125.5" x2="989.1" y2="125.5"/>
		<line id="XMLID_1294_" class="st19" x1="1079.1" y1="109.5" x2="1154.1" y2="109.5"/>
		<line id="XMLID_1293_" class="st19" x1="745.1" y1="113.5" x2="820.1" y2="113.5"/>
		<line id="XMLID_1292_" class="st19" x1="1288.1" y1="112.5" x2="1361.1" y2="112.5"/>
		<line id="XMLID_1291_" class="st19" x1="162.1" y1="12.5" x2="245.1" y2="12.5"/>
		<line id="XMLID_1290_" class="st19" x1="362.1" y1="8.5" x2="442.1" y2="8.5"/>
		<line id="XMLID_1289_" class="st19" x1="77.1" y1="7.5" x2="153.1" y2="7.5"/>
		<line id="XMLID_1288_" class="st19" x1="988.1" y1="7.5" x2="1075.1" y2="7.5"/>
		<line id="XMLID_1287_" class="st19" x1="1478.1" y1="9.5" x2="1536.1" y2="9.5"/>
		<line id="XMLID_1286_" class="st19" x1="1453.1" y1="18.5" x2="1513.1" y2="18.5"/>
		<line id="XMLID_1285_" class="st19" x1="1172.1" y1="16.5" x2="1226.1" y2="16.5"/>
		<line id="XMLID_1284_" class="st19" x1="1027.1" y1="17.5" x2="1080.1" y2="17.5"/>
		<line id="XMLID_1283_" class="st19" x1="844.1" y1="18.5" x2="909.1" y2="18.5"/>
		<line id="XMLID_1282_" class="st19" x1="884.1" y1="10.5" x2="941.1" y2="10.5"/>
		<line id="XMLID_1281_" class="st19" x1="1395.1" y1="6.5" x2="1458.1" y2="6.5"/>
		<line id="XMLID_1280_" class="st19" x1="456.1" y1="11.5" x2="515.1" y2="11.5"/>
		<line id="XMLID_1279_" class="st19" x1="1273.1" y1="8.5" x2="1336.1" y2="8.5"/>
		<line id="XMLID_1278_" class="st19" x1="1180.1" y1="6.5" x2="1242.1" y2="6.5"/>
		<line id="XMLID_1277_" class="st19" x1="1590.1" y1="13.5" x2="1652.1" y2="13.5"/>
		<line id="XMLID_1276_" class="st19" x1="1579.1" y1="5.5" x2="1637.1" y2="5.5"/>
		<line id="XMLID_1275_" class="st19" x1="599.1" y1="6.5" x2="660.1" y2="6.5"/>
		<line id="XMLID_1274_" class="st19" x1="309.1" y1="15.5" x2="369.1" y2="15.5"/>
		<line id="XMLID_1273_" class="st19" x1="561.1" y1="15.5" x2="625.1" y2="15.5"/>
		<line id="XMLID_1272_" class="st19" x1="230.1" y1="5.5" x2="288.1" y2="5.5"/>
		<line id="XMLID_1271_" class="st19" x1="771.1" y1="8.5" x2="825.1" y2="8.5"/>
		<line id="XMLID_1270_" class="st19" x1="1094.1" y1="12.5" x2="1180.1" y2="12.5"/>
		<line id="XMLID_1269_" class="st19" x1="718.1" y1="14.5" x2="800.1" y2="14.5"/>
		<line id="XMLID_1268_" class="st19" x1="1325.1" y1="13.5" x2="1413.1" y2="13.5"/>
		<line id="XMLID_1267_" class="st19" x1="58.1" y1="263.5" x2="111.1" y2="263.5"/>
		<line id="XMLID_1266_" class="st19" x1="175.1" y1="248.5" x2="256.1" y2="248.5"/>
		<line id="XMLID_1265_" class="st19" x1="402.1" y1="266.5" x2="486.1" y2="266.5"/>
		<line id="XMLID_1264_" class="st19" x1="377.1" y1="239.5" x2="463.1" y2="239.5"/>
		<line id="XMLID_1263_" class="st19" x1="254.1" y1="276.5" x2="338.1" y2="276.5"/>
		<line id="XMLID_1262_" class="st19" x1="86.1" y1="238.5" x2="170.1" y2="238.5"/>
		<line id="XMLID_1261_" class="st19" x1="1010.1" y1="237.5" x2="1091.1" y2="237.5"/>
		<line id="XMLID_1260_" class="st19" x1="1500.1" y1="242.5" x2="1559.1" y2="242.5"/>
		<line id="XMLID_1259_" class="st19" x1="1592.1" y1="275.5" x2="1656.1" y2="275.5"/>
		<line id="XMLID_1258_" class="st19" x1="1478.1" y1="264.5" x2="1540.1" y2="264.5"/>
		<line id="XMLID_1257_" class="st19" x1="1233.1" y1="269.5" x2="1294.1" y2="269.5"/>
		<line id="XMLID_1256_" class="st19" x1="1191.1" y1="259.5" x2="1250.1" y2="259.5"/>
		<line id="XMLID_1255_" class="st19" x1="1352.1" y1="273.5" x2="1409.1" y2="273.5"/>
		<line id="XMLID_1254_" class="st19" x1="1112.1" y1="274.5" x2="1176.1" y2="274.5"/>
		<line id="XMLID_1253_" class="st19" x1="1042.1" y1="260.5" x2="1104.1" y2="260.5"/>
		<line id="XMLID_1252_" class="st19" x1="864.1" y1="263.5" x2="925.1" y2="263.5"/>
		<line id="XMLID_1251_" class="st19" x1="900.1" y1="246.5" x2="965.1" y2="246.5"/>
		<line id="XMLID_1250_" class="st19" x1="1419.1" y1="234.5" x2="1481.1" y2="234.5"/>
		<line id="XMLID_1249_" class="st19" x1="472.1" y1="247.5" x2="533.1" y2="247.5"/>
		<line id="XMLID_1248_" class="st19" x1="1300.1" y1="241.5" x2="1361.1" y2="241.5"/>
		<line id="XMLID_1247_" class="st19" x1="1202.1" y1="235.5" x2="1263.1" y2="235.5"/>
		<line id="XMLID_1246_" class="st19" x1="1615.1" y1="252.5" x2="1682.1" y2="252.5"/>
		<line id="XMLID_1245_" class="st19" x1="1603.1" y1="233.5" x2="1666.1" y2="233.5"/>
		<line id="XMLID_1244_" class="st19" x1="619.1" y1="235.5" x2="678.1" y2="235.5"/>
		<line id="XMLID_1243_" class="st19" x1="561.1" y1="274.5" x2="625.1" y2="274.5"/>
		<line id="XMLID_1242_" class="st19" x1="324.1" y1="256.5" x2="383.1" y2="256.5"/>
		<line id="XMLID_1241_" class="st19" x1="578.1" y1="256.5" x2="639.1" y2="256.5"/>
		<line id="XMLID_1240_" class="st19" x1="242.1" y1="233.5" x2="304.1" y2="233.5"/>
		<line id="XMLID_1239_" class="st19" x1="697.1" y1="268.5" x2="753.1" y2="268.5"/>
		<line id="XMLID_1238_" class="st19" x1="182.1" y1="266.5" x2="239.1" y2="266.5"/>
		<line id="XMLID_1237_" class="st19" x1="794.1" y1="240.5" x2="852.1" y2="240.5"/>
		<line id="XMLID_1236_" class="st19" x1="881.1" y1="273.5" x2="1007.1" y2="273.5"/>
		<line id="XMLID_1235_" class="st19" x1="1112.1" y1="248.5" x2="1197.1" y2="248.5"/>
		<line id="XMLID_1234_" class="st19" x1="734.1" y1="255.5" x2="819.1" y2="255.5"/>
		<line id="XMLID_1233_" class="st19" x1="1353.1" y1="253.5" x2="1436.1" y2="253.5"/>
		<line id="XMLID_1232_" class="st19" x1="58.1" y1="336.5" x2="111.1" y2="336.5"/>
		<line id="XMLID_1231_" class="st19" x1="175.1" y1="321.5" x2="256.1" y2="321.5"/>
		<line id="XMLID_1230_" class="st19" x1="402.1" y1="339.5" x2="486.1" y2="339.5"/>
		<line id="XMLID_1229_" class="st19" x1="377.1" y1="312.5" x2="463.1" y2="312.5"/>
		<line id="XMLID_1228_" class="st19" x1="254.1" y1="349.5" x2="338.1" y2="349.5"/>
		<line id="XMLID_1227_" class="st19" x1="86.1" y1="311.5" x2="170.1" y2="311.5"/>
		<line id="XMLID_1226_" class="st19" x1="1010.1" y1="310.5" x2="1091.1" y2="310.5"/>
		<line id="XMLID_1225_" class="st19" x1="1500.1" y1="315.5" x2="1559.1" y2="315.5"/>
		<line id="XMLID_1224_" class="st19" x1="1592.1" y1="348.5" x2="1656.1" y2="348.5"/>
		<line id="XMLID_1223_" class="st19" x1="1478.1" y1="337.5" x2="1540.1" y2="337.5"/>
		<line id="XMLID_1222_" class="st19" x1="1233.1" y1="342.5" x2="1294.1" y2="342.5"/>
		<line id="XMLID_1221_" class="st19" x1="1191.1" y1="332.5" x2="1250.1" y2="332.5"/>
		<line id="XMLID_1220_" class="st19" x1="1352.1" y1="346.5" x2="1409.1" y2="346.5"/>
		<line id="XMLID_1219_" class="st19" x1="1112.1" y1="347.5" x2="1176.1" y2="347.5"/>
		<line id="XMLID_1218_" class="st19" x1="1042.1" y1="333.5" x2="1104.1" y2="333.5"/>
		<line id="XMLID_1217_" class="st19" x1="864.1" y1="336.5" x2="925.1" y2="336.5"/>
		<line id="XMLID_1216_" class="st19" x1="900.1" y1="319.5" x2="965.1" y2="319.5"/>
		<line id="XMLID_1215_" class="st19" x1="1419.1" y1="307.5" x2="1481.1" y2="307.5"/>
		<line id="XMLID_1214_" class="st19" x1="472.1" y1="320.5" x2="533.1" y2="320.5"/>
		<line id="XMLID_1213_" class="st19" x1="1300.1" y1="314.5" x2="1361.1" y2="314.5"/>
		<line id="XMLID_1212_" class="st19" x1="1202.1" y1="308.5" x2="1263.1" y2="308.5"/>
		<line id="XMLID_1211_" class="st19" x1="1615.1" y1="325.5" x2="1682.1" y2="325.5"/>
		<line id="XMLID_1210_" class="st19" x1="1603.1" y1="306.5" x2="1666.1" y2="306.5"/>
		<line id="XMLID_1209_" class="st19" x1="619.1" y1="308.5" x2="678.1" y2="308.5"/>
		<line id="XMLID_1208_" class="st19" x1="561.1" y1="347.5" x2="625.1" y2="347.5"/>
		<line id="XMLID_1207_" class="st19" x1="324.1" y1="329.5" x2="383.1" y2="329.5"/>
		<line id="XMLID_1206_" class="st19" x1="578.1" y1="329.5" x2="639.1" y2="329.5"/>
		<line id="XMLID_1205_" class="st19" x1="242.1" y1="306.5" x2="304.1" y2="306.5"/>
		<line id="XMLID_1204_" class="st19" x1="697.1" y1="341.5" x2="753.1" y2="341.5"/>
		<line id="XMLID_1203_" class="st19" x1="182.1" y1="339.5" x2="239.1" y2="339.5"/>
		<line id="XMLID_1202_" class="st19" x1="794.1" y1="313.5" x2="852.1" y2="313.5"/>
		<line id="XMLID_1201_" class="st19" x1="881.1" y1="346.5" x2="1007.1" y2="346.5"/>
		<line id="XMLID_1200_" class="st19" x1="1112.1" y1="321.5" x2="1197.1" y2="321.5"/>
		<line id="XMLID_1199_" class="st19" x1="734.1" y1="328.5" x2="819.1" y2="328.5"/>
		<line id="XMLID_1198_" class="st19" x1="1353.1" y1="326.5" x2="1436.1" y2="326.5"/>
		<line id="XMLID_1197_" class="st19" x1="58.1" y1="415.5" x2="111.1" y2="415.5"/>
		<line id="XMLID_1196_" class="st19" x1="175.1" y1="400.5" x2="256.1" y2="400.5"/>
		<line id="XMLID_1195_" class="st19" x1="402.1" y1="418.5" x2="486.1" y2="418.5"/>
		<line id="XMLID_1194_" class="st19" x1="377.1" y1="391.5" x2="463.1" y2="391.5"/>
		<line id="XMLID_1193_" class="st19" x1="254.1" y1="428.5" x2="338.1" y2="428.5"/>
		<line id="XMLID_1192_" class="st19" x1="86.1" y1="390.5" x2="170.1" y2="390.5"/>
		<line id="XMLID_1191_" class="st19" x1="1010.1" y1="389.5" x2="1091.1" y2="389.5"/>
		<line id="XMLID_1190_" class="st19" x1="1500.1" y1="394.5" x2="1559.1" y2="394.5"/>
		<line id="XMLID_1189_" class="st19" x1="1592.1" y1="427.5" x2="1656.1" y2="427.5"/>
		<line id="XMLID_1188_" class="st19" x1="1478.1" y1="416.5" x2="1540.1" y2="416.5"/>
		<line id="XMLID_1187_" class="st19" x1="1233.1" y1="421.5" x2="1294.1" y2="421.5"/>
		<line id="XMLID_1186_" class="st19" x1="1191.1" y1="411.5" x2="1250.1" y2="411.5"/>
		<line id="XMLID_1185_" class="st19" x1="1352.1" y1="425.5" x2="1409.1" y2="425.5"/>
		<line id="XMLID_1184_" class="st19" x1="1112.1" y1="426.5" x2="1176.1" y2="426.5"/>
		<line id="XMLID_1183_" class="st19" x1="1042.1" y1="412.5" x2="1104.1" y2="412.5"/>
		<line id="XMLID_1182_" class="st19" x1="864.1" y1="415.5" x2="925.1" y2="415.5"/>
		<line id="XMLID_1181_" class="st19" x1="900.1" y1="398.5" x2="965.1" y2="398.5"/>
		<line id="XMLID_1180_" class="st19" x1="1419.1" y1="386.5" x2="1481.1" y2="386.5"/>
		<line id="XMLID_1179_" class="st19" x1="472.1" y1="399.5" x2="533.1" y2="399.5"/>
		<line id="XMLID_1178_" class="st19" x1="1300.1" y1="393.5" x2="1361.1" y2="393.5"/>
		<line id="XMLID_1177_" class="st19" x1="1202.1" y1="387.5" x2="1263.1" y2="387.5"/>
		<line id="XMLID_1176_" class="st19" x1="1615.1" y1="404.5" x2="1682.1" y2="404.5"/>
		<line id="XMLID_1175_" class="st19" x1="1603.1" y1="385.5" x2="1666.1" y2="385.5"/>
		<line id="XMLID_1174_" class="st19" x1="619.1" y1="387.5" x2="678.1" y2="387.5"/>
		<line id="XMLID_1173_" class="st19" x1="561.1" y1="426.5" x2="625.1" y2="426.5"/>
		<line id="XMLID_1172_" class="st19" x1="324.1" y1="408.5" x2="383.1" y2="408.5"/>
		<line id="XMLID_1171_" class="st19" x1="578.1" y1="408.5" x2="639.1" y2="408.5"/>
		<line id="XMLID_1170_" class="st19" x1="242.1" y1="385.5" x2="304.1" y2="385.5"/>
		<line id="XMLID_1169_" class="st19" x1="697.1" y1="420.5" x2="753.1" y2="420.5"/>
		<line id="XMLID_1168_" class="st19" x1="182.1" y1="418.5" x2="239.1" y2="418.5"/>
		<line id="XMLID_1167_" class="st19" x1="794.1" y1="392.5" x2="852.1" y2="392.5"/>
		<line id="XMLID_1166_" class="st19" x1="881.1" y1="425.5" x2="1007.1" y2="425.5"/>
		<line id="XMLID_1165_" class="st19" x1="1112.1" y1="400.5" x2="1197.1" y2="400.5"/>
		<line id="XMLID_1164_" class="st19" x1="734.1" y1="407.5" x2="819.1" y2="407.5"/>
		<line id="XMLID_1163_" class="st19" x1="1353.1" y1="405.5" x2="1436.1" y2="405.5"/>
		<line id="XMLID_1162_" class="st19" x1="77.1" y1="497.5" x2="125.1" y2="497.5"/>
		<line id="XMLID_1161_" class="st19" x1="175.1" y1="482.5" x2="256.1" y2="482.5"/>
		<line id="XMLID_1160_" class="st19" x1="412.1" y1="500.5" x2="494.1" y2="500.5"/>
		<line id="XMLID_1159_" class="st19" x1="377.1" y1="473.5" x2="463.1" y2="473.5"/>
		<line id="XMLID_1158_" class="st19" x1="267.1" y1="510.5" x2="349.1" y2="510.5"/>
		<line id="XMLID_1157_" class="st19" x1="86.1" y1="472.5" x2="170.1" y2="472.5"/>
		<line id="XMLID_1156_" class="st19" x1="1010.1" y1="471.5" x2="1091.1" y2="471.5"/>
		<line id="XMLID_1155_" class="st19" x1="1500.1" y1="476.5" x2="1559.1" y2="476.5"/>
		<line id="XMLID_1154_" class="st19" x1="1576.1" y1="509.5" x2="1638.1" y2="509.5"/>
		<line id="XMLID_1153_" class="st19" x1="1464.1" y1="498.5" x2="1526.1" y2="498.5"/>
		<line id="XMLID_1152_" class="st19" x1="1227.1" y1="503.5" x2="1286.1" y2="503.5"/>
		<line id="XMLID_1151_" class="st19" x1="1191.1" y1="493.5" x2="1250.1" y2="493.5"/>
		<line id="XMLID_1150_" class="st19" x1="1339.1" y1="507.5" x2="1402.1" y2="507.5"/>
		<line id="XMLID_1149_" class="st19" x1="1109.1" y1="508.5" x2="1169.1" y2="508.5"/>
		<line id="XMLID_1148_" class="st19" x1="1038.1" y1="494.5" x2="1098.1" y2="494.5"/>
		<line id="XMLID_1147_" class="st19" x1="864.1" y1="497.5" x2="925.1" y2="497.5"/>
		<line id="XMLID_1146_" class="st19" x1="900.1" y1="480.5" x2="965.1" y2="480.5"/>
		<line id="XMLID_1145_" class="st19" x1="1419.1" y1="468.5" x2="1481.1" y2="468.5"/>
		<line id="XMLID_1144_" class="st19" x1="472.1" y1="481.5" x2="533.1" y2="481.5"/>
		<line id="XMLID_1143_" class="st19" x1="1300.1" y1="475.5" x2="1361.1" y2="475.5"/>
		<line id="XMLID_1142_" class="st19" x1="1202.1" y1="469.5" x2="1263.1" y2="469.5"/>
		<line id="XMLID_1141_" class="st19" x1="1615.1" y1="486.5" x2="1682.1" y2="486.5"/>
		<line id="XMLID_965_" class="st19" x1="1603.1" y1="467.5" x2="1666.1" y2="467.5"/>
		<line id="XMLID_960_" class="st19" x1="619.1" y1="469.5" x2="678.1" y2="469.5"/>
		<line id="XMLID_956_" class="st19" x1="570.1" y1="508.5" x2="628.1" y2="508.5"/>
		<line id="XMLID_955_" class="st19" x1="324.1" y1="490.5" x2="383.1" y2="490.5"/>
		<line id="XMLID_950_" class="st19" x1="578.1" y1="490.5" x2="639.1" y2="490.5"/>
		<line id="XMLID_948_" class="st19" x1="242.1" y1="467.5" x2="304.1" y2="467.5"/>
		<line id="XMLID_943_" class="st19" x1="700.1" y1="502.5" x2="757.1" y2="502.5"/>
		<line id="XMLID_942_" class="st19" x1="197.1" y1="500.5" x2="254.1" y2="500.5"/>
		<line id="XMLID_941_" class="st19" x1="794.1" y1="474.5" x2="852.1" y2="474.5"/>
		<line id="XMLID_940_" class="st19" x1="881.1" y1="507.5" x2="1001.1" y2="507.5"/>
		<line id="XMLID_937_" class="st19" x1="1112.1" y1="482.5" x2="1197.1" y2="482.5"/>
		<line id="XMLID_932_" class="st19" x1="734.1" y1="489.5" x2="819.1" y2="489.5"/>
		<line id="XMLID_931_" class="st19" x1="1353.1" y1="487.5" x2="1436.1" y2="487.5"/>
	</g>
</g>
<g id="Layer_1_1_">
</g>
</svg>
