<svg xmlns="http://www.w3.org/2000/svg" viewBox="0 0 540 483"><defs><style>.a{fill:#deb074;}.b,.d{opacity:0.12;}.b,.c,.d{isolation:isolate;}.c,.d{fill:none;stroke:#000;stroke-miterlimit:10;}.c{stroke-width:4px;opacity:0.2;}</style></defs><title>04</title><path class="a" d="M31,396H511v87H31ZM31,94H511v61H31ZM31,0H511V80H31Zm0,170H511v61H31Zm0,75H511v61H31Zm0,76H511v61H31Z"/><path class="b" d="M31,473H511v10H31Zm0-321H511v3H31Zm0-76H511v4H31Zm0,152H511v3H31Zm0,75H511v3H31Zm0,76H511v3H31Z"/><path class="c" d="M33,0V483M509,0V483"/><path class="d" d="M77,135.5h37m-48-27h35m245-2h36m63,32h28m-47-10h27m-62,15h28m-59-14h28m-106,3h27m-11-17h27m-218,1h28m339-6h27m-71-6h29m-289,0h29m-52,39h27m-133-18H69m87,0h24m27,12h26m16-28h27m12,33h55m48-25h38m-204,7h36m-184,85h37m-48-27h35m245-2h36m63,32h28m-47-10h27m-62,15h28m-59-14h28m-106,3h27m-11-17h27m-218,1h28m339-6h27m-71-6h29m-289,0h29m-52,39h27m-133-18H69m87,0h24m27,12h26m16-28h27m12,33h55m48-25h38m-204,7h36m-184,84h37m-48-27h35m245-2h36m63,32h28m-47-10h27m-62,15h28m-59-14h28m-106,3h27m-11-17h27m-218,1h28m339-6h27m-71-6h29m-289,0h29m-52,39h27m-133-18H69m87,0h24m27,12h26m16-28h27m12,33h55m48-25h38m-204,7h36m-184,90h37m-48-27h35m245-2h36m63,32h28m-47-10h27m-62,15h28m-59-14h28m-106,3h27m-11-17h27m-218,1h28m339-6h27m-71-6h29m-289,0h29m-52,39h27m-133-18H69m87,0h24m27,12h26m16-28h27m12,33h55m48-25h38m-204,7h36M78,53.5h37m-48-27h36m244-2h37m63,32h27m-47-10h28m-61,15h27m-59-14h27m-105,3h26m-11-17h27m-218,1h28m341-6h25m-70-6h29m-289,0h29m-52,39h27M43,43.5H71m85,0h27m25,12h25m8-28h26m23,33h56m48-25h36m-204,7h37m184-35h27m-80,5h27m-272,0h27m-75,1h26m149,0h57M77,453.5h37m-48-27h35m245-2h36m63,32h28m-47-10h27m-62,15h28m-59-14h28m-106,3h27m-11-17h27m-218,1h28m339-6h27m-71-6h29m-289,0h29m-52,39h27m-133-18H69m87,0h24m27,12h26m6-28h25m24,33h55m48-25h38m-204,7h36m184-35h28m-82,5h28m-272,0h27m-74,1h26m147,0h57"/></svg>