<?xml version="1.0" encoding="iso-8859-1"?>
<!-- Generator: Adobe Illustrator 19.0.0, SVG Export Plug-In . SVG Version: 6.00 Build 0)  -->
<svg version="1.1" xmlns="http://www.w3.org/2000/svg" xmlns:xlink="http://www.w3.org/1999/xlink" x="0px" y="0px"
	 viewBox="0 0 540 483" style="enable-background:new 0 0 540 483;" xml:space="preserve">
<g id="bench-1">
	<rect id="bounds_1_" x="-0.125" style="opacity:0;fill:#FFFFFF;" width="540" height="483"/>
	<g id="style1">
		<g id="XMLID_438_">
			<rect id="XMLID_211_" x="30.875" y="396" style="fill:#DEB074;" width="480" height="87"/>
		</g>
		<g id="XMLID_435_">
			<rect id="XMLID_189_" x="30.875" y="94" style="fill:#DEB074;" width="480" height="61"/>
		</g>
		<g id="XMLID_418_">
			<rect id="XMLID_186_" x="30.875" style="fill:#DEB074;" width="480" height="80"/>
		</g>
		<g id="XMLID_24_">
			<rect id="XMLID_26_" x="30.875" y="170" style="fill:#DEB074;" width="480" height="61"/>
		</g>
		<g id="XMLID_29_">
			<rect id="XMLID_30_" x="30.875" y="245" style="fill:#DEB074;" width="480" height="61"/>
		</g>
		<g id="XMLID_157_">
			<rect id="XMLID_158_" x="30.875" y="321" style="fill:#DEB074;" width="480" height="61"/>
		</g>
	</g>
	<g id="accent">
		<rect id="XMLID_65_" x="30.875" y="473" style="opacity:0.12;" width="480" height="10"/>
		<rect id="XMLID_63_" x="30.875" y="152" style="opacity:0.12;" width="480" height="3"/>
		<rect id="XMLID_78_" x="30.875" y="76" style="opacity:0.12;" width="480" height="4"/>
		<rect id="XMLID_61_" x="30.875" y="228" style="opacity:0.12;" width="480" height="3"/>
		<rect id="XMLID_22_" x="30.875" y="303" style="opacity:0.12;" width="480" height="3"/>
		<rect id="XMLID_9_" x="30.875" y="379" style="opacity:0.12;" width="480" height="3"/>
		
			<line id="XMLID_894_" style="opacity:0.2;fill:none;stroke:#000000;stroke-width:4;stroke-miterlimit:10;" x1="32.875" y1="0" x2="32.875" y2="483"/>
		
			<line id="XMLID_896_" style="opacity:0.2;fill:none;stroke:#000000;stroke-width:4;stroke-miterlimit:10;" x1="508.875" y1="0" x2="508.875" y2="483"/>
	</g>
	<g id="texture">
		
			<line id="XMLID_1115_" style="opacity:0.12;fill:none;stroke:#000000;stroke-miterlimit:10;" x1="76.875" y1="135.5" x2="113.875" y2="135.5"/>
		
			<line id="XMLID_1114_" style="opacity:0.12;fill:none;stroke:#000000;stroke-miterlimit:10;" x1="65.875" y1="108.5" x2="100.875" y2="108.5"/>
		
			<line id="XMLID_1111_" style="opacity:0.12;fill:none;stroke:#000000;stroke-miterlimit:10;" x1="345.875" y1="106.5" x2="381.875" y2="106.5"/>
		
			<line id="XMLID_1107_" style="opacity:0.12;fill:none;stroke:#000000;stroke-miterlimit:10;" x1="444.875" y1="138.5" x2="472.875" y2="138.5"/>
		
			<line id="XMLID_1106_" style="opacity:0.12;fill:none;stroke:#000000;stroke-miterlimit:10;" x1="425.875" y1="128.5" x2="452.875" y2="128.5"/>
		
			<line id="XMLID_1104_" style="opacity:0.12;fill:none;stroke:#000000;stroke-miterlimit:10;" x1="390.875" y1="143.5" x2="418.875" y2="143.5"/>
		
			<line id="XMLID_1103_" style="opacity:0.12;fill:none;stroke:#000000;stroke-miterlimit:10;" x1="359.875" y1="129.5" x2="387.875" y2="129.5"/>
		
			<line id="XMLID_1102_" style="opacity:0.12;fill:none;stroke:#000000;stroke-miterlimit:10;" x1="281.875" y1="132.5" x2="308.875" y2="132.5"/>
		
			<line id="XMLID_1101_" style="opacity:0.12;fill:none;stroke:#000000;stroke-miterlimit:10;" x1="297.875" y1="115.5" x2="324.875" y2="115.5"/>
		
			<line id="XMLID_1099_" style="opacity:0.12;fill:none;stroke:#000000;stroke-miterlimit:10;" x1="106.875" y1="116.5" x2="134.875" y2="116.5"/>
		
			<line id="XMLID_1098_" style="opacity:0.12;fill:none;stroke:#000000;stroke-miterlimit:10;" x1="473.875" y1="110.5" x2="500.875" y2="110.5"/>
		
			<line id="XMLID_1097_" style="opacity:0.12;fill:none;stroke:#000000;stroke-miterlimit:10;" x1="429.875" y1="104.5" x2="458.875" y2="104.5"/>
		
			<line id="XMLID_1094_" style="opacity:0.12;fill:none;stroke:#000000;stroke-miterlimit:10;" x1="169.875" y1="104.5" x2="198.875" y2="104.5"/>
		
			<line id="XMLID_1093_" style="opacity:0.12;fill:none;stroke:#000000;stroke-miterlimit:10;" x1="146.875" y1="143.5" x2="173.875" y2="143.5"/>
		
			<line id="XMLID_1092_" style="opacity:0.12;fill:none;stroke:#000000;stroke-miterlimit:10;" x1="40.875" y1="125.5" x2="68.875" y2="125.5"/>
		
			<line id="XMLID_1091_" style="opacity:0.12;fill:none;stroke:#000000;stroke-miterlimit:10;" x1="155.875" y1="125.5" x2="179.875" y2="125.5"/>
		
			<line id="XMLID_1089_" style="opacity:0.12;fill:none;stroke:#000000;stroke-miterlimit:10;" x1="206.875" y1="137.5" x2="232.875" y2="137.5"/>
		
			<line id="XMLID_1087_" style="opacity:0.12;fill:none;stroke:#000000;stroke-miterlimit:10;" x1="248.875" y1="109.5" x2="275.875" y2="109.5"/>
		
			<line id="XMLID_1086_" style="opacity:0.12;fill:none;stroke:#000000;stroke-miterlimit:10;" x1="287.875" y1="142.5" x2="342.875" y2="142.5"/>
		
			<line id="XMLID_1085_" style="opacity:0.12;fill:none;stroke:#000000;stroke-miterlimit:10;" x1="390.875" y1="117.5" x2="428.875" y2="117.5"/>
		
			<line id="XMLID_1084_" style="opacity:0.12;fill:none;stroke:#000000;stroke-miterlimit:10;" x1="224.875" y1="124.5" x2="260.875" y2="124.5"/>
		
			<line id="XMLID_1080_" style="opacity:0.12;fill:none;stroke:#000000;stroke-miterlimit:10;" x1="76.875" y1="209.5" x2="113.875" y2="209.5"/>
		
			<line id="XMLID_1079_" style="opacity:0.12;fill:none;stroke:#000000;stroke-miterlimit:10;" x1="65.875" y1="182.5" x2="100.875" y2="182.5"/>
		
			<line id="XMLID_1076_" style="opacity:0.12;fill:none;stroke:#000000;stroke-miterlimit:10;" x1="345.875" y1="180.5" x2="381.875" y2="180.5"/>
		
			<line id="XMLID_1072_" style="opacity:0.12;fill:none;stroke:#000000;stroke-miterlimit:10;" x1="444.875" y1="212.5" x2="472.875" y2="212.5"/>
		
			<line id="XMLID_1071_" style="opacity:0.12;fill:none;stroke:#000000;stroke-miterlimit:10;" x1="425.875" y1="202.5" x2="452.875" y2="202.5"/>
		
			<line id="XMLID_1069_" style="opacity:0.12;fill:none;stroke:#000000;stroke-miterlimit:10;" x1="390.875" y1="217.5" x2="418.875" y2="217.5"/>
		
			<line id="XMLID_1068_" style="opacity:0.12;fill:none;stroke:#000000;stroke-miterlimit:10;" x1="359.875" y1="203.5" x2="387.875" y2="203.5"/>
		
			<line id="XMLID_1067_" style="opacity:0.12;fill:none;stroke:#000000;stroke-miterlimit:10;" x1="281.875" y1="206.5" x2="308.875" y2="206.5"/>
		
			<line id="XMLID_1066_" style="opacity:0.12;fill:none;stroke:#000000;stroke-miterlimit:10;" x1="297.875" y1="189.5" x2="324.875" y2="189.5"/>
		
			<line id="XMLID_1064_" style="opacity:0.12;fill:none;stroke:#000000;stroke-miterlimit:10;" x1="106.875" y1="190.5" x2="134.875" y2="190.5"/>
		
			<line id="XMLID_1063_" style="opacity:0.12;fill:none;stroke:#000000;stroke-miterlimit:10;" x1="473.875" y1="184.5" x2="500.875" y2="184.5"/>
		
			<line id="XMLID_1062_" style="opacity:0.12;fill:none;stroke:#000000;stroke-miterlimit:10;" x1="429.875" y1="178.5" x2="458.875" y2="178.5"/>
		
			<line id="XMLID_1059_" style="opacity:0.12;fill:none;stroke:#000000;stroke-miterlimit:10;" x1="169.875" y1="178.5" x2="198.875" y2="178.5"/>
		
			<line id="XMLID_1058_" style="opacity:0.12;fill:none;stroke:#000000;stroke-miterlimit:10;" x1="146.875" y1="217.5" x2="173.875" y2="217.5"/>
		
			<line id="XMLID_1057_" style="opacity:0.12;fill:none;stroke:#000000;stroke-miterlimit:10;" x1="40.875" y1="199.5" x2="68.875" y2="199.5"/>
		
			<line id="XMLID_1056_" style="opacity:0.12;fill:none;stroke:#000000;stroke-miterlimit:10;" x1="155.875" y1="199.5" x2="179.875" y2="199.5"/>
		
			<line id="XMLID_1054_" style="opacity:0.12;fill:none;stroke:#000000;stroke-miterlimit:10;" x1="206.875" y1="211.5" x2="232.875" y2="211.5"/>
		
			<line id="XMLID_1052_" style="opacity:0.12;fill:none;stroke:#000000;stroke-miterlimit:10;" x1="248.875" y1="183.5" x2="275.875" y2="183.5"/>
		
			<line id="XMLID_1051_" style="opacity:0.12;fill:none;stroke:#000000;stroke-miterlimit:10;" x1="287.875" y1="216.5" x2="342.875" y2="216.5"/>
		
			<line id="XMLID_1050_" style="opacity:0.12;fill:none;stroke:#000000;stroke-miterlimit:10;" x1="390.875" y1="191.5" x2="428.875" y2="191.5"/>
		
			<line id="XMLID_1049_" style="opacity:0.12;fill:none;stroke:#000000;stroke-miterlimit:10;" x1="224.875" y1="198.5" x2="260.875" y2="198.5"/>
		
			<line id="XMLID_1045_" style="opacity:0.12;fill:none;stroke:#000000;stroke-miterlimit:10;" x1="76.875" y1="282.5" x2="113.875" y2="282.5"/>
		
			<line id="XMLID_1044_" style="opacity:0.12;fill:none;stroke:#000000;stroke-miterlimit:10;" x1="65.875" y1="255.5" x2="100.875" y2="255.5"/>
		
			<line id="XMLID_1041_" style="opacity:0.12;fill:none;stroke:#000000;stroke-miterlimit:10;" x1="345.875" y1="253.5" x2="381.875" y2="253.5"/>
		
			<line id="XMLID_1037_" style="opacity:0.12;fill:none;stroke:#000000;stroke-miterlimit:10;" x1="444.875" y1="285.5" x2="472.875" y2="285.5"/>
		
			<line id="XMLID_1036_" style="opacity:0.12;fill:none;stroke:#000000;stroke-miterlimit:10;" x1="425.875" y1="275.5" x2="452.875" y2="275.5"/>
		
			<line id="XMLID_1034_" style="opacity:0.12;fill:none;stroke:#000000;stroke-miterlimit:10;" x1="390.875" y1="290.5" x2="418.875" y2="290.5"/>
		
			<line id="XMLID_1033_" style="opacity:0.12;fill:none;stroke:#000000;stroke-miterlimit:10;" x1="359.875" y1="276.5" x2="387.875" y2="276.5"/>
		
			<line id="XMLID_1032_" style="opacity:0.12;fill:none;stroke:#000000;stroke-miterlimit:10;" x1="281.875" y1="279.5" x2="308.875" y2="279.5"/>
		
			<line id="XMLID_1031_" style="opacity:0.12;fill:none;stroke:#000000;stroke-miterlimit:10;" x1="297.875" y1="262.5" x2="324.875" y2="262.5"/>
		
			<line id="XMLID_1029_" style="opacity:0.12;fill:none;stroke:#000000;stroke-miterlimit:10;" x1="106.875" y1="263.5" x2="134.875" y2="263.5"/>
		
			<line id="XMLID_1028_" style="opacity:0.12;fill:none;stroke:#000000;stroke-miterlimit:10;" x1="473.875" y1="257.5" x2="500.875" y2="257.5"/>
		
			<line id="XMLID_1027_" style="opacity:0.12;fill:none;stroke:#000000;stroke-miterlimit:10;" x1="429.875" y1="251.5" x2="458.875" y2="251.5"/>
		
			<line id="XMLID_1024_" style="opacity:0.12;fill:none;stroke:#000000;stroke-miterlimit:10;" x1="169.875" y1="251.5" x2="198.875" y2="251.5"/>
		
			<line id="XMLID_1023_" style="opacity:0.12;fill:none;stroke:#000000;stroke-miterlimit:10;" x1="146.875" y1="290.5" x2="173.875" y2="290.5"/>
		
			<line id="XMLID_1022_" style="opacity:0.12;fill:none;stroke:#000000;stroke-miterlimit:10;" x1="40.875" y1="272.5" x2="68.875" y2="272.5"/>
		
			<line id="XMLID_1021_" style="opacity:0.12;fill:none;stroke:#000000;stroke-miterlimit:10;" x1="155.875" y1="272.5" x2="179.875" y2="272.5"/>
		
			<line id="XMLID_1019_" style="opacity:0.12;fill:none;stroke:#000000;stroke-miterlimit:10;" x1="206.875" y1="284.5" x2="232.875" y2="284.5"/>
		
			<line id="XMLID_1017_" style="opacity:0.12;fill:none;stroke:#000000;stroke-miterlimit:10;" x1="248.875" y1="256.5" x2="275.875" y2="256.5"/>
		
			<line id="XMLID_1016_" style="opacity:0.12;fill:none;stroke:#000000;stroke-miterlimit:10;" x1="287.875" y1="289.5" x2="342.875" y2="289.5"/>
		
			<line id="XMLID_1015_" style="opacity:0.12;fill:none;stroke:#000000;stroke-miterlimit:10;" x1="390.875" y1="264.5" x2="428.875" y2="264.5"/>
		
			<line id="XMLID_1014_" style="opacity:0.12;fill:none;stroke:#000000;stroke-miterlimit:10;" x1="224.875" y1="271.5" x2="260.875" y2="271.5"/>
		
			<line id="XMLID_1010_" style="opacity:0.12;fill:none;stroke:#000000;stroke-miterlimit:10;" x1="76.875" y1="361.5" x2="113.875" y2="361.5"/>
		
			<line id="XMLID_1009_" style="opacity:0.12;fill:none;stroke:#000000;stroke-miterlimit:10;" x1="65.875" y1="334.5" x2="100.875" y2="334.5"/>
		
			<line id="XMLID_1006_" style="opacity:0.12;fill:none;stroke:#000000;stroke-miterlimit:10;" x1="345.875" y1="332.5" x2="381.875" y2="332.5"/>
		
			<line id="XMLID_1002_" style="opacity:0.12;fill:none;stroke:#000000;stroke-miterlimit:10;" x1="444.875" y1="364.5" x2="472.875" y2="364.5"/>
		
			<line id="XMLID_1001_" style="opacity:0.12;fill:none;stroke:#000000;stroke-miterlimit:10;" x1="425.875" y1="354.5" x2="452.875" y2="354.5"/>
		
			<line id="XMLID_999_" style="opacity:0.12;fill:none;stroke:#000000;stroke-miterlimit:10;" x1="390.875" y1="369.5" x2="418.875" y2="369.5"/>
		
			<line id="XMLID_998_" style="opacity:0.12;fill:none;stroke:#000000;stroke-miterlimit:10;" x1="359.875" y1="355.5" x2="387.875" y2="355.5"/>
		
			<line id="XMLID_997_" style="opacity:0.12;fill:none;stroke:#000000;stroke-miterlimit:10;" x1="281.875" y1="358.5" x2="308.875" y2="358.5"/>
		
			<line id="XMLID_996_" style="opacity:0.12;fill:none;stroke:#000000;stroke-miterlimit:10;" x1="297.875" y1="341.5" x2="324.875" y2="341.5"/>
		
			<line id="XMLID_994_" style="opacity:0.12;fill:none;stroke:#000000;stroke-miterlimit:10;" x1="106.875" y1="342.5" x2="134.875" y2="342.5"/>
		
			<line id="XMLID_993_" style="opacity:0.12;fill:none;stroke:#000000;stroke-miterlimit:10;" x1="473.875" y1="336.5" x2="500.875" y2="336.5"/>
		
			<line id="XMLID_992_" style="opacity:0.12;fill:none;stroke:#000000;stroke-miterlimit:10;" x1="429.875" y1="330.5" x2="458.875" y2="330.5"/>
		
			<line id="XMLID_989_" style="opacity:0.12;fill:none;stroke:#000000;stroke-miterlimit:10;" x1="169.875" y1="330.5" x2="198.875" y2="330.5"/>
		
			<line id="XMLID_988_" style="opacity:0.12;fill:none;stroke:#000000;stroke-miterlimit:10;" x1="146.875" y1="369.5" x2="173.875" y2="369.5"/>
		
			<line id="XMLID_987_" style="opacity:0.12;fill:none;stroke:#000000;stroke-miterlimit:10;" x1="40.875" y1="351.5" x2="68.875" y2="351.5"/>
		
			<line id="XMLID_986_" style="opacity:0.12;fill:none;stroke:#000000;stroke-miterlimit:10;" x1="155.875" y1="351.5" x2="179.875" y2="351.5"/>
		
			<line id="XMLID_984_" style="opacity:0.12;fill:none;stroke:#000000;stroke-miterlimit:10;" x1="206.875" y1="363.5" x2="232.875" y2="363.5"/>
		
			<line id="XMLID_982_" style="opacity:0.12;fill:none;stroke:#000000;stroke-miterlimit:10;" x1="248.875" y1="335.5" x2="275.875" y2="335.5"/>
		
			<line id="XMLID_981_" style="opacity:0.12;fill:none;stroke:#000000;stroke-miterlimit:10;" x1="287.875" y1="368.5" x2="342.875" y2="368.5"/>
		
			<line id="XMLID_980_" style="opacity:0.12;fill:none;stroke:#000000;stroke-miterlimit:10;" x1="390.875" y1="343.5" x2="428.875" y2="343.5"/>
		
			<line id="XMLID_979_" style="opacity:0.12;fill:none;stroke:#000000;stroke-miterlimit:10;" x1="224.875" y1="350.5" x2="260.875" y2="350.5"/>
		
			<line id="XMLID_975_" style="opacity:0.12;fill:none;stroke:#000000;stroke-miterlimit:10;" x1="77.875" y1="53.5" x2="114.875" y2="53.5"/>
		
			<line id="XMLID_974_" style="opacity:0.12;fill:none;stroke:#000000;stroke-miterlimit:10;" x1="66.875" y1="26.5" x2="102.875" y2="26.5"/>
		
			<line id="XMLID_971_" style="opacity:0.12;fill:none;stroke:#000000;stroke-miterlimit:10;" x1="346.875" y1="24.5" x2="383.875" y2="24.5"/>
		
			<line id="XMLID_967_" style="opacity:0.12;fill:none;stroke:#000000;stroke-miterlimit:10;" x1="446.875" y1="56.5" x2="473.875" y2="56.5"/>
		
			<line id="XMLID_966_" style="opacity:0.12;fill:none;stroke:#000000;stroke-miterlimit:10;" x1="426.875" y1="46.5" x2="454.875" y2="46.5"/>
		
			<line id="XMLID_964_" style="opacity:0.12;fill:none;stroke:#000000;stroke-miterlimit:10;" x1="393.875" y1="61.5" x2="420.875" y2="61.5"/>
		
			<line id="XMLID_963_" style="opacity:0.12;fill:none;stroke:#000000;stroke-miterlimit:10;" x1="361.875" y1="47.5" x2="388.875" y2="47.5"/>
		
			<line id="XMLID_962_" style="opacity:0.12;fill:none;stroke:#000000;stroke-miterlimit:10;" x1="283.875" y1="50.5" x2="309.875" y2="50.5"/>
		
			<line id="XMLID_961_" style="opacity:0.12;fill:none;stroke:#000000;stroke-miterlimit:10;" x1="298.875" y1="33.5" x2="325.875" y2="33.5"/>
		
			<line id="XMLID_959_" style="opacity:0.12;fill:none;stroke:#000000;stroke-miterlimit:10;" x1="107.875" y1="34.5" x2="135.875" y2="34.5"/>
		
			<line id="XMLID_958_" style="opacity:0.12;fill:none;stroke:#000000;stroke-miterlimit:10;" x1="476.875" y1="28.5" x2="501.875" y2="28.5"/>
		
			<line id="XMLID_957_" style="opacity:0.12;fill:none;stroke:#000000;stroke-miterlimit:10;" x1="431.875" y1="22.5" x2="460.875" y2="22.5"/>
		
			<line id="XMLID_954_" style="opacity:0.12;fill:none;stroke:#000000;stroke-miterlimit:10;" x1="171.875" y1="22.5" x2="200.875" y2="22.5"/>
		
			<line id="XMLID_953_" style="opacity:0.12;fill:none;stroke:#000000;stroke-miterlimit:10;" x1="148.875" y1="61.5" x2="175.875" y2="61.5"/>
		
			<line id="XMLID_952_" style="opacity:0.12;fill:none;stroke:#000000;stroke-miterlimit:10;" x1="42.875" y1="43.5" x2="70.875" y2="43.5"/>
		
			<line id="XMLID_951_" style="opacity:0.12;fill:none;stroke:#000000;stroke-miterlimit:10;" x1="155.875" y1="43.5" x2="182.875" y2="43.5"/>
		
			<line id="XMLID_949_" style="opacity:0.12;fill:none;stroke:#000000;stroke-miterlimit:10;" x1="207.875" y1="55.5" x2="232.875" y2="55.5"/>
		
			<line id="XMLID_947_" style="opacity:0.12;fill:none;stroke:#000000;stroke-miterlimit:10;" x1="240.875" y1="27.5" x2="266.875" y2="27.5"/>
		
			<line id="XMLID_946_" style="opacity:0.12;fill:none;stroke:#000000;stroke-miterlimit:10;" x1="289.875" y1="60.5" x2="345.875" y2="60.5"/>
		
			<line id="XMLID_945_" style="opacity:0.12;fill:none;stroke:#000000;stroke-miterlimit:10;" x1="393.875" y1="35.5" x2="429.875" y2="35.5"/>
		
			<line id="XMLID_944_" style="opacity:0.12;fill:none;stroke:#000000;stroke-miterlimit:10;" x1="225.875" y1="42.5" x2="262.875" y2="42.5"/>
		
			<line id="XMLID_939_" style="opacity:0.12;fill:none;stroke:#000000;stroke-miterlimit:10;" x1="446.875" y1="7.5" x2="473.875" y2="7.5"/>
		
			<line id="XMLID_936_" style="opacity:0.12;fill:none;stroke:#000000;stroke-miterlimit:10;" x1="393.875" y1="12.5" x2="420.875" y2="12.5"/>
		
			<line id="XMLID_935_" style="opacity:0.12;fill:none;stroke:#000000;stroke-miterlimit:10;" x1="148.875" y1="12.5" x2="175.875" y2="12.5"/>
		
			<line id="XMLID_934_" style="opacity:0.12;fill:none;stroke:#000000;stroke-miterlimit:10;" x1="100.875" y1="13.5" x2="126.875" y2="13.5"/>
		
			<line id="XMLID_933_" style="opacity:0.12;fill:none;stroke:#000000;stroke-miterlimit:10;" x1="275.875" y1="13.5" x2="332.875" y2="13.5"/>
		
			<line id="XMLID_930_" style="opacity:0.12;fill:none;stroke:#000000;stroke-miterlimit:10;" x1="76.875" y1="453.5" x2="113.875" y2="453.5"/>
		
			<line id="XMLID_929_" style="opacity:0.12;fill:none;stroke:#000000;stroke-miterlimit:10;" x1="65.875" y1="426.5" x2="100.875" y2="426.5"/>
		
			<line id="XMLID_926_" style="opacity:0.12;fill:none;stroke:#000000;stroke-miterlimit:10;" x1="345.875" y1="424.5" x2="381.875" y2="424.5"/>
		
			<line id="XMLID_922_" style="opacity:0.12;fill:none;stroke:#000000;stroke-miterlimit:10;" x1="444.875" y1="456.5" x2="472.875" y2="456.5"/>
		
			<line id="XMLID_921_" style="opacity:0.12;fill:none;stroke:#000000;stroke-miterlimit:10;" x1="425.875" y1="446.5" x2="452.875" y2="446.5"/>
		
			<line id="XMLID_919_" style="opacity:0.12;fill:none;stroke:#000000;stroke-miterlimit:10;" x1="390.875" y1="461.5" x2="418.875" y2="461.5"/>
		
			<line id="XMLID_918_" style="opacity:0.12;fill:none;stroke:#000000;stroke-miterlimit:10;" x1="359.875" y1="447.5" x2="387.875" y2="447.5"/>
		
			<line id="XMLID_917_" style="opacity:0.12;fill:none;stroke:#000000;stroke-miterlimit:10;" x1="281.875" y1="450.5" x2="308.875" y2="450.5"/>
		
			<line id="XMLID_916_" style="opacity:0.12;fill:none;stroke:#000000;stroke-miterlimit:10;" x1="297.875" y1="433.5" x2="324.875" y2="433.5"/>
		
			<line id="XMLID_914_" style="opacity:0.12;fill:none;stroke:#000000;stroke-miterlimit:10;" x1="106.875" y1="434.5" x2="134.875" y2="434.5"/>
		
			<line id="XMLID_913_" style="opacity:0.12;fill:none;stroke:#000000;stroke-miterlimit:10;" x1="473.875" y1="428.5" x2="500.875" y2="428.5"/>
		
			<line id="XMLID_912_" style="opacity:0.12;fill:none;stroke:#000000;stroke-miterlimit:10;" x1="429.875" y1="422.5" x2="458.875" y2="422.5"/>
		
			<line id="XMLID_909_" style="opacity:0.12;fill:none;stroke:#000000;stroke-miterlimit:10;" x1="169.875" y1="422.5" x2="198.875" y2="422.5"/>
		
			<line id="XMLID_908_" style="opacity:0.12;fill:none;stroke:#000000;stroke-miterlimit:10;" x1="146.875" y1="461.5" x2="173.875" y2="461.5"/>
		
			<line id="XMLID_907_" style="opacity:0.12;fill:none;stroke:#000000;stroke-miterlimit:10;" x1="40.875" y1="443.5" x2="68.875" y2="443.5"/>
		
			<line id="XMLID_906_" style="opacity:0.12;fill:none;stroke:#000000;stroke-miterlimit:10;" x1="155.875" y1="443.5" x2="179.875" y2="443.5"/>
		
			<line id="XMLID_904_" style="opacity:0.12;fill:none;stroke:#000000;stroke-miterlimit:10;" x1="206.875" y1="455.5" x2="232.875" y2="455.5"/>
		
			<line id="XMLID_902_" style="opacity:0.12;fill:none;stroke:#000000;stroke-miterlimit:10;" x1="238.875" y1="427.5" x2="263.875" y2="427.5"/>
		
			<line id="XMLID_901_" style="opacity:0.12;fill:none;stroke:#000000;stroke-miterlimit:10;" x1="287.875" y1="460.5" x2="342.875" y2="460.5"/>
		
			<line id="XMLID_900_" style="opacity:0.12;fill:none;stroke:#000000;stroke-miterlimit:10;" x1="390.875" y1="435.5" x2="428.875" y2="435.5"/>
		
			<line id="XMLID_899_" style="opacity:0.12;fill:none;stroke:#000000;stroke-miterlimit:10;" x1="224.875" y1="442.5" x2="260.875" y2="442.5"/>
		
			<line id="XMLID_895_" style="opacity:0.12;fill:none;stroke:#000000;stroke-miterlimit:10;" x1="444.875" y1="407.5" x2="472.875" y2="407.5"/>
		
			<line id="XMLID_893_" style="opacity:0.12;fill:none;stroke:#000000;stroke-miterlimit:10;" x1="390.875" y1="412.5" x2="418.875" y2="412.5"/>
		
			<line id="XMLID_892_" style="opacity:0.12;fill:none;stroke:#000000;stroke-miterlimit:10;" x1="146.875" y1="412.5" x2="173.875" y2="412.5"/>
		
			<line id="XMLID_891_" style="opacity:0.12;fill:none;stroke:#000000;stroke-miterlimit:10;" x1="99.875" y1="413.5" x2="125.875" y2="413.5"/>
		
			<line id="XMLID_890_" style="opacity:0.12;fill:none;stroke:#000000;stroke-miterlimit:10;" x1="272.875" y1="413.5" x2="329.875" y2="413.5"/>
	</g>
</g>
<g id="Layer_1">
</g>
</svg>
