<svg xmlns="http://www.w3.org/2000/svg" viewBox="0 0 1140 483"><defs><style>.a{fill:#A07B5D;}.b,.d{opacity:0.24;}.b,.c,.d{isolation:isolate;}.c,.d{fill:none;stroke:#000;stroke-miterlimit:10;}.c{stroke-width:4px;opacity:0.2;}</style></defs><title>05</title><path class="a" d="M30,0H1110V82H30Zm0,325H1110v61H30Zm0,75H1110v83H30Zm0-152H1110v61H30Zm0-75H1110v61H30Zm0-77H1110v61H30Z"/><path class="b" d="M30,0H1110V6H30Zm0,248H1110v3H30Zm0,77H1110v3H30Zm0,75H1110v3H30ZM30,96H1110v3H30Zm0,77H1110v3H30Z"/><path class="c" d="M1108,482V0M32,482V0"/><path class="d" d="M1098,347.5h-32m-42,15H969m-95-18H819m70,27H838m134-37H916m163,38h-52m-550,1H426m-266-5H120m-23-33H59m115,11H135m198-5H291m69,10H321m-64-14H214m196-1H369m88,14H416m157-3H534m15,17H508m-297,12H172m658-13H790m-501,6H249m105,6H311m-230-17H42m48,19H51m685-2H695m76-39H731m196,18H885m-127,0H722m256,23H941m-258-35H646m371,2H981m-361,26H581m-18-33H481m-71,25H356m301-7H602m-348,2H198m900-85h-32m-42,15H969m-95-18H819m70,27H838m134-37H916m163,38h-52m-550,1H426m-266-5H120m-23-33H59m115,11H135m198-5H291m69,10H321m-64-14H214m196-1H369m88,14H416m157-3H534m15,17H508m-297,12H172m658-13H790m-501,6H249m105,6H311m-230-17H42m48,19H51m685-2H695m76-39H731m196,18H885m-127,0H722m256,23H941m-258-35H646m371,2H981m-361,26H581m-18-33H481m-71,25H356m301-7H602m-348,2H198m900-83h-32m-42,15H969m-95-18H819m70,27H838m134-37H916m163,38h-52m-550,1H426m-266-5H120m-23-33H59m115,11H135m198-5H291m69,10H321m-64-14H214m196-1H369m88,14H416m157-3H534m15,17H508m-297,12H172m658-13H790m-501,6H249m105,6H311m-230-17H42m48,19H51m685-2H695m76-39H731m196,18H885m-127,0H722m256,23H941m-258-35H646m371,2H981m-361,26H581m-18-33H481m-71,25H356m301-7H602m-348,2H198m900-90h-32m-42,15H969m-95-18H819m70,27H838m134-37H916m163,38h-52m-550,1H426m-266-5H120m-23-33H59m115,11H135m198-5H291m69,10H321m-64-14H214m196-1H369m88,14H416m157-3H534m15,17H508m-297,12H172m658-13H790m-501,6H249m105,6H311m-230-17H42m48,19H51m685-2H695m76-39H731m196,18H885m-127,0H722m256,23H941m-258-35H646m371,2H981m-361,26H581m-18-33H481m-71,25H356m301-7H602m-348,2H198m898,299h-33m-42,15H966m-93-18H817m71,27H835m134-37H914m163,38h-53m-548,1H422m-265-5H117m-21-33H55m117,11H132m198-5H289m70,10H319m-65-14H213m194-1H366m89,14H413m157-3H532m16,17H506m-298,12H169m660-13H787m-501,6H248m103,6H309m-230-17H40m48,19H49m684-2H692m76-39H728m197,18H883m-126,0H718m258,23H940m-259-35H644m371,2H978m-347,26H595m-35-33H477m-70,25H354m302-7H599m-347,2H197m758,31H901m-805-4H55m117-55H132m198,61H289m-35-4H213m194-1H366m402,0H728m110-1H802m-221,0H498m600-437h-32m-43,15H969m-95-18H819m70,27H838m134-37H916m163,38h-52m-550,1H426m-266-5H120m-23-33H59m115,11H135m198-5H291m69,10H321m-64-14H214m196-1H369m88,14H416m157-3H534m15,17H508m-297,12H172m658-13H790m-501,6H249m105,6H311M81,39.5H42m48,19H51m685-2H695m76-39H731m196,18H885m-127,0H721m257,23H941m-258-35H646m371,2H981m-347,26H598m-35-33H481m-71,25H356m301-7H602m-348,2H198m759,31H902m-805-4H59m274,6H291m-34-4H214m196-1H369m402,0H731m108-1H803m-219,0H501"/></svg>