<?xml version="1.0" encoding="iso-8859-1"?>
<!-- Generator: Adobe Illustrator 19.0.0, SVG Export Plug-In . SVG Version: 6.00 Build 0)  -->
<svg version="1.1" xmlns="http://www.w3.org/2000/svg" xmlns:xlink="http://www.w3.org/1999/xlink" x="0px" y="0px"
	 viewBox="0 0 1140 483" style="enable-background:new 0 0 1140 483;" xml:space="preserve">
<g id="bench-2">
	<rect id="bounds_6_" x="-0.125" style="opacity:0;fill:#FFFFFF;" width="1140" height="483"/>
	<g id="style1">
		<g id="XMLID_50_">
			<rect id="XMLID_51_" x="29.875" style="fill:#DEB074;" width="1080" height="82"/>
		</g>
		<g id="XMLID_48_">
			<rect id="XMLID_49_" x="29.875" y="325" style="fill:#DEB074;" width="1080" height="61"/>
		</g>
		<g id="XMLID_45_">
			<rect id="XMLID_47_" x="29.875" y="400" style="fill:#DEB074;" width="1080" height="83"/>
		</g>
		<g id="XMLID_43_">
			<rect id="XMLID_44_" x="29.875" y="248" style="fill:#DEB074;" width="1080" height="61"/>
		</g>
		<g id="XMLID_41_">
			<rect id="XMLID_42_" x="29.875" y="173" style="fill:#DEB074;" width="1080" height="61"/>
		</g>
		<g id="XMLID_39_">
			<rect id="XMLID_40_" x="29.875" y="96" style="fill:#DEB074;" width="1080" height="61"/>
		</g>
	</g>
	<g id="accent_3_">
		<rect id="XMLID_38_" x="29.875" style="opacity:0.12;" width="1080" height="6"/>
		<rect id="XMLID_37_" x="29.875" y="248" style="opacity:0.12;" width="1080" height="3"/>
		<rect id="XMLID_36_" x="29.875" y="325" style="opacity:0.12;" width="1080" height="3"/>
		<rect id="XMLID_35_" x="29.875" y="400" style="opacity:0.12;" width="1080" height="3"/>
		<rect id="XMLID_33_" x="29.875" y="96" style="opacity:0.12;" width="1080" height="3"/>
		<rect id="XMLID_28_" x="29.875" y="173" style="opacity:0.12;" width="1080" height="3"/>
		
			<line id="XMLID_27_" style="opacity:0.2;fill:none;stroke:#000000;stroke-width:4;stroke-miterlimit:10;" x1="1107.875" y1="482" x2="1107.875" y2="0"/>
		
			<line id="XMLID_23_" style="opacity:0.2;fill:none;stroke:#000000;stroke-width:4;stroke-miterlimit:10;" x1="31.875" y1="482" x2="31.875" y2="0"/>
	</g>
	<g id="texture">
		
			<line id="XMLID_637_" style="opacity:0.12;fill:none;stroke:#000000;stroke-miterlimit:10;" x1="1097.875" y1="347.5" x2="1065.875" y2="347.5"/>
		
			<line id="XMLID_636_" style="opacity:0.12;fill:none;stroke:#000000;stroke-miterlimit:10;" x1="1023.875" y1="362.5" x2="968.875" y2="362.5"/>
		
			<line id="XMLID_635_" style="opacity:0.12;fill:none;stroke:#000000;stroke-miterlimit:10;" x1="873.875" y1="344.5" x2="818.875" y2="344.5"/>
		
			<line id="XMLID_634_" style="opacity:0.12;fill:none;stroke:#000000;stroke-miterlimit:10;" x1="888.875" y1="371.5" x2="837.875" y2="371.5"/>
		
			<line id="XMLID_633_" style="opacity:0.12;fill:none;stroke:#000000;stroke-miterlimit:10;" x1="971.875" y1="334.5" x2="915.875" y2="334.5"/>
		
			<line id="XMLID_632_" style="opacity:0.12;fill:none;stroke:#000000;stroke-miterlimit:10;" x1="1078.875" y1="372.5" x2="1026.875" y2="372.5"/>
		
			<line id="XMLID_631_" style="opacity:0.12;fill:none;stroke:#000000;stroke-miterlimit:10;" x1="476.875" y1="373.5" x2="425.875" y2="373.5"/>
		
			<line id="XMLID_630_" style="opacity:0.12;fill:none;stroke:#000000;stroke-miterlimit:10;" x1="159.875" y1="368.5" x2="119.875" y2="368.5"/>
		
			<line id="XMLID_629_" style="opacity:0.12;fill:none;stroke:#000000;stroke-miterlimit:10;" x1="96.875" y1="335.5" x2="58.875" y2="335.5"/>
		
			<line id="XMLID_628_" style="opacity:0.12;fill:none;stroke:#000000;stroke-miterlimit:10;" x1="173.875" y1="346.5" x2="134.875" y2="346.5"/>
		
			<line id="XMLID_627_" style="opacity:0.12;fill:none;stroke:#000000;stroke-miterlimit:10;" x1="332.875" y1="341.5" x2="290.875" y2="341.5"/>
		
			<line id="XMLID_626_" style="opacity:0.12;fill:none;stroke:#000000;stroke-miterlimit:10;" x1="359.875" y1="351.5" x2="320.875" y2="351.5"/>
		
			<line id="XMLID_625_" style="opacity:0.12;fill:none;stroke:#000000;stroke-miterlimit:10;" x1="256.875" y1="337.5" x2="213.875" y2="337.5"/>
		
			<line id="XMLID_624_" style="opacity:0.12;fill:none;stroke:#000000;stroke-miterlimit:10;" x1="409.875" y1="336.5" x2="368.875" y2="336.5"/>
		
			<line id="XMLID_623_" style="opacity:0.12;fill:none;stroke:#000000;stroke-miterlimit:10;" x1="456.875" y1="350.5" x2="415.875" y2="350.5"/>
		
			<line id="XMLID_622_" style="opacity:0.12;fill:none;stroke:#000000;stroke-miterlimit:10;" x1="572.875" y1="347.5" x2="533.875" y2="347.5"/>
		
			<line id="XMLID_621_" style="opacity:0.12;fill:none;stroke:#000000;stroke-miterlimit:10;" x1="548.875" y1="364.5" x2="507.875" y2="364.5"/>
		
			<line id="XMLID_620_" style="opacity:0.12;fill:none;stroke:#000000;stroke-miterlimit:10;" x1="210.875" y1="376.5" x2="171.875" y2="376.5"/>
		
			<line id="XMLID_619_" style="opacity:0.12;fill:none;stroke:#000000;stroke-miterlimit:10;" x1="829.875" y1="363.5" x2="789.875" y2="363.5"/>
		
			<line id="XMLID_618_" style="opacity:0.12;fill:none;stroke:#000000;stroke-miterlimit:10;" x1="288.875" y1="369.5" x2="248.875" y2="369.5"/>
		
			<line id="XMLID_617_" style="opacity:0.12;fill:none;stroke:#000000;stroke-miterlimit:10;" x1="353.875" y1="375.5" x2="310.875" y2="375.5"/>
		
			<line id="XMLID_616_" style="opacity:0.12;fill:none;stroke:#000000;stroke-miterlimit:10;" x1="80.875" y1="358.5" x2="41.875" y2="358.5"/>
		
			<line id="XMLID_615_" style="opacity:0.12;fill:none;stroke:#000000;stroke-miterlimit:10;" x1="89.875" y1="377.5" x2="50.875" y2="377.5"/>
		
			<line id="XMLID_614_" style="opacity:0.12;fill:none;stroke:#000000;stroke-miterlimit:10;" x1="735.875" y1="375.5" x2="694.875" y2="375.5"/>
		
			<line id="XMLID_613_" style="opacity:0.12;fill:none;stroke:#000000;stroke-miterlimit:10;" x1="770.875" y1="336.5" x2="730.875" y2="336.5"/>
		
			<line id="XMLID_612_" style="opacity:0.12;fill:none;stroke:#000000;stroke-miterlimit:10;" x1="926.875" y1="354.5" x2="884.875" y2="354.5"/>
		
			<line id="XMLID_611_" style="opacity:0.12;fill:none;stroke:#000000;stroke-miterlimit:10;" x1="757.875" y1="354.5" x2="721.875" y2="354.5"/>
		
			<line id="XMLID_610_" style="opacity:0.12;fill:none;stroke:#000000;stroke-miterlimit:10;" x1="977.875" y1="377.5" x2="940.875" y2="377.5"/>
		
			<line id="XMLID_609_" style="opacity:0.12;fill:none;stroke:#000000;stroke-miterlimit:10;" x1="682.875" y1="342.5" x2="645.875" y2="342.5"/>
		
			<line id="XMLID_608_" style="opacity:0.12;fill:none;stroke:#000000;stroke-miterlimit:10;" x1="1016.875" y1="344.5" x2="980.875" y2="344.5"/>
		
			<line id="XMLID_607_" style="opacity:0.12;fill:none;stroke:#000000;stroke-miterlimit:10;" x1="619.875" y1="370.5" x2="580.875" y2="370.5"/>
		
			<line id="XMLID_606_" style="opacity:0.12;fill:none;stroke:#000000;stroke-miterlimit:10;" x1="562.875" y1="337.5" x2="480.875" y2="337.5"/>
		
			<line id="XMLID_605_" style="opacity:0.12;fill:none;stroke:#000000;stroke-miterlimit:10;" x1="409.875" y1="362.5" x2="355.875" y2="362.5"/>
		
			<line id="XMLID_604_" style="opacity:0.12;fill:none;stroke:#000000;stroke-miterlimit:10;" x1="656.875" y1="355.5" x2="601.875" y2="355.5"/>
		
			<line id="XMLID_603_" style="opacity:0.12;fill:none;stroke:#000000;stroke-miterlimit:10;" x1="253.875" y1="357.5" x2="197.875" y2="357.5"/>
		
			<line id="XMLID_543_" style="opacity:0.12;fill:none;stroke:#000000;stroke-miterlimit:10;" x1="1097.875" y1="272.5" x2="1065.875" y2="272.5"/>
		
			<line id="XMLID_542_" style="opacity:0.12;fill:none;stroke:#000000;stroke-miterlimit:10;" x1="1023.875" y1="287.5" x2="968.875" y2="287.5"/>
		
			<line id="XMLID_541_" style="opacity:0.12;fill:none;stroke:#000000;stroke-miterlimit:10;" x1="873.875" y1="269.5" x2="818.875" y2="269.5"/>
		
			<line id="XMLID_540_" style="opacity:0.12;fill:none;stroke:#000000;stroke-miterlimit:10;" x1="888.875" y1="296.5" x2="837.875" y2="296.5"/>
		
			<line id="XMLID_539_" style="opacity:0.12;fill:none;stroke:#000000;stroke-miterlimit:10;" x1="971.875" y1="259.5" x2="915.875" y2="259.5"/>
		
			<line id="XMLID_538_" style="opacity:0.12;fill:none;stroke:#000000;stroke-miterlimit:10;" x1="1078.875" y1="297.5" x2="1026.875" y2="297.5"/>
		
			<line id="XMLID_537_" style="opacity:0.12;fill:none;stroke:#000000;stroke-miterlimit:10;" x1="476.875" y1="298.5" x2="425.875" y2="298.5"/>
		
			<line id="XMLID_536_" style="opacity:0.12;fill:none;stroke:#000000;stroke-miterlimit:10;" x1="159.875" y1="293.5" x2="119.875" y2="293.5"/>
		
			<line id="XMLID_535_" style="opacity:0.12;fill:none;stroke:#000000;stroke-miterlimit:10;" x1="96.875" y1="260.5" x2="58.875" y2="260.5"/>
		
			<line id="XMLID_534_" style="opacity:0.12;fill:none;stroke:#000000;stroke-miterlimit:10;" x1="173.875" y1="271.5" x2="134.875" y2="271.5"/>
		
			<line id="XMLID_533_" style="opacity:0.12;fill:none;stroke:#000000;stroke-miterlimit:10;" x1="332.875" y1="266.5" x2="290.875" y2="266.5"/>
		
			<line id="XMLID_532_" style="opacity:0.12;fill:none;stroke:#000000;stroke-miterlimit:10;" x1="359.875" y1="276.5" x2="320.875" y2="276.5"/>
		
			<line id="XMLID_531_" style="opacity:0.12;fill:none;stroke:#000000;stroke-miterlimit:10;" x1="256.875" y1="262.5" x2="213.875" y2="262.5"/>
		
			<line id="XMLID_530_" style="opacity:0.12;fill:none;stroke:#000000;stroke-miterlimit:10;" x1="409.875" y1="261.5" x2="368.875" y2="261.5"/>
		
			<line id="XMLID_529_" style="opacity:0.12;fill:none;stroke:#000000;stroke-miterlimit:10;" x1="456.875" y1="275.5" x2="415.875" y2="275.5"/>
		
			<line id="XMLID_528_" style="opacity:0.12;fill:none;stroke:#000000;stroke-miterlimit:10;" x1="572.875" y1="272.5" x2="533.875" y2="272.5"/>
		
			<line id="XMLID_527_" style="opacity:0.12;fill:none;stroke:#000000;stroke-miterlimit:10;" x1="548.875" y1="289.5" x2="507.875" y2="289.5"/>
		
			<line id="XMLID_526_" style="opacity:0.12;fill:none;stroke:#000000;stroke-miterlimit:10;" x1="210.875" y1="301.5" x2="171.875" y2="301.5"/>
		
			<line id="XMLID_525_" style="opacity:0.12;fill:none;stroke:#000000;stroke-miterlimit:10;" x1="829.875" y1="288.5" x2="789.875" y2="288.5"/>
		
			<line id="XMLID_524_" style="opacity:0.12;fill:none;stroke:#000000;stroke-miterlimit:10;" x1="288.875" y1="294.5" x2="248.875" y2="294.5"/>
		
			<line id="XMLID_523_" style="opacity:0.12;fill:none;stroke:#000000;stroke-miterlimit:10;" x1="353.875" y1="300.5" x2="310.875" y2="300.5"/>
		
			<line id="XMLID_522_" style="opacity:0.12;fill:none;stroke:#000000;stroke-miterlimit:10;" x1="80.875" y1="283.5" x2="41.875" y2="283.5"/>
		
			<line id="XMLID_521_" style="opacity:0.12;fill:none;stroke:#000000;stroke-miterlimit:10;" x1="89.875" y1="302.5" x2="50.875" y2="302.5"/>
		
			<line id="XMLID_520_" style="opacity:0.12;fill:none;stroke:#000000;stroke-miterlimit:10;" x1="735.875" y1="300.5" x2="694.875" y2="300.5"/>
		
			<line id="XMLID_519_" style="opacity:0.12;fill:none;stroke:#000000;stroke-miterlimit:10;" x1="770.875" y1="261.5" x2="730.875" y2="261.5"/>
		
			<line id="XMLID_518_" style="opacity:0.12;fill:none;stroke:#000000;stroke-miterlimit:10;" x1="926.875" y1="279.5" x2="884.875" y2="279.5"/>
		
			<line id="XMLID_517_" style="opacity:0.12;fill:none;stroke:#000000;stroke-miterlimit:10;" x1="757.875" y1="279.5" x2="721.875" y2="279.5"/>
		
			<line id="XMLID_516_" style="opacity:0.12;fill:none;stroke:#000000;stroke-miterlimit:10;" x1="977.875" y1="302.5" x2="940.875" y2="302.5"/>
		
			<line id="XMLID_515_" style="opacity:0.12;fill:none;stroke:#000000;stroke-miterlimit:10;" x1="682.875" y1="267.5" x2="645.875" y2="267.5"/>
		
			<line id="XMLID_514_" style="opacity:0.12;fill:none;stroke:#000000;stroke-miterlimit:10;" x1="1016.875" y1="269.5" x2="980.875" y2="269.5"/>
		
			<line id="XMLID_513_" style="opacity:0.12;fill:none;stroke:#000000;stroke-miterlimit:10;" x1="619.875" y1="295.5" x2="580.875" y2="295.5"/>
		
			<line id="XMLID_512_" style="opacity:0.12;fill:none;stroke:#000000;stroke-miterlimit:10;" x1="562.875" y1="262.5" x2="480.875" y2="262.5"/>
		
			<line id="XMLID_511_" style="opacity:0.12;fill:none;stroke:#000000;stroke-miterlimit:10;" x1="409.875" y1="287.5" x2="355.875" y2="287.5"/>
		
			<line id="XMLID_510_" style="opacity:0.12;fill:none;stroke:#000000;stroke-miterlimit:10;" x1="656.875" y1="280.5" x2="601.875" y2="280.5"/>
		
			<line id="XMLID_509_" style="opacity:0.12;fill:none;stroke:#000000;stroke-miterlimit:10;" x1="253.875" y1="282.5" x2="197.875" y2="282.5"/>
		
			<line id="XMLID_508_" style="opacity:0.12;fill:none;stroke:#000000;stroke-miterlimit:10;" x1="1097.875" y1="199.5" x2="1065.875" y2="199.5"/>
		
			<line id="XMLID_507_" style="opacity:0.12;fill:none;stroke:#000000;stroke-miterlimit:10;" x1="1023.875" y1="214.5" x2="968.875" y2="214.5"/>
		
			<line id="XMLID_506_" style="opacity:0.12;fill:none;stroke:#000000;stroke-miterlimit:10;" x1="873.875" y1="196.5" x2="818.875" y2="196.5"/>
		
			<line id="XMLID_505_" style="opacity:0.12;fill:none;stroke:#000000;stroke-miterlimit:10;" x1="888.875" y1="223.5" x2="837.875" y2="223.5"/>
		
			<line id="XMLID_504_" style="opacity:0.12;fill:none;stroke:#000000;stroke-miterlimit:10;" x1="971.875" y1="186.5" x2="915.875" y2="186.5"/>
		
			<line id="XMLID_503_" style="opacity:0.12;fill:none;stroke:#000000;stroke-miterlimit:10;" x1="1078.875" y1="224.5" x2="1026.875" y2="224.5"/>
		
			<line id="XMLID_502_" style="opacity:0.12;fill:none;stroke:#000000;stroke-miterlimit:10;" x1="476.875" y1="225.5" x2="425.875" y2="225.5"/>
		
			<line id="XMLID_484_" style="opacity:0.12;fill:none;stroke:#000000;stroke-miterlimit:10;" x1="159.875" y1="220.5" x2="119.875" y2="220.5"/>
		
			<line id="XMLID_483_" style="opacity:0.12;fill:none;stroke:#000000;stroke-miterlimit:10;" x1="96.875" y1="187.5" x2="58.875" y2="187.5"/>
		
			<line id="XMLID_482_" style="opacity:0.12;fill:none;stroke:#000000;stroke-miterlimit:10;" x1="173.875" y1="198.5" x2="134.875" y2="198.5"/>
		
			<line id="XMLID_481_" style="opacity:0.12;fill:none;stroke:#000000;stroke-miterlimit:10;" x1="332.875" y1="193.5" x2="290.875" y2="193.5"/>
		
			<line id="XMLID_480_" style="opacity:0.12;fill:none;stroke:#000000;stroke-miterlimit:10;" x1="359.875" y1="203.5" x2="320.875" y2="203.5"/>
		
			<line id="XMLID_479_" style="opacity:0.12;fill:none;stroke:#000000;stroke-miterlimit:10;" x1="256.875" y1="189.5" x2="213.875" y2="189.5"/>
		
			<line id="XMLID_478_" style="opacity:0.12;fill:none;stroke:#000000;stroke-miterlimit:10;" x1="409.875" y1="188.5" x2="368.875" y2="188.5"/>
		
			<line id="XMLID_477_" style="opacity:0.12;fill:none;stroke:#000000;stroke-miterlimit:10;" x1="456.875" y1="202.5" x2="415.875" y2="202.5"/>
		
			<line id="XMLID_476_" style="opacity:0.12;fill:none;stroke:#000000;stroke-miterlimit:10;" x1="572.875" y1="199.5" x2="533.875" y2="199.5"/>
		
			<line id="XMLID_475_" style="opacity:0.12;fill:none;stroke:#000000;stroke-miterlimit:10;" x1="548.875" y1="216.5" x2="507.875" y2="216.5"/>
		
			<line id="XMLID_474_" style="opacity:0.12;fill:none;stroke:#000000;stroke-miterlimit:10;" x1="210.875" y1="228.5" x2="171.875" y2="228.5"/>
		
			<line id="XMLID_473_" style="opacity:0.12;fill:none;stroke:#000000;stroke-miterlimit:10;" x1="829.875" y1="215.5" x2="789.875" y2="215.5"/>
		
			<line id="XMLID_472_" style="opacity:0.12;fill:none;stroke:#000000;stroke-miterlimit:10;" x1="288.875" y1="221.5" x2="248.875" y2="221.5"/>
		
			<line id="XMLID_471_" style="opacity:0.12;fill:none;stroke:#000000;stroke-miterlimit:10;" x1="353.875" y1="227.5" x2="310.875" y2="227.5"/>
		
			<line id="XMLID_470_" style="opacity:0.12;fill:none;stroke:#000000;stroke-miterlimit:10;" x1="80.875" y1="210.5" x2="41.875" y2="210.5"/>
		
			<line id="XMLID_469_" style="opacity:0.12;fill:none;stroke:#000000;stroke-miterlimit:10;" x1="89.875" y1="229.5" x2="50.875" y2="229.5"/>
		
			<line id="XMLID_468_" style="opacity:0.12;fill:none;stroke:#000000;stroke-miterlimit:10;" x1="735.875" y1="227.5" x2="694.875" y2="227.5"/>
		
			<line id="XMLID_464_" style="opacity:0.12;fill:none;stroke:#000000;stroke-miterlimit:10;" x1="770.875" y1="188.5" x2="730.875" y2="188.5"/>
		
			<line id="XMLID_463_" style="opacity:0.12;fill:none;stroke:#000000;stroke-miterlimit:10;" x1="926.875" y1="206.5" x2="884.875" y2="206.5"/>
		
			<line id="XMLID_462_" style="opacity:0.12;fill:none;stroke:#000000;stroke-miterlimit:10;" x1="757.875" y1="206.5" x2="721.875" y2="206.5"/>
		
			<line id="XMLID_460_" style="opacity:0.12;fill:none;stroke:#000000;stroke-miterlimit:10;" x1="977.875" y1="229.5" x2="940.875" y2="229.5"/>
		
			<line id="XMLID_459_" style="opacity:0.12;fill:none;stroke:#000000;stroke-miterlimit:10;" x1="682.875" y1="194.5" x2="645.875" y2="194.5"/>
		
			<line id="XMLID_458_" style="opacity:0.12;fill:none;stroke:#000000;stroke-miterlimit:10;" x1="1016.875" y1="196.5" x2="980.875" y2="196.5"/>
		
			<line id="XMLID_457_" style="opacity:0.12;fill:none;stroke:#000000;stroke-miterlimit:10;" x1="619.875" y1="222.5" x2="580.875" y2="222.5"/>
		
			<line id="XMLID_456_" style="opacity:0.12;fill:none;stroke:#000000;stroke-miterlimit:10;" x1="562.875" y1="189.5" x2="480.875" y2="189.5"/>
		
			<line id="XMLID_455_" style="opacity:0.12;fill:none;stroke:#000000;stroke-miterlimit:10;" x1="409.875" y1="214.5" x2="355.875" y2="214.5"/>
		
			<line id="XMLID_454_" style="opacity:0.12;fill:none;stroke:#000000;stroke-miterlimit:10;" x1="656.875" y1="207.5" x2="601.875" y2="207.5"/>
		
			<line id="XMLID_453_" style="opacity:0.12;fill:none;stroke:#000000;stroke-miterlimit:10;" x1="253.875" y1="209.5" x2="197.875" y2="209.5"/>
		
			<line id="XMLID_452_" style="opacity:0.12;fill:none;stroke:#000000;stroke-miterlimit:10;" x1="1097.875" y1="119.5" x2="1065.875" y2="119.5"/>
		
			<line id="XMLID_451_" style="opacity:0.12;fill:none;stroke:#000000;stroke-miterlimit:10;" x1="1023.875" y1="134.5" x2="968.875" y2="134.5"/>
		
			<line id="XMLID_450_" style="opacity:0.12;fill:none;stroke:#000000;stroke-miterlimit:10;" x1="873.875" y1="116.5" x2="818.875" y2="116.5"/>
		
			<line id="XMLID_449_" style="opacity:0.12;fill:none;stroke:#000000;stroke-miterlimit:10;" x1="888.875" y1="143.5" x2="837.875" y2="143.5"/>
		
			<line id="XMLID_447_" style="opacity:0.12;fill:none;stroke:#000000;stroke-miterlimit:10;" x1="971.875" y1="106.5" x2="915.875" y2="106.5"/>
		
			<line id="XMLID_446_" style="opacity:0.12;fill:none;stroke:#000000;stroke-miterlimit:10;" x1="1078.875" y1="144.5" x2="1026.875" y2="144.5"/>
		
			<line id="XMLID_445_" style="opacity:0.12;fill:none;stroke:#000000;stroke-miterlimit:10;" x1="476.875" y1="145.5" x2="425.875" y2="145.5"/>
		
			<line id="XMLID_444_" style="opacity:0.12;fill:none;stroke:#000000;stroke-miterlimit:10;" x1="159.875" y1="140.5" x2="119.875" y2="140.5"/>
		
			<line id="XMLID_443_" style="opacity:0.12;fill:none;stroke:#000000;stroke-miterlimit:10;" x1="96.875" y1="107.5" x2="58.875" y2="107.5"/>
		
			<line id="XMLID_442_" style="opacity:0.12;fill:none;stroke:#000000;stroke-miterlimit:10;" x1="173.875" y1="118.5" x2="134.875" y2="118.5"/>
		
			<line id="XMLID_441_" style="opacity:0.12;fill:none;stroke:#000000;stroke-miterlimit:10;" x1="332.875" y1="113.5" x2="290.875" y2="113.5"/>
		
			<line id="XMLID_440_" style="opacity:0.12;fill:none;stroke:#000000;stroke-miterlimit:10;" x1="359.875" y1="123.5" x2="320.875" y2="123.5"/>
		
			<line id="XMLID_439_" style="opacity:0.12;fill:none;stroke:#000000;stroke-miterlimit:10;" x1="256.875" y1="109.5" x2="213.875" y2="109.5"/>
		
			<line id="XMLID_437_" style="opacity:0.12;fill:none;stroke:#000000;stroke-miterlimit:10;" x1="409.875" y1="108.5" x2="368.875" y2="108.5"/>
		
			<line id="XMLID_436_" style="opacity:0.12;fill:none;stroke:#000000;stroke-miterlimit:10;" x1="456.875" y1="122.5" x2="415.875" y2="122.5"/>
		
			<line id="XMLID_434_" style="opacity:0.12;fill:none;stroke:#000000;stroke-miterlimit:10;" x1="572.875" y1="119.5" x2="533.875" y2="119.5"/>
		
			<line id="XMLID_433_" style="opacity:0.12;fill:none;stroke:#000000;stroke-miterlimit:10;" x1="548.875" y1="136.5" x2="507.875" y2="136.5"/>
		
			<line id="XMLID_432_" style="opacity:0.12;fill:none;stroke:#000000;stroke-miterlimit:10;" x1="210.875" y1="148.5" x2="171.875" y2="148.5"/>
		
			<line id="XMLID_431_" style="opacity:0.12;fill:none;stroke:#000000;stroke-miterlimit:10;" x1="829.875" y1="135.5" x2="789.875" y2="135.5"/>
		
			<line id="XMLID_430_" style="opacity:0.12;fill:none;stroke:#000000;stroke-miterlimit:10;" x1="288.875" y1="141.5" x2="248.875" y2="141.5"/>
		
			<line id="XMLID_429_" style="opacity:0.12;fill:none;stroke:#000000;stroke-miterlimit:10;" x1="353.875" y1="147.5" x2="310.875" y2="147.5"/>
		
			<line id="XMLID_428_" style="opacity:0.12;fill:none;stroke:#000000;stroke-miterlimit:10;" x1="80.875" y1="130.5" x2="41.875" y2="130.5"/>
		
			<line id="XMLID_427_" style="opacity:0.12;fill:none;stroke:#000000;stroke-miterlimit:10;" x1="89.875" y1="149.5" x2="50.875" y2="149.5"/>
		
			<line id="XMLID_426_" style="opacity:0.12;fill:none;stroke:#000000;stroke-miterlimit:10;" x1="735.875" y1="147.5" x2="694.875" y2="147.5"/>
		
			<line id="XMLID_425_" style="opacity:0.12;fill:none;stroke:#000000;stroke-miterlimit:10;" x1="770.875" y1="108.5" x2="730.875" y2="108.5"/>
		
			<line id="XMLID_424_" style="opacity:0.12;fill:none;stroke:#000000;stroke-miterlimit:10;" x1="926.875" y1="126.5" x2="884.875" y2="126.5"/>
		
			<line id="XMLID_423_" style="opacity:0.12;fill:none;stroke:#000000;stroke-miterlimit:10;" x1="757.875" y1="126.5" x2="721.875" y2="126.5"/>
		
			<line id="XMLID_422_" style="opacity:0.12;fill:none;stroke:#000000;stroke-miterlimit:10;" x1="977.875" y1="149.5" x2="940.875" y2="149.5"/>
		
			<line id="XMLID_421_" style="opacity:0.12;fill:none;stroke:#000000;stroke-miterlimit:10;" x1="682.875" y1="114.5" x2="645.875" y2="114.5"/>
		
			<line id="XMLID_420_" style="opacity:0.12;fill:none;stroke:#000000;stroke-miterlimit:10;" x1="1016.875" y1="116.5" x2="980.875" y2="116.5"/>
		
			<line id="XMLID_419_" style="opacity:0.12;fill:none;stroke:#000000;stroke-miterlimit:10;" x1="619.875" y1="142.5" x2="580.875" y2="142.5"/>
		
			<line id="XMLID_417_" style="opacity:0.12;fill:none;stroke:#000000;stroke-miterlimit:10;" x1="562.875" y1="109.5" x2="480.875" y2="109.5"/>
		
			<line id="XMLID_416_" style="opacity:0.12;fill:none;stroke:#000000;stroke-miterlimit:10;" x1="409.875" y1="134.5" x2="355.875" y2="134.5"/>
		
			<line id="XMLID_415_" style="opacity:0.12;fill:none;stroke:#000000;stroke-miterlimit:10;" x1="656.875" y1="127.5" x2="601.875" y2="127.5"/>
		
			<line id="XMLID_414_" style="opacity:0.12;fill:none;stroke:#000000;stroke-miterlimit:10;" x1="253.875" y1="129.5" x2="197.875" y2="129.5"/>
		
			<line id="XMLID_572_" style="opacity:0.12;fill:none;stroke:#000000;stroke-miterlimit:10;" x1="1095.875" y1="428.5" x2="1062.875" y2="428.5"/>
		
			<line id="XMLID_571_" style="opacity:0.12;fill:none;stroke:#000000;stroke-miterlimit:10;" x1="1020.875" y1="443.5" x2="965.875" y2="443.5"/>
		
			<line id="XMLID_570_" style="opacity:0.12;fill:none;stroke:#000000;stroke-miterlimit:10;" x1="872.875" y1="425.5" x2="816.875" y2="425.5"/>
		
			<line id="XMLID_569_" style="opacity:0.12;fill:none;stroke:#000000;stroke-miterlimit:10;" x1="887.875" y1="452.5" x2="834.875" y2="452.5"/>
		
			<line id="XMLID_568_" style="opacity:0.12;fill:none;stroke:#000000;stroke-miterlimit:10;" x1="968.875" y1="415.5" x2="913.875" y2="415.5"/>
		
			<line id="XMLID_567_" style="opacity:0.12;fill:none;stroke:#000000;stroke-miterlimit:10;" x1="1076.875" y1="453.5" x2="1023.875" y2="453.5"/>
		
			<line id="XMLID_566_" style="opacity:0.12;fill:none;stroke:#000000;stroke-miterlimit:10;" x1="475.875" y1="454.5" x2="421.875" y2="454.5"/>
		
			<line id="XMLID_565_" style="opacity:0.12;fill:none;stroke:#000000;stroke-miterlimit:10;" x1="156.875" y1="449.5" x2="116.875" y2="449.5"/>
		
			<line id="XMLID_564_" style="opacity:0.12;fill:none;stroke:#000000;stroke-miterlimit:10;" x1="95.875" y1="416.5" x2="54.875" y2="416.5"/>
		
			<line id="XMLID_563_" style="opacity:0.12;fill:none;stroke:#000000;stroke-miterlimit:10;" x1="171.875" y1="427.5" x2="131.875" y2="427.5"/>
		
			<line id="XMLID_562_" style="opacity:0.12;fill:none;stroke:#000000;stroke-miterlimit:10;" x1="329.875" y1="422.5" x2="288.875" y2="422.5"/>
		
			<line id="XMLID_561_" style="opacity:0.12;fill:none;stroke:#000000;stroke-miterlimit:10;" x1="358.875" y1="432.5" x2="318.875" y2="432.5"/>
		
			<line id="XMLID_560_" style="opacity:0.12;fill:none;stroke:#000000;stroke-miterlimit:10;" x1="253.875" y1="418.5" x2="212.875" y2="418.5"/>
		
			<line id="XMLID_559_" style="opacity:0.12;fill:none;stroke:#000000;stroke-miterlimit:10;" x1="406.875" y1="417.5" x2="365.875" y2="417.5"/>
		
			<line id="XMLID_558_" style="opacity:0.12;fill:none;stroke:#000000;stroke-miterlimit:10;" x1="454.875" y1="431.5" x2="412.875" y2="431.5"/>
		
			<line id="XMLID_557_" style="opacity:0.12;fill:none;stroke:#000000;stroke-miterlimit:10;" x1="569.875" y1="428.5" x2="531.875" y2="428.5"/>
		
			<line id="XMLID_556_" style="opacity:0.12;fill:none;stroke:#000000;stroke-miterlimit:10;" x1="547.875" y1="445.5" x2="505.875" y2="445.5"/>
		
			<line id="XMLID_555_" style="opacity:0.12;fill:none;stroke:#000000;stroke-miterlimit:10;" x1="207.875" y1="457.5" x2="168.875" y2="457.5"/>
		
			<line id="XMLID_554_" style="opacity:0.12;fill:none;stroke:#000000;stroke-miterlimit:10;" x1="828.875" y1="444.5" x2="786.875" y2="444.5"/>
		
			<line id="XMLID_553_" style="opacity:0.12;fill:none;stroke:#000000;stroke-miterlimit:10;" x1="285.875" y1="450.5" x2="247.875" y2="450.5"/>
		
			<line id="XMLID_552_" style="opacity:0.12;fill:none;stroke:#000000;stroke-miterlimit:10;" x1="350.875" y1="456.5" x2="308.875" y2="456.5"/>
		
			<line id="XMLID_551_" style="opacity:0.12;fill:none;stroke:#000000;stroke-miterlimit:10;" x1="78.875" y1="439.5" x2="39.875" y2="439.5"/>
		
			<line id="XMLID_550_" style="opacity:0.12;fill:none;stroke:#000000;stroke-miterlimit:10;" x1="87.875" y1="458.5" x2="48.875" y2="458.5"/>
		
			<line id="XMLID_549_" style="opacity:0.12;fill:none;stroke:#000000;stroke-miterlimit:10;" x1="732.875" y1="456.5" x2="691.875" y2="456.5"/>
		
			<line id="XMLID_548_" style="opacity:0.12;fill:none;stroke:#000000;stroke-miterlimit:10;" x1="767.875" y1="417.5" x2="727.875" y2="417.5"/>
		
			<line id="XMLID_547_" style="opacity:0.12;fill:none;stroke:#000000;stroke-miterlimit:10;" x1="924.875" y1="435.5" x2="882.875" y2="435.5"/>
		
			<line id="XMLID_546_" style="opacity:0.12;fill:none;stroke:#000000;stroke-miterlimit:10;" x1="756.875" y1="435.5" x2="717.875" y2="435.5"/>
		
			<line id="XMLID_545_" style="opacity:0.12;fill:none;stroke:#000000;stroke-miterlimit:10;" x1="975.875" y1="458.5" x2="939.875" y2="458.5"/>
		
			<line id="XMLID_544_" style="opacity:0.12;fill:none;stroke:#000000;stroke-miterlimit:10;" x1="680.875" y1="423.5" x2="643.875" y2="423.5"/>
		
			<line id="XMLID_77_" style="opacity:0.12;fill:none;stroke:#000000;stroke-miterlimit:10;" x1="1014.875" y1="425.5" x2="977.875" y2="425.5"/>
		
			<line id="XMLID_64_" style="opacity:0.12;fill:none;stroke:#000000;stroke-miterlimit:10;" x1="630.875" y1="451.5" x2="594.875" y2="451.5"/>
		
			<line id="XMLID_62_" style="opacity:0.12;fill:none;stroke:#000000;stroke-miterlimit:10;" x1="559.875" y1="418.5" x2="476.875" y2="418.5"/>
		
			<line id="XMLID_60_" style="opacity:0.12;fill:none;stroke:#000000;stroke-miterlimit:10;" x1="406.875" y1="443.5" x2="353.875" y2="443.5"/>
		
			<line id="XMLID_14_" style="opacity:0.12;fill:none;stroke:#000000;stroke-miterlimit:10;" x1="655.875" y1="436.5" x2="598.875" y2="436.5"/>
		
			<line id="XMLID_8_" style="opacity:0.12;fill:none;stroke:#000000;stroke-miterlimit:10;" x1="251.875" y1="438.5" x2="196.875" y2="438.5"/>
		
			<line id="XMLID_240_" style="opacity:0.12;fill:none;stroke:#000000;stroke-miterlimit:10;" x1="954.875" y1="469.5" x2="900.875" y2="469.5"/>
		
			<line id="XMLID_239_" style="opacity:0.12;fill:none;stroke:#000000;stroke-miterlimit:10;" x1="95.875" y1="465.5" x2="54.875" y2="465.5"/>
		
			<line id="XMLID_238_" style="opacity:0.12;fill:none;stroke:#000000;stroke-miterlimit:10;" x1="171.875" y1="410.5" x2="131.875" y2="410.5"/>
		
			<line id="XMLID_237_" style="opacity:0.12;fill:none;stroke:#000000;stroke-miterlimit:10;" x1="329.875" y1="471.5" x2="288.875" y2="471.5"/>
		
			<line id="XMLID_235_" style="opacity:0.12;fill:none;stroke:#000000;stroke-miterlimit:10;" x1="253.875" y1="467.5" x2="212.875" y2="467.5"/>
		
			<line id="XMLID_234_" style="opacity:0.12;fill:none;stroke:#000000;stroke-miterlimit:10;" x1="406.875" y1="466.5" x2="365.875" y2="466.5"/>
		
			<line id="XMLID_231_" style="opacity:0.12;fill:none;stroke:#000000;stroke-miterlimit:10;" x1="767.875" y1="466.5" x2="727.875" y2="466.5"/>
		
			<line id="XMLID_229_" style="opacity:0.12;fill:none;stroke:#000000;stroke-miterlimit:10;" x1="837.875" y1="465.5" x2="801.875" y2="465.5"/>
		
			<line id="XMLID_228_" style="opacity:0.12;fill:none;stroke:#000000;stroke-miterlimit:10;" x1="580.875" y1="465.5" x2="497.875" y2="465.5"/>
		
			<line id="XMLID_485_" style="opacity:0.12;fill:none;stroke:#000000;stroke-miterlimit:10;" x1="1097.875" y1="28.5" x2="1065.875" y2="28.5"/>
		
			<line id="XMLID_467_" style="opacity:0.12;fill:none;stroke:#000000;stroke-miterlimit:10;" x1="1022.875" y1="43.5" x2="968.875" y2="43.5"/>
		
			<line id="XMLID_466_" style="opacity:0.12;fill:none;stroke:#000000;stroke-miterlimit:10;" x1="873.875" y1="25.5" x2="818.875" y2="25.5"/>
		
			<line id="XMLID_465_" style="opacity:0.12;fill:none;stroke:#000000;stroke-miterlimit:10;" x1="888.875" y1="52.5" x2="837.875" y2="52.5"/>
		
			<line id="XMLID_461_" style="opacity:0.12;fill:none;stroke:#000000;stroke-miterlimit:10;" x1="971.875" y1="15.5" x2="915.875" y2="15.5"/>
		
			<line id="XMLID_448_" style="opacity:0.12;fill:none;stroke:#000000;stroke-miterlimit:10;" x1="1078.875" y1="53.5" x2="1026.875" y2="53.5"/>
		
			<line id="XMLID_413_" style="opacity:0.12;fill:none;stroke:#000000;stroke-miterlimit:10;" x1="476.875" y1="54.5" x2="425.875" y2="54.5"/>
		
			<line id="XMLID_412_" style="opacity:0.12;fill:none;stroke:#000000;stroke-miterlimit:10;" x1="159.875" y1="49.5" x2="119.875" y2="49.5"/>
		
			<line id="XMLID_411_" style="opacity:0.12;fill:none;stroke:#000000;stroke-miterlimit:10;" x1="96.875" y1="16.5" x2="58.875" y2="16.5"/>
		
			<line id="XMLID_410_" style="opacity:0.12;fill:none;stroke:#000000;stroke-miterlimit:10;" x1="173.875" y1="27.5" x2="134.875" y2="27.5"/>
		
			<line id="XMLID_409_" style="opacity:0.12;fill:none;stroke:#000000;stroke-miterlimit:10;" x1="332.875" y1="22.5" x2="290.875" y2="22.5"/>
		
			<line id="XMLID_408_" style="opacity:0.12;fill:none;stroke:#000000;stroke-miterlimit:10;" x1="359.875" y1="32.5" x2="320.875" y2="32.5"/>
		
			<line id="XMLID_407_" style="opacity:0.12;fill:none;stroke:#000000;stroke-miterlimit:10;" x1="256.875" y1="18.5" x2="213.875" y2="18.5"/>
		
			<line id="XMLID_406_" style="opacity:0.12;fill:none;stroke:#000000;stroke-miterlimit:10;" x1="409.875" y1="17.5" x2="368.875" y2="17.5"/>
		
			<line id="XMLID_405_" style="opacity:0.12;fill:none;stroke:#000000;stroke-miterlimit:10;" x1="456.875" y1="31.5" x2="415.875" y2="31.5"/>
		
			<line id="XMLID_404_" style="opacity:0.12;fill:none;stroke:#000000;stroke-miterlimit:10;" x1="572.875" y1="28.5" x2="533.875" y2="28.5"/>
		
			<line id="XMLID_403_" style="opacity:0.12;fill:none;stroke:#000000;stroke-miterlimit:10;" x1="548.875" y1="45.5" x2="507.875" y2="45.5"/>
		
			<line id="XMLID_402_" style="opacity:0.12;fill:none;stroke:#000000;stroke-miterlimit:10;" x1="210.875" y1="57.5" x2="171.875" y2="57.5"/>
		
			<line id="XMLID_401_" style="opacity:0.12;fill:none;stroke:#000000;stroke-miterlimit:10;" x1="829.875" y1="44.5" x2="789.875" y2="44.5"/>
		
			<line id="XMLID_400_" style="opacity:0.12;fill:none;stroke:#000000;stroke-miterlimit:10;" x1="288.875" y1="50.5" x2="248.875" y2="50.5"/>
		
			<line id="XMLID_399_" style="opacity:0.12;fill:none;stroke:#000000;stroke-miterlimit:10;" x1="353.875" y1="56.5" x2="310.875" y2="56.5"/>
		
			<line id="XMLID_398_" style="opacity:0.12;fill:none;stroke:#000000;stroke-miterlimit:10;" x1="80.875" y1="39.5" x2="41.875" y2="39.5"/>
		
			<line id="XMLID_397_" style="opacity:0.12;fill:none;stroke:#000000;stroke-miterlimit:10;" x1="89.875" y1="58.5" x2="50.875" y2="58.5"/>
		
			<line id="XMLID_396_" style="opacity:0.12;fill:none;stroke:#000000;stroke-miterlimit:10;" x1="735.875" y1="56.5" x2="694.875" y2="56.5"/>
		
			<line id="XMLID_395_" style="opacity:0.12;fill:none;stroke:#000000;stroke-miterlimit:10;" x1="770.875" y1="17.5" x2="730.875" y2="17.5"/>
		
			<line id="XMLID_394_" style="opacity:0.12;fill:none;stroke:#000000;stroke-miterlimit:10;" x1="926.875" y1="35.5" x2="884.875" y2="35.5"/>
		
			<line id="XMLID_393_" style="opacity:0.12;fill:none;stroke:#000000;stroke-miterlimit:10;" x1="757.875" y1="35.5" x2="720.875" y2="35.5"/>
		
			<line id="XMLID_392_" style="opacity:0.12;fill:none;stroke:#000000;stroke-miterlimit:10;" x1="977.875" y1="58.5" x2="940.875" y2="58.5"/>
		
			<line id="XMLID_391_" style="opacity:0.12;fill:none;stroke:#000000;stroke-miterlimit:10;" x1="682.875" y1="23.5" x2="645.875" y2="23.5"/>
		
			<line id="XMLID_389_" style="opacity:0.12;fill:none;stroke:#000000;stroke-miterlimit:10;" x1="1016.875" y1="25.5" x2="980.875" y2="25.5"/>
		
			<line id="XMLID_387_" style="opacity:0.12;fill:none;stroke:#000000;stroke-miterlimit:10;" x1="633.875" y1="51.5" x2="597.875" y2="51.5"/>
		
			<line id="XMLID_383_" style="opacity:0.12;fill:none;stroke:#000000;stroke-miterlimit:10;" x1="562.875" y1="18.5" x2="480.875" y2="18.5"/>
		
			<line id="XMLID_381_" style="opacity:0.12;fill:none;stroke:#000000;stroke-miterlimit:10;" x1="409.875" y1="43.5" x2="355.875" y2="43.5"/>
		
			<line id="XMLID_379_" style="opacity:0.12;fill:none;stroke:#000000;stroke-miterlimit:10;" x1="656.875" y1="36.5" x2="601.875" y2="36.5"/>
		
			<line id="XMLID_378_" style="opacity:0.12;fill:none;stroke:#000000;stroke-miterlimit:10;" x1="253.875" y1="38.5" x2="197.875" y2="38.5"/>
		
			<line id="XMLID_367_" style="opacity:0.12;fill:none;stroke:#000000;stroke-miterlimit:10;" x1="956.875" y1="69.5" x2="901.875" y2="69.5"/>
		
			<line id="XMLID_363_" style="opacity:0.12;fill:none;stroke:#000000;stroke-miterlimit:10;" x1="96.875" y1="65.5" x2="58.875" y2="65.5"/>
		
			<line id="XMLID_360_" style="opacity:0.12;fill:none;stroke:#000000;stroke-miterlimit:10;" x1="332.875" y1="71.5" x2="290.875" y2="71.5"/>
		
			<line id="XMLID_320_" style="opacity:0.12;fill:none;stroke:#000000;stroke-miterlimit:10;" x1="256.875" y1="67.5" x2="213.875" y2="67.5"/>
		
			<line id="XMLID_262_" style="opacity:0.12;fill:none;stroke:#000000;stroke-miterlimit:10;" x1="409.875" y1="66.5" x2="368.875" y2="66.5"/>
		
			<line id="XMLID_233_" style="opacity:0.12;fill:none;stroke:#000000;stroke-miterlimit:10;" x1="770.875" y1="66.5" x2="730.875" y2="66.5"/>
		
			<line id="XMLID_232_" style="opacity:0.12;fill:none;stroke:#000000;stroke-miterlimit:10;" x1="838.875" y1="65.5" x2="802.875" y2="65.5"/>
		
			<line id="XMLID_230_" style="opacity:0.12;fill:none;stroke:#000000;stroke-miterlimit:10;" x1="583.875" y1="65.5" x2="500.875" y2="65.5"/>
	</g>
</g>
<g id="Layer_1">
</g>
</svg>
