<svg xmlns="http://www.w3.org/2000/svg" viewBox="0 0 1740 483"><defs><style>.a{fill:#dbdbda;}.b{fill:#deb074;}.c,.e{opacity:0.12;}.c,.d,.e{isolation:isolate;}.d,.e{fill:none;stroke:#000;stroke-miterlimit:10;}.d{stroke-width:4px;opacity:0.2;}</style></defs><title>06</title><path class="a" d="M847,385.9h46.3V400H847Zm0-76.5h46.3v15.1H847Zm0-76.5h46.3V248H847Zm0-75.4h46.3v15.1H847ZM847,82h46.3V97.1H847Z"/><path class="b" d="M29.9,400h1680v83H29.9Zm0-304h1680v61H29.9Zm0-96h1680V82H29.9Zm0,173h1680v61H29.9Zm0,75h1680v61H29.9Zm0,77h1680v61H29.9Z"/><path class="c" d="M29.9,476h1680v7H29.9Zm0-245h1680v3H29.9Zm0-77h1680v3H29.9Zm0-75h1680v3H29.9Zm0,304h1680v3H29.9Zm0-77h1680v3H29.9Z"/><path class="d" d="M31.9,0V483M1707.9,0V483"/><path class="e" d="M56.9,134.5h37m47-15h63m108,18h63m-79-27h57m-152,37h64m-187-38h60m627-1h58m302,5h46m26,33h44m-132-11h45m-226,5h48m-78-10h44m73,14h49m-223,1h46m-100-14h46m-178,3h44m-16-17h46m338-12h44m-749,13h46m570-6h46m-119-6h48m263,17h44m-55-19h44m-780,2h47m-86,39h45m-223-18h47m145,0h42m-292-23h42m294,35h42m-422-2h40m412-26h44m20,33h94m81-25h61m-343,7h63m397-2h63m-1025,85h37m47-15h63m108,18h63m-79-27h57m-152,37h64m-187-38h60m627-1h58m302,5h46m26,33h44m-132-11h45m-226,5h48m-78-10h44m73,14h49m-223,1h46m-100-14h46m-178,3h44m-16-17h46m338-12h44m-749,13h46m570-6h46m-119-6h48m263,17h44m-55-19h44m-780,2h47m-86,39h45m-223-18h47m145,0h42m-292-23h42m294,35h42m-422-2h40m412-26h44m20,33h94m81-25h61m-343,7h63m397-2h63m-1025,83h37m47-15h63m108,18h63m-79-27h57m-152,37h64m-187-38h60m627-1h58m302,5h46m26,33h44m-132-11h45m-226,5h48m-78-10h44m73,14h49m-223,1h46m-100-14h46m-178,3h44m-16-17h46m338-12h44m-749,13h46m570-6h46m-119-6h48m263,17h44m-55-19h44m-780,2h47m-86,39h45m-223-18h47m145,0h42m-292-23h42m294,35h42m-422-2h40m412-26h44m20,33h94m81-25h61m-343,7h63m397-2h63m-1025,90h37m47-15h63m108,18h63m-79-27h57m-152,37h64m-187-38h60m627-1h58m302,5h46m26,33h44m-132-11h45m-226,5h48m-78-10h44m73,14h49m-223,1h46m-100-14h46m-178,3h44m-16-17h46m338-12h44m-749,13h46m570-6h46m-119-6h48m263,17h44m-55-19h44m-780,2h47m-86,39h45m-223-18h47m145,0h42m-292-23h42m294,35h42m-422-2h40m412-26h44m20,33h94m81-25h61m-343,7h63m397-2h63M58.9,53.5h38m48-15h63m105,18h64m-81-27h60m-152,37h63m-186-38h60m625-1h61m302,5h45m24,33h47m-134-11h46m-225,5h46m-79-10h45m75,14h46m-221,1h46m-101-14h48m-178,3h43m-18-17h47m340-12h44m-752,13h48m571-6h43m-117-6h48m262,17h44m-55-19h44m-778,2h47m-87,39h45m-224-18h48m143,0h45m-294-23h41m295,35h43m-423-2h42m395-26h41m40,33h95m79-25h61m-345,7h66m395-2h62m-863-31h61m917,4h47m-134,55h46m-225-61h46m41,4h46m-221,1h46m-457,0h45m-125,1h41m252,0h95m-684,437h37m48-15h62m108,18h63m-79-27h57m-152,37h64m-187-38h60m627-1h58m302,5h46m26,33h44m-132-11h45m-226,5h48m-78-10h44m73,14h49m-223,1h46m-100-14h46m-178,3h44m-16-17h46m338-12h44m-749,13h46m570-6h46m-119-6h48m263,17h44m-55-19h44m-780,2h47m-86,39h45m-223-18h47m145,0h43m-293-23h42m294,35h42m-422-2h40m395-26h42m39,33h94m81-25h61m-343,7h63m397-2h63m-865-31h63m917,4h44m-313-6h48m39,4h49m-223,1h46m-457,0h45m-123,1h41m249,0h95m818-298h46m26,33h43m-131-11h45m-226,5h48m-78-10h44m72,14h50m-223,1h46m180-40h44m-133,7h45m-119-6h49m262,17h45m-55-19h44m-408,15h61m116,5h64m43,64h46m26,33h43m-131-11h45m-226,5h48m-78-10h44m72,14h50m-223,1h46m180-40h44m-133,7h45m-119-6h49m262,17h45m-55-19h44m-408,15h61m116,5h64m43,62h46m26,33h43m-131-11h45m-226,5h48m-78-10h44m72,14h50m-223,1h46m180-40h44m-133,7h45m-119-6h49m262,17h45m-55-19h44m-408,15h61m116,5h64m43,69h46m26,33h43m-131-11h45m-226,5h48m-78-10h44m72,14h50m-223,1h46m180-40h44m-133,7h45m-119-6h49m262,17h45m-55-19h44m-408,15h61m116,5h64m46-320h46m24,33h46m-133-11h45m-225,5h47m-79-10h45m74,14h47m-221,1h46m180-40h45m-133,7h43m-118-6h49m261,17h45m-55-19h44m-407,15h60m116,5h63m115-27h46m-133,55h45m-225-61h47m40,4h47m-221,1h46m235,417h46m26,33h43m-131-11h45m-226,5h48m-78-10h44m72,14h50m-223,1h46m180-40h44m-133,7h45m-119-6h49m262,17h45m-55-19h44m-408,15h61m116,5h64m115-27h43m-312-6h48m38,4h50m-223,1h46"/></svg>