<svg xmlns="http://www.w3.org/2000/svg" xmlns:xlink="http://www.w3.org/1999/xlink" viewBox="0 0 601 601"><defs><style>.a{fill:#fff;fill-opacity:0;}.b{fill:#5F635E;}.c,.d,.e,.f,.g,.h,.i,.j,.k,.l,.m,.n,.o,.p{fill:none;stroke-miterlimit:10;}.c,.d,.e,.f,.g,.h,.i,.j,.k,.l,.m,.o{stroke-width:4px;}.c{stroke:url(#a);}.d{stroke:url(#b);}.e{stroke:url(#c);}.f{stroke:url(#d);}.g{stroke:url(#e);}.h{stroke:url(#f);}.i{stroke:url(#g);}.j{stroke:url(#h);}.k{stroke:url(#i);}.l{stroke:url(#j);}.m{stroke:url(#k);}.n{stroke:#fff;stroke-linecap:round;stroke-width:12px;}.o,.p{stroke:#000;isolation:isolate;}.o{opacity:0.2;}.p{stroke-width:10px;opacity:0.12;}</style><linearGradient id="a" x1="861.25" y1="-96.23" x2="893.09" y2="-128.07" gradientTransform="matrix(0, 1, 1, 0, 171.11, -362)" gradientUnits="userSpaceOnUse"><stop offset="0" stop-opacity="0.7"/><stop offset="1" stop-opacity="0.2"/></linearGradient><linearGradient id="b" x1="784.32" y1="-93.55" x2="818.3" y2="-127.52" xlink:href="#a"/><linearGradient id="c" x1="706.99" y1="-93.33" x2="741.41" y2="-127.75" xlink:href="#a"/><linearGradient id="d" x1="632.54" y1="-92.97" x2="667.69" y2="-128.12" xlink:href="#a"/><linearGradient id="e" x1="553.18" y1="-92.33" x2="589.66" y2="-128.82" xlink:href="#a"/><linearGradient id="f" x1="1171.37" y1="230.65" x2="1203.21" y2="198.81" gradientTransform="translate(-672.5 -156.4)" xlink:href="#a"/><linearGradient id="g" x1="1094.45" y1="233.33" x2="1128.42" y2="199.35" gradientTransform="translate(-672.5 -156.4)" xlink:href="#a"/><linearGradient id="h" x1="1017.11" y1="233.54" x2="1051.53" y2="199.13" gradientTransform="translate(-672.5 -156.4)" xlink:href="#a"/><linearGradient id="i" x1="942.67" y1="233.9" x2="977.82" y2="198.75" gradientTransform="translate(-672.5 -156.4)" xlink:href="#a"/><linearGradient id="j" x1="863.3" y1="234.54" x2="899.79" y2="198.05" gradientTransform="translate(-672.5 -156.4)" xlink:href="#a"/><linearGradient id="k" x1="-32.87" y1="446.17" x2="446.32" y2="-33.03" gradientUnits="userSpaceOnUse"><stop offset="0" stop-opacity="0.25"/><stop offset="1" stop-opacity="0.2"/></linearGradient></defs><title>09-</title><rect class="a" x="-0.1" width="601" height="601"/><path class="b" d="M30.3,120.4s.5.2-.5.2V601c315-.2,571-256,571.2-571h-480A90.8,90.8,0,0,1,30.3,120.4Z"/><path class="c" d="M30.6,516.7a497.8,497.8,0,0,0,56.7-3.2"/><path class="d" d="M30.6,441.3A414.4,414.4,0,0,0,90.5,437"/><path class="e" d="M30.6,364.7a340.2,340.2,0,0,0,59.9-5.3"/><path class="f" d="M30.6,291.3a262.8,262.8,0,0,0,59.9-6.9"/><path class="g" d="M30.6,214a186.8,186.8,0,0,0,59.9-9.8"/><path class="h" d="M516.3,30a497.8,497.8,0,0,1-3.2,56.7"/><path class="i" d="M441,30a414.4,414.4,0,0,1-4.3,59.9"/><path class="j" d="M364.3,30A340.2,340.2,0,0,1,359,89.9"/><path class="k" d="M291,30a262.8,262.8,0,0,1-6.9,59.9"/><path class="l" d="M213.7,30a186.8,186.8,0,0,1-9.8,59.9"/><path class="m" d="M30.6,507.7a497.8,497.8,0,0,0,56.7-3.2M30.6,432.3A414.4,414.4,0,0,0,90.5,428M30.6,355.7a340.2,340.2,0,0,0,59.9-5.3m-59.9-68a262.8,262.8,0,0,0,59.9-6.9M30.6,205a186.8,186.8,0,0,0,59.9-9.8M507.3,30a497.8,497.8,0,0,1-3.2,56.7M432,30a414.4,414.4,0,0,1-4.3,59.9M355.3,30A340.2,340.2,0,0,1,350,89.9M282,30a262.8,262.8,0,0,1-6.9,59.9M204.7,30a186.8,186.8,0,0,1-9.8,59.9"/><path class="n" d="M508.5,90.1C481.6,308.3,308.7,481.2,90.5,508.3M432.8,90.1C406.8,266.8,267.2,406.5,90.5,432.6M355.8,90.1C331.3,224.7,225.2,330.9,90.5,355.6M279.1,90.1A255.9,255.9,0,0,1,90.5,278.9M200,90.1A180,180,0,0,1,90.6,199.8"/><path class="o" d="M31.9,601V121m569-89h-480M32.1,126a94.2,94.2,0,0,0,94.3-94.3"/><path class="p" d="M32.1,594c311.7,0,564-252.3,564-564"/></svg>