<?xml version="1.0" encoding="iso-8859-1"?>
<!-- Generator: Adobe Illustrator 19.0.0, SVG Export Plug-In . SVG Version: 6.00 Build 0)  -->
<svg version="1.1" xmlns="http://www.w3.org/2000/svg" xmlns:xlink="http://www.w3.org/1999/xlink" x="0px" y="0px"
	 viewBox="0 0 601 601" style="enable-background:new 0 0 601 601;" xml:space="preserve">
<g id="panel-90">
	<rect id="bounds_3_" x="-0.125" style="opacity:0;fill:#FFFFFF;" width="601" height="601"/>
	<g id="style1">
		<path id="stuff" style="fill:#6D6D6D;" d="M30.333,120.417c-0.028,0,0.541,0.249-0.459,0.249v480.331
			C344.875,600.751,600.876,345,601.122,30h-480C120.987,80,80.186,120.417,30.333,120.417z"/>
	</g>
	<g id="accent_1_">
		<g id="XMLID_52_">
			
				<linearGradient id="XMLID_2_" gradientUnits="userSpaceOnUse" x1="738.2485" y1="815.1176" x2="770.0861" y2="846.9553" gradientTransform="matrix(4.489700e-011 1 -1 4.489700e-011 890 -239)">
				<stop  offset="0" style="stop-color:#000000;stop-opacity:0.7"/>
				<stop  offset="1" style="stop-color:#000000;stop-opacity:0.2"/>
			</linearGradient>
			<path id="XMLID_12_" style="fill:none;stroke:url(#XMLID_2_);stroke-width:4;stroke-miterlimit:10;" d="M30.625,516.667
				c19.176,0,38.093-1.095,56.69-3.226"/>
			
				<linearGradient id="XMLID_3_" gradientUnits="userSpaceOnUse" x1="661.3227" y1="812.436" x2="695.2974" y2="846.4107" gradientTransform="matrix(4.489700e-011 1 -1 4.489700e-011 890 -239)">
				<stop  offset="0" style="stop-color:#000000;stop-opacity:0.7"/>
				<stop  offset="1" style="stop-color:#000000;stop-opacity:0.2"/>
			</linearGradient>
			<path id="XMLID_16_" style="fill:none;stroke:url(#XMLID_3_);stroke-width:4;stroke-miterlimit:10;" d="M30.625,441.333
				c20.356,0,40.364-1.479,59.924-4.336"/>
			
				<linearGradient id="XMLID_5_" gradientUnits="userSpaceOnUse" x1="583.9886" y1="812.2203" x2="618.4048" y2="846.6366" gradientTransform="matrix(4.489700e-011 1 -1 4.489700e-011 890 -239)">
				<stop  offset="0" style="stop-color:#000000;stop-opacity:0.7"/>
				<stop  offset="1" style="stop-color:#000000;stop-opacity:0.2"/>
			</linearGradient>
			<path id="XMLID_18_" style="fill:none;stroke:url(#XMLID_5_);stroke-width:4;stroke-miterlimit:10;" d="M30.625,364.667
				c20.454,0,40.48-1.815,59.924-5.292"/>
			
				<linearGradient id="XMLID_8_" gradientUnits="userSpaceOnUse" x1="509.5449" y1="811.8637" x2="544.6946" y2="847.0134" gradientTransform="matrix(4.489700e-011 1 -1 4.489700e-011 890 -239)">
				<stop  offset="0" style="stop-color:#000000;stop-opacity:0.7"/>
				<stop  offset="1" style="stop-color:#000000;stop-opacity:0.2"/>
			</linearGradient>
			<path id="XMLID_19_" style="fill:none;stroke:url(#XMLID_8_);stroke-width:4;stroke-miterlimit:10;" d="M30.625,291.333
				c20.621,0,40.682-2.381,59.925-6.883"/>
			
				<linearGradient id="XMLID_9_" gradientUnits="userSpaceOnUse" x1="430.1761" y1="811.2216" x2="466.6646" y2="847.7101" gradientTransform="matrix(4.489700e-011 1 -1 4.489700e-011 890 -239)">
				<stop  offset="0" style="stop-color:#000000;stop-opacity:0.7"/>
				<stop  offset="1" style="stop-color:#000000;stop-opacity:0.2"/>
			</linearGradient>
			<path id="XMLID_21_" style="fill:none;stroke:url(#XMLID_9_);stroke-width:4;stroke-miterlimit:10;" d="M30.625,214
				c20.969,0,41.123-3.445,59.923-9.8"/>
			
				<linearGradient id="XMLID_10_" gradientUnits="userSpaceOnUse" x1="729.2485" y1="815.1176" x2="761.0861" y2="846.9553" gradientTransform="matrix(4.489700e-011 1 -1 4.489700e-011 890 -239)">
				<stop  offset="0" style="stop-color:#000000;stop-opacity:0.25"/>
				<stop  offset="1" style="stop-color:#000000;stop-opacity:0.2"/>
			</linearGradient>
			<path id="XMLID_58_" style="fill:none;stroke:url(#XMLID_10_);stroke-width:4;stroke-miterlimit:10;" d="M30.625,507.667
				c19.176,0,38.093-1.095,56.69-3.226"/>
			
				<linearGradient id="XMLID_11_" gradientUnits="userSpaceOnUse" x1="652.3227" y1="812.436" x2="686.2974" y2="846.4107" gradientTransform="matrix(4.489700e-011 1 -1 4.489700e-011 890 -239)">
				<stop  offset="0" style="stop-color:#000000;stop-opacity:0.25"/>
				<stop  offset="1" style="stop-color:#000000;stop-opacity:0.2"/>
			</linearGradient>
			<path id="XMLID_57_" style="fill:none;stroke:url(#XMLID_11_);stroke-width:4;stroke-miterlimit:10;" d="M30.625,432.333
				c20.356,0,40.364-1.479,59.924-4.336"/>
			
				<linearGradient id="XMLID_14_" gradientUnits="userSpaceOnUse" x1="574.9886" y1="812.2203" x2="609.4048" y2="846.6366" gradientTransform="matrix(4.489700e-011 1 -1 4.489700e-011 890 -239)">
				<stop  offset="0" style="stop-color:#000000;stop-opacity:0.25"/>
				<stop  offset="1" style="stop-color:#000000;stop-opacity:0.2"/>
			</linearGradient>
			<path id="XMLID_56_" style="fill:none;stroke:url(#XMLID_14_);stroke-width:4;stroke-miterlimit:10;" d="M30.625,355.667
				c20.454,0,40.48-1.815,59.924-5.292"/>
			
				<linearGradient id="XMLID_15_" gradientUnits="userSpaceOnUse" x1="500.5449" y1="811.8637" x2="535.6946" y2="847.0134" gradientTransform="matrix(4.489700e-011 1 -1 4.489700e-011 890 -239)">
				<stop  offset="0" style="stop-color:#000000;stop-opacity:0.25"/>
				<stop  offset="1" style="stop-color:#000000;stop-opacity:0.2"/>
			</linearGradient>
			<path id="XMLID_55_" style="fill:none;stroke:url(#XMLID_15_);stroke-width:4;stroke-miterlimit:10;" d="M30.625,282.333
				c20.621,0,40.682-2.381,59.925-6.883"/>
			
				<linearGradient id="XMLID_17_" gradientUnits="userSpaceOnUse" x1="421.1761" y1="811.2216" x2="457.6646" y2="847.7101" gradientTransform="matrix(4.489700e-011 1 -1 4.489700e-011 890 -239)">
				<stop  offset="0" style="stop-color:#000000;stop-opacity:0.25"/>
				<stop  offset="1" style="stop-color:#000000;stop-opacity:0.2"/>
			</linearGradient>
			<path id="XMLID_54_" style="fill:none;stroke:url(#XMLID_17_);stroke-width:4;stroke-miterlimit:10;" d="M30.625,205
				c20.969,0,41.123-3.445,59.923-9.8"/>
			<g id="XMLID_67_">
				
					<linearGradient id="XMLID_20_" gradientUnits="userSpaceOnUse" x1="1171.3738" y1="611.2429" x2="1203.2114" y2="643.0805" gradientTransform="matrix(1 0 0 -1 -672.4711 685.4711)">
					<stop  offset="0" style="stop-color:#000000;stop-opacity:0.7"/>
					<stop  offset="1" style="stop-color:#000000;stop-opacity:0.2"/>
				</linearGradient>
				<path id="XMLID_82_" style="fill:none;stroke:url(#XMLID_20_);stroke-width:4;stroke-miterlimit:10;" d="M516.321,29.971
					c0,19.176-1.095,38.093-3.226,56.69"/>
				
					<linearGradient id="XMLID_22_" gradientUnits="userSpaceOnUse" x1="1094.448" y1="608.5613" x2="1128.4226" y2="642.5359" gradientTransform="matrix(1 0 0 -1 -672.4711 685.4711)">
					<stop  offset="0" style="stop-color:#000000;stop-opacity:0.7"/>
					<stop  offset="1" style="stop-color:#000000;stop-opacity:0.2"/>
				</linearGradient>
				<path id="XMLID_79_" style="fill:none;stroke:url(#XMLID_22_);stroke-width:4;stroke-miterlimit:10;" d="M440.988,29.971
					c0,20.356-1.479,40.364-4.336,59.924"/>
				
					<linearGradient id="XMLID_23_" gradientUnits="userSpaceOnUse" x1="1017.1138" y1="608.3456" x2="1051.53" y2="642.7618" gradientTransform="matrix(1 0 0 -1 -672.4711 685.4711)">
					<stop  offset="0" style="stop-color:#000000;stop-opacity:0.7"/>
					<stop  offset="1" style="stop-color:#000000;stop-opacity:0.2"/>
				</linearGradient>
				<path id="XMLID_76_" style="fill:none;stroke:url(#XMLID_23_);stroke-width:4;stroke-miterlimit:10;" d="M364.321,29.971
					c0,20.454-1.815,40.48-5.292,59.924"/>
				
					<linearGradient id="XMLID_24_" gradientUnits="userSpaceOnUse" x1="942.6701" y1="607.989" x2="977.8199" y2="643.1387" gradientTransform="matrix(1 0 0 -1 -672.4711 685.4711)">
					<stop  offset="0" style="stop-color:#000000;stop-opacity:0.7"/>
					<stop  offset="1" style="stop-color:#000000;stop-opacity:0.2"/>
				</linearGradient>
				<path id="XMLID_75_" style="fill:none;stroke:url(#XMLID_24_);stroke-width:4;stroke-miterlimit:10;" d="M290.988,29.971
					c0,20.621-2.381,40.682-6.883,59.925"/>
				
					<linearGradient id="XMLID_25_" gradientUnits="userSpaceOnUse" x1="863.3014" y1="607.3469" x2="899.7899" y2="643.8353" gradientTransform="matrix(1 0 0 -1 -672.4711 685.4711)">
					<stop  offset="0" style="stop-color:#000000;stop-opacity:0.7"/>
					<stop  offset="1" style="stop-color:#000000;stop-opacity:0.2"/>
				</linearGradient>
				<path id="XMLID_74_" style="fill:none;stroke:url(#XMLID_25_);stroke-width:4;stroke-miterlimit:10;" d="M213.654,29.971
					c0,20.969-3.445,41.123-9.8,59.923"/>
				
					<linearGradient id="XMLID_26_" gradientUnits="userSpaceOnUse" x1="1162.3738" y1="611.2429" x2="1194.2114" y2="643.0805" gradientTransform="matrix(1 0 0 -1 -672.4711 685.4711)">
					<stop  offset="0" style="stop-color:#000000;stop-opacity:0.25"/>
					<stop  offset="1" style="stop-color:#000000;stop-opacity:0.2"/>
				</linearGradient>
				<path id="XMLID_73_" style="fill:none;stroke:url(#XMLID_26_);stroke-width:4;stroke-miterlimit:10;" d="M507.321,29.971
					c0,19.176-1.095,38.093-3.226,56.69"/>
				
					<linearGradient id="XMLID_27_" gradientUnits="userSpaceOnUse" x1="1085.448" y1="608.5613" x2="1119.4226" y2="642.5359" gradientTransform="matrix(1 0 0 -1 -672.4711 685.4711)">
					<stop  offset="0" style="stop-color:#000000;stop-opacity:0.25"/>
					<stop  offset="1" style="stop-color:#000000;stop-opacity:0.2"/>
				</linearGradient>
				<path id="XMLID_72_" style="fill:none;stroke:url(#XMLID_27_);stroke-width:4;stroke-miterlimit:10;" d="M431.988,29.971
					c0,20.356-1.479,40.364-4.336,59.924"/>
				
					<linearGradient id="XMLID_28_" gradientUnits="userSpaceOnUse" x1="1008.1138" y1="608.3456" x2="1042.53" y2="642.7618" gradientTransform="matrix(1 0 0 -1 -672.4711 685.4711)">
					<stop  offset="0" style="stop-color:#000000;stop-opacity:0.25"/>
					<stop  offset="1" style="stop-color:#000000;stop-opacity:0.2"/>
				</linearGradient>
				<path id="XMLID_70_" style="fill:none;stroke:url(#XMLID_28_);stroke-width:4;stroke-miterlimit:10;" d="M355.321,29.971
					c0,20.454-1.815,40.48-5.292,59.924"/>
				
					<linearGradient id="XMLID_29_" gradientUnits="userSpaceOnUse" x1="933.6701" y1="607.989" x2="968.8199" y2="643.1387" gradientTransform="matrix(1 0 0 -1 -672.4711 685.4711)">
					<stop  offset="0" style="stop-color:#000000;stop-opacity:0.25"/>
					<stop  offset="1" style="stop-color:#000000;stop-opacity:0.2"/>
				</linearGradient>
				<path id="XMLID_69_" style="fill:none;stroke:url(#XMLID_29_);stroke-width:4;stroke-miterlimit:10;" d="M281.988,29.971
					c0,20.621-2.381,40.682-6.883,59.925"/>
				
					<linearGradient id="XMLID_30_" gradientUnits="userSpaceOnUse" x1="854.3014" y1="607.3469" x2="890.7899" y2="643.8353" gradientTransform="matrix(1 0 0 -1 -672.4711 685.4711)">
					<stop  offset="0" style="stop-color:#000000;stop-opacity:0.25"/>
					<stop  offset="1" style="stop-color:#000000;stop-opacity:0.2"/>
				</linearGradient>
				<path id="XMLID_68_" style="fill:none;stroke:url(#XMLID_30_);stroke-width:4;stroke-miterlimit:10;" d="M204.654,29.971
					c0,20.969-3.445,41.123-9.8,59.923"/>
			</g>
		</g>
		<path id="XMLID_53_" style="fill:none;stroke:#FFFFFF;stroke-width:12;stroke-linecap:round;stroke-miterlimit:10;" d="
			M508.477,90.071c-26.921,218.18-199.796,391.158-417.927,418.237"/>
		<path id="XMLID_4_" style="fill:none;stroke:#FFFFFF;stroke-width:12;stroke-linecap:round;stroke-miterlimit:10;" d="
			M432.792,90.063C406.847,266.769,267.205,406.514,90.549,432.614"/>
		<path id="XMLID_6_" style="fill:none;stroke:#FFFFFF;stroke-width:12;stroke-linecap:round;stroke-miterlimit:10;" d="
			M355.771,90.068c-24.51,134.657-130.615,240.859-265.222,265.513"/>
		<path id="XMLID_7_" style="fill:none;stroke:#FFFFFF;stroke-width:12;stroke-linecap:round;stroke-miterlimit:10;" d="
			M279.144,90.07c-22.245,93.146-95.499,166.489-188.595,188.864"/>
		<path id="XMLID_13_" style="fill:none;stroke:#FFFFFF;stroke-width:12;stroke-linecap:round;stroke-miterlimit:10;" d="
			M200.004,90.069c-17.969,51.095-58.405,91.608-109.45,109.683"/>
		
			<line id="XMLID_116_" style="opacity:0.2;fill:none;stroke:#000000;stroke-width:4;stroke-miterlimit:10;" x1="31.875" y1="601" x2="31.875" y2="121"/>
		
			<line id="XMLID_84_" style="opacity:0.2;fill:none;stroke:#000000;stroke-width:4;stroke-miterlimit:10;" x1="600.875" y1="32" x2="120.875" y2="32"/>
		<path id="XMLID_115_" style="opacity:0.2;fill:none;stroke:#000000;stroke-width:10;stroke-miterlimit:10;" d="M32.125,126
			c52.095,0,94.25-42.155,94.25-94.25"/>
		<path id="XMLID_268_" style="opacity:0.12;fill:none;stroke:#000000;stroke-width:10;stroke-miterlimit:10;" d="M32.125,594
			c311.742,0,564-252.258,564-564"/>
	</g>
</g>
<g id="Layer_1">
</g>
</svg>
