<svg xmlns="http://www.w3.org/2000/svg" xmlns:xlink="http://www.w3.org/1999/xlink" viewBox="0 0 60 484"><defs><style>.a{fill:#dbdbda;}.b{fill:none;stroke:#000;stroke-miterlimit:10;stroke-width:2px;opacity:0.1;isolation:isolate;}.c{fill:url(#a);}.d{fill:url(#b);}.e{fill:#fff;fill-opacity:0;}</style><linearGradient id="a" x1="29.99" y1="317.15" x2="29.99" y2="345.22" gradientTransform="translate(0 134.8)" gradientUnits="userSpaceOnUse"><stop offset="0" stop-opacity="0"/><stop offset="1" stop-opacity="0.2"/></linearGradient><linearGradient id="b" x1="30.41" y1="452.81" x2="30.41" y2="480.01" gradientTransform="matrix(1, 0, 0, -1, 0, 483.89)" xlink:href="#a"/></defs><title>11-</title><path class="a" d="M.2,474.3c0,4.3,4.2,8.6,4.2,8.6H56a10.8,10.8,0,0,0,3.9-8.6V114.1S60,14.6,60,8.7,56.1,1,56.1,1H4.4S.1,5.6.1,8.7"/><path class="b" d="M58.9,4V478M1.4,2.7l.2,475.6"/><path class="c" d="M59.8,452.1.5,451.9S.2,471.1.2,475.5,3.7,484,3.7,484H56s3.8-2.2,3.8-9.6Z"/><path class="d" d="M60,30.9.8,31.1V7.5C.8,4.4,4.4,0,4.4,0H56S60,.2,60,8.3,60,30.9,60,30.9Z"/><rect class="e" x="-0.1" y="1" width="60" height="482"/></svg>