<?xml version="1.0" encoding="iso-8859-1"?>
<!-- Generator: Adobe Illustrator 19.0.0, SVG Export Plug-In . SVG Version: 6.00 Build 0)  -->
<svg version="1.1" xmlns="http://www.w3.org/2000/svg" xmlns:xlink="http://www.w3.org/1999/xlink" x="0px" y="0px"
	 viewBox="0 0 540 535" style="enable-background:new 0 0 540 535;" xml:space="preserve">
<g id="seat-1">
	<rect id="bounds_10_" x="-0.125" style="opacity:0;fill:#FF0086;" width="540" height="535"/>
	<g id="style1">
		<g id="XMLID_1874_">
			<polygon id="XMLID_583_" style="fill:#DEB074;" points="455.895,398 84.875,398 84.875,443.667 58.875,511.372 58.875,535 
				481.875,535 481.875,511.372 456.291,444 			"/>
		</g>
		<g id="XMLID_1872_">
			<rect id="XMLID_1873_" x="30.875" y="0" style="fill:#DEB074;" width="479" height="82"/>
		</g>
		<g id="XMLID_1870_">
			<rect id="XMLID_1871_" x="30.875" y="323" style="fill:#DEB074;" width="479" height="61"/>
		</g>
		<g id="XMLID_1868_">
			<rect id="XMLID_1869_" x="30.875" y="247" style="fill:#DEB074;" width="479" height="61"/>
		</g>
		<g id="XMLID_1866_">
			<rect id="XMLID_1867_" x="30.875" y="172" style="fill:#DEB074;" width="479" height="61"/>
		</g>
		<g id="XMLID_1864_">
			<rect id="XMLID_1865_" x="30.875" y="96" style="fill:#DEB074;" width="479" height="61"/>
		</g>
	</g>
	<g id="style2">
		<g id="XMLID_1862_">
			<path id="XMLID_582_" style="fill:#DBDBDA;" d="M30.729,444.504l-29.09,67.097c0,0-1.956,2.566,4.682,6.601
				C13.8,522.748,58.875,535,58.875,535v-23.628l26-66.868V398h45v-14H82.586H30.875"/>
		</g>
		<g id="XMLID_1860_">
			<path id="XMLID_581_" style="fill:#DBDBDA;" d="M509.875,384h-51.902h-48.098v14h46v46.504l26,66.868V535
				c0,0,44.557-11.583,52.046-16.791s5.159-6.836,5.159-6.836L510.201,445"/>
		</g>
	</g>
	<g id="accent_10_">
		<g id="XMLID_1858_" style="opacity:0.45;">
			<polygon id="XMLID_301_" points="59.125,511.372 85.211,444.5 455.385,444 482.125,511.372 			"/>
		</g>
		<g id="XMLID_1856_" style="opacity:0.1;">
			<polygon id="XMLID_1857_" style="fill:#FFFFFF;" points="63.766,501.166 64.787,498.779 477,498.735 478.361,501.149 			"/>
		</g>
		<g id="XMLID_1854_" style="opacity:0.1;">
			<polygon id="XMLID_1855_" style="fill:#FFFFFF;" points="68.872,487.166 69.866,484.779 471.249,484.735 472.575,487.149 			"/>
		</g>
		<g id="XMLID_1852_" style="opacity:0.1;">
			<polygon id="XMLID_1853_" style="fill:#FFFFFF;" points="74.659,472.5 75.625,470.113 465.5,470.068 466.788,472.483 			"/>
		</g>
		<g id="XMLID_1850_" style="opacity:0.1;">
			<polygon id="XMLID_1851_" style="fill:#FFFFFF;" points="79.765,458.5 80.704,456.113 460.089,456.068 461.342,458.483 			"/>
		</g>
		<g id="XMLID_1702_" style="opacity:0.15;">
			<line id="XMLID_294_" x1="455.746" y1="444.504" x2="491.785" y2="518.372"/>
		</g>
		<g id="XMLID_1700_">
			
				<linearGradient id="XMLID_2_" gradientUnits="userSpaceOnUse" x1="927.2089" y1="189" x2="972.8438" y2="189" gradientTransform="matrix(-1 0 0 -1 1057.931 580)">
				<stop  offset="0" style="stop-color:#000000;stop-opacity:0.45"/>
				<stop  offset="1" style="stop-color:#000000;stop-opacity:0.6"/>
			</linearGradient>
			<rect id="XMLID_1701_" x="85.087" y="384" style="fill:url(#XMLID_2_);" width="45.635" height="14"/>
		</g>
		<g id="XMLID_1698_" style="opacity:0.6;">
			<polygon id="XMLID_293_" points="59.125,511.167 1.702,511.601 30.861,444.777 85.098,444.777 			"/>
		</g>
		<g id="XMLID_1696_">
			<path id="XMLID_1697_" style="fill:none;stroke:#B2B2B2;stroke-width:4.4866;stroke-miterlimit:10;" d="M512.416,3.796"/>
		</g>
		<g id="XMLID_1694_" style="opacity:0.6;">
			<polygon id="XMLID_292_" points="482.125,511.372 539.183,511.635 510.923,444.894 455.665,444.892 			"/>
		</g>
		<g id="XMLID_1692_">
			
				<linearGradient id="XMLID_3_" gradientUnits="userSpaceOnUse" x1="601.9491" y1="189" x2="647.584" y2="189" gradientTransform="matrix(-1 0 0 -1 1057.931 580)">
				<stop  offset="0" style="stop-color:#000000;stop-opacity:0.6"/>
				<stop  offset="1" style="stop-color:#000000;stop-opacity:0.45"/>
			</linearGradient>
			<rect id="XMLID_1693_" x="410.347" y="384" style="fill:url(#XMLID_3_);" width="45.635" height="14"/>
		</g>
		<g id="XMLID_1690_" style="opacity:0.12;">
			<rect id="XMLID_1691_" x="30.875" y="0" width="479" height="6"/>
		</g>
		<g id="XMLID_1688_" style="opacity:0.12;">
			<rect id="XMLID_1689_" x="30.875" y="323" width="479" height="3"/>
		</g>
		<g id="XMLID_1683_" style="opacity:0.12;">
			<rect id="XMLID_1687_" x="30.875" y="247" width="479" height="3"/>
		</g>
		<g id="XMLID_1681_" style="opacity:0.12;">
			<rect id="XMLID_1682_" x="30.875" y="172" width="479" height="3"/>
		</g>
		<g id="XMLID_1678_" style="opacity:0.12;">
			<rect id="XMLID_1679_" x="30.875" y="96" width="479" height="3"/>
		</g>
		<g id="XMLID_1676_" style="opacity:0.12;">
			<rect id="XMLID_1677_" x="84.875" y="398" width="371" height="3"/>
		</g>
		
			<linearGradient id="XMLID_4_" gradientUnits="userSpaceOnUse" x1="999.7812" y1="159.1667" x2="999.7812" y2="138.1607" gradientTransform="matrix(-1 0 0 -1 1057.931 580)">
			<stop  offset="0" style="stop-color:#000000;stop-opacity:0"/>
			<stop  offset="1" style="stop-color:#000000;stop-opacity:0.6"/>
		</linearGradient>
		<rect id="XMLID_1675_" x="31.089" y="420.833" style="fill:url(#XMLID_4_);" width="54.122" height="24"/>
		
			<linearGradient id="XMLID_5_" gradientUnits="userSpaceOnUse" x1="574.8895" y1="159" x2="574.8895" y2="137.994" gradientTransform="matrix(-1 0 0 -1 1057.931 580)">
			<stop  offset="0" style="stop-color:#000000;stop-opacity:0"/>
			<stop  offset="1" style="stop-color:#000000;stop-opacity:0.6"/>
		</linearGradient>
		<rect id="XMLID_1674_" x="455.725" y="421" style="fill:url(#XMLID_5_);" width="54.633" height="24"/>
		
			<linearGradient id="XMLID_6_" gradientUnits="userSpaceOnUse" x1="530.7637" y1="62.2258" x2="520.8688" y2="72.2997" gradientTransform="matrix(-1 0 0 -1 1057.931 580)">
			<stop  offset="0" style="stop-color:#000000;stop-opacity:0"/>
			<stop  offset="1" style="stop-color:#000000;stop-opacity:0.35"/>
		</linearGradient>
		<path id="XMLID_291_" style="fill:url(#XMLID_6_);" d="M526.016,522.167c0,0,15.318-4.833,13.488-10.667l-15.318,0.25
			L526.016,522.167z"/>
		
			<linearGradient id="XMLID_7_" gradientUnits="userSpaceOnUse" x1="491.6526" y1="61.5393" x2="481.2213" y2="72.1594" gradientTransform="matrix(1 0 0 -1 -477.0155 580)">
			<stop  offset="0" style="stop-color:#000000;stop-opacity:0"/>
			<stop  offset="1" style="stop-color:#000000;stop-opacity:0.35"/>
		</linearGradient>
		<path id="XMLID_286_" style="fill:url(#XMLID_7_);" d="M16.792,522.167c0,0-17.53-5-15.147-10.333l15.33-0.083L16.792,522.167z"/>
		
			<line id="XMLID_1671_" style="opacity:0.2;fill:none;stroke:#000000;stroke-width:4;stroke-miterlimit:10;" x1="32.875" y1="445" x2="32.875" y2="0"/>
		
			<line id="XMLID_1670_" style="opacity:0.2;fill:none;stroke:#000000;stroke-width:2;stroke-miterlimit:10;" x1="85.875" y1="445" x2="85.875" y2="398"/>
		
			<line id="XMLID_1669_" style="opacity:0.2;fill:none;stroke:#000000;stroke-width:4;stroke-miterlimit:10;" x1="507.875" y1="445" x2="507.875" y2="0"/>
		
			<line id="XMLID_1668_" style="opacity:0.2;fill:none;stroke:#000000;stroke-width:2;stroke-miterlimit:10;" x1="454.875" y1="444" x2="454.875" y2="397"/>
	</g>
	<g id="texture" style="opacity:0.12;">
		<line id="XMLID_10_" style="fill:none;stroke:#000000;stroke-miterlimit:10;" x1="499.875" y1="345.5" x2="484.875" y2="345.5"/>
		<line id="XMLID_11_" style="fill:none;stroke:#000000;stroke-miterlimit:10;" x1="466.875" y1="360.5" x2="443.875" y2="360.5"/>
		<line id="XMLID_86_" style="fill:none;stroke:#000000;stroke-miterlimit:10;" x1="402.875" y1="342.5" x2="378.875" y2="342.5"/>
		<line id="XMLID_93_" style="fill:none;stroke:#000000;stroke-miterlimit:10;" x1="409.875" y1="369.5" x2="385.875" y2="369.5"/>
		<line id="XMLID_94_" style="fill:none;stroke:#000000;stroke-miterlimit:10;" x1="444.875" y1="332.5" x2="420.875" y2="332.5"/>
		<line id="XMLID_95_" style="fill:none;stroke:#000000;stroke-miterlimit:10;" x1="491.875" y1="370.5" x2="467.875" y2="370.5"/>
		<line id="XMLID_96_" style="fill:none;stroke:#000000;stroke-miterlimit:10;" x1="230.875" y1="371.5" x2="207.875" y2="371.5"/>
		<line id="XMLID_97_" style="fill:none;stroke:#000000;stroke-miterlimit:10;" x1="92.875" y1="366.5" x2="75.875" y2="366.5"/>
		<line id="XMLID_98_" style="fill:none;stroke:#000000;stroke-miterlimit:10;" x1="66.875" y1="333.5" x2="48.875" y2="333.5"/>
		<line id="XMLID_118_" style="fill:none;stroke:#000000;stroke-miterlimit:10;" x1="98.875" y1="344.5" x2="81.875" y2="344.5"/>
		<line id="XMLID_99_" style="fill:none;stroke:#000000;stroke-miterlimit:10;" x1="167.875" y1="339.5" x2="150.875" y2="339.5"/>
		<line id="XMLID_113_" style="fill:none;stroke:#000000;stroke-miterlimit:10;" x1="179.875" y1="349.5" x2="162.875" y2="349.5"/>
		<line id="XMLID_100_" style="fill:none;stroke:#000000;stroke-miterlimit:10;" x1="134.875" y1="335.5" x2="117.875" y2="335.5"/>
		<line id="XMLID_107_" style="fill:none;stroke:#000000;stroke-miterlimit:10;" x1="201.875" y1="334.5" x2="183.875" y2="334.5"/>
		<line id="XMLID_108_" style="fill:none;stroke:#000000;stroke-miterlimit:10;" x1="221.875" y1="348.5" x2="204.875" y2="348.5"/>
		<line id="XMLID_112_" style="fill:none;stroke:#000000;stroke-miterlimit:10;" x1="271.875" y1="345.5" x2="254.875" y2="345.5"/>
		<line id="XMLID_109_" style="fill:none;stroke:#000000;stroke-miterlimit:10;" x1="261.875" y1="362.5" x2="243.875" y2="362.5"/>
		<line id="XMLID_110_" style="fill:none;stroke:#000000;stroke-miterlimit:10;" x1="115.875" y1="374.5" x2="97.875" y2="374.5"/>
		<line id="XMLID_111_" style="fill:none;stroke:#000000;stroke-miterlimit:10;" x1="382.875" y1="361.5" x2="365.875" y2="361.5"/>
		<line id="XMLID_101_" style="fill:none;stroke:#000000;stroke-miterlimit:10;" x1="148.875" y1="367.5" x2="131.875" y2="367.5"/>
		<line id="XMLID_117_" style="fill:none;stroke:#000000;stroke-miterlimit:10;" x1="176.875" y1="373.5" x2="159.875" y2="373.5"/>
		<line id="XMLID_102_" style="fill:none;stroke:#000000;stroke-miterlimit:10;" x1="59.875" y1="356.5" x2="41.875" y2="356.5"/>
		<line id="XMLID_119_" style="fill:none;stroke:#000000;stroke-miterlimit:10;" x1="63.875" y1="375.5" x2="45.875" y2="375.5"/>
		<line id="XMLID_103_" style="fill:none;stroke:#000000;stroke-miterlimit:10;" x1="341.875" y1="373.5" x2="324.875" y2="373.5"/>
		<line id="XMLID_104_" style="fill:none;stroke:#000000;stroke-miterlimit:10;" x1="357.875" y1="334.5" x2="339.875" y2="334.5"/>
		<line id="XMLID_105_" style="fill:none;stroke:#000000;stroke-miterlimit:10;" x1="424.875" y1="352.5" x2="407.875" y2="352.5"/>
		<line id="XMLID_87_" style="fill:none;stroke:#000000;stroke-miterlimit:10;" x1="352.875" y1="352.5" x2="335.875" y2="352.5"/>
		<line id="XMLID_121_" style="fill:none;stroke:#000000;stroke-miterlimit:10;" x1="447.875" y1="375.5" x2="430.875" y2="375.5"/>
		<line id="XMLID_91_" style="fill:none;stroke:#000000;stroke-miterlimit:10;" x1="319.875" y1="340.5" x2="303.875" y2="340.5"/>
		<line id="XMLID_120_" style="fill:none;stroke:#000000;stroke-miterlimit:10;" x1="464.875" y1="342.5" x2="448.875" y2="342.5"/>
		<line id="XMLID_92_" style="fill:none;stroke:#000000;stroke-miterlimit:10;" x1="291.875" y1="368.5" x2="275.875" y2="368.5"/>
		<line id="XMLID_88_" style="fill:none;stroke:#000000;stroke-miterlimit:10;" x1="267.875" y1="335.5" x2="231.875" y2="335.5"/>
		<line id="XMLID_89_" style="fill:none;stroke:#000000;stroke-miterlimit:10;" x1="201.875" y1="360.5" x2="177.875" y2="360.5"/>
		<line id="XMLID_106_" style="fill:none;stroke:#000000;stroke-miterlimit:10;" x1="308.875" y1="353.5" x2="284.875" y2="353.5"/>
		<line id="XMLID_90_" style="fill:none;stroke:#000000;stroke-miterlimit:10;" x1="133.875" y1="355.5" x2="110.875" y2="355.5"/>
		<line id="XMLID_355_" style="fill:none;stroke:#000000;stroke-miterlimit:10;" x1="443.875" y1="415.5" x2="432.875" y2="415.5"/>
		<line id="XMLID_354_" style="fill:none;stroke:#000000;stroke-miterlimit:10;" x1="418.875" y1="425.5" x2="401.875" y2="425.5"/>
		<line id="XMLID_353_" style="fill:none;stroke:#000000;stroke-miterlimit:10;" x1="370.875" y1="414.5" x2="352.875" y2="414.5"/>
		<line id="XMLID_352_" style="fill:none;stroke:#000000;stroke-miterlimit:10;" x1="375.875" y1="431.5" x2="358.875" y2="431.5"/>
		<line id="XMLID_351_" style="fill:none;stroke:#000000;stroke-miterlimit:10;" x1="402.875" y1="407.5" x2="383.875" y2="407.5"/>
		<line id="XMLID_350_" style="fill:none;stroke:#000000;stroke-miterlimit:10;" x1="436.875" y1="432.5" x2="419.875" y2="432.5"/>
		<line id="XMLID_349_" style="fill:none;stroke:#000000;stroke-miterlimit:10;" x1="242.875" y1="432.5" x2="224.875" y2="432.5"/>
		<line id="XMLID_348_" style="fill:none;stroke:#000000;stroke-miterlimit:10;" x1="138.875" y1="429.5" x2="126.875" y2="429.5"/>
		<line id="XMLID_347_" style="fill:none;stroke:#000000;stroke-miterlimit:10;" x1="119.875" y1="408.5" x2="106.875" y2="408.5"/>
		<line id="XMLID_346_" style="fill:none;stroke:#000000;stroke-miterlimit:10;" x1="143.875" y1="415.5" x2="130.875" y2="415.5"/>
		<line id="XMLID_345_" style="fill:none;stroke:#000000;stroke-miterlimit:10;" x1="194.875" y1="412.5" x2="181.875" y2="412.5"/>
		<line id="XMLID_344_" style="fill:none;stroke:#000000;stroke-miterlimit:10;" x1="204.875" y1="418.5" x2="191.875" y2="418.5"/>
		<line id="XMLID_343_" style="fill:none;stroke:#000000;stroke-miterlimit:10;" x1="170.875" y1="409.5" x2="158.875" y2="409.5"/>
		<line id="XMLID_342_" style="fill:none;stroke:#000000;stroke-miterlimit:10;" x1="220.875" y1="408.5" x2="207.875" y2="408.5"/>
		<line id="XMLID_341_" style="fill:none;stroke:#000000;stroke-miterlimit:10;" x1="234.875" y1="417.5" x2="222.875" y2="417.5"/>
		<line id="XMLID_340_" style="fill:none;stroke:#000000;stroke-miterlimit:10;" x1="272.875" y1="415.5" x2="259.875" y2="415.5"/>
		<line id="XMLID_339_" style="fill:none;stroke:#000000;stroke-miterlimit:10;" x1="265.875" y1="427.5" x2="252.875" y2="427.5"/>
		<line id="XMLID_338_" style="fill:none;stroke:#000000;stroke-miterlimit:10;" x1="156.875" y1="434.5" x2="142.875" y2="434.5"/>
		<line id="XMLID_337_" style="fill:none;stroke:#000000;stroke-miterlimit:10;" x1="356.875" y1="426.5" x2="343.875" y2="426.5"/>
		<line id="XMLID_336_" style="fill:none;stroke:#000000;stroke-miterlimit:10;" x1="181.875" y1="430.5" x2="168.875" y2="430.5"/>
		<line id="XMLID_335_" style="fill:none;stroke:#000000;stroke-miterlimit:10;" x1="202.875" y1="434.5" x2="188.875" y2="434.5"/>
		<line id="XMLID_334_" style="fill:none;stroke:#000000;stroke-miterlimit:10;" x1="114.875" y1="423.5" x2="100.875" y2="423.5"/>
		<line id="XMLID_333_" style="fill:none;stroke:#000000;stroke-miterlimit:10;" x1="117.875" y1="435.5" x2="104.875" y2="435.5"/>
		<line id="XMLID_332_" style="fill:none;stroke:#000000;stroke-miterlimit:10;" x1="325.875" y1="434.5" x2="312.875" y2="434.5"/>
		<line id="XMLID_331_" style="fill:none;stroke:#000000;stroke-miterlimit:10;" x1="336.875" y1="408.5" x2="323.875" y2="408.5"/>
		<line id="XMLID_330_" style="fill:none;stroke:#000000;stroke-miterlimit:10;" x1="386.875" y1="420.5" x2="373.875" y2="420.5"/>
		<line id="XMLID_329_" style="fill:none;stroke:#000000;stroke-miterlimit:10;" x1="332.875" y1="420.5" x2="320.875" y2="420.5"/>
		<line id="XMLID_328_" style="fill:none;stroke:#000000;stroke-miterlimit:10;" x1="404.875" y1="435.5" x2="392.875" y2="435.5"/>
		<line id="XMLID_327_" style="fill:none;stroke:#000000;stroke-miterlimit:10;" x1="309.875" y1="412.5" x2="297.875" y2="412.5"/>
		<line id="XMLID_326_" style="fill:none;stroke:#000000;stroke-miterlimit:10;" x1="416.875" y1="414.5" x2="405.875" y2="414.5"/>
		<line id="XMLID_325_" style="fill:none;stroke:#000000;stroke-miterlimit:10;" x1="287.875" y1="430.5" x2="276.875" y2="430.5"/>
		<line id="XMLID_324_" style="fill:none;stroke:#000000;stroke-miterlimit:10;" x1="269.875" y1="409.5" x2="242.875" y2="409.5"/>
		<line id="XMLID_323_" style="fill:none;stroke:#000000;stroke-miterlimit:10;" x1="220.875" y1="425.5" x2="202.875" y2="425.5"/>
		<line id="XMLID_322_" style="fill:none;stroke:#000000;stroke-miterlimit:10;" x1="300.875" y1="421.5" x2="282.875" y2="421.5"/>
		<line id="XMLID_321_" style="fill:none;stroke:#000000;stroke-miterlimit:10;" x1="170.875" y1="422.5" x2="152.875" y2="422.5"/>
		<line id="XMLID_390_" style="fill:none;stroke:#000000;stroke-miterlimit:10;" x1="451.875" y1="522.5" x2="430.875" y2="522.5"/>
		<line id="XMLID_388_" style="fill:none;stroke:#000000;stroke-miterlimit:10;" x1="400.875" y1="526.5" x2="379.875" y2="526.5"/>
		<line id="XMLID_386_" style="fill:none;stroke:#000000;stroke-miterlimit:10;" x1="473.875" y1="527.5" x2="453.875" y2="527.5"/>
		<line id="XMLID_385_" style="fill:none;stroke:#000000;stroke-miterlimit:10;" x1="240.875" y1="527.5" x2="218.875" y2="527.5"/>
		<line id="XMLID_384_" style="fill:none;stroke:#000000;stroke-miterlimit:10;" x1="115.875" y1="525.5" x2="100.875" y2="525.5"/>
		<line id="XMLID_382_" style="fill:none;stroke:#000000;stroke-miterlimit:10;" x1="121.875" y1="516.5" x2="106.875" y2="516.5"/>
		<line id="XMLID_380_" style="fill:none;stroke:#000000;stroke-miterlimit:10;" x1="193.875" y1="518.5" x2="179.875" y2="518.5"/>
		<line id="XMLID_377_" style="fill:none;stroke:#000000;stroke-miterlimit:10;" x1="230.875" y1="517.5" x2="216.875" y2="517.5"/>
		<line id="XMLID_376_" style="fill:none;stroke:#000000;stroke-miterlimit:10;" x1="276.875" y1="516.5" x2="260.875" y2="516.5"/>
		<line id="XMLID_375_" style="fill:none;stroke:#000000;stroke-miterlimit:10;" x1="267.875" y1="524.5" x2="252.875" y2="524.5"/>
		<line id="XMLID_374_" style="fill:none;stroke:#000000;stroke-miterlimit:10;" x1="136.875" y1="528.5" x2="120.875" y2="528.5"/>
		<line id="XMLID_373_" style="fill:none;stroke:#000000;stroke-miterlimit:10;" x1="376.875" y1="523.5" x2="361.875" y2="523.5"/>
		<line id="XMLID_372_" style="fill:none;stroke:#000000;stroke-miterlimit:10;" x1="167.875" y1="526.5" x2="151.875" y2="526.5"/>
		<line id="XMLID_371_" style="fill:none;stroke:#000000;stroke-miterlimit:10;" x1="191.875" y1="528.5" x2="175.875" y2="528.5"/>
		<line id="XMLID_370_" style="fill:none;stroke:#000000;stroke-miterlimit:10;" x1="86.875" y1="521.5" x2="70.875" y2="521.5"/>
		<line id="XMLID_369_" style="fill:none;stroke:#000000;stroke-miterlimit:10;" x1="89.875" y1="529.5" x2="74.875" y2="529.5"/>
		<line id="XMLID_368_" style="fill:none;stroke:#000000;stroke-miterlimit:10;" x1="339.875" y1="528.5" x2="324.875" y2="528.5"/>
		<line id="XMLID_366_" style="fill:none;stroke:#000000;stroke-miterlimit:10;" x1="413.875" y1="519.5" x2="398.875" y2="519.5"/>
		<line id="XMLID_365_" style="fill:none;stroke:#000000;stroke-miterlimit:10;" x1="349.875" y1="519.5" x2="333.875" y2="519.5"/>
		<line id="XMLID_364_" style="fill:none;stroke:#000000;stroke-miterlimit:10;" x1="434.875" y1="529.5" x2="419.875" y2="529.5"/>
		<line id="XMLID_361_" style="fill:none;stroke:#000000;stroke-miterlimit:10;" x1="295.875" y1="526.5" x2="281.875" y2="526.5"/>
		<line id="XMLID_359_" style="fill:none;stroke:#000000;stroke-miterlimit:10;" x1="213.875" y1="522.5" x2="191.875" y2="522.5"/>
		<line id="XMLID_358_" style="fill:none;stroke:#000000;stroke-miterlimit:10;" x1="309.875" y1="520.5" x2="288.875" y2="520.5"/>
		<line id="XMLID_357_" style="fill:none;stroke:#000000;stroke-miterlimit:10;" x1="154.875" y1="521.5" x2="131.875" y2="521.5"/>
		<line id="XMLID_162_" style="fill:none;stroke:#000000;stroke-miterlimit:10;" x1="499.875" y1="271.5" x2="484.875" y2="271.5"/>
		<line id="XMLID_161_" style="fill:none;stroke:#000000;stroke-miterlimit:10;" x1="466.875" y1="286.5" x2="443.875" y2="286.5"/>
		<line id="XMLID_160_" style="fill:none;stroke:#000000;stroke-miterlimit:10;" x1="402.875" y1="268.5" x2="378.875" y2="268.5"/>
		<line id="XMLID_159_" style="fill:none;stroke:#000000;stroke-miterlimit:10;" x1="409.875" y1="295.5" x2="385.875" y2="295.5"/>
		<line id="XMLID_156_" style="fill:none;stroke:#000000;stroke-miterlimit:10;" x1="444.875" y1="258.5" x2="420.875" y2="258.5"/>
		<line id="XMLID_155_" style="fill:none;stroke:#000000;stroke-miterlimit:10;" x1="491.875" y1="296.5" x2="467.875" y2="296.5"/>
		<line id="XMLID_154_" style="fill:none;stroke:#000000;stroke-miterlimit:10;" x1="230.875" y1="297.5" x2="207.875" y2="297.5"/>
		<line id="XMLID_153_" style="fill:none;stroke:#000000;stroke-miterlimit:10;" x1="92.875" y1="292.5" x2="75.875" y2="292.5"/>
		<line id="XMLID_152_" style="fill:none;stroke:#000000;stroke-miterlimit:10;" x1="66.875" y1="259.5" x2="48.875" y2="259.5"/>
		<line id="XMLID_151_" style="fill:none;stroke:#000000;stroke-miterlimit:10;" x1="98.875" y1="270.5" x2="81.875" y2="270.5"/>
		<line id="XMLID_150_" style="fill:none;stroke:#000000;stroke-miterlimit:10;" x1="167.875" y1="265.5" x2="150.875" y2="265.5"/>
		<line id="XMLID_149_" style="fill:none;stroke:#000000;stroke-miterlimit:10;" x1="179.875" y1="275.5" x2="162.875" y2="275.5"/>
		<line id="XMLID_148_" style="fill:none;stroke:#000000;stroke-miterlimit:10;" x1="134.875" y1="261.5" x2="117.875" y2="261.5"/>
		<line id="XMLID_147_" style="fill:none;stroke:#000000;stroke-miterlimit:10;" x1="201.875" y1="260.5" x2="183.875" y2="260.5"/>
		<line id="XMLID_146_" style="fill:none;stroke:#000000;stroke-miterlimit:10;" x1="221.875" y1="274.5" x2="204.875" y2="274.5"/>
		<line id="XMLID_143_" style="fill:none;stroke:#000000;stroke-miterlimit:10;" x1="271.875" y1="271.5" x2="254.875" y2="271.5"/>
		<line id="XMLID_142_" style="fill:none;stroke:#000000;stroke-miterlimit:10;" x1="261.875" y1="288.5" x2="243.875" y2="288.5"/>
		<line id="XMLID_141_" style="fill:none;stroke:#000000;stroke-miterlimit:10;" x1="115.875" y1="300.5" x2="97.875" y2="300.5"/>
		<line id="XMLID_140_" style="fill:none;stroke:#000000;stroke-miterlimit:10;" x1="382.875" y1="287.5" x2="365.875" y2="287.5"/>
		<line id="XMLID_139_" style="fill:none;stroke:#000000;stroke-miterlimit:10;" x1="148.875" y1="293.5" x2="131.875" y2="293.5"/>
		<line id="XMLID_138_" style="fill:none;stroke:#000000;stroke-miterlimit:10;" x1="176.875" y1="299.5" x2="159.875" y2="299.5"/>
		<line id="XMLID_137_" style="fill:none;stroke:#000000;stroke-miterlimit:10;" x1="59.875" y1="282.5" x2="41.875" y2="282.5"/>
		<line id="XMLID_136_" style="fill:none;stroke:#000000;stroke-miterlimit:10;" x1="63.875" y1="301.5" x2="45.875" y2="301.5"/>
		<line id="XMLID_135_" style="fill:none;stroke:#000000;stroke-miterlimit:10;" x1="341.875" y1="299.5" x2="324.875" y2="299.5"/>
		<line id="XMLID_134_" style="fill:none;stroke:#000000;stroke-miterlimit:10;" x1="357.875" y1="260.5" x2="339.875" y2="260.5"/>
		<line id="XMLID_133_" style="fill:none;stroke:#000000;stroke-miterlimit:10;" x1="424.875" y1="278.5" x2="407.875" y2="278.5"/>
		<line id="XMLID_132_" style="fill:none;stroke:#000000;stroke-miterlimit:10;" x1="352.875" y1="278.5" x2="335.875" y2="278.5"/>
		<line id="XMLID_131_" style="fill:none;stroke:#000000;stroke-miterlimit:10;" x1="447.875" y1="301.5" x2="430.875" y2="301.5"/>
		<line id="XMLID_130_" style="fill:none;stroke:#000000;stroke-miterlimit:10;" x1="319.875" y1="266.5" x2="303.875" y2="266.5"/>
		<line id="XMLID_129_" style="fill:none;stroke:#000000;stroke-miterlimit:10;" x1="464.875" y1="268.5" x2="448.875" y2="268.5"/>
		<line id="XMLID_128_" style="fill:none;stroke:#000000;stroke-miterlimit:10;" x1="291.875" y1="294.5" x2="275.875" y2="294.5"/>
		<line id="XMLID_127_" style="fill:none;stroke:#000000;stroke-miterlimit:10;" x1="267.875" y1="261.5" x2="231.875" y2="261.5"/>
		<line id="XMLID_126_" style="fill:none;stroke:#000000;stroke-miterlimit:10;" x1="201.875" y1="286.5" x2="177.875" y2="286.5"/>
		<line id="XMLID_125_" style="fill:none;stroke:#000000;stroke-miterlimit:10;" x1="308.875" y1="279.5" x2="284.875" y2="279.5"/>
		<line id="XMLID_124_" style="fill:none;stroke:#000000;stroke-miterlimit:10;" x1="133.875" y1="281.5" x2="110.875" y2="281.5"/>
		<line id="XMLID_204_" style="fill:none;stroke:#000000;stroke-miterlimit:10;" x1="499.875" y1="198.5" x2="484.875" y2="198.5"/>
		<line id="XMLID_203_" style="fill:none;stroke:#000000;stroke-miterlimit:10;" x1="466.875" y1="213.5" x2="443.875" y2="213.5"/>
		<line id="XMLID_199_" style="fill:none;stroke:#000000;stroke-miterlimit:10;" x1="402.875" y1="195.5" x2="378.875" y2="195.5"/>
		<line id="XMLID_198_" style="fill:none;stroke:#000000;stroke-miterlimit:10;" x1="409.875" y1="222.5" x2="385.875" y2="222.5"/>
		<line id="XMLID_197_" style="fill:none;stroke:#000000;stroke-miterlimit:10;" x1="444.875" y1="185.5" x2="420.875" y2="185.5"/>
		<line id="XMLID_195_" style="fill:none;stroke:#000000;stroke-miterlimit:10;" x1="491.875" y1="223.5" x2="467.875" y2="223.5"/>
		<line id="XMLID_194_" style="fill:none;stroke:#000000;stroke-miterlimit:10;" x1="230.875" y1="224.5" x2="207.875" y2="224.5"/>
		<line id="XMLID_193_" style="fill:none;stroke:#000000;stroke-miterlimit:10;" x1="92.875" y1="219.5" x2="75.875" y2="219.5"/>
		<line id="XMLID_192_" style="fill:none;stroke:#000000;stroke-miterlimit:10;" x1="66.875" y1="186.5" x2="48.875" y2="186.5"/>
		<line id="XMLID_191_" style="fill:none;stroke:#000000;stroke-miterlimit:10;" x1="98.875" y1="197.5" x2="81.875" y2="197.5"/>
		<line id="XMLID_190_" style="fill:none;stroke:#000000;stroke-miterlimit:10;" x1="167.875" y1="192.5" x2="150.875" y2="192.5"/>
		<line id="XMLID_188_" style="fill:none;stroke:#000000;stroke-miterlimit:10;" x1="179.875" y1="202.5" x2="162.875" y2="202.5"/>
		<line id="XMLID_187_" style="fill:none;stroke:#000000;stroke-miterlimit:10;" x1="134.875" y1="188.5" x2="117.875" y2="188.5"/>
		<line id="XMLID_185_" style="fill:none;stroke:#000000;stroke-miterlimit:10;" x1="201.875" y1="187.5" x2="183.875" y2="187.5"/>
		<line id="XMLID_184_" style="fill:none;stroke:#000000;stroke-miterlimit:10;" x1="221.875" y1="201.5" x2="204.875" y2="201.5"/>
		<line id="XMLID_183_" style="fill:none;stroke:#000000;stroke-miterlimit:10;" x1="271.875" y1="198.5" x2="254.875" y2="198.5"/>
		<line id="XMLID_182_" style="fill:none;stroke:#000000;stroke-miterlimit:10;" x1="261.875" y1="215.5" x2="243.875" y2="215.5"/>
		<line id="XMLID_181_" style="fill:none;stroke:#000000;stroke-miterlimit:10;" x1="115.875" y1="227.5" x2="97.875" y2="227.5"/>
		<line id="XMLID_180_" style="fill:none;stroke:#000000;stroke-miterlimit:10;" x1="382.875" y1="214.5" x2="365.875" y2="214.5"/>
		<line id="XMLID_179_" style="fill:none;stroke:#000000;stroke-miterlimit:10;" x1="148.875" y1="220.5" x2="131.875" y2="220.5"/>
		<line id="XMLID_178_" style="fill:none;stroke:#000000;stroke-miterlimit:10;" x1="176.875" y1="226.5" x2="159.875" y2="226.5"/>
		<line id="XMLID_177_" style="fill:none;stroke:#000000;stroke-miterlimit:10;" x1="59.875" y1="209.5" x2="41.875" y2="209.5"/>
		<line id="XMLID_176_" style="fill:none;stroke:#000000;stroke-miterlimit:10;" x1="63.875" y1="228.5" x2="45.875" y2="228.5"/>
		<line id="XMLID_175_" style="fill:none;stroke:#000000;stroke-miterlimit:10;" x1="341.875" y1="226.5" x2="324.875" y2="226.5"/>
		<line id="XMLID_174_" style="fill:none;stroke:#000000;stroke-miterlimit:10;" x1="357.875" y1="187.5" x2="339.875" y2="187.5"/>
		<line id="XMLID_173_" style="fill:none;stroke:#000000;stroke-miterlimit:10;" x1="424.875" y1="205.5" x2="407.875" y2="205.5"/>
		<line id="XMLID_172_" style="fill:none;stroke:#000000;stroke-miterlimit:10;" x1="352.875" y1="205.5" x2="335.875" y2="205.5"/>
		<line id="XMLID_171_" style="fill:none;stroke:#000000;stroke-miterlimit:10;" x1="447.875" y1="228.5" x2="430.875" y2="228.5"/>
		<line id="XMLID_170_" style="fill:none;stroke:#000000;stroke-miterlimit:10;" x1="319.875" y1="193.5" x2="303.875" y2="193.5"/>
		<line id="XMLID_169_" style="fill:none;stroke:#000000;stroke-miterlimit:10;" x1="464.875" y1="195.5" x2="448.875" y2="195.5"/>
		<line id="XMLID_168_" style="fill:none;stroke:#000000;stroke-miterlimit:10;" x1="291.875" y1="221.5" x2="275.875" y2="221.5"/>
		<line id="XMLID_167_" style="fill:none;stroke:#000000;stroke-miterlimit:10;" x1="267.875" y1="188.5" x2="231.875" y2="188.5"/>
		<line id="XMLID_166_" style="fill:none;stroke:#000000;stroke-miterlimit:10;" x1="201.875" y1="213.5" x2="177.875" y2="213.5"/>
		<line id="XMLID_165_" style="fill:none;stroke:#000000;stroke-miterlimit:10;" x1="308.875" y1="206.5" x2="284.875" y2="206.5"/>
		<line id="XMLID_164_" style="fill:none;stroke:#000000;stroke-miterlimit:10;" x1="133.875" y1="208.5" x2="110.875" y2="208.5"/>
		<line id="XMLID_261_" style="fill:none;stroke:#000000;stroke-miterlimit:10;" x1="499.875" y1="119.5" x2="484.875" y2="119.5"/>
		<line id="XMLID_260_" style="fill:none;stroke:#000000;stroke-miterlimit:10;" x1="466.875" y1="134.5" x2="443.875" y2="134.5"/>
		<line id="XMLID_259_" style="fill:none;stroke:#000000;stroke-miterlimit:10;" x1="402.875" y1="116.5" x2="378.875" y2="116.5"/>
		<line id="XMLID_258_" style="fill:none;stroke:#000000;stroke-miterlimit:10;" x1="409.875" y1="143.5" x2="385.875" y2="143.5"/>
		<line id="XMLID_257_" style="fill:none;stroke:#000000;stroke-miterlimit:10;" x1="444.875" y1="106.5" x2="420.875" y2="106.5"/>
		<line id="XMLID_256_" style="fill:none;stroke:#000000;stroke-miterlimit:10;" x1="491.875" y1="144.5" x2="467.875" y2="144.5"/>
		<line id="XMLID_255_" style="fill:none;stroke:#000000;stroke-miterlimit:10;" x1="230.875" y1="145.5" x2="207.875" y2="145.5"/>
		<line id="XMLID_254_" style="fill:none;stroke:#000000;stroke-miterlimit:10;" x1="92.875" y1="140.5" x2="75.875" y2="140.5"/>
		<line id="XMLID_253_" style="fill:none;stroke:#000000;stroke-miterlimit:10;" x1="66.875" y1="107.5" x2="48.875" y2="107.5"/>
		<line id="XMLID_252_" style="fill:none;stroke:#000000;stroke-miterlimit:10;" x1="98.875" y1="118.5" x2="81.875" y2="118.5"/>
		<line id="XMLID_251_" style="fill:none;stroke:#000000;stroke-miterlimit:10;" x1="167.875" y1="113.5" x2="150.875" y2="113.5"/>
		<line id="XMLID_250_" style="fill:none;stroke:#000000;stroke-miterlimit:10;" x1="179.875" y1="123.5" x2="162.875" y2="123.5"/>
		<line id="XMLID_249_" style="fill:none;stroke:#000000;stroke-miterlimit:10;" x1="134.875" y1="109.5" x2="117.875" y2="109.5"/>
		<line id="XMLID_248_" style="fill:none;stroke:#000000;stroke-miterlimit:10;" x1="201.875" y1="108.5" x2="183.875" y2="108.5"/>
		<line id="XMLID_247_" style="fill:none;stroke:#000000;stroke-miterlimit:10;" x1="221.875" y1="122.5" x2="204.875" y2="122.5"/>
		<line id="XMLID_246_" style="fill:none;stroke:#000000;stroke-miterlimit:10;" x1="271.875" y1="119.5" x2="254.875" y2="119.5"/>
		<line id="XMLID_245_" style="fill:none;stroke:#000000;stroke-miterlimit:10;" x1="261.875" y1="136.5" x2="243.875" y2="136.5"/>
		<line id="XMLID_244_" style="fill:none;stroke:#000000;stroke-miterlimit:10;" x1="115.875" y1="148.5" x2="97.875" y2="148.5"/>
		<line id="XMLID_243_" style="fill:none;stroke:#000000;stroke-miterlimit:10;" x1="382.875" y1="135.5" x2="365.875" y2="135.5"/>
		<line id="XMLID_242_" style="fill:none;stroke:#000000;stroke-miterlimit:10;" x1="148.875" y1="141.5" x2="131.875" y2="141.5"/>
		<line id="XMLID_241_" style="fill:none;stroke:#000000;stroke-miterlimit:10;" x1="176.875" y1="147.5" x2="159.875" y2="147.5"/>
		<line id="XMLID_220_" style="fill:none;stroke:#000000;stroke-miterlimit:10;" x1="59.875" y1="130.5" x2="41.875" y2="130.5"/>
		<line id="XMLID_219_" style="fill:none;stroke:#000000;stroke-miterlimit:10;" x1="63.875" y1="149.5" x2="45.875" y2="149.5"/>
		<line id="XMLID_218_" style="fill:none;stroke:#000000;stroke-miterlimit:10;" x1="341.875" y1="147.5" x2="324.875" y2="147.5"/>
		<line id="XMLID_217_" style="fill:none;stroke:#000000;stroke-miterlimit:10;" x1="357.875" y1="108.5" x2="339.875" y2="108.5"/>
		<line id="XMLID_216_" style="fill:none;stroke:#000000;stroke-miterlimit:10;" x1="424.875" y1="126.5" x2="407.875" y2="126.5"/>
		<line id="XMLID_215_" style="fill:none;stroke:#000000;stroke-miterlimit:10;" x1="352.875" y1="126.5" x2="335.875" y2="126.5"/>
		<line id="XMLID_214_" style="fill:none;stroke:#000000;stroke-miterlimit:10;" x1="447.875" y1="149.5" x2="430.875" y2="149.5"/>
		<line id="XMLID_213_" style="fill:none;stroke:#000000;stroke-miterlimit:10;" x1="319.875" y1="114.5" x2="303.875" y2="114.5"/>
		<line id="XMLID_212_" style="fill:none;stroke:#000000;stroke-miterlimit:10;" x1="464.875" y1="116.5" x2="448.875" y2="116.5"/>
		<line id="XMLID_210_" style="fill:none;stroke:#000000;stroke-miterlimit:10;" x1="291.875" y1="142.5" x2="275.875" y2="142.5"/>
		<line id="XMLID_209_" style="fill:none;stroke:#000000;stroke-miterlimit:10;" x1="267.875" y1="109.5" x2="231.875" y2="109.5"/>
		<line id="XMLID_208_" style="fill:none;stroke:#000000;stroke-miterlimit:10;" x1="201.875" y1="134.5" x2="177.875" y2="134.5"/>
		<line id="XMLID_207_" style="fill:none;stroke:#000000;stroke-miterlimit:10;" x1="308.875" y1="127.5" x2="284.875" y2="127.5"/>
		<line id="XMLID_206_" style="fill:none;stroke:#000000;stroke-miterlimit:10;" x1="133.875" y1="129.5" x2="110.875" y2="129.5"/>
		<line id="XMLID_319_" style="fill:none;stroke:#000000;stroke-miterlimit:10;" x1="494.875" y1="37.5" x2="480.875" y2="37.5"/>
		<line id="XMLID_318_" style="fill:none;stroke:#000000;stroke-miterlimit:10;" x1="466.875" y1="52.5" x2="443.875" y2="52.5"/>
		<line id="XMLID_317_" style="fill:none;stroke:#000000;stroke-miterlimit:10;" x1="399.875" y1="34.5" x2="376.875" y2="34.5"/>
		<line id="XMLID_316_" style="fill:none;stroke:#000000;stroke-miterlimit:10;" x1="409.875" y1="61.5" x2="385.875" y2="61.5"/>
		<line id="XMLID_315_" style="fill:none;stroke:#000000;stroke-miterlimit:10;" x1="440.875" y1="24.5" x2="417.875" y2="24.5"/>
		<line id="XMLID_314_" style="fill:none;stroke:#000000;stroke-miterlimit:10;" x1="491.875" y1="62.5" x2="467.875" y2="62.5"/>
		<line id="XMLID_313_" style="fill:none;stroke:#000000;stroke-miterlimit:10;" x1="230.875" y1="63.5" x2="207.875" y2="63.5"/>
		<line id="XMLID_312_" style="fill:none;stroke:#000000;stroke-miterlimit:10;" x1="92.875" y1="58.5" x2="75.875" y2="58.5"/>
		<line id="XMLID_311_" style="fill:none;stroke:#000000;stroke-miterlimit:10;" x1="70.875" y1="25.5" x2="53.875" y2="25.5"/>
		<line id="XMLID_310_" style="fill:none;stroke:#000000;stroke-miterlimit:10;" x1="102.875" y1="36.5" x2="85.875" y2="36.5"/>
		<line id="XMLID_309_" style="fill:none;stroke:#000000;stroke-miterlimit:10;" x1="169.875" y1="31.5" x2="152.875" y2="31.5"/>
		<line id="XMLID_308_" style="fill:none;stroke:#000000;stroke-miterlimit:10;" x1="179.875" y1="41.5" x2="162.875" y2="41.5"/>
		<line id="XMLID_307_" style="fill:none;stroke:#000000;stroke-miterlimit:10;" x1="137.875" y1="27.5" x2="120.875" y2="27.5"/>
		<line id="XMLID_306_" style="fill:none;stroke:#000000;stroke-miterlimit:10;" x1="202.875" y1="26.5" x2="185.875" y2="26.5"/>
		<line id="XMLID_305_" style="fill:none;stroke:#000000;stroke-miterlimit:10;" x1="222.875" y1="40.5" x2="205.875" y2="40.5"/>
		<line id="XMLID_304_" style="fill:none;stroke:#000000;stroke-miterlimit:10;" x1="271.875" y1="37.5" x2="254.875" y2="37.5"/>
		<line id="XMLID_303_" style="fill:none;stroke:#000000;stroke-miterlimit:10;" x1="261.875" y1="54.5" x2="243.875" y2="54.5"/>
		<line id="XMLID_300_" style="fill:none;stroke:#000000;stroke-miterlimit:10;" x1="115.875" y1="66.5" x2="97.875" y2="66.5"/>
		<line id="XMLID_299_" style="fill:none;stroke:#000000;stroke-miterlimit:10;" x1="382.875" y1="53.5" x2="365.875" y2="53.5"/>
		<line id="XMLID_298_" style="fill:none;stroke:#000000;stroke-miterlimit:10;" x1="148.875" y1="59.5" x2="131.875" y2="59.5"/>
		<line id="XMLID_297_" style="fill:none;stroke:#000000;stroke-miterlimit:10;" x1="176.875" y1="65.5" x2="159.875" y2="65.5"/>
		<line id="XMLID_296_" style="fill:none;stroke:#000000;stroke-miterlimit:10;" x1="59.875" y1="48.5" x2="41.875" y2="48.5"/>
		<line id="XMLID_295_" style="fill:none;stroke:#000000;stroke-miterlimit:10;" x1="63.875" y1="67.5" x2="45.875" y2="67.5"/>
		<line id="XMLID_290_" style="fill:none;stroke:#000000;stroke-miterlimit:10;" x1="341.875" y1="65.5" x2="324.875" y2="65.5"/>
		<line id="XMLID_289_" style="fill:none;stroke:#000000;stroke-miterlimit:10;" x1="355.875" y1="26.5" x2="338.875" y2="26.5"/>
		<line id="XMLID_288_" style="fill:none;stroke:#000000;stroke-miterlimit:10;" x1="424.875" y1="44.5" x2="407.875" y2="44.5"/>
		<line id="XMLID_287_" style="fill:none;stroke:#000000;stroke-miterlimit:10;" x1="352.875" y1="44.5" x2="335.875" y2="44.5"/>
		<line id="XMLID_276_" style="fill:none;stroke:#000000;stroke-miterlimit:10;" x1="447.875" y1="67.5" x2="430.875" y2="67.5"/>
		<line id="XMLID_275_" style="fill:none;stroke:#000000;stroke-miterlimit:10;" x1="318.875" y1="32.5" x2="302.875" y2="32.5"/>
		<line id="XMLID_271_" style="fill:none;stroke:#000000;stroke-miterlimit:10;" x1="460.875" y1="34.5" x2="444.875" y2="34.5"/>
		<line id="XMLID_267_" style="fill:none;stroke:#000000;stroke-miterlimit:10;" x1="291.875" y1="60.5" x2="275.875" y2="60.5"/>
		<line id="XMLID_266_" style="fill:none;stroke:#000000;stroke-miterlimit:10;" x1="267.875" y1="27.5" x2="232.875" y2="27.5"/>
		<line id="XMLID_265_" style="fill:none;stroke:#000000;stroke-miterlimit:10;" x1="201.875" y1="52.5" x2="177.875" y2="52.5"/>
		<line id="XMLID_264_" style="fill:none;stroke:#000000;stroke-miterlimit:10;" x1="308.875" y1="45.5" x2="284.875" y2="45.5"/>
		<line id="XMLID_263_" style="fill:none;stroke:#000000;stroke-miterlimit:10;" x1="133.875" y1="47.5" x2="110.875" y2="47.5"/>
	</g>
</g>
<g id="Layer_1">
</g>
</svg>
