<?xml version="1.0" encoding="iso-8859-1"?>
<!-- Generator: Adobe Illustrator 19.0.0, SVG Export Plug-In . SVG Version: 6.00 Build 0)  -->
<svg version="1.1" xmlns="http://www.w3.org/2000/svg" xmlns:xlink="http://www.w3.org/1999/xlink" x="0px" y="0px"
	 viewBox="0 0 1140.53 535" style="enable-background:new 0 0 1140.53 535;" xml:space="preserve">
<g id="seat-2">
	<rect id="bounds_4_" x="-0.125" style="opacity:0;fill:#FF0086;" width="1140" height="535"/>
	<g id="style1">
		<g id="XMLID_2169_">
			<polygon id="XMLID_592_" style="fill:#DEB074;" points="1056.896,398 84.875,398 84.875,443.667 58.875,511.372 58.875,535 
				1082.875,535 1082.875,511.372 1057.291,444 			"/>
		</g>
		<g id="XMLID_2167_">
			<rect id="XMLID_2168_" x="30.875" y="0" style="fill:#DEB074;" width="1080" height="82"/>
		</g>
		<g id="XMLID_2165_">
			<rect id="XMLID_2166_" x="30.875" y="323" style="fill:#DEB074;" width="1080" height="61"/>
		</g>
		<g id="XMLID_2163_">
			<rect id="XMLID_2164_" x="30.875" y="247" style="fill:#DEB074;" width="1080" height="61"/>
		</g>
		<g id="XMLID_2161_">
			<rect id="XMLID_2162_" x="30.875" y="172" style="fill:#DEB074;" width="1080" height="61"/>
		</g>
		<g id="XMLID_2159_">
			<rect id="XMLID_2160_" x="30.875" y="96" style="fill:#DEB074;" width="1080" height="61"/>
		</g>
	</g>
	<g id="style2">
		<g id="XMLID_2157_">
			<path id="XMLID_591_" style="fill:#DBDBDA;" d="M31.729,444.504l-29.09,67.097c0,0-1.956,2.566,4.682,6.601
				C14.8,522.748,59.875,535,59.875,535v-23.628l26-66.868V398h45v-14H83.586H31.875"/>
		</g>
		<g id="XMLID_2155_">
			<path id="XMLID_590_" style="fill:#DBDBDA;" d="M1110.875,384l-51.902,0h-48.098v14h46v46.504l26,66.868V535
				c0,0,44.557-11.583,52.046-16.791c7.489-5.209,5.159-6.836,5.159-6.836L1111.201,445"/>
		</g>
	</g>
	<g id="accent_6_">
		<g id="XMLID_2153_" style="opacity:0.45;">
			<polygon id="XMLID_589_" points="59.125,511.372 85.211,444.5 1056.385,444 1083.125,511.372 			"/>
		</g>
		<g id="XMLID_2151_" style="opacity:0.1;">
			<polygon id="XMLID_2152_" style="fill:#FFFFFF;" points="63.766,501.166 64.787,498.779 1078,498.735 1079.361,501.149 			"/>
		</g>
		<g id="XMLID_2149_" style="opacity:0.1;">
			<polygon id="XMLID_2150_" style="fill:#FFFFFF;" points="68.872,487.166 69.866,484.779 1072.249,484.735 1073.575,487.149 			
				"/>
		</g>
		<g id="XMLID_2147_" style="opacity:0.1;">
			<polygon id="XMLID_2148_" style="fill:#FFFFFF;" points="74.659,472.5 75.625,470.113 1066.5,470.068 1067.788,472.483 			"/>
		</g>
		<g id="XMLID_2145_" style="opacity:0.1;">
			<polygon id="XMLID_2146_" style="fill:#FFFFFF;" points="79.765,458.5 80.704,456.113 1061.089,456.068 1062.342,458.483 			"/>
		</g>
		<g id="XMLID_2143_" style="opacity:0.15;">
			<line id="XMLID_588_" x1="1056.746" y1="444.504" x2="1092.785" y2="518.372"/>
		</g>
		<g id="XMLID_2141_">
			
				<linearGradient id="XMLID_2_" gradientUnits="userSpaceOnUse" x1="1527.209" y1="189" x2="1572.8438" y2="189" gradientTransform="matrix(-1 0 0 -1 1657.931 580)">
				<stop  offset="0" style="stop-color:#000000;stop-opacity:0.45"/>
				<stop  offset="1" style="stop-color:#000000;stop-opacity:0.6"/>
			</linearGradient>
			<rect id="XMLID_2142_" x="85.087" y="384" style="fill:url(#XMLID_2_);" width="45.635" height="14"/>
		</g>
		<g id="XMLID_2139_" style="opacity:0.6;">
			<polygon id="XMLID_587_" points="59.125,511.167 1.702,511.601 30.861,444.777 85.098,444.777 			"/>
		</g>
		<g id="XMLID_2137_">
			<path id="XMLID_2138_" style="fill:none;stroke:#B2B2B2;stroke-width:4.4866;stroke-miterlimit:10;" d="M1113.416,3.796"/>
		</g>
		<g id="XMLID_2135_" style="opacity:0.6;">
			<polygon id="XMLID_586_" points="1083.125,511.372 1140.183,511.635 1111.358,445 1056.665,444.892 			"/>
		</g>
		<g id="XMLID_2133_">
			
				<linearGradient id="XMLID_3_" gradientUnits="userSpaceOnUse" x1="600.9491" y1="189" x2="646.584" y2="189" gradientTransform="matrix(-1 0 0 -1 1657.931 580)">
				<stop  offset="0" style="stop-color:#000000;stop-opacity:0.6"/>
				<stop  offset="1" style="stop-color:#000000;stop-opacity:0.45"/>
			</linearGradient>
			<rect id="XMLID_2134_" x="1011.347" y="384" style="fill:url(#XMLID_3_);" width="45.635" height="14"/>
		</g>
		<g id="XMLID_2131_" style="opacity:0.12;">
			<rect id="XMLID_2132_" x="30.875" y="0" width="1080" height="6"/>
		</g>
		<g id="XMLID_2129_" style="opacity:0.12;">
			<rect id="XMLID_2130_" x="30.875" y="323" width="1080" height="3"/>
		</g>
		<g id="XMLID_2127_" style="opacity:0.12;">
			<rect id="XMLID_2128_" x="30.875" y="247" width="1080" height="3"/>
		</g>
		<g id="XMLID_2125_" style="opacity:0.12;">
			<rect id="XMLID_2126_" x="30.875" y="172" width="1080" height="3"/>
		</g>
		<g id="XMLID_2123_" style="opacity:0.12;">
			<rect id="XMLID_2124_" x="30.875" y="96" width="1080" height="3"/>
		</g>
		<g id="XMLID_2121_" style="opacity:0.12;">
			<rect id="XMLID_2122_" x="84.875" y="398" width="972" height="3"/>
		</g>
		
			<linearGradient id="XMLID_4_" gradientUnits="userSpaceOnUse" x1="1599.7813" y1="159.1667" x2="1599.7813" y2="138.1607" gradientTransform="matrix(-1 0 0 -1 1657.931 580)">
			<stop  offset="0" style="stop-color:#000000;stop-opacity:0"/>
			<stop  offset="1" style="stop-color:#000000;stop-opacity:0.6"/>
		</linearGradient>
		<rect id="XMLID_2120_" x="31.089" y="420.833" style="fill:url(#XMLID_4_);" width="54.122" height="24"/>
		
			<linearGradient id="XMLID_5_" gradientUnits="userSpaceOnUse" x1="573.8895" y1="159" x2="573.8895" y2="137.994" gradientTransform="matrix(-1 0 0 -1 1657.931 580)">
			<stop  offset="0" style="stop-color:#000000;stop-opacity:0"/>
			<stop  offset="1" style="stop-color:#000000;stop-opacity:0.6"/>
		</linearGradient>
		<rect id="XMLID_2119_" x="1056.725" y="421" style="fill:url(#XMLID_5_);" width="54.633" height="24"/>
		
			<linearGradient id="XMLID_6_" gradientUnits="userSpaceOnUse" x1="529.7637" y1="62.2258" x2="519.8688" y2="72.2997" gradientTransform="matrix(-1 0 0 -1 1657.931 580)">
			<stop  offset="0" style="stop-color:#000000;stop-opacity:0"/>
			<stop  offset="1" style="stop-color:#000000;stop-opacity:0.35"/>
		</linearGradient>
		<path id="XMLID_585_" style="fill:url(#XMLID_6_);" d="M1127.016,522.167c0,0,15.318-4.833,13.488-10.667l-15.318,0.25
			L1127.016,522.167z"/>
		
			<linearGradient id="XMLID_7_" gradientUnits="userSpaceOnUse" x1="491.6526" y1="61.5393" x2="481.2213" y2="72.1594" gradientTransform="matrix(1 0 0 -1 -477.0155 580)">
			<stop  offset="0" style="stop-color:#000000;stop-opacity:0"/>
			<stop  offset="1" style="stop-color:#000000;stop-opacity:0.35"/>
		</linearGradient>
		<path id="XMLID_584_" style="fill:url(#XMLID_7_);" d="M16.792,522.167c0,0-17.53-5-15.147-10.333l15.33-0.083L16.792,522.167z"/>
		
			<line id="XMLID_2116_" style="opacity:0.2;fill:none;stroke:#000000;stroke-width:4;stroke-miterlimit:10;" x1="32.875" y1="445" x2="32.875" y2="0"/>
		
			<line id="XMLID_2115_" style="opacity:0.2;fill:none;stroke:#000000;stroke-width:2;stroke-miterlimit:10;" x1="85.875" y1="445" x2="85.875" y2="398"/>
		
			<line id="XMLID_2114_" style="opacity:0.2;fill:none;stroke:#000000;stroke-width:4;stroke-miterlimit:10;" x1="1108.875" y1="445" x2="1108.875" y2="0"/>
		
			<line id="XMLID_2113_" style="opacity:0.2;fill:none;stroke:#000000;stroke-width:2;stroke-miterlimit:10;" x1="1055.875" y1="444" x2="1055.875" y2="397"/>
	</g>
	<g id="texture" style="opacity:0.12;">
		
			<line id="XMLID_2112_" style="fill:none;stroke:#000000;stroke-miterlimit:10;" x1="1092.875" y1="345.5" x2="1058.875" y2="345.5"/>
		
			<line id="XMLID_2111_" style="fill:none;stroke:#000000;stroke-miterlimit:10;" x1="1017.875" y1="360.5" x2="965.875" y2="360.5"/>
		
			<line id="XMLID_2110_" style="fill:none;stroke:#000000;stroke-miterlimit:10;" x1="871.875" y1="342.5" x2="817.875" y2="342.5"/>
		
			<line id="XMLID_2109_" style="fill:none;stroke:#000000;stroke-miterlimit:10;" x1="887.875" y1="369.5" x2="832.875" y2="369.5"/>
		
			<line id="XMLID_2108_" style="fill:none;stroke:#000000;stroke-miterlimit:10;" x1="966.875" y1="332.5" x2="912.875" y2="332.5"/>
		
			<line id="XMLID_2107_" style="fill:none;stroke:#000000;stroke-miterlimit:10;" x1="1074.875" y1="370.5" x2="1020.875" y2="370.5"/>
		
			<line id="XMLID_2106_" style="fill:none;stroke:#000000;stroke-miterlimit:10;" x1="480.875" y1="371.5" x2="428.875" y2="371.5"/>
		
			<line id="XMLID_2105_" style="fill:none;stroke:#000000;stroke-miterlimit:10;" x1="166.875" y1="366.5" x2="128.875" y2="366.5"/>
		<line id="XMLID_2104_" style="fill:none;stroke:#000000;stroke-miterlimit:10;" x1="107.875" y1="333.5" x2="66.875" y2="333.5"/>
		
			<line id="XMLID_2103_" style="fill:none;stroke:#000000;stroke-miterlimit:10;" x1="180.875" y1="344.5" x2="140.875" y2="344.5"/>
		
			<line id="XMLID_2102_" style="fill:none;stroke:#000000;stroke-miterlimit:10;" x1="337.875" y1="339.5" x2="298.875" y2="339.5"/>
		
			<line id="XMLID_2101_" style="fill:none;stroke:#000000;stroke-miterlimit:10;" x1="364.875" y1="349.5" x2="326.875" y2="349.5"/>
		
			<line id="XMLID_2100_" style="fill:none;stroke:#000000;stroke-miterlimit:10;" x1="261.875" y1="335.5" x2="224.875" y2="335.5"/>
		
			<line id="XMLID_2099_" style="fill:none;stroke:#000000;stroke-miterlimit:10;" x1="415.875" y1="334.5" x2="374.875" y2="334.5"/>
		
			<line id="XMLID_2098_" style="fill:none;stroke:#000000;stroke-miterlimit:10;" x1="460.875" y1="348.5" x2="420.875" y2="348.5"/>
		
			<line id="XMLID_2097_" style="fill:none;stroke:#000000;stroke-miterlimit:10;" x1="574.875" y1="345.5" x2="535.875" y2="345.5"/>
		
			<line id="XMLID_2096_" style="fill:none;stroke:#000000;stroke-miterlimit:10;" x1="551.875" y1="362.5" x2="509.875" y2="362.5"/>
		
			<line id="XMLID_2095_" style="fill:none;stroke:#000000;stroke-miterlimit:10;" x1="218.875" y1="374.5" x2="178.875" y2="374.5"/>
		
			<line id="XMLID_2094_" style="fill:none;stroke:#000000;stroke-miterlimit:10;" x1="826.875" y1="361.5" x2="787.875" y2="361.5"/>
		
			<line id="XMLID_2093_" style="fill:none;stroke:#000000;stroke-miterlimit:10;" x1="294.875" y1="367.5" x2="255.875" y2="367.5"/>
		
			<line id="XMLID_2092_" style="fill:none;stroke:#000000;stroke-miterlimit:10;" x1="357.875" y1="373.5" x2="318.875" y2="373.5"/>
		<line id="XMLID_2091_" style="fill:none;stroke:#000000;stroke-miterlimit:10;" x1="92.875" y1="356.5" x2="49.875" y2="356.5"/>
		<line id="XMLID_2090_" style="fill:none;stroke:#000000;stroke-miterlimit:10;" x1="100.875" y1="375.5" x2="59.875" y2="375.5"/>
		
			<line id="XMLID_2089_" style="fill:none;stroke:#000000;stroke-miterlimit:10;" x1="732.875" y1="373.5" x2="694.875" y2="373.5"/>
		
			<line id="XMLID_2088_" style="fill:none;stroke:#000000;stroke-miterlimit:10;" x1="769.875" y1="334.5" x2="728.875" y2="334.5"/>
		
			<line id="XMLID_2087_" style="fill:none;stroke:#000000;stroke-miterlimit:10;" x1="921.875" y1="352.5" x2="883.875" y2="352.5"/>
		
			<line id="XMLID_2086_" style="fill:none;stroke:#000000;stroke-miterlimit:10;" x1="758.875" y1="352.5" x2="719.875" y2="352.5"/>
		
			<line id="XMLID_2085_" style="fill:none;stroke:#000000;stroke-miterlimit:10;" x1="974.875" y1="375.5" x2="934.875" y2="375.5"/>
		
			<line id="XMLID_2084_" style="fill:none;stroke:#000000;stroke-miterlimit:10;" x1="682.875" y1="340.5" x2="646.875" y2="340.5"/>
		
			<line id="XMLID_2083_" style="fill:none;stroke:#000000;stroke-miterlimit:10;" x1="1012.875" y1="342.5" x2="976.875" y2="342.5"/>
		
			<line id="XMLID_2082_" style="fill:none;stroke:#000000;stroke-miterlimit:10;" x1="619.875" y1="368.5" x2="582.875" y2="368.5"/>
		
			<line id="XMLID_2081_" style="fill:none;stroke:#000000;stroke-miterlimit:10;" x1="563.875" y1="335.5" x2="482.875" y2="335.5"/>
		
			<line id="XMLID_2080_" style="fill:none;stroke:#000000;stroke-miterlimit:10;" x1="415.875" y1="360.5" x2="360.875" y2="360.5"/>
		
			<line id="XMLID_2079_" style="fill:none;stroke:#000000;stroke-miterlimit:10;" x1="658.875" y1="353.5" x2="603.875" y2="353.5"/>
		
			<line id="XMLID_2078_" style="fill:none;stroke:#000000;stroke-miterlimit:10;" x1="260.875" y1="355.5" x2="207.875" y2="355.5"/>
		
			<line id="XMLID_2077_" style="fill:none;stroke:#000000;stroke-miterlimit:10;" x1="1034.875" y1="415.5" x2="1005.875" y2="415.5"/>
		
			<line id="XMLID_2076_" style="fill:none;stroke:#000000;stroke-miterlimit:10;" x1="968.875" y1="425.5" x2="921.875" y2="425.5"/>
		
			<line id="XMLID_2075_" style="fill:none;stroke:#000000;stroke-miterlimit:10;" x1="838.875" y1="414.5" x2="790.875" y2="414.5"/>
		
			<line id="XMLID_2074_" style="fill:none;stroke:#000000;stroke-miterlimit:10;" x1="851.875" y1="431.5" x2="806.875" y2="431.5"/>
		
			<line id="XMLID_2073_" style="fill:none;stroke:#000000;stroke-miterlimit:10;" x1="924.875" y1="407.5" x2="874.875" y2="407.5"/>
		
			<line id="XMLID_2072_" style="fill:none;stroke:#000000;stroke-miterlimit:10;" x1="1015.875" y1="432.5" x2="969.875" y2="432.5"/>
		
			<line id="XMLID_2071_" style="fill:none;stroke:#000000;stroke-miterlimit:10;" x1="494.875" y1="432.5" x2="447.875" y2="432.5"/>
		
			<line id="XMLID_2070_" style="fill:none;stroke:#000000;stroke-miterlimit:10;" x1="216.875" y1="429.5" x2="184.875" y2="429.5"/>
		
			<line id="XMLID_2069_" style="fill:none;stroke:#000000;stroke-miterlimit:10;" x1="166.875" y1="408.5" x2="130.875" y2="408.5"/>
		
			<line id="XMLID_2068_" style="fill:none;stroke:#000000;stroke-miterlimit:10;" x1="231.875" y1="415.5" x2="195.875" y2="415.5"/>
		
			<line id="XMLID_2067_" style="fill:none;stroke:#000000;stroke-miterlimit:10;" x1="366.875" y1="412.5" x2="331.875" y2="412.5"/>
		
			<line id="XMLID_2066_" style="fill:none;stroke:#000000;stroke-miterlimit:10;" x1="392.875" y1="418.5" x2="358.875" y2="418.5"/>
		
			<line id="XMLID_2065_" style="fill:none;stroke:#000000;stroke-miterlimit:10;" x1="302.875" y1="409.5" x2="270.875" y2="409.5"/>
		
			<line id="XMLID_2064_" style="fill:none;stroke:#000000;stroke-miterlimit:10;" x1="436.875" y1="408.5" x2="402.875" y2="408.5"/>
		
			<line id="XMLID_2063_" style="fill:none;stroke:#000000;stroke-miterlimit:10;" x1="473.875" y1="417.5" x2="441.875" y2="417.5"/>
		
			<line id="XMLID_2062_" style="fill:none;stroke:#000000;stroke-miterlimit:10;" x1="575.875" y1="415.5" x2="541.875" y2="415.5"/>
		
			<line id="XMLID_2061_" style="fill:none;stroke:#000000;stroke-miterlimit:10;" x1="557.875" y1="427.5" x2="521.875" y2="427.5"/>
		
			<line id="XMLID_2060_" style="fill:none;stroke:#000000;stroke-miterlimit:10;" x1="264.875" y1="434.5" x2="227.875" y2="434.5"/>
		
			<line id="XMLID_2059_" style="fill:none;stroke:#000000;stroke-miterlimit:10;" x1="801.875" y1="426.5" x2="766.875" y2="426.5"/>
		
			<line id="XMLID_2058_" style="fill:none;stroke:#000000;stroke-miterlimit:10;" x1="331.875" y1="430.5" x2="297.875" y2="430.5"/>
		
			<line id="XMLID_2057_" style="fill:none;stroke:#000000;stroke-miterlimit:10;" x1="388.875" y1="434.5" x2="350.875" y2="434.5"/>
		
			<line id="XMLID_2056_" style="fill:none;stroke:#000000;stroke-miterlimit:10;" x1="152.875" y1="423.5" x2="114.875" y2="423.5"/>
		
			<line id="XMLID_2055_" style="fill:none;stroke:#000000;stroke-miterlimit:10;" x1="160.875" y1="435.5" x2="126.875" y2="435.5"/>
		
			<line id="XMLID_2054_" style="fill:none;stroke:#000000;stroke-miterlimit:10;" x1="718.875" y1="434.5" x2="683.875" y2="434.5"/>
		
			<line id="XMLID_2053_" style="fill:none;stroke:#000000;stroke-miterlimit:10;" x1="746.875" y1="408.5" x2="712.875" y2="408.5"/>
		
			<line id="XMLID_2052_" style="fill:none;stroke:#000000;stroke-miterlimit:10;" x1="880.875" y1="420.5" x2="847.875" y2="420.5"/>
		
			<line id="XMLID_2051_" style="fill:none;stroke:#000000;stroke-miterlimit:10;" x1="736.875" y1="420.5" x2="705.875" y2="420.5"/>
		
			<line id="XMLID_2050_" style="fill:none;stroke:#000000;stroke-miterlimit:10;" x1="928.875" y1="435.5" x2="897.875" y2="435.5"/>
		
			<line id="XMLID_2049_" style="fill:none;stroke:#000000;stroke-miterlimit:10;" x1="675.875" y1="412.5" x2="642.875" y2="412.5"/>
		
			<line id="XMLID_2048_" style="fill:none;stroke:#000000;stroke-miterlimit:10;" x1="961.875" y1="414.5" x2="932.875" y2="414.5"/>
		
			<line id="XMLID_2047_" style="fill:none;stroke:#000000;stroke-miterlimit:10;" x1="615.875" y1="430.5" x2="587.875" y2="430.5"/>
		
			<line id="XMLID_2046_" style="fill:none;stroke:#000000;stroke-miterlimit:10;" x1="567.875" y1="409.5" x2="494.875" y2="409.5"/>
		
			<line id="XMLID_2045_" style="fill:none;stroke:#000000;stroke-miterlimit:10;" x1="436.875" y1="425.5" x2="388.875" y2="425.5"/>
		
			<line id="XMLID_2044_" style="fill:none;stroke:#000000;stroke-miterlimit:10;" x1="651.875" y1="421.5" x2="602.875" y2="421.5"/>
		
			<line id="XMLID_2043_" style="fill:none;stroke:#000000;stroke-miterlimit:10;" x1="302.875" y1="422.5" x2="255.875" y2="422.5"/>
		
			<line id="XMLID_2042_" style="fill:none;stroke:#000000;stroke-miterlimit:10;" x1="937.875" y1="522.5" x2="894.875" y2="522.5"/>
		
			<line id="XMLID_2041_" style="fill:none;stroke:#000000;stroke-miterlimit:10;" x1="834.875" y1="526.5" x2="792.875" y2="526.5"/>
		
			<line id="XMLID_2040_" style="fill:none;stroke:#000000;stroke-miterlimit:10;" x1="981.875" y1="527.5" x2="942.875" y2="527.5"/>
		
			<line id="XMLID_2039_" style="fill:none;stroke:#000000;stroke-miterlimit:10;" x1="510.875" y1="527.5" x2="465.875" y2="527.5"/>
		
			<line id="XMLID_2038_" style="fill:none;stroke:#000000;stroke-miterlimit:10;" x1="257.875" y1="525.5" x2="227.875" y2="525.5"/>
		
			<line id="XMLID_2037_" style="fill:none;stroke:#000000;stroke-miterlimit:10;" x1="270.875" y1="516.5" x2="239.875" y2="516.5"/>
		
			<line id="XMLID_2036_" style="fill:none;stroke:#000000;stroke-miterlimit:10;" x1="415.875" y1="518.5" x2="387.875" y2="518.5"/>
		
			<line id="XMLID_2035_" style="fill:none;stroke:#000000;stroke-miterlimit:10;" x1="490.875" y1="517.5" x2="462.875" y2="517.5"/>
		
			<line id="XMLID_2034_" style="fill:none;stroke:#000000;stroke-miterlimit:10;" x1="584.875" y1="516.5" x2="551.875" y2="516.5"/>
		
			<line id="XMLID_2033_" style="fill:none;stroke:#000000;stroke-miterlimit:10;" x1="564.875" y1="524.5" x2="534.875" y2="524.5"/>
		
			<line id="XMLID_2032_" style="fill:none;stroke:#000000;stroke-miterlimit:10;" x1="300.875" y1="528.5" x2="267.875" y2="528.5"/>
		
			<line id="XMLID_2031_" style="fill:none;stroke:#000000;stroke-miterlimit:10;" x1="785.875" y1="523.5" x2="755.875" y2="523.5"/>
		
			<line id="XMLID_2030_" style="fill:none;stroke:#000000;stroke-miterlimit:10;" x1="363.875" y1="526.5" x2="330.875" y2="526.5"/>
		
			<line id="XMLID_2029_" style="fill:none;stroke:#000000;stroke-miterlimit:10;" x1="411.875" y1="528.5" x2="379.875" y2="528.5"/>
		
			<line id="XMLID_2028_" style="fill:none;stroke:#000000;stroke-miterlimit:10;" x1="199.875" y1="521.5" x2="167.875" y2="521.5"/>
		
			<line id="XMLID_2027_" style="fill:none;stroke:#000000;stroke-miterlimit:10;" x1="205.875" y1="529.5" x2="175.875" y2="529.5"/>
		
			<line id="XMLID_2026_" style="fill:none;stroke:#000000;stroke-miterlimit:10;" x1="711.875" y1="528.5" x2="680.875" y2="528.5"/>
		
			<line id="XMLID_2025_" style="fill:none;stroke:#000000;stroke-miterlimit:10;" x1="861.875" y1="519.5" x2="830.875" y2="519.5"/>
		
			<line id="XMLID_2024_" style="fill:none;stroke:#000000;stroke-miterlimit:10;" x1="731.875" y1="519.5" x2="698.875" y2="519.5"/>
		
			<line id="XMLID_2023_" style="fill:none;stroke:#000000;stroke-miterlimit:10;" x1="902.875" y1="529.5" x2="872.875" y2="529.5"/>
		
			<line id="XMLID_2022_" style="fill:none;stroke:#000000;stroke-miterlimit:10;" x1="622.875" y1="526.5" x2="594.875" y2="526.5"/>
		
			<line id="XMLID_2021_" style="fill:none;stroke:#000000;stroke-miterlimit:10;" x1="455.875" y1="522.5" x2="411.875" y2="522.5"/>
		
			<line id="XMLID_2020_" style="fill:none;stroke:#000000;stroke-miterlimit:10;" x1="650.875" y1="520.5" x2="607.875" y2="520.5"/>
		
			<line id="XMLID_2019_" style="fill:none;stroke:#000000;stroke-miterlimit:10;" x1="336.875" y1="521.5" x2="290.875" y2="521.5"/>
		
			<line id="XMLID_2018_" style="fill:none;stroke:#000000;stroke-miterlimit:10;" x1="1092.875" y1="271.5" x2="1058.875" y2="271.5"/>
		
			<line id="XMLID_2017_" style="fill:none;stroke:#000000;stroke-miterlimit:10;" x1="1017.875" y1="286.5" x2="965.875" y2="286.5"/>
		
			<line id="XMLID_2016_" style="fill:none;stroke:#000000;stroke-miterlimit:10;" x1="871.875" y1="268.5" x2="817.875" y2="268.5"/>
		
			<line id="XMLID_2015_" style="fill:none;stroke:#000000;stroke-miterlimit:10;" x1="887.875" y1="295.5" x2="832.875" y2="295.5"/>
		
			<line id="XMLID_2014_" style="fill:none;stroke:#000000;stroke-miterlimit:10;" x1="966.875" y1="258.5" x2="912.875" y2="258.5"/>
		
			<line id="XMLID_2013_" style="fill:none;stroke:#000000;stroke-miterlimit:10;" x1="1074.875" y1="296.5" x2="1020.875" y2="296.5"/>
		
			<line id="XMLID_2012_" style="fill:none;stroke:#000000;stroke-miterlimit:10;" x1="480.875" y1="297.5" x2="428.875" y2="297.5"/>
		
			<line id="XMLID_2011_" style="fill:none;stroke:#000000;stroke-miterlimit:10;" x1="166.875" y1="292.5" x2="128.875" y2="292.5"/>
		<line id="XMLID_2010_" style="fill:none;stroke:#000000;stroke-miterlimit:10;" x1="107.875" y1="259.5" x2="66.875" y2="259.5"/>
		
			<line id="XMLID_2009_" style="fill:none;stroke:#000000;stroke-miterlimit:10;" x1="180.875" y1="270.5" x2="140.875" y2="270.5"/>
		
			<line id="XMLID_2008_" style="fill:none;stroke:#000000;stroke-miterlimit:10;" x1="337.875" y1="265.5" x2="298.875" y2="265.5"/>
		
			<line id="XMLID_2007_" style="fill:none;stroke:#000000;stroke-miterlimit:10;" x1="364.875" y1="275.5" x2="326.875" y2="275.5"/>
		
			<line id="XMLID_2006_" style="fill:none;stroke:#000000;stroke-miterlimit:10;" x1="261.875" y1="261.5" x2="224.875" y2="261.5"/>
		
			<line id="XMLID_2005_" style="fill:none;stroke:#000000;stroke-miterlimit:10;" x1="415.875" y1="260.5" x2="374.875" y2="260.5"/>
		
			<line id="XMLID_2004_" style="fill:none;stroke:#000000;stroke-miterlimit:10;" x1="460.875" y1="274.5" x2="420.875" y2="274.5"/>
		
			<line id="XMLID_2003_" style="fill:none;stroke:#000000;stroke-miterlimit:10;" x1="574.875" y1="271.5" x2="535.875" y2="271.5"/>
		
			<line id="XMLID_2002_" style="fill:none;stroke:#000000;stroke-miterlimit:10;" x1="551.875" y1="288.5" x2="509.875" y2="288.5"/>
		
			<line id="XMLID_2001_" style="fill:none;stroke:#000000;stroke-miterlimit:10;" x1="218.875" y1="300.5" x2="178.875" y2="300.5"/>
		
			<line id="XMLID_2000_" style="fill:none;stroke:#000000;stroke-miterlimit:10;" x1="826.875" y1="287.5" x2="787.875" y2="287.5"/>
		
			<line id="XMLID_1999_" style="fill:none;stroke:#000000;stroke-miterlimit:10;" x1="294.875" y1="293.5" x2="255.875" y2="293.5"/>
		
			<line id="XMLID_1998_" style="fill:none;stroke:#000000;stroke-miterlimit:10;" x1="357.875" y1="299.5" x2="318.875" y2="299.5"/>
		<line id="XMLID_1997_" style="fill:none;stroke:#000000;stroke-miterlimit:10;" x1="92.875" y1="282.5" x2="49.875" y2="282.5"/>
		<line id="XMLID_1996_" style="fill:none;stroke:#000000;stroke-miterlimit:10;" x1="100.875" y1="301.5" x2="59.875" y2="301.5"/>
		
			<line id="XMLID_1995_" style="fill:none;stroke:#000000;stroke-miterlimit:10;" x1="732.875" y1="299.5" x2="694.875" y2="299.5"/>
		
			<line id="XMLID_1994_" style="fill:none;stroke:#000000;stroke-miterlimit:10;" x1="769.875" y1="260.5" x2="728.875" y2="260.5"/>
		
			<line id="XMLID_1993_" style="fill:none;stroke:#000000;stroke-miterlimit:10;" x1="921.875" y1="278.5" x2="883.875" y2="278.5"/>
		
			<line id="XMLID_1992_" style="fill:none;stroke:#000000;stroke-miterlimit:10;" x1="758.875" y1="278.5" x2="719.875" y2="278.5"/>
		
			<line id="XMLID_1991_" style="fill:none;stroke:#000000;stroke-miterlimit:10;" x1="974.875" y1="301.5" x2="934.875" y2="301.5"/>
		
			<line id="XMLID_1990_" style="fill:none;stroke:#000000;stroke-miterlimit:10;" x1="682.875" y1="266.5" x2="646.875" y2="266.5"/>
		
			<line id="XMLID_1989_" style="fill:none;stroke:#000000;stroke-miterlimit:10;" x1="1012.875" y1="268.5" x2="976.875" y2="268.5"/>
		
			<line id="XMLID_1988_" style="fill:none;stroke:#000000;stroke-miterlimit:10;" x1="619.875" y1="294.5" x2="582.875" y2="294.5"/>
		
			<line id="XMLID_1987_" style="fill:none;stroke:#000000;stroke-miterlimit:10;" x1="563.875" y1="261.5" x2="482.875" y2="261.5"/>
		
			<line id="XMLID_1986_" style="fill:none;stroke:#000000;stroke-miterlimit:10;" x1="415.875" y1="286.5" x2="360.875" y2="286.5"/>
		
			<line id="XMLID_1985_" style="fill:none;stroke:#000000;stroke-miterlimit:10;" x1="658.875" y1="279.5" x2="603.875" y2="279.5"/>
		
			<line id="XMLID_1984_" style="fill:none;stroke:#000000;stroke-miterlimit:10;" x1="260.875" y1="281.5" x2="207.875" y2="281.5"/>
		
			<line id="XMLID_1983_" style="fill:none;stroke:#000000;stroke-miterlimit:10;" x1="1092.875" y1="198.5" x2="1058.875" y2="198.5"/>
		
			<line id="XMLID_1982_" style="fill:none;stroke:#000000;stroke-miterlimit:10;" x1="1017.875" y1="213.5" x2="965.875" y2="213.5"/>
		
			<line id="XMLID_1981_" style="fill:none;stroke:#000000;stroke-miterlimit:10;" x1="871.875" y1="195.5" x2="817.875" y2="195.5"/>
		
			<line id="XMLID_1980_" style="fill:none;stroke:#000000;stroke-miterlimit:10;" x1="887.875" y1="222.5" x2="832.875" y2="222.5"/>
		
			<line id="XMLID_1979_" style="fill:none;stroke:#000000;stroke-miterlimit:10;" x1="966.875" y1="185.5" x2="912.875" y2="185.5"/>
		
			<line id="XMLID_1978_" style="fill:none;stroke:#000000;stroke-miterlimit:10;" x1="1074.875" y1="223.5" x2="1020.875" y2="223.5"/>
		
			<line id="XMLID_1977_" style="fill:none;stroke:#000000;stroke-miterlimit:10;" x1="480.875" y1="224.5" x2="428.875" y2="224.5"/>
		
			<line id="XMLID_1976_" style="fill:none;stroke:#000000;stroke-miterlimit:10;" x1="166.875" y1="219.5" x2="128.875" y2="219.5"/>
		<line id="XMLID_1975_" style="fill:none;stroke:#000000;stroke-miterlimit:10;" x1="107.875" y1="186.5" x2="66.875" y2="186.5"/>
		
			<line id="XMLID_1974_" style="fill:none;stroke:#000000;stroke-miterlimit:10;" x1="180.875" y1="197.5" x2="140.875" y2="197.5"/>
		
			<line id="XMLID_1973_" style="fill:none;stroke:#000000;stroke-miterlimit:10;" x1="337.875" y1="192.5" x2="298.875" y2="192.5"/>
		
			<line id="XMLID_1972_" style="fill:none;stroke:#000000;stroke-miterlimit:10;" x1="364.875" y1="202.5" x2="326.875" y2="202.5"/>
		
			<line id="XMLID_1971_" style="fill:none;stroke:#000000;stroke-miterlimit:10;" x1="261.875" y1="188.5" x2="224.875" y2="188.5"/>
		
			<line id="XMLID_1970_" style="fill:none;stroke:#000000;stroke-miterlimit:10;" x1="415.875" y1="187.5" x2="374.875" y2="187.5"/>
		
			<line id="XMLID_1969_" style="fill:none;stroke:#000000;stroke-miterlimit:10;" x1="460.875" y1="201.5" x2="420.875" y2="201.5"/>
		
			<line id="XMLID_1968_" style="fill:none;stroke:#000000;stroke-miterlimit:10;" x1="574.875" y1="198.5" x2="535.875" y2="198.5"/>
		
			<line id="XMLID_1967_" style="fill:none;stroke:#000000;stroke-miterlimit:10;" x1="551.875" y1="215.5" x2="509.875" y2="215.5"/>
		
			<line id="XMLID_1966_" style="fill:none;stroke:#000000;stroke-miterlimit:10;" x1="218.875" y1="227.5" x2="178.875" y2="227.5"/>
		
			<line id="XMLID_1965_" style="fill:none;stroke:#000000;stroke-miterlimit:10;" x1="826.875" y1="214.5" x2="787.875" y2="214.5"/>
		
			<line id="XMLID_1962_" style="fill:none;stroke:#000000;stroke-miterlimit:10;" x1="294.875" y1="220.5" x2="255.875" y2="220.5"/>
		
			<line id="XMLID_1961_" style="fill:none;stroke:#000000;stroke-miterlimit:10;" x1="357.875" y1="226.5" x2="318.875" y2="226.5"/>
		<line id="XMLID_1960_" style="fill:none;stroke:#000000;stroke-miterlimit:10;" x1="92.875" y1="209.5" x2="49.875" y2="209.5"/>
		<line id="XMLID_1959_" style="fill:none;stroke:#000000;stroke-miterlimit:10;" x1="100.875" y1="228.5" x2="59.875" y2="228.5"/>
		
			<line id="XMLID_1956_" style="fill:none;stroke:#000000;stroke-miterlimit:10;" x1="732.875" y1="226.5" x2="694.875" y2="226.5"/>
		
			<line id="XMLID_1955_" style="fill:none;stroke:#000000;stroke-miterlimit:10;" x1="769.875" y1="187.5" x2="728.875" y2="187.5"/>
		
			<line id="XMLID_1954_" style="fill:none;stroke:#000000;stroke-miterlimit:10;" x1="921.875" y1="205.5" x2="883.875" y2="205.5"/>
		
			<line id="XMLID_1953_" style="fill:none;stroke:#000000;stroke-miterlimit:10;" x1="758.875" y1="205.5" x2="719.875" y2="205.5"/>
		
			<line id="XMLID_1952_" style="fill:none;stroke:#000000;stroke-miterlimit:10;" x1="974.875" y1="228.5" x2="934.875" y2="228.5"/>
		
			<line id="XMLID_1951_" style="fill:none;stroke:#000000;stroke-miterlimit:10;" x1="682.875" y1="193.5" x2="646.875" y2="193.5"/>
		
			<line id="XMLID_1950_" style="fill:none;stroke:#000000;stroke-miterlimit:10;" x1="1012.875" y1="195.5" x2="976.875" y2="195.5"/>
		
			<line id="XMLID_1949_" style="fill:none;stroke:#000000;stroke-miterlimit:10;" x1="619.875" y1="221.5" x2="582.875" y2="221.5"/>
		
			<line id="XMLID_1948_" style="fill:none;stroke:#000000;stroke-miterlimit:10;" x1="563.875" y1="188.5" x2="482.875" y2="188.5"/>
		
			<line id="XMLID_1947_" style="fill:none;stroke:#000000;stroke-miterlimit:10;" x1="415.875" y1="213.5" x2="360.875" y2="213.5"/>
		
			<line id="XMLID_1946_" style="fill:none;stroke:#000000;stroke-miterlimit:10;" x1="658.875" y1="206.5" x2="603.875" y2="206.5"/>
		
			<line id="XMLID_1945_" style="fill:none;stroke:#000000;stroke-miterlimit:10;" x1="260.875" y1="208.5" x2="207.875" y2="208.5"/>
		
			<line id="XMLID_1944_" style="fill:none;stroke:#000000;stroke-miterlimit:10;" x1="1092.875" y1="119.5" x2="1058.875" y2="119.5"/>
		
			<line id="XMLID_1943_" style="fill:none;stroke:#000000;stroke-miterlimit:10;" x1="1017.875" y1="134.5" x2="965.875" y2="134.5"/>
		
			<line id="XMLID_1942_" style="fill:none;stroke:#000000;stroke-miterlimit:10;" x1="871.875" y1="116.5" x2="817.875" y2="116.5"/>
		
			<line id="XMLID_1941_" style="fill:none;stroke:#000000;stroke-miterlimit:10;" x1="887.875" y1="143.5" x2="832.875" y2="143.5"/>
		
			<line id="XMLID_1940_" style="fill:none;stroke:#000000;stroke-miterlimit:10;" x1="966.875" y1="106.5" x2="912.875" y2="106.5"/>
		
			<line id="XMLID_1939_" style="fill:none;stroke:#000000;stroke-miterlimit:10;" x1="1074.875" y1="144.5" x2="1020.875" y2="144.5"/>
		
			<line id="XMLID_1938_" style="fill:none;stroke:#000000;stroke-miterlimit:10;" x1="480.875" y1="145.5" x2="428.875" y2="145.5"/>
		
			<line id="XMLID_1937_" style="fill:none;stroke:#000000;stroke-miterlimit:10;" x1="166.875" y1="140.5" x2="128.875" y2="140.5"/>
		<line id="XMLID_1936_" style="fill:none;stroke:#000000;stroke-miterlimit:10;" x1="107.875" y1="107.5" x2="66.875" y2="107.5"/>
		
			<line id="XMLID_1935_" style="fill:none;stroke:#000000;stroke-miterlimit:10;" x1="180.875" y1="118.5" x2="140.875" y2="118.5"/>
		
			<line id="XMLID_1934_" style="fill:none;stroke:#000000;stroke-miterlimit:10;" x1="337.875" y1="113.5" x2="298.875" y2="113.5"/>
		
			<line id="XMLID_1933_" style="fill:none;stroke:#000000;stroke-miterlimit:10;" x1="364.875" y1="123.5" x2="326.875" y2="123.5"/>
		
			<line id="XMLID_1932_" style="fill:none;stroke:#000000;stroke-miterlimit:10;" x1="261.875" y1="109.5" x2="224.875" y2="109.5"/>
		
			<line id="XMLID_1931_" style="fill:none;stroke:#000000;stroke-miterlimit:10;" x1="415.875" y1="108.5" x2="374.875" y2="108.5"/>
		
			<line id="XMLID_1930_" style="fill:none;stroke:#000000;stroke-miterlimit:10;" x1="460.875" y1="122.5" x2="420.875" y2="122.5"/>
		
			<line id="XMLID_1929_" style="fill:none;stroke:#000000;stroke-miterlimit:10;" x1="574.875" y1="119.5" x2="535.875" y2="119.5"/>
		
			<line id="XMLID_1928_" style="fill:none;stroke:#000000;stroke-miterlimit:10;" x1="551.875" y1="136.5" x2="509.875" y2="136.5"/>
		
			<line id="XMLID_1927_" style="fill:none;stroke:#000000;stroke-miterlimit:10;" x1="218.875" y1="148.5" x2="178.875" y2="148.5"/>
		
			<line id="XMLID_1926_" style="fill:none;stroke:#000000;stroke-miterlimit:10;" x1="826.875" y1="135.5" x2="787.875" y2="135.5"/>
		
			<line id="XMLID_1925_" style="fill:none;stroke:#000000;stroke-miterlimit:10;" x1="294.875" y1="141.5" x2="255.875" y2="141.5"/>
		
			<line id="XMLID_1924_" style="fill:none;stroke:#000000;stroke-miterlimit:10;" x1="357.875" y1="147.5" x2="318.875" y2="147.5"/>
		<line id="XMLID_1923_" style="fill:none;stroke:#000000;stroke-miterlimit:10;" x1="92.875" y1="130.5" x2="49.875" y2="130.5"/>
		<line id="XMLID_1922_" style="fill:none;stroke:#000000;stroke-miterlimit:10;" x1="100.875" y1="149.5" x2="59.875" y2="149.5"/>
		
			<line id="XMLID_1921_" style="fill:none;stroke:#000000;stroke-miterlimit:10;" x1="732.875" y1="147.5" x2="694.875" y2="147.5"/>
		
			<line id="XMLID_1920_" style="fill:none;stroke:#000000;stroke-miterlimit:10;" x1="769.875" y1="108.5" x2="728.875" y2="108.5"/>
		
			<line id="XMLID_1919_" style="fill:none;stroke:#000000;stroke-miterlimit:10;" x1="921.875" y1="126.5" x2="883.875" y2="126.5"/>
		
			<line id="XMLID_1918_" style="fill:none;stroke:#000000;stroke-miterlimit:10;" x1="758.875" y1="126.5" x2="719.875" y2="126.5"/>
		
			<line id="XMLID_1917_" style="fill:none;stroke:#000000;stroke-miterlimit:10;" x1="974.875" y1="149.5" x2="934.875" y2="149.5"/>
		
			<line id="XMLID_1916_" style="fill:none;stroke:#000000;stroke-miterlimit:10;" x1="682.875" y1="114.5" x2="646.875" y2="114.5"/>
		
			<line id="XMLID_1915_" style="fill:none;stroke:#000000;stroke-miterlimit:10;" x1="1012.875" y1="116.5" x2="976.875" y2="116.5"/>
		
			<line id="XMLID_1914_" style="fill:none;stroke:#000000;stroke-miterlimit:10;" x1="619.875" y1="142.5" x2="582.875" y2="142.5"/>
		
			<line id="XMLID_1913_" style="fill:none;stroke:#000000;stroke-miterlimit:10;" x1="563.875" y1="109.5" x2="482.875" y2="109.5"/>
		
			<line id="XMLID_1912_" style="fill:none;stroke:#000000;stroke-miterlimit:10;" x1="415.875" y1="134.5" x2="360.875" y2="134.5"/>
		
			<line id="XMLID_1911_" style="fill:none;stroke:#000000;stroke-miterlimit:10;" x1="658.875" y1="127.5" x2="603.875" y2="127.5"/>
		
			<line id="XMLID_1910_" style="fill:none;stroke:#000000;stroke-miterlimit:10;" x1="260.875" y1="129.5" x2="207.875" y2="129.5"/>
		
			<line id="XMLID_1909_" style="fill:none;stroke:#000000;stroke-miterlimit:10;" x1="1080.875" y1="37.5" x2="1049.875" y2="37.5"/>
		<line id="XMLID_1908_" style="fill:none;stroke:#000000;stroke-miterlimit:10;" x1="1017.875" y1="52.5" x2="965.875" y2="52.5"/>
		<line id="XMLID_1907_" style="fill:none;stroke:#000000;stroke-miterlimit:10;" x1="865.875" y1="34.5" x2="812.875" y2="34.5"/>
		<line id="XMLID_1906_" style="fill:none;stroke:#000000;stroke-miterlimit:10;" x1="887.875" y1="61.5" x2="832.875" y2="61.5"/>
		<line id="XMLID_1905_" style="fill:none;stroke:#000000;stroke-miterlimit:10;" x1="958.875" y1="24.5" x2="905.875" y2="24.5"/>
		
			<line id="XMLID_1904_" style="fill:none;stroke:#000000;stroke-miterlimit:10;" x1="1074.875" y1="62.5" x2="1020.875" y2="62.5"/>
		<line id="XMLID_1903_" style="fill:none;stroke:#000000;stroke-miterlimit:10;" x1="480.875" y1="63.5" x2="428.875" y2="63.5"/>
		<line id="XMLID_1902_" style="fill:none;stroke:#000000;stroke-miterlimit:10;" x1="166.875" y1="58.5" x2="128.875" y2="58.5"/>
		<line id="XMLID_1901_" style="fill:none;stroke:#000000;stroke-miterlimit:10;" x1="117.875" y1="25.5" x2="77.875" y2="25.5"/>
		<line id="XMLID_1900_" style="fill:none;stroke:#000000;stroke-miterlimit:10;" x1="189.875" y1="36.5" x2="149.875" y2="36.5"/>
		<line id="XMLID_1899_" style="fill:none;stroke:#000000;stroke-miterlimit:10;" x1="341.875" y1="31.5" x2="303.875" y2="31.5"/>
		<line id="XMLID_1898_" style="fill:none;stroke:#000000;stroke-miterlimit:10;" x1="364.875" y1="41.5" x2="326.875" y2="41.5"/>
		<line id="XMLID_1897_" style="fill:none;stroke:#000000;stroke-miterlimit:10;" x1="269.875" y1="27.5" x2="229.875" y2="27.5"/>
		<line id="XMLID_1896_" style="fill:none;stroke:#000000;stroke-miterlimit:10;" x1="417.875" y1="26.5" x2="378.875" y2="26.5"/>
		<line id="XMLID_1895_" style="fill:none;stroke:#000000;stroke-miterlimit:10;" x1="462.875" y1="40.5" x2="424.875" y2="40.5"/>
		<line id="XMLID_1894_" style="fill:none;stroke:#000000;stroke-miterlimit:10;" x1="574.875" y1="37.5" x2="535.875" y2="37.5"/>
		<line id="XMLID_1893_" style="fill:none;stroke:#000000;stroke-miterlimit:10;" x1="551.875" y1="54.5" x2="509.875" y2="54.5"/>
		<line id="XMLID_1892_" style="fill:none;stroke:#000000;stroke-miterlimit:10;" x1="218.875" y1="66.5" x2="178.875" y2="66.5"/>
		<line id="XMLID_1891_" style="fill:none;stroke:#000000;stroke-miterlimit:10;" x1="826.875" y1="53.5" x2="787.875" y2="53.5"/>
		<line id="XMLID_1890_" style="fill:none;stroke:#000000;stroke-miterlimit:10;" x1="294.875" y1="59.5" x2="255.875" y2="59.5"/>
		<line id="XMLID_1889_" style="fill:none;stroke:#000000;stroke-miterlimit:10;" x1="357.875" y1="65.5" x2="318.875" y2="65.5"/>
		<line id="XMLID_1888_" style="fill:none;stroke:#000000;stroke-miterlimit:10;" x1="92.875" y1="48.5" x2="49.875" y2="48.5"/>
		<line id="XMLID_1887_" style="fill:none;stroke:#000000;stroke-miterlimit:10;" x1="100.875" y1="67.5" x2="59.875" y2="67.5"/>
		<line id="XMLID_1886_" style="fill:none;stroke:#000000;stroke-miterlimit:10;" x1="732.875" y1="65.5" x2="694.875" y2="65.5"/>
		<line id="XMLID_1885_" style="fill:none;stroke:#000000;stroke-miterlimit:10;" x1="763.875" y1="26.5" x2="726.875" y2="26.5"/>
		<line id="XMLID_1884_" style="fill:none;stroke:#000000;stroke-miterlimit:10;" x1="921.875" y1="44.5" x2="883.875" y2="44.5"/>
		<line id="XMLID_1883_" style="fill:none;stroke:#000000;stroke-miterlimit:10;" x1="758.875" y1="44.5" x2="719.875" y2="44.5"/>
		<line id="XMLID_1882_" style="fill:none;stroke:#000000;stroke-miterlimit:10;" x1="974.875" y1="67.5" x2="934.875" y2="67.5"/>
		<line id="XMLID_1881_" style="fill:none;stroke:#000000;stroke-miterlimit:10;" x1="680.875" y1="32.5" x2="643.875" y2="32.5"/>
		<line id="XMLID_1880_" style="fill:none;stroke:#000000;stroke-miterlimit:10;" x1="1003.875" y1="34.5" x2="966.875" y2="34.5"/>
		<line id="XMLID_1879_" style="fill:none;stroke:#000000;stroke-miterlimit:10;" x1="619.875" y1="60.5" x2="582.875" y2="60.5"/>
		<line id="XMLID_1878_" style="fill:none;stroke:#000000;stroke-miterlimit:10;" x1="563.875" y1="27.5" x2="486.875" y2="27.5"/>
		<line id="XMLID_1877_" style="fill:none;stroke:#000000;stroke-miterlimit:10;" x1="415.875" y1="52.5" x2="360.875" y2="52.5"/>
		<line id="XMLID_1876_" style="fill:none;stroke:#000000;stroke-miterlimit:10;" x1="658.875" y1="45.5" x2="603.875" y2="45.5"/>
		<line id="XMLID_1667_" style="fill:none;stroke:#000000;stroke-miterlimit:10;" x1="260.875" y1="47.5" x2="207.875" y2="47.5"/>
	</g>
</g>
<g id="Layer_1">
</g>
</svg>
