<?xml version="1.0" encoding="iso-8859-1"?>
<!-- Generator: Adobe Illustrator 19.0.0, SVG Export Plug-In . SVG Version: 6.00 Build 0)  -->
<svg version="1.1" xmlns="http://www.w3.org/2000/svg" xmlns:xlink="http://www.w3.org/1999/xlink" x="0px" y="0px"
	 viewBox="0 0 1741.703 535" style="enable-background:new 0 0 1741.703 535;" xml:space="preserve">
<g id="seat-3">
	<rect id="bounds_9_" x="1.875" y="0" style="opacity:0;fill:#FFFFFF;" width="1740" height="535"/>
	<g id="style1">
		<g id="XMLID_2223_">
			<rect id="XMLID_2224_" x="29.875" style="fill:#DEB074;" width="1682" height="82"/>
		</g>
		<g id="XMLID_2221_">
			<rect id="XMLID_2222_" x="29.875" y="323" style="fill:#DEB074;" width="1682" height="61"/>
		</g>
		<g id="XMLID_2219_">
			<rect id="XMLID_2220_" x="29.875" y="247" style="fill:#DEB074;" width="1682" height="61"/>
		</g>
		<g id="XMLID_2217_">
			<rect id="XMLID_2218_" x="29.875" y="172" style="fill:#DEB074;" width="1682" height="61"/>
		</g>
		<g id="XMLID_2215_">
			<rect id="XMLID_2216_" x="29.875" y="96" style="fill:#DEB074;" width="1682" height="61"/>
		</g>
		<g id="XMLID_280_">
			<polygon id="XMLID_694_" style="fill:#DEB074;" points="1658.598,398 82.875,398 82.875,443.667 56.875,511.372 56.875,535 
				1684.875,535 1684.875,511.372 1659.142,444 			"/>
		</g>
	</g>
	<g id="style2">
		<g id="XMLID_284_">
			<path id="XMLID_693_" style="fill:#DBDBDA;" d="M29.58,444.504L0.416,511.601c0,0-1.844,2.566,4.793,6.601
				C12.688,522.748,57.875,535,57.875,535v-23.628l26-66.868V398h45v-14H81.288H29.875"/>
		</g>
		<g id="XMLID_282_">
			<path id="XMLID_692_" style="fill:#DBDBDA;" d="M1711.875,384h-53.199h-47.801v14h46v46.504l26,66.868V535
				c0,0,44.409-11.583,51.897-16.791c7.489-5.209,5.085-6.836,5.085-6.836l-27.953-66.868"/>
		</g>
		<g id="style2_5_">
			<rect id="XMLID_80_" x="847.659" y="383" style="fill:#DBDBDA;" width="46.382" height="14"/>
			<rect id="XMLID_144_" x="847.659" y="307" style="fill:#DBDBDA;" width="46.382" height="15"/>
			<rect id="XMLID_145_" x="847.659" y="231" style="fill:#DBDBDA;" width="46.382" height="15"/>
			<rect id="XMLID_269_" x="847.659" y="156" style="fill:#DBDBDA;" width="46.382" height="15"/>
			<rect id="XMLID_272_" x="847.659" y="81" style="fill:#DBDBDA;" width="46.382" height="15"/>
		</g>
	</g>
	<g id="accent_7_">
		<g id="XMLID_2209_" style="opacity:0.45;">
			<polygon id="XMLID_691_" points="57.828,511.372 83.914,444.5 1657.088,444 1683.828,511.372 			"/>
		</g>
		<g id="XMLID_2207_" style="opacity:0.1;">
			<polygon id="XMLID_2208_" style="fill:#FFFFFF;" points="62.469,501.166 63.49,498.779 1678.702,498.735 1680.064,501.149 			"/>
		</g>
		<g id="XMLID_2205_" style="opacity:0.1;">
			<polygon id="XMLID_2206_" style="fill:#FFFFFF;" points="67.575,487.166 68.569,484.779 1672.952,484.735 1674.277,487.149 			
				"/>
		</g>
		<g id="XMLID_2203_" style="opacity:0.1;">
			<polygon id="XMLID_2204_" style="fill:#FFFFFF;" points="73.362,472.5 74.327,470.113 1667.203,470.068 1668.491,472.483 			"/>
		</g>
		<g id="XMLID_2201_" style="opacity:0.1;">
			<polygon id="XMLID_2202_" style="fill:#FFFFFF;" points="78.467,458.5 79.407,456.113 1661.791,456.068 1663.045,458.483 			"/>
		</g>
		<g id="XMLID_2199_" style="opacity:0.15;">
			<line id="XMLID_690_" x1="1657.449" y1="444.504" x2="1693.488" y2="518.372"/>
		</g>
		<g id="XMLID_2197_">
			
				<linearGradient id="XMLID_2_" gradientUnits="userSpaceOnUse" x1="2130.5061" y1="189" x2="2176.1411" y2="189" gradientTransform="matrix(-1 0 0 -1 2259.9309 580)">
				<stop  offset="0" style="stop-color:#000000;stop-opacity:0.45"/>
				<stop  offset="1" style="stop-color:#000000;stop-opacity:0.6"/>
			</linearGradient>
			<rect id="XMLID_2198_" x="83.79" y="384" style="fill:url(#XMLID_2_);" width="45.635" height="14"/>
		</g>
		<g id="XMLID_2195_" style="opacity:0.6;">
			<polygon id="XMLID_689_" points="57.828,511.167 0.404,511.601 29.564,444.777 83.801,444.777 			"/>
		</g>
		<g id="XMLID_2193_">
			<path id="XMLID_2194_" style="fill:none;stroke:#B2B2B2;stroke-width:4.4866;stroke-miterlimit:10;" d="M1714.119,3.796"/>
		</g>
		<g id="XMLID_2191_" style="opacity:0.6;">
			<polygon id="XMLID_688_" points="1683.828,511.372 1740.886,511.635 1712.625,444.894 1657.368,444.892 			"/>
		</g>
		<g id="XMLID_2189_">
			
				<linearGradient id="XMLID_3_" gradientUnits="userSpaceOnUse" x1="602.2463" y1="189" x2="647.8812" y2="189" gradientTransform="matrix(-1 0 0 -1 2259.9309 580)">
				<stop  offset="0" style="stop-color:#000000;stop-opacity:0.6"/>
				<stop  offset="1" style="stop-color:#000000;stop-opacity:0.45"/>
			</linearGradient>
			<rect id="XMLID_2190_" x="1612.05" y="384" style="fill:url(#XMLID_3_);" width="45.635" height="14"/>
		</g>
		<g id="XMLID_2187_" style="opacity:0.12;">
			<rect id="XMLID_2188_" x="29.875" y="0" width="1682" height="6"/>
		</g>
		<g id="XMLID_2185_" style="opacity:0.12;">
			<rect id="XMLID_2186_" x="29.875" y="323" width="1682" height="3"/>
		</g>
		<g id="XMLID_2183_" style="opacity:0.12;">
			<rect id="XMLID_2184_" x="29.875" y="247" width="1682" height="3"/>
		</g>
		<g id="XMLID_2181_" style="opacity:0.12;">
			<rect id="XMLID_2182_" x="29.875" y="172" width="1682" height="3"/>
		</g>
		<g id="XMLID_2179_" style="opacity:0.12;">
			<rect id="XMLID_2180_" x="29.875" y="96" width="1682" height="3"/>
		</g>
		<g id="XMLID_2177_" style="opacity:0.12;">
			<rect id="XMLID_2178_" x="83.875" y="398" width="1574" height="3"/>
		</g>
		
			<linearGradient id="XMLID_4_" gradientUnits="userSpaceOnUse" x1="2203.0784" y1="159.1667" x2="2203.0784" y2="138.1607" gradientTransform="matrix(-1 0 0 -1 2259.9309 580)">
			<stop  offset="0" style="stop-color:#000000;stop-opacity:0"/>
			<stop  offset="1" style="stop-color:#000000;stop-opacity:0.6"/>
		</linearGradient>
		<rect id="XMLID_2176_" x="29.792" y="420.833" style="fill:url(#XMLID_4_);" width="54.122" height="24"/>
		
			<linearGradient id="XMLID_5_" gradientUnits="userSpaceOnUse" x1="575.1866" y1="159" x2="575.1866" y2="137.994" gradientTransform="matrix(-1 0 0 -1 2259.9309 580)">
			<stop  offset="0" style="stop-color:#000000;stop-opacity:0"/>
			<stop  offset="1" style="stop-color:#000000;stop-opacity:0.6"/>
		</linearGradient>
		<rect id="XMLID_2175_" x="1657.428" y="421" style="fill:url(#XMLID_5_);" width="54.633" height="24"/>
		
			<linearGradient id="XMLID_6_" gradientUnits="userSpaceOnUse" x1="531.061" y1="62.2258" x2="521.1661" y2="72.2997" gradientTransform="matrix(-1 0 0 -1 2259.9309 580)">
			<stop  offset="0" style="stop-color:#000000;stop-opacity:0"/>
			<stop  offset="1" style="stop-color:#000000;stop-opacity:0.35"/>
		</linearGradient>
		<path id="XMLID_663_" style="fill:url(#XMLID_6_);" d="M1727.719,522.167c0,0,15.318-4.833,13.488-10.667l-15.318,0.25
			L1727.719,522.167z"/>
		
			<linearGradient id="XMLID_7_" gradientUnits="userSpaceOnUse" x1="490.3554" y1="61.5393" x2="479.9241" y2="72.1594" gradientTransform="matrix(1 0 0 -1 -477.0155 580)">
			<stop  offset="0" style="stop-color:#000000;stop-opacity:0"/>
			<stop  offset="1" style="stop-color:#000000;stop-opacity:0.35"/>
		</linearGradient>
		<path id="XMLID_593_" style="fill:url(#XMLID_7_);" d="M15.495,522.167c0,0-17.53-5-15.147-10.333l15.33-0.083L15.495,522.167z"/>
		
			<line id="XMLID_2172_" style="opacity:0.2;fill:none;stroke:#000000;stroke-width:4;stroke-miterlimit:10;" x1="31.875" y1="445" x2="31.875" y2="0"/>
		
			<line id="XMLID_2171_" style="opacity:0.2;fill:none;stroke:#000000;stroke-width:2;stroke-miterlimit:10;" x1="84.875" y1="445" x2="84.875" y2="398"/>
		
			<line id="XMLID_1421_" style="opacity:0.2;fill:none;stroke:#000000;stroke-width:4;stroke-miterlimit:10;" x1="1709.875" y1="445" x2="1709.875" y2="0"/>
		
			<line id="XMLID_1420_" style="opacity:0.2;fill:none;stroke:#000000;stroke-width:2;stroke-miterlimit:10;" x1="1656.875" y1="444" x2="1656.875" y2="397"/>
	</g>
	<g id="texture" style="opacity:0.12;">
		
			<line id="XMLID_1361_" style="fill:none;stroke:#000000;stroke-miterlimit:10;" x1="1683.875" y1="345.5" x2="1630.875" y2="345.5"/>
		
			<line id="XMLID_1360_" style="fill:none;stroke:#000000;stroke-miterlimit:10;" x1="1566.875" y1="360.5" x2="1485.875" y2="360.5"/>
		
			<line id="XMLID_1359_" style="fill:none;stroke:#000000;stroke-miterlimit:10;" x1="1339.875" y1="342.5" x2="1255.875" y2="342.5"/>
		
			<line id="XMLID_1358_" style="fill:none;stroke:#000000;stroke-miterlimit:10;" x1="1364.875" y1="369.5" x2="1278.875" y2="369.5"/>
		
			<line id="XMLID_1357_" style="fill:none;stroke:#000000;stroke-miterlimit:10;" x1="1487.875" y1="332.5" x2="1403.875" y2="332.5"/>
		
			<line id="XMLID_1356_" style="fill:none;stroke:#000000;stroke-miterlimit:10;" x1="1655.875" y1="370.5" x2="1571.875" y2="370.5"/>
		
			<line id="XMLID_1355_" style="fill:none;stroke:#000000;stroke-miterlimit:10;" x1="731.875" y1="371.5" x2="650.875" y2="371.5"/>
		
			<line id="XMLID_1354_" style="fill:none;stroke:#000000;stroke-miterlimit:10;" x1="241.875" y1="366.5" x2="182.875" y2="366.5"/>
		<line id="XMLID_1353_" style="fill:none;stroke:#000000;stroke-miterlimit:10;" x1="149.875" y1="333.5" x2="85.875" y2="333.5"/>
		
			<line id="XMLID_1352_" style="fill:none;stroke:#000000;stroke-miterlimit:10;" x1="263.875" y1="344.5" x2="201.875" y2="344.5"/>
		
			<line id="XMLID_1351_" style="fill:none;stroke:#000000;stroke-miterlimit:10;" x1="508.875" y1="339.5" x2="447.875" y2="339.5"/>
		
			<line id="XMLID_1350_" style="fill:none;stroke:#000000;stroke-miterlimit:10;" x1="550.875" y1="349.5" x2="491.875" y2="349.5"/>
		
			<line id="XMLID_1349_" style="fill:none;stroke:#000000;stroke-miterlimit:10;" x1="389.875" y1="335.5" x2="332.875" y2="335.5"/>
		
			<line id="XMLID_1348_" style="fill:none;stroke:#000000;stroke-miterlimit:10;" x1="629.875" y1="334.5" x2="565.875" y2="334.5"/>
		
			<line id="XMLID_1347_" style="fill:none;stroke:#000000;stroke-miterlimit:10;" x1="699.875" y1="348.5" x2="637.875" y2="348.5"/>
		
			<line id="XMLID_1346_" style="fill:none;stroke:#000000;stroke-miterlimit:10;" x1="877.875" y1="345.5" x2="816.875" y2="345.5"/>
		
			<line id="XMLID_1345_" style="fill:none;stroke:#000000;stroke-miterlimit:10;" x1="841.875" y1="362.5" x2="776.875" y2="362.5"/>
		
			<line id="XMLID_1344_" style="fill:none;stroke:#000000;stroke-miterlimit:10;" x1="322.875" y1="374.5" x2="260.875" y2="374.5"/>
		
			<line id="XMLID_1343_" style="fill:none;stroke:#000000;stroke-miterlimit:10;" x1="1269.875" y1="361.5" x2="1208.875" y2="361.5"/>
		
			<line id="XMLID_1342_" style="fill:none;stroke:#000000;stroke-miterlimit:10;" x1="441.875" y1="367.5" x2="380.875" y2="367.5"/>
		
			<line id="XMLID_1341_" style="fill:none;stroke:#000000;stroke-miterlimit:10;" x1="539.875" y1="373.5" x2="478.875" y2="373.5"/>
		<line id="XMLID_1340_" style="fill:none;stroke:#000000;stroke-miterlimit:10;" x1="126.875" y1="356.5" x2="59.875" y2="356.5"/>
		<line id="XMLID_1339_" style="fill:none;stroke:#000000;stroke-miterlimit:10;" x1="138.875" y1="375.5" x2="75.875" y2="375.5"/>
		
			<line id="XMLID_1338_" style="fill:none;stroke:#000000;stroke-miterlimit:10;" x1="1122.875" y1="373.5" x2="1063.875" y2="373.5"/>
		
			<line id="XMLID_1337_" style="fill:none;stroke:#000000;stroke-miterlimit:10;" x1="1180.875" y1="334.5" x2="1116.875" y2="334.5"/>
		
			<line id="XMLID_1336_" style="fill:none;stroke:#000000;stroke-miterlimit:10;" x1="1417.875" y1="352.5" x2="1358.875" y2="352.5"/>
		
			<line id="XMLID_1335_" style="fill:none;stroke:#000000;stroke-miterlimit:10;" x1="1163.875" y1="352.5" x2="1102.875" y2="352.5"/>
		
			<line id="XMLID_1334_" style="fill:none;stroke:#000000;stroke-miterlimit:10;" x1="1499.875" y1="375.5" x2="1437.875" y2="375.5"/>
		
			<line id="XMLID_1333_" style="fill:none;stroke:#000000;stroke-miterlimit:10;" x1="1044.875" y1="340.5" x2="988.875" y2="340.5"/>
		
			<line id="XMLID_1332_" style="fill:none;stroke:#000000;stroke-miterlimit:10;" x1="1559.875" y1="342.5" x2="1502.875" y2="342.5"/>
		
			<line id="XMLID_1331_" style="fill:none;stroke:#000000;stroke-miterlimit:10;" x1="947.875" y1="368.5" x2="889.875" y2="368.5"/>
		
			<line id="XMLID_1330_" style="fill:none;stroke:#000000;stroke-miterlimit:10;" x1="860.875" y1="335.5" x2="734.875" y2="335.5"/>
		
			<line id="XMLID_1329_" style="fill:none;stroke:#000000;stroke-miterlimit:10;" x1="629.875" y1="360.5" x2="544.875" y2="360.5"/>
		
			<line id="XMLID_1328_" style="fill:none;stroke:#000000;stroke-miterlimit:10;" x1="1007.875" y1="353.5" x2="922.875" y2="353.5"/>
		
			<line id="XMLID_1327_" style="fill:none;stroke:#000000;stroke-miterlimit:10;" x1="388.875" y1="355.5" x2="305.875" y2="355.5"/>
		
			<line id="XMLID_1326_" style="fill:none;stroke:#000000;stroke-miterlimit:10;" x1="1593.875" y1="415.5" x2="1548.875" y2="415.5"/>
		
			<line id="XMLID_1325_" style="fill:none;stroke:#000000;stroke-miterlimit:10;" x1="1490.875" y1="425.5" x2="1417.875" y2="425.5"/>
		
			<line id="XMLID_1324_" style="fill:none;stroke:#000000;stroke-miterlimit:10;" x1="1287.875" y1="414.5" x2="1213.875" y2="414.5"/>
		
			<line id="XMLID_1323_" style="fill:none;stroke:#000000;stroke-miterlimit:10;" x1="1308.875" y1="431.5" x2="1238.875" y2="431.5"/>
		
			<line id="XMLID_1322_" style="fill:none;stroke:#000000;stroke-miterlimit:10;" x1="1421.875" y1="407.5" x2="1343.875" y2="407.5"/>
		
			<line id="XMLID_1321_" style="fill:none;stroke:#000000;stroke-miterlimit:10;" x1="1563.875" y1="432.5" x2="1492.875" y2="432.5"/>
		
			<line id="XMLID_1320_" style="fill:none;stroke:#000000;stroke-miterlimit:10;" x1="752.875" y1="432.5" x2="679.875" y2="432.5"/>
		
			<line id="XMLID_1319_" style="fill:none;stroke:#000000;stroke-miterlimit:10;" x1="319.875" y1="429.5" x2="269.875" y2="429.5"/>
		
			<line id="XMLID_1318_" style="fill:none;stroke:#000000;stroke-miterlimit:10;" x1="241.875" y1="408.5" x2="185.875" y2="408.5"/>
		
			<line id="XMLID_1317_" style="fill:none;stroke:#000000;stroke-miterlimit:10;" x1="343.875" y1="415.5" x2="286.875" y2="415.5"/>
		
			<line id="XMLID_1316_" style="fill:none;stroke:#000000;stroke-miterlimit:10;" x1="553.875" y1="412.5" x2="498.875" y2="412.5"/>
		
			<line id="XMLID_1315_" style="fill:none;stroke:#000000;stroke-miterlimit:10;" x1="593.875" y1="418.5" x2="540.875" y2="418.5"/>
		
			<line id="XMLID_1314_" style="fill:none;stroke:#000000;stroke-miterlimit:10;" x1="453.875" y1="409.5" x2="403.875" y2="409.5"/>
		
			<line id="XMLID_1313_" style="fill:none;stroke:#000000;stroke-miterlimit:10;" x1="662.875" y1="408.5" x2="609.875" y2="408.5"/>
		
			<line id="XMLID_1312_" style="fill:none;stroke:#000000;stroke-miterlimit:10;" x1="720.875" y1="417.5" x2="670.875" y2="417.5"/>
		
			<line id="XMLID_1311_" style="fill:none;stroke:#000000;stroke-miterlimit:10;" x1="879.875" y1="415.5" x2="826.875" y2="415.5"/>
		
			<line id="XMLID_1310_" style="fill:none;stroke:#000000;stroke-miterlimit:10;" x1="851.875" y1="427.5" x2="794.875" y2="427.5"/>
		
			<line id="XMLID_1309_" style="fill:none;stroke:#000000;stroke-miterlimit:10;" x1="394.875" y1="434.5" x2="336.875" y2="434.5"/>
		
			<line id="XMLID_1308_" style="fill:none;stroke:#000000;stroke-miterlimit:10;" x1="1230.875" y1="426.5" x2="1175.875" y2="426.5"/>
		
			<line id="XMLID_1307_" style="fill:none;stroke:#000000;stroke-miterlimit:10;" x1="498.875" y1="430.5" x2="445.875" y2="430.5"/>
		
			<line id="XMLID_1306_" style="fill:none;stroke:#000000;stroke-miterlimit:10;" x1="587.875" y1="434.5" x2="528.875" y2="434.5"/>
		
			<line id="XMLID_1305_" style="fill:none;stroke:#000000;stroke-miterlimit:10;" x1="219.875" y1="423.5" x2="160.875" y2="423.5"/>
		
			<line id="XMLID_1304_" style="fill:none;stroke:#000000;stroke-miterlimit:10;" x1="232.875" y1="435.5" x2="179.875" y2="435.5"/>
		
			<line id="XMLID_1303_" style="fill:none;stroke:#000000;stroke-miterlimit:10;" x1="1100.875" y1="434.5" x2="1046.875" y2="434.5"/>
		
			<line id="XMLID_1302_" style="fill:none;stroke:#000000;stroke-miterlimit:10;" x1="1144.875" y1="408.5" x2="1091.875" y2="408.5"/>
		
			<line id="XMLID_1301_" style="fill:none;stroke:#000000;stroke-miterlimit:10;" x1="1353.875" y1="420.5" x2="1301.875" y2="420.5"/>
		
			<line id="XMLID_1300_" style="fill:none;stroke:#000000;stroke-miterlimit:10;" x1="1128.875" y1="420.5" x2="1080.875" y2="420.5"/>
		
			<line id="XMLID_1299_" style="fill:none;stroke:#000000;stroke-miterlimit:10;" x1="1428.875" y1="435.5" x2="1379.875" y2="435.5"/>
		
			<line id="XMLID_1298_" style="fill:none;stroke:#000000;stroke-miterlimit:10;" x1="1033.875" y1="412.5" x2="982.875" y2="412.5"/>
		
			<line id="XMLID_1297_" style="fill:none;stroke:#000000;stroke-miterlimit:10;" x1="1479.875" y1="414.5" x2="1434.875" y2="414.5"/>
		
			<line id="XMLID_1296_" style="fill:none;stroke:#000000;stroke-miterlimit:10;" x1="941.875" y1="430.5" x2="897.875" y2="430.5"/>
		
			<line id="XMLID_1295_" style="fill:none;stroke:#000000;stroke-miterlimit:10;" x1="866.875" y1="409.5" x2="752.875" y2="409.5"/>
		
			<line id="XMLID_1294_" style="fill:none;stroke:#000000;stroke-miterlimit:10;" x1="662.875" y1="425.5" x2="587.875" y2="425.5"/>
		
			<line id="XMLID_1293_" style="fill:none;stroke:#000000;stroke-miterlimit:10;" x1="996.875" y1="421.5" x2="921.875" y2="421.5"/>
		
			<line id="XMLID_1292_" style="fill:none;stroke:#000000;stroke-miterlimit:10;" x1="453.875" y1="422.5" x2="380.875" y2="422.5"/>
		
			<line id="XMLID_1291_" style="fill:none;stroke:#000000;stroke-miterlimit:10;" x1="1579.875" y1="522.5" x2="1496.875" y2="522.5"/>
		
			<line id="XMLID_1290_" style="fill:none;stroke:#000000;stroke-miterlimit:10;" x1="1379.875" y1="526.5" x2="1299.875" y2="526.5"/>
		
			<line id="XMLID_1289_" style="fill:none;stroke:#000000;stroke-miterlimit:10;" x1="1664.875" y1="527.5" x2="1588.875" y2="527.5"/>
		
			<line id="XMLID_1288_" style="fill:none;stroke:#000000;stroke-miterlimit:10;" x1="753.875" y1="527.5" x2="666.875" y2="527.5"/>
		
			<line id="XMLID_1287_" style="fill:none;stroke:#000000;stroke-miterlimit:10;" x1="263.875" y1="525.5" x2="205.875" y2="525.5"/>
		
			<line id="XMLID_1286_" style="fill:none;stroke:#000000;stroke-miterlimit:10;" x1="288.875" y1="516.5" x2="228.875" y2="516.5"/>
		
			<line id="XMLID_1285_" style="fill:none;stroke:#000000;stroke-miterlimit:10;" x1="569.875" y1="518.5" x2="515.875" y2="518.5"/>
		
			<line id="XMLID_1284_" style="fill:none;stroke:#000000;stroke-miterlimit:10;" x1="714.875" y1="517.5" x2="661.875" y2="517.5"/>
		
			<line id="XMLID_1283_" style="fill:none;stroke:#000000;stroke-miterlimit:10;" x1="897.875" y1="516.5" x2="832.875" y2="516.5"/>
		
			<line id="XMLID_1282_" style="fill:none;stroke:#000000;stroke-miterlimit:10;" x1="857.875" y1="524.5" x2="800.875" y2="524.5"/>
		
			<line id="XMLID_1281_" style="fill:none;stroke:#000000;stroke-miterlimit:10;" x1="346.875" y1="528.5" x2="283.875" y2="528.5"/>
		
			<line id="XMLID_1280_" style="fill:none;stroke:#000000;stroke-miterlimit:10;" x1="1285.875" y1="523.5" x2="1226.875" y2="523.5"/>
		
			<line id="XMLID_1279_" style="fill:none;stroke:#000000;stroke-miterlimit:10;" x1="468.875" y1="526.5" x2="405.875" y2="526.5"/>
		
			<line id="XMLID_1278_" style="fill:none;stroke:#000000;stroke-miterlimit:10;" x1="561.875" y1="528.5" x2="499.875" y2="528.5"/>
		<line id="XMLID_1277_" style="fill:none;stroke:#000000;stroke-miterlimit:10;" x1="151.875" y1="521.5" x2="89.875" y2="521.5"/>
		
			<line id="XMLID_1276_" style="fill:none;stroke:#000000;stroke-miterlimit:10;" x1="162.875" y1="529.5" x2="104.875" y2="529.5"/>
		
			<line id="XMLID_1275_" style="fill:none;stroke:#000000;stroke-miterlimit:10;" x1="1142.875" y1="528.5" x2="1081.875" y2="528.5"/>
		
			<line id="XMLID_1274_" style="fill:none;stroke:#000000;stroke-miterlimit:10;" x1="1432.875" y1="519.5" x2="1372.875" y2="519.5"/>
		
			<line id="XMLID_1273_" style="fill:none;stroke:#000000;stroke-miterlimit:10;" x1="1180.875" y1="519.5" x2="1116.875" y2="519.5"/>
		
			<line id="XMLID_1272_" style="fill:none;stroke:#000000;stroke-miterlimit:10;" x1="1511.875" y1="529.5" x2="1453.875" y2="529.5"/>
		
			<line id="XMLID_1271_" style="fill:none;stroke:#000000;stroke-miterlimit:10;" x1="970.875" y1="526.5" x2="916.875" y2="526.5"/>
		
			<line id="XMLID_1270_" style="fill:none;stroke:#000000;stroke-miterlimit:10;" x1="647.875" y1="522.5" x2="561.875" y2="522.5"/>
		
			<line id="XMLID_1269_" style="fill:none;stroke:#000000;stroke-miterlimit:10;" x1="1023.875" y1="520.5" x2="941.875" y2="520.5"/>
		
			<line id="XMLID_1268_" style="fill:none;stroke:#000000;stroke-miterlimit:10;" x1="416.875" y1="521.5" x2="328.875" y2="521.5"/>
		
			<line id="XMLID_1267_" style="fill:none;stroke:#000000;stroke-miterlimit:10;" x1="1683.875" y1="271.5" x2="1630.875" y2="271.5"/>
		
			<line id="XMLID_1266_" style="fill:none;stroke:#000000;stroke-miterlimit:10;" x1="1566.875" y1="286.5" x2="1485.875" y2="286.5"/>
		
			<line id="XMLID_1265_" style="fill:none;stroke:#000000;stroke-miterlimit:10;" x1="1339.875" y1="268.5" x2="1255.875" y2="268.5"/>
		
			<line id="XMLID_1264_" style="fill:none;stroke:#000000;stroke-miterlimit:10;" x1="1364.875" y1="295.5" x2="1278.875" y2="295.5"/>
		
			<line id="XMLID_1263_" style="fill:none;stroke:#000000;stroke-miterlimit:10;" x1="1487.875" y1="258.5" x2="1403.875" y2="258.5"/>
		
			<line id="XMLID_1262_" style="fill:none;stroke:#000000;stroke-miterlimit:10;" x1="1655.875" y1="296.5" x2="1571.875" y2="296.5"/>
		
			<line id="XMLID_1261_" style="fill:none;stroke:#000000;stroke-miterlimit:10;" x1="731.875" y1="297.5" x2="650.875" y2="297.5"/>
		
			<line id="XMLID_1260_" style="fill:none;stroke:#000000;stroke-miterlimit:10;" x1="241.875" y1="292.5" x2="182.875" y2="292.5"/>
		<line id="XMLID_1259_" style="fill:none;stroke:#000000;stroke-miterlimit:10;" x1="149.875" y1="259.5" x2="85.875" y2="259.5"/>
		
			<line id="XMLID_1258_" style="fill:none;stroke:#000000;stroke-miterlimit:10;" x1="263.875" y1="270.5" x2="201.875" y2="270.5"/>
		
			<line id="XMLID_1257_" style="fill:none;stroke:#000000;stroke-miterlimit:10;" x1="508.875" y1="265.5" x2="447.875" y2="265.5"/>
		
			<line id="XMLID_1256_" style="fill:none;stroke:#000000;stroke-miterlimit:10;" x1="550.875" y1="275.5" x2="491.875" y2="275.5"/>
		
			<line id="XMLID_1255_" style="fill:none;stroke:#000000;stroke-miterlimit:10;" x1="389.875" y1="261.5" x2="332.875" y2="261.5"/>
		
			<line id="XMLID_1254_" style="fill:none;stroke:#000000;stroke-miterlimit:10;" x1="629.875" y1="260.5" x2="565.875" y2="260.5"/>
		
			<line id="XMLID_1253_" style="fill:none;stroke:#000000;stroke-miterlimit:10;" x1="699.875" y1="274.5" x2="637.875" y2="274.5"/>
		
			<line id="XMLID_1252_" style="fill:none;stroke:#000000;stroke-miterlimit:10;" x1="877.875" y1="271.5" x2="816.875" y2="271.5"/>
		
			<line id="XMLID_1251_" style="fill:none;stroke:#000000;stroke-miterlimit:10;" x1="841.875" y1="288.5" x2="776.875" y2="288.5"/>
		
			<line id="XMLID_1250_" style="fill:none;stroke:#000000;stroke-miterlimit:10;" x1="322.875" y1="300.5" x2="260.875" y2="300.5"/>
		
			<line id="XMLID_1249_" style="fill:none;stroke:#000000;stroke-miterlimit:10;" x1="1269.875" y1="287.5" x2="1208.875" y2="287.5"/>
		
			<line id="XMLID_1248_" style="fill:none;stroke:#000000;stroke-miterlimit:10;" x1="441.875" y1="293.5" x2="380.875" y2="293.5"/>
		
			<line id="XMLID_1247_" style="fill:none;stroke:#000000;stroke-miterlimit:10;" x1="539.875" y1="299.5" x2="478.875" y2="299.5"/>
		<line id="XMLID_1246_" style="fill:none;stroke:#000000;stroke-miterlimit:10;" x1="126.875" y1="282.5" x2="59.875" y2="282.5"/>
		<line id="XMLID_1245_" style="fill:none;stroke:#000000;stroke-miterlimit:10;" x1="138.875" y1="301.5" x2="75.875" y2="301.5"/>
		
			<line id="XMLID_1244_" style="fill:none;stroke:#000000;stroke-miterlimit:10;" x1="1122.875" y1="299.5" x2="1063.875" y2="299.5"/>
		
			<line id="XMLID_1243_" style="fill:none;stroke:#000000;stroke-miterlimit:10;" x1="1180.875" y1="260.5" x2="1116.875" y2="260.5"/>
		
			<line id="XMLID_1242_" style="fill:none;stroke:#000000;stroke-miterlimit:10;" x1="1417.875" y1="278.5" x2="1358.875" y2="278.5"/>
		
			<line id="XMLID_1241_" style="fill:none;stroke:#000000;stroke-miterlimit:10;" x1="1163.875" y1="278.5" x2="1102.875" y2="278.5"/>
		
			<line id="XMLID_1240_" style="fill:none;stroke:#000000;stroke-miterlimit:10;" x1="1499.875" y1="301.5" x2="1437.875" y2="301.5"/>
		
			<line id="XMLID_1239_" style="fill:none;stroke:#000000;stroke-miterlimit:10;" x1="1044.875" y1="266.5" x2="988.875" y2="266.5"/>
		
			<line id="XMLID_1238_" style="fill:none;stroke:#000000;stroke-miterlimit:10;" x1="1559.875" y1="268.5" x2="1502.875" y2="268.5"/>
		
			<line id="XMLID_1237_" style="fill:none;stroke:#000000;stroke-miterlimit:10;" x1="947.875" y1="294.5" x2="889.875" y2="294.5"/>
		
			<line id="XMLID_1236_" style="fill:none;stroke:#000000;stroke-miterlimit:10;" x1="860.875" y1="261.5" x2="734.875" y2="261.5"/>
		
			<line id="XMLID_1235_" style="fill:none;stroke:#000000;stroke-miterlimit:10;" x1="629.875" y1="286.5" x2="544.875" y2="286.5"/>
		
			<line id="XMLID_1234_" style="fill:none;stroke:#000000;stroke-miterlimit:10;" x1="1007.875" y1="279.5" x2="922.875" y2="279.5"/>
		
			<line id="XMLID_1233_" style="fill:none;stroke:#000000;stroke-miterlimit:10;" x1="388.875" y1="281.5" x2="305.875" y2="281.5"/>
		
			<line id="XMLID_1232_" style="fill:none;stroke:#000000;stroke-miterlimit:10;" x1="1683.875" y1="198.5" x2="1630.875" y2="198.5"/>
		
			<line id="XMLID_1231_" style="fill:none;stroke:#000000;stroke-miterlimit:10;" x1="1566.875" y1="213.5" x2="1485.875" y2="213.5"/>
		
			<line id="XMLID_1230_" style="fill:none;stroke:#000000;stroke-miterlimit:10;" x1="1339.875" y1="195.5" x2="1255.875" y2="195.5"/>
		
			<line id="XMLID_1229_" style="fill:none;stroke:#000000;stroke-miterlimit:10;" x1="1364.875" y1="222.5" x2="1278.875" y2="222.5"/>
		
			<line id="XMLID_1228_" style="fill:none;stroke:#000000;stroke-miterlimit:10;" x1="1487.875" y1="185.5" x2="1403.875" y2="185.5"/>
		
			<line id="XMLID_1227_" style="fill:none;stroke:#000000;stroke-miterlimit:10;" x1="1655.875" y1="223.5" x2="1571.875" y2="223.5"/>
		
			<line id="XMLID_1226_" style="fill:none;stroke:#000000;stroke-miterlimit:10;" x1="731.875" y1="224.5" x2="650.875" y2="224.5"/>
		
			<line id="XMLID_1225_" style="fill:none;stroke:#000000;stroke-miterlimit:10;" x1="241.875" y1="219.5" x2="182.875" y2="219.5"/>
		<line id="XMLID_1224_" style="fill:none;stroke:#000000;stroke-miterlimit:10;" x1="149.875" y1="186.5" x2="85.875" y2="186.5"/>
		
			<line id="XMLID_1223_" style="fill:none;stroke:#000000;stroke-miterlimit:10;" x1="263.875" y1="197.5" x2="201.875" y2="197.5"/>
		
			<line id="XMLID_1222_" style="fill:none;stroke:#000000;stroke-miterlimit:10;" x1="508.875" y1="192.5" x2="447.875" y2="192.5"/>
		
			<line id="XMLID_1221_" style="fill:none;stroke:#000000;stroke-miterlimit:10;" x1="550.875" y1="202.5" x2="491.875" y2="202.5"/>
		
			<line id="XMLID_1220_" style="fill:none;stroke:#000000;stroke-miterlimit:10;" x1="389.875" y1="188.5" x2="332.875" y2="188.5"/>
		
			<line id="XMLID_1219_" style="fill:none;stroke:#000000;stroke-miterlimit:10;" x1="629.875" y1="187.5" x2="565.875" y2="187.5"/>
		
			<line id="XMLID_1218_" style="fill:none;stroke:#000000;stroke-miterlimit:10;" x1="699.875" y1="201.5" x2="637.875" y2="201.5"/>
		
			<line id="XMLID_1217_" style="fill:none;stroke:#000000;stroke-miterlimit:10;" x1="877.875" y1="198.5" x2="816.875" y2="198.5"/>
		
			<line id="XMLID_1216_" style="fill:none;stroke:#000000;stroke-miterlimit:10;" x1="841.875" y1="215.5" x2="776.875" y2="215.5"/>
		
			<line id="XMLID_1215_" style="fill:none;stroke:#000000;stroke-miterlimit:10;" x1="322.875" y1="227.5" x2="260.875" y2="227.5"/>
		
			<line id="XMLID_1214_" style="fill:none;stroke:#000000;stroke-miterlimit:10;" x1="1269.875" y1="214.5" x2="1208.875" y2="214.5"/>
		
			<line id="XMLID_1213_" style="fill:none;stroke:#000000;stroke-miterlimit:10;" x1="441.875" y1="220.5" x2="380.875" y2="220.5"/>
		
			<line id="XMLID_1212_" style="fill:none;stroke:#000000;stroke-miterlimit:10;" x1="539.875" y1="226.5" x2="478.875" y2="226.5"/>
		<line id="XMLID_1211_" style="fill:none;stroke:#000000;stroke-miterlimit:10;" x1="126.875" y1="209.5" x2="59.875" y2="209.5"/>
		<line id="XMLID_1210_" style="fill:none;stroke:#000000;stroke-miterlimit:10;" x1="138.875" y1="228.5" x2="75.875" y2="228.5"/>
		
			<line id="XMLID_1209_" style="fill:none;stroke:#000000;stroke-miterlimit:10;" x1="1122.875" y1="226.5" x2="1063.875" y2="226.5"/>
		
			<line id="XMLID_1208_" style="fill:none;stroke:#000000;stroke-miterlimit:10;" x1="1180.875" y1="187.5" x2="1116.875" y2="187.5"/>
		
			<line id="XMLID_1207_" style="fill:none;stroke:#000000;stroke-miterlimit:10;" x1="1417.875" y1="205.5" x2="1358.875" y2="205.5"/>
		
			<line id="XMLID_1206_" style="fill:none;stroke:#000000;stroke-miterlimit:10;" x1="1163.875" y1="205.5" x2="1102.875" y2="205.5"/>
		
			<line id="XMLID_1205_" style="fill:none;stroke:#000000;stroke-miterlimit:10;" x1="1499.875" y1="228.5" x2="1437.875" y2="228.5"/>
		
			<line id="XMLID_1204_" style="fill:none;stroke:#000000;stroke-miterlimit:10;" x1="1044.875" y1="193.5" x2="988.875" y2="193.5"/>
		
			<line id="XMLID_1203_" style="fill:none;stroke:#000000;stroke-miterlimit:10;" x1="1559.875" y1="195.5" x2="1502.875" y2="195.5"/>
		
			<line id="XMLID_1202_" style="fill:none;stroke:#000000;stroke-miterlimit:10;" x1="947.875" y1="221.5" x2="889.875" y2="221.5"/>
		
			<line id="XMLID_1201_" style="fill:none;stroke:#000000;stroke-miterlimit:10;" x1="860.875" y1="188.5" x2="734.875" y2="188.5"/>
		
			<line id="XMLID_1200_" style="fill:none;stroke:#000000;stroke-miterlimit:10;" x1="629.875" y1="213.5" x2="544.875" y2="213.5"/>
		
			<line id="XMLID_1199_" style="fill:none;stroke:#000000;stroke-miterlimit:10;" x1="1007.875" y1="206.5" x2="922.875" y2="206.5"/>
		
			<line id="XMLID_1198_" style="fill:none;stroke:#000000;stroke-miterlimit:10;" x1="388.875" y1="208.5" x2="305.875" y2="208.5"/>
		
			<line id="XMLID_1197_" style="fill:none;stroke:#000000;stroke-miterlimit:10;" x1="1683.875" y1="119.5" x2="1630.875" y2="119.5"/>
		
			<line id="XMLID_1196_" style="fill:none;stroke:#000000;stroke-miterlimit:10;" x1="1566.875" y1="134.5" x2="1485.875" y2="134.5"/>
		
			<line id="XMLID_1195_" style="fill:none;stroke:#000000;stroke-miterlimit:10;" x1="1339.875" y1="116.5" x2="1255.875" y2="116.5"/>
		
			<line id="XMLID_1194_" style="fill:none;stroke:#000000;stroke-miterlimit:10;" x1="1364.875" y1="143.5" x2="1278.875" y2="143.5"/>
		
			<line id="XMLID_1193_" style="fill:none;stroke:#000000;stroke-miterlimit:10;" x1="1487.875" y1="106.5" x2="1403.875" y2="106.5"/>
		
			<line id="XMLID_1192_" style="fill:none;stroke:#000000;stroke-miterlimit:10;" x1="1655.875" y1="144.5" x2="1571.875" y2="144.5"/>
		
			<line id="XMLID_1191_" style="fill:none;stroke:#000000;stroke-miterlimit:10;" x1="731.875" y1="145.5" x2="650.875" y2="145.5"/>
		
			<line id="XMLID_1190_" style="fill:none;stroke:#000000;stroke-miterlimit:10;" x1="241.875" y1="140.5" x2="182.875" y2="140.5"/>
		<line id="XMLID_1189_" style="fill:none;stroke:#000000;stroke-miterlimit:10;" x1="149.875" y1="107.5" x2="85.875" y2="107.5"/>
		
			<line id="XMLID_1188_" style="fill:none;stroke:#000000;stroke-miterlimit:10;" x1="263.875" y1="118.5" x2="201.875" y2="118.5"/>
		
			<line id="XMLID_1187_" style="fill:none;stroke:#000000;stroke-miterlimit:10;" x1="508.875" y1="113.5" x2="447.875" y2="113.5"/>
		
			<line id="XMLID_1186_" style="fill:none;stroke:#000000;stroke-miterlimit:10;" x1="550.875" y1="123.5" x2="491.875" y2="123.5"/>
		
			<line id="XMLID_1185_" style="fill:none;stroke:#000000;stroke-miterlimit:10;" x1="389.875" y1="109.5" x2="332.875" y2="109.5"/>
		
			<line id="XMLID_1184_" style="fill:none;stroke:#000000;stroke-miterlimit:10;" x1="629.875" y1="108.5" x2="565.875" y2="108.5"/>
		
			<line id="XMLID_1183_" style="fill:none;stroke:#000000;stroke-miterlimit:10;" x1="699.875" y1="122.5" x2="637.875" y2="122.5"/>
		
			<line id="XMLID_1182_" style="fill:none;stroke:#000000;stroke-miterlimit:10;" x1="877.875" y1="119.5" x2="816.875" y2="119.5"/>
		
			<line id="XMLID_1181_" style="fill:none;stroke:#000000;stroke-miterlimit:10;" x1="841.875" y1="136.5" x2="776.875" y2="136.5"/>
		
			<line id="XMLID_1180_" style="fill:none;stroke:#000000;stroke-miterlimit:10;" x1="322.875" y1="148.5" x2="260.875" y2="148.5"/>
		
			<line id="XMLID_1179_" style="fill:none;stroke:#000000;stroke-miterlimit:10;" x1="1269.875" y1="135.5" x2="1208.875" y2="135.5"/>
		
			<line id="XMLID_1178_" style="fill:none;stroke:#000000;stroke-miterlimit:10;" x1="441.875" y1="141.5" x2="380.875" y2="141.5"/>
		
			<line id="XMLID_1177_" style="fill:none;stroke:#000000;stroke-miterlimit:10;" x1="539.875" y1="147.5" x2="478.875" y2="147.5"/>
		<line id="XMLID_1176_" style="fill:none;stroke:#000000;stroke-miterlimit:10;" x1="126.875" y1="130.5" x2="59.875" y2="130.5"/>
		<line id="XMLID_1175_" style="fill:none;stroke:#000000;stroke-miterlimit:10;" x1="138.875" y1="149.5" x2="75.875" y2="149.5"/>
		
			<line id="XMLID_1174_" style="fill:none;stroke:#000000;stroke-miterlimit:10;" x1="1122.875" y1="147.5" x2="1063.875" y2="147.5"/>
		
			<line id="XMLID_1173_" style="fill:none;stroke:#000000;stroke-miterlimit:10;" x1="1180.875" y1="108.5" x2="1116.875" y2="108.5"/>
		
			<line id="XMLID_1172_" style="fill:none;stroke:#000000;stroke-miterlimit:10;" x1="1417.875" y1="126.5" x2="1358.875" y2="126.5"/>
		
			<line id="XMLID_1171_" style="fill:none;stroke:#000000;stroke-miterlimit:10;" x1="1163.875" y1="126.5" x2="1102.875" y2="126.5"/>
		
			<line id="XMLID_1170_" style="fill:none;stroke:#000000;stroke-miterlimit:10;" x1="1499.875" y1="149.5" x2="1437.875" y2="149.5"/>
		
			<line id="XMLID_1169_" style="fill:none;stroke:#000000;stroke-miterlimit:10;" x1="1044.875" y1="114.5" x2="988.875" y2="114.5"/>
		
			<line id="XMLID_1168_" style="fill:none;stroke:#000000;stroke-miterlimit:10;" x1="1559.875" y1="116.5" x2="1502.875" y2="116.5"/>
		
			<line id="XMLID_1167_" style="fill:none;stroke:#000000;stroke-miterlimit:10;" x1="947.875" y1="142.5" x2="889.875" y2="142.5"/>
		
			<line id="XMLID_1166_" style="fill:none;stroke:#000000;stroke-miterlimit:10;" x1="860.875" y1="109.5" x2="734.875" y2="109.5"/>
		
			<line id="XMLID_1165_" style="fill:none;stroke:#000000;stroke-miterlimit:10;" x1="629.875" y1="134.5" x2="544.875" y2="134.5"/>
		
			<line id="XMLID_1164_" style="fill:none;stroke:#000000;stroke-miterlimit:10;" x1="1007.875" y1="127.5" x2="922.875" y2="127.5"/>
		
			<line id="XMLID_1163_" style="fill:none;stroke:#000000;stroke-miterlimit:10;" x1="388.875" y1="129.5" x2="305.875" y2="129.5"/>
		
			<line id="XMLID_1162_" style="fill:none;stroke:#000000;stroke-miterlimit:10;" x1="1664.875" y1="37.5" x2="1616.875" y2="37.5"/>
		
			<line id="XMLID_1161_" style="fill:none;stroke:#000000;stroke-miterlimit:10;" x1="1566.875" y1="52.5" x2="1485.875" y2="52.5"/>
		
			<line id="XMLID_1160_" style="fill:none;stroke:#000000;stroke-miterlimit:10;" x1="1329.875" y1="34.5" x2="1247.875" y2="34.5"/>
		
			<line id="XMLID_1159_" style="fill:none;stroke:#000000;stroke-miterlimit:10;" x1="1364.875" y1="61.5" x2="1278.875" y2="61.5"/>
		
			<line id="XMLID_1158_" style="fill:none;stroke:#000000;stroke-miterlimit:10;" x1="1474.875" y1="24.5" x2="1392.875" y2="24.5"/>
		
			<line id="XMLID_1157_" style="fill:none;stroke:#000000;stroke-miterlimit:10;" x1="1655.875" y1="62.5" x2="1571.875" y2="62.5"/>
		<line id="XMLID_1156_" style="fill:none;stroke:#000000;stroke-miterlimit:10;" x1="731.875" y1="63.5" x2="650.875" y2="63.5"/>
		<line id="XMLID_1155_" style="fill:none;stroke:#000000;stroke-miterlimit:10;" x1="241.875" y1="58.5" x2="182.875" y2="58.5"/>
		<line id="XMLID_1154_" style="fill:none;stroke:#000000;stroke-miterlimit:10;" x1="165.875" y1="25.5" x2="103.875" y2="25.5"/>
		<line id="XMLID_1153_" style="fill:none;stroke:#000000;stroke-miterlimit:10;" x1="277.875" y1="36.5" x2="215.875" y2="36.5"/>
		<line id="XMLID_1152_" style="fill:none;stroke:#000000;stroke-miterlimit:10;" x1="514.875" y1="31.5" x2="455.875" y2="31.5"/>
		<line id="XMLID_1151_" style="fill:none;stroke:#000000;stroke-miterlimit:10;" x1="550.875" y1="41.5" x2="491.875" y2="41.5"/>
		<line id="XMLID_1150_" style="fill:none;stroke:#000000;stroke-miterlimit:10;" x1="402.875" y1="27.5" x2="339.875" y2="27.5"/>
		<line id="XMLID_1149_" style="fill:none;stroke:#000000;stroke-miterlimit:10;" x1="632.875" y1="26.5" x2="572.875" y2="26.5"/>
		<line id="XMLID_1148_" style="fill:none;stroke:#000000;stroke-miterlimit:10;" x1="703.875" y1="40.5" x2="643.875" y2="40.5"/>
		<line id="XMLID_1147_" style="fill:none;stroke:#000000;stroke-miterlimit:10;" x1="877.875" y1="37.5" x2="816.875" y2="37.5"/>
		<line id="XMLID_1146_" style="fill:none;stroke:#000000;stroke-miterlimit:10;" x1="841.875" y1="54.5" x2="776.875" y2="54.5"/>
		<line id="XMLID_1145_" style="fill:none;stroke:#000000;stroke-miterlimit:10;" x1="322.875" y1="66.5" x2="260.875" y2="66.5"/>
		
			<line id="XMLID_1144_" style="fill:none;stroke:#000000;stroke-miterlimit:10;" x1="1269.875" y1="53.5" x2="1208.875" y2="53.5"/>
		<line id="XMLID_1143_" style="fill:none;stroke:#000000;stroke-miterlimit:10;" x1="441.875" y1="59.5" x2="380.875" y2="59.5"/>
		<line id="XMLID_1142_" style="fill:none;stroke:#000000;stroke-miterlimit:10;" x1="539.875" y1="65.5" x2="478.875" y2="65.5"/>
		<line id="XMLID_1141_" style="fill:none;stroke:#000000;stroke-miterlimit:10;" x1="126.875" y1="48.5" x2="59.875" y2="48.5"/>
		<line id="XMLID_965_" style="fill:none;stroke:#000000;stroke-miterlimit:10;" x1="138.875" y1="67.5" x2="75.875" y2="67.5"/>
		<line id="XMLID_960_" style="fill:none;stroke:#000000;stroke-miterlimit:10;" x1="1122.875" y1="65.5" x2="1063.875" y2="65.5"/>
		<line id="XMLID_956_" style="fill:none;stroke:#000000;stroke-miterlimit:10;" x1="1171.875" y1="26.5" x2="1113.875" y2="26.5"/>
		<line id="XMLID_955_" style="fill:none;stroke:#000000;stroke-miterlimit:10;" x1="1417.875" y1="44.5" x2="1358.875" y2="44.5"/>
		<line id="XMLID_950_" style="fill:none;stroke:#000000;stroke-miterlimit:10;" x1="1163.875" y1="44.5" x2="1102.875" y2="44.5"/>
		<line id="XMLID_948_" style="fill:none;stroke:#000000;stroke-miterlimit:10;" x1="1499.875" y1="67.5" x2="1437.875" y2="67.5"/>
		<line id="XMLID_943_" style="fill:none;stroke:#000000;stroke-miterlimit:10;" x1="1041.875" y1="32.5" x2="984.875" y2="32.5"/>
		<line id="XMLID_942_" style="fill:none;stroke:#000000;stroke-miterlimit:10;" x1="1544.875" y1="34.5" x2="1487.875" y2="34.5"/>
		<line id="XMLID_941_" style="fill:none;stroke:#000000;stroke-miterlimit:10;" x1="947.875" y1="60.5" x2="889.875" y2="60.5"/>
		<line id="XMLID_940_" style="fill:none;stroke:#000000;stroke-miterlimit:10;" x1="860.875" y1="27.5" x2="740.875" y2="27.5"/>
		<line id="XMLID_937_" style="fill:none;stroke:#000000;stroke-miterlimit:10;" x1="629.875" y1="52.5" x2="544.875" y2="52.5"/>
		<line id="XMLID_932_" style="fill:none;stroke:#000000;stroke-miterlimit:10;" x1="1007.875" y1="45.5" x2="922.875" y2="45.5"/>
		<line id="XMLID_931_" style="fill:none;stroke:#000000;stroke-miterlimit:10;" x1="388.875" y1="47.5" x2="305.875" y2="47.5"/>
	</g>
</g>
<g id="Layer_1">
</g>
</svg>
