<?xml version="1.0" encoding="iso-8859-1"?>
<!-- Generator: Adobe Illustrator 19.0.0, SVG Export Plug-In . SVG Version: 6.00 Build 0)  -->
<svg version="1.1" xmlns="http://www.w3.org/2000/svg" xmlns:xlink="http://www.w3.org/1999/xlink" x="0px" y="0px"
	 viewBox="0 0 1740 483" style="enable-background:new 0 0 1740 483;" xml:space="preserve">
<g id="bench-3">
	<rect id="bounds_5_" x="-0.125" style="opacity:0;fill:#FFFFFF;" width="1740" height="483"/>
	<g id="style2">
		<rect id="XMLID_279_" x="846.953" y="385.9" style="fill:#DBDBDA;" width="46.345" height="14.087"/>
		<rect id="XMLID_278_" x="846.953" y="309.425" style="fill:#DBDBDA;" width="46.345" height="15.094"/>
		<rect id="XMLID_277_" x="846.953" y="232.95" style="fill:#DBDBDA;" width="46.345" height="15.094"/>
		<rect id="XMLID_274_" x="846.953" y="157.481" style="fill:#DBDBDA;" width="46.345" height="15.094"/>
		<rect id="XMLID_273_" x="846.953" y="82.012" style="fill:#DBDBDA;" width="46.345" height="15.094"/>
	</g>
	<g id="style1">
		<g id="XMLID_849_">
			<rect id="XMLID_850_" x="29.875" y="400" style="fill:#DEB074;" width="1680" height="83"/>
		</g>
		<g id="XMLID_847_">
			<rect id="XMLID_848_" x="29.875" y="96" style="fill:#DEB074;" width="1680" height="61"/>
		</g>
		<g id="XMLID_845_">
			<rect id="XMLID_846_" x="29.875" style="fill:#DEB074;" width="1680" height="82"/>
		</g>
		<g id="XMLID_843_">
			<rect id="XMLID_844_" x="29.875" y="173" style="fill:#DEB074;" width="1680" height="61"/>
		</g>
		<g id="XMLID_841_">
			<rect id="XMLID_842_" x="29.875" y="248" style="fill:#DEB074;" width="1680" height="61"/>
		</g>
		<g id="XMLID_839_">
			<rect id="XMLID_840_" x="29.875" y="325" style="fill:#DEB074;" width="1680" height="61"/>
		</g>
	</g>
	<g id="accent_5_">
		<rect id="XMLID_838_" x="29.875" y="476" style="opacity:0.12;" width="1680" height="7"/>
		<rect id="XMLID_837_" x="29.875" y="231" style="opacity:0.12;" width="1680" height="3"/>
		<rect id="XMLID_836_" x="29.875" y="154" style="opacity:0.12;" width="1680" height="3"/>
		<rect id="XMLID_835_" x="29.875" y="79" style="opacity:0.12;" width="1680" height="3"/>
		<rect id="XMLID_834_" x="29.875" y="383" style="opacity:0.12;" width="1680" height="3"/>
		<rect id="XMLID_833_" x="29.875" y="306" style="opacity:0.12;" width="1680" height="3"/>
		
			<line id="XMLID_832_" style="opacity:0.2;fill:none;stroke:#000000;stroke-width:4;stroke-miterlimit:10;" x1="31.875" y1="0" x2="31.875" y2="483"/>
		
			<line id="XMLID_831_" style="opacity:0.2;fill:none;stroke:#000000;stroke-width:4;stroke-miterlimit:10;" x1="1707.875" y1="0" x2="1707.875" y2="483"/>
	</g>
	<g id="texture">
		
			<line id="XMLID_830_" style="opacity:0.12;fill:none;stroke:#000000;stroke-miterlimit:10;" x1="56.875" y1="134.5" x2="93.875" y2="134.5"/>
		
			<line id="XMLID_829_" style="opacity:0.12;fill:none;stroke:#000000;stroke-miterlimit:10;" x1="140.875" y1="119.5" x2="203.875" y2="119.5"/>
		
			<line id="XMLID_828_" style="opacity:0.12;fill:none;stroke:#000000;stroke-miterlimit:10;" x1="311.875" y1="137.5" x2="374.875" y2="137.5"/>
		
			<line id="XMLID_827_" style="opacity:0.12;fill:none;stroke:#000000;stroke-miterlimit:10;" x1="295.875" y1="110.5" x2="352.875" y2="110.5"/>
		
			<line id="XMLID_826_" style="opacity:0.12;fill:none;stroke:#000000;stroke-miterlimit:10;" x1="200.875" y1="147.5" x2="264.875" y2="147.5"/>
		
			<line id="XMLID_825_" style="opacity:0.12;fill:none;stroke:#000000;stroke-miterlimit:10;" x1="77.875" y1="109.5" x2="137.875" y2="109.5"/>
		
			<line id="XMLID_824_" style="opacity:0.12;fill:none;stroke:#000000;stroke-miterlimit:10;" x1="764.875" y1="108.5" x2="822.875" y2="108.5"/>
		
			<line id="XMLID_823_" style="opacity:0.12;fill:none;stroke:#000000;stroke-miterlimit:10;" x1="1124.875" y1="113.5" x2="1170.875" y2="113.5"/>
		
			<line id="XMLID_822_" style="opacity:0.12;fill:none;stroke:#000000;stroke-miterlimit:10;" x1="1196.875" y1="146.5" x2="1240.875" y2="146.5"/>
		
			<line id="XMLID_821_" style="opacity:0.12;fill:none;stroke:#000000;stroke-miterlimit:10;" x1="1108.875" y1="135.5" x2="1153.875" y2="135.5"/>
		
			<line id="XMLID_820_" style="opacity:0.12;fill:none;stroke:#000000;stroke-miterlimit:10;" x1="927.875" y1="140.5" x2="975.875" y2="140.5"/>
		
			<line id="XMLID_819_" style="opacity:0.12;fill:none;stroke:#000000;stroke-miterlimit:10;" x1="897.875" y1="130.5" x2="941.875" y2="130.5"/>
		
			<line id="XMLID_818_" style="opacity:0.12;fill:none;stroke:#000000;stroke-miterlimit:10;" x1="1014.875" y1="144.5" x2="1063.875" y2="144.5"/>
		
			<line id="XMLID_817_" style="opacity:0.12;fill:none;stroke:#000000;stroke-miterlimit:10;" x1="840.875" y1="145.5" x2="886.875" y2="145.5"/>
		
			<line id="XMLID_816_" style="opacity:0.12;fill:none;stroke:#000000;stroke-miterlimit:10;" x1="786.875" y1="131.5" x2="832.875" y2="131.5"/>
		
			<line id="XMLID_815_" style="opacity:0.12;fill:none;stroke:#000000;stroke-miterlimit:10;" x1="654.875" y1="134.5" x2="698.875" y2="134.5"/>
		
			<line id="XMLID_814_" style="opacity:0.12;fill:none;stroke:#000000;stroke-miterlimit:10;" x1="682.875" y1="117.5" x2="728.875" y2="117.5"/>
		
			<line id="XMLID_813_" style="opacity:0.12;fill:none;stroke:#000000;stroke-miterlimit:10;" x1="1066.875" y1="105.5" x2="1110.875" y2="105.5"/>
		
			<line id="XMLID_812_" style="opacity:0.12;fill:none;stroke:#000000;stroke-miterlimit:10;" x1="361.875" y1="118.5" x2="407.875" y2="118.5"/>
		
			<line id="XMLID_811_" style="opacity:0.12;fill:none;stroke:#000000;stroke-miterlimit:10;" x1="977.875" y1="112.5" x2="1023.875" y2="112.5"/>
		
			<line id="XMLID_810_" style="opacity:0.12;fill:none;stroke:#000000;stroke-miterlimit:10;" x1="904.875" y1="106.5" x2="952.875" y2="106.5"/>
		
			<line id="XMLID_809_" style="opacity:0.12;fill:none;stroke:#000000;stroke-miterlimit:10;" x1="1215.875" y1="123.5" x2="1259.875" y2="123.5"/>
		
			<line id="XMLID_808_" style="opacity:0.12;fill:none;stroke:#000000;stroke-miterlimit:10;" x1="1204.875" y1="104.5" x2="1248.875" y2="104.5"/>
		
			<line id="XMLID_807_" style="opacity:0.12;fill:none;stroke:#000000;stroke-miterlimit:10;" x1="468.875" y1="106.5" x2="515.875" y2="106.5"/>
		
			<line id="XMLID_806_" style="opacity:0.12;fill:none;stroke:#000000;stroke-miterlimit:10;" x1="429.875" y1="145.5" x2="474.875" y2="145.5"/>
		
			<line id="XMLID_805_" style="opacity:0.12;fill:none;stroke:#000000;stroke-miterlimit:10;" x1="251.875" y1="127.5" x2="298.875" y2="127.5"/>
		
			<line id="XMLID_804_" style="opacity:0.12;fill:none;stroke:#000000;stroke-miterlimit:10;" x1="443.875" y1="127.5" x2="485.875" y2="127.5"/>
		
			<line id="XMLID_803_" style="opacity:0.12;fill:none;stroke:#000000;stroke-miterlimit:10;" x1="193.875" y1="104.5" x2="235.875" y2="104.5"/>
		
			<line id="XMLID_802_" style="opacity:0.12;fill:none;stroke:#000000;stroke-miterlimit:10;" x1="529.875" y1="139.5" x2="571.875" y2="139.5"/>
		
			<line id="XMLID_801_" style="opacity:0.12;fill:none;stroke:#000000;stroke-miterlimit:10;" x1="149.875" y1="137.5" x2="189.875" y2="137.5"/>
		
			<line id="XMLID_800_" style="opacity:0.12;fill:none;stroke:#000000;stroke-miterlimit:10;" x1="601.875" y1="111.5" x2="645.875" y2="111.5"/>
		
			<line id="XMLID_799_" style="opacity:0.12;fill:none;stroke:#000000;stroke-miterlimit:10;" x1="665.875" y1="144.5" x2="759.875" y2="144.5"/>
		
			<line id="XMLID_798_" style="opacity:0.12;fill:none;stroke:#000000;stroke-miterlimit:10;" x1="840.875" y1="119.5" x2="901.875" y2="119.5"/>
		
			<line id="XMLID_797_" style="opacity:0.12;fill:none;stroke:#000000;stroke-miterlimit:10;" x1="558.875" y1="126.5" x2="621.875" y2="126.5"/>
		
			<line id="XMLID_796_" style="opacity:0.12;fill:none;stroke:#000000;stroke-miterlimit:10;" x1="1018.875" y1="124.5" x2="1081.875" y2="124.5"/>
		
			<line id="XMLID_795_" style="opacity:0.12;fill:none;stroke:#000000;stroke-miterlimit:10;" x1="56.875" y1="209.5" x2="93.875" y2="209.5"/>
		
			<line id="XMLID_794_" style="opacity:0.12;fill:none;stroke:#000000;stroke-miterlimit:10;" x1="140.875" y1="194.5" x2="203.875" y2="194.5"/>
		
			<line id="XMLID_793_" style="opacity:0.12;fill:none;stroke:#000000;stroke-miterlimit:10;" x1="311.875" y1="212.5" x2="374.875" y2="212.5"/>
		
			<line id="XMLID_792_" style="opacity:0.12;fill:none;stroke:#000000;stroke-miterlimit:10;" x1="295.875" y1="185.5" x2="352.875" y2="185.5"/>
		
			<line id="XMLID_791_" style="opacity:0.12;fill:none;stroke:#000000;stroke-miterlimit:10;" x1="200.875" y1="222.5" x2="264.875" y2="222.5"/>
		
			<line id="XMLID_790_" style="opacity:0.12;fill:none;stroke:#000000;stroke-miterlimit:10;" x1="77.875" y1="184.5" x2="137.875" y2="184.5"/>
		
			<line id="XMLID_789_" style="opacity:0.12;fill:none;stroke:#000000;stroke-miterlimit:10;" x1="764.875" y1="183.5" x2="822.875" y2="183.5"/>
		
			<line id="XMLID_788_" style="opacity:0.12;fill:none;stroke:#000000;stroke-miterlimit:10;" x1="1124.875" y1="188.5" x2="1170.875" y2="188.5"/>
		
			<line id="XMLID_787_" style="opacity:0.12;fill:none;stroke:#000000;stroke-miterlimit:10;" x1="1196.875" y1="221.5" x2="1240.875" y2="221.5"/>
		
			<line id="XMLID_786_" style="opacity:0.12;fill:none;stroke:#000000;stroke-miterlimit:10;" x1="1108.875" y1="210.5" x2="1153.875" y2="210.5"/>
		
			<line id="XMLID_785_" style="opacity:0.12;fill:none;stroke:#000000;stroke-miterlimit:10;" x1="927.875" y1="215.5" x2="975.875" y2="215.5"/>
		
			<line id="XMLID_784_" style="opacity:0.12;fill:none;stroke:#000000;stroke-miterlimit:10;" x1="897.875" y1="205.5" x2="941.875" y2="205.5"/>
		
			<line id="XMLID_783_" style="opacity:0.12;fill:none;stroke:#000000;stroke-miterlimit:10;" x1="1014.875" y1="219.5" x2="1063.875" y2="219.5"/>
		
			<line id="XMLID_782_" style="opacity:0.12;fill:none;stroke:#000000;stroke-miterlimit:10;" x1="840.875" y1="220.5" x2="886.875" y2="220.5"/>
		
			<line id="XMLID_781_" style="opacity:0.12;fill:none;stroke:#000000;stroke-miterlimit:10;" x1="786.875" y1="206.5" x2="832.875" y2="206.5"/>
		
			<line id="XMLID_780_" style="opacity:0.12;fill:none;stroke:#000000;stroke-miterlimit:10;" x1="654.875" y1="209.5" x2="698.875" y2="209.5"/>
		
			<line id="XMLID_779_" style="opacity:0.12;fill:none;stroke:#000000;stroke-miterlimit:10;" x1="682.875" y1="192.5" x2="728.875" y2="192.5"/>
		
			<line id="XMLID_778_" style="opacity:0.12;fill:none;stroke:#000000;stroke-miterlimit:10;" x1="1066.875" y1="180.5" x2="1110.875" y2="180.5"/>
		
			<line id="XMLID_777_" style="opacity:0.12;fill:none;stroke:#000000;stroke-miterlimit:10;" x1="361.875" y1="193.5" x2="407.875" y2="193.5"/>
		
			<line id="XMLID_776_" style="opacity:0.12;fill:none;stroke:#000000;stroke-miterlimit:10;" x1="977.875" y1="187.5" x2="1023.875" y2="187.5"/>
		
			<line id="XMLID_775_" style="opacity:0.12;fill:none;stroke:#000000;stroke-miterlimit:10;" x1="904.875" y1="181.5" x2="952.875" y2="181.5"/>
		
			<line id="XMLID_774_" style="opacity:0.12;fill:none;stroke:#000000;stroke-miterlimit:10;" x1="1215.875" y1="198.5" x2="1259.875" y2="198.5"/>
		
			<line id="XMLID_773_" style="opacity:0.12;fill:none;stroke:#000000;stroke-miterlimit:10;" x1="1204.875" y1="179.5" x2="1248.875" y2="179.5"/>
		
			<line id="XMLID_772_" style="opacity:0.12;fill:none;stroke:#000000;stroke-miterlimit:10;" x1="468.875" y1="181.5" x2="515.875" y2="181.5"/>
		
			<line id="XMLID_771_" style="opacity:0.12;fill:none;stroke:#000000;stroke-miterlimit:10;" x1="429.875" y1="220.5" x2="474.875" y2="220.5"/>
		
			<line id="XMLID_770_" style="opacity:0.12;fill:none;stroke:#000000;stroke-miterlimit:10;" x1="251.875" y1="202.5" x2="298.875" y2="202.5"/>
		
			<line id="XMLID_769_" style="opacity:0.12;fill:none;stroke:#000000;stroke-miterlimit:10;" x1="443.875" y1="202.5" x2="485.875" y2="202.5"/>
		
			<line id="XMLID_768_" style="opacity:0.12;fill:none;stroke:#000000;stroke-miterlimit:10;" x1="193.875" y1="179.5" x2="235.875" y2="179.5"/>
		
			<line id="XMLID_767_" style="opacity:0.12;fill:none;stroke:#000000;stroke-miterlimit:10;" x1="529.875" y1="214.5" x2="571.875" y2="214.5"/>
		
			<line id="XMLID_766_" style="opacity:0.12;fill:none;stroke:#000000;stroke-miterlimit:10;" x1="149.875" y1="212.5" x2="189.875" y2="212.5"/>
		
			<line id="XMLID_765_" style="opacity:0.12;fill:none;stroke:#000000;stroke-miterlimit:10;" x1="601.875" y1="186.5" x2="645.875" y2="186.5"/>
		
			<line id="XMLID_764_" style="opacity:0.12;fill:none;stroke:#000000;stroke-miterlimit:10;" x1="665.875" y1="219.5" x2="759.875" y2="219.5"/>
		
			<line id="XMLID_763_" style="opacity:0.12;fill:none;stroke:#000000;stroke-miterlimit:10;" x1="840.875" y1="194.5" x2="901.875" y2="194.5"/>
		
			<line id="XMLID_762_" style="opacity:0.12;fill:none;stroke:#000000;stroke-miterlimit:10;" x1="558.875" y1="201.5" x2="621.875" y2="201.5"/>
		
			<line id="XMLID_761_" style="opacity:0.12;fill:none;stroke:#000000;stroke-miterlimit:10;" x1="1018.875" y1="199.5" x2="1081.875" y2="199.5"/>
		
			<line id="XMLID_760_" style="opacity:0.12;fill:none;stroke:#000000;stroke-miterlimit:10;" x1="56.875" y1="282.5" x2="93.875" y2="282.5"/>
		
			<line id="XMLID_759_" style="opacity:0.12;fill:none;stroke:#000000;stroke-miterlimit:10;" x1="140.875" y1="267.5" x2="203.875" y2="267.5"/>
		
			<line id="XMLID_758_" style="opacity:0.12;fill:none;stroke:#000000;stroke-miterlimit:10;" x1="311.875" y1="285.5" x2="374.875" y2="285.5"/>
		
			<line id="XMLID_757_" style="opacity:0.12;fill:none;stroke:#000000;stroke-miterlimit:10;" x1="295.875" y1="258.5" x2="352.875" y2="258.5"/>
		
			<line id="XMLID_756_" style="opacity:0.12;fill:none;stroke:#000000;stroke-miterlimit:10;" x1="200.875" y1="295.5" x2="264.875" y2="295.5"/>
		
			<line id="XMLID_755_" style="opacity:0.12;fill:none;stroke:#000000;stroke-miterlimit:10;" x1="77.875" y1="257.5" x2="137.875" y2="257.5"/>
		
			<line id="XMLID_754_" style="opacity:0.12;fill:none;stroke:#000000;stroke-miterlimit:10;" x1="764.875" y1="256.5" x2="822.875" y2="256.5"/>
		
			<line id="XMLID_753_" style="opacity:0.12;fill:none;stroke:#000000;stroke-miterlimit:10;" x1="1124.875" y1="261.5" x2="1170.875" y2="261.5"/>
		
			<line id="XMLID_752_" style="opacity:0.12;fill:none;stroke:#000000;stroke-miterlimit:10;" x1="1196.875" y1="294.5" x2="1240.875" y2="294.5"/>
		
			<line id="XMLID_751_" style="opacity:0.12;fill:none;stroke:#000000;stroke-miterlimit:10;" x1="1108.875" y1="283.5" x2="1153.875" y2="283.5"/>
		
			<line id="XMLID_750_" style="opacity:0.12;fill:none;stroke:#000000;stroke-miterlimit:10;" x1="927.875" y1="288.5" x2="975.875" y2="288.5"/>
		
			<line id="XMLID_749_" style="opacity:0.12;fill:none;stroke:#000000;stroke-miterlimit:10;" x1="897.875" y1="278.5" x2="941.875" y2="278.5"/>
		
			<line id="XMLID_748_" style="opacity:0.12;fill:none;stroke:#000000;stroke-miterlimit:10;" x1="1014.875" y1="292.5" x2="1063.875" y2="292.5"/>
		
			<line id="XMLID_747_" style="opacity:0.12;fill:none;stroke:#000000;stroke-miterlimit:10;" x1="840.875" y1="293.5" x2="886.875" y2="293.5"/>
		
			<line id="XMLID_746_" style="opacity:0.12;fill:none;stroke:#000000;stroke-miterlimit:10;" x1="786.875" y1="279.5" x2="832.875" y2="279.5"/>
		
			<line id="XMLID_745_" style="opacity:0.12;fill:none;stroke:#000000;stroke-miterlimit:10;" x1="654.875" y1="282.5" x2="698.875" y2="282.5"/>
		
			<line id="XMLID_744_" style="opacity:0.12;fill:none;stroke:#000000;stroke-miterlimit:10;" x1="682.875" y1="265.5" x2="728.875" y2="265.5"/>
		
			<line id="XMLID_743_" style="opacity:0.12;fill:none;stroke:#000000;stroke-miterlimit:10;" x1="1066.875" y1="253.5" x2="1110.875" y2="253.5"/>
		
			<line id="XMLID_742_" style="opacity:0.12;fill:none;stroke:#000000;stroke-miterlimit:10;" x1="361.875" y1="266.5" x2="407.875" y2="266.5"/>
		
			<line id="XMLID_741_" style="opacity:0.12;fill:none;stroke:#000000;stroke-miterlimit:10;" x1="977.875" y1="260.5" x2="1023.875" y2="260.5"/>
		
			<line id="XMLID_740_" style="opacity:0.12;fill:none;stroke:#000000;stroke-miterlimit:10;" x1="904.875" y1="254.5" x2="952.875" y2="254.5"/>
		
			<line id="XMLID_739_" style="opacity:0.12;fill:none;stroke:#000000;stroke-miterlimit:10;" x1="1215.875" y1="271.5" x2="1259.875" y2="271.5"/>
		
			<line id="XMLID_738_" style="opacity:0.12;fill:none;stroke:#000000;stroke-miterlimit:10;" x1="1204.875" y1="252.5" x2="1248.875" y2="252.5"/>
		
			<line id="XMLID_737_" style="opacity:0.12;fill:none;stroke:#000000;stroke-miterlimit:10;" x1="468.875" y1="254.5" x2="515.875" y2="254.5"/>
		
			<line id="XMLID_736_" style="opacity:0.12;fill:none;stroke:#000000;stroke-miterlimit:10;" x1="429.875" y1="293.5" x2="474.875" y2="293.5"/>
		
			<line id="XMLID_735_" style="opacity:0.12;fill:none;stroke:#000000;stroke-miterlimit:10;" x1="251.875" y1="275.5" x2="298.875" y2="275.5"/>
		
			<line id="XMLID_734_" style="opacity:0.12;fill:none;stroke:#000000;stroke-miterlimit:10;" x1="443.875" y1="275.5" x2="485.875" y2="275.5"/>
		
			<line id="XMLID_733_" style="opacity:0.12;fill:none;stroke:#000000;stroke-miterlimit:10;" x1="193.875" y1="252.5" x2="235.875" y2="252.5"/>
		
			<line id="XMLID_732_" style="opacity:0.12;fill:none;stroke:#000000;stroke-miterlimit:10;" x1="529.875" y1="287.5" x2="571.875" y2="287.5"/>
		
			<line id="XMLID_731_" style="opacity:0.12;fill:none;stroke:#000000;stroke-miterlimit:10;" x1="149.875" y1="285.5" x2="189.875" y2="285.5"/>
		
			<line id="XMLID_730_" style="opacity:0.12;fill:none;stroke:#000000;stroke-miterlimit:10;" x1="601.875" y1="259.5" x2="645.875" y2="259.5"/>
		
			<line id="XMLID_729_" style="opacity:0.12;fill:none;stroke:#000000;stroke-miterlimit:10;" x1="665.875" y1="292.5" x2="759.875" y2="292.5"/>
		
			<line id="XMLID_728_" style="opacity:0.12;fill:none;stroke:#000000;stroke-miterlimit:10;" x1="840.875" y1="267.5" x2="901.875" y2="267.5"/>
		
			<line id="XMLID_727_" style="opacity:0.12;fill:none;stroke:#000000;stroke-miterlimit:10;" x1="558.875" y1="274.5" x2="621.875" y2="274.5"/>
		
			<line id="XMLID_726_" style="opacity:0.12;fill:none;stroke:#000000;stroke-miterlimit:10;" x1="1018.875" y1="272.5" x2="1081.875" y2="272.5"/>
		
			<line id="XMLID_725_" style="opacity:0.12;fill:none;stroke:#000000;stroke-miterlimit:10;" x1="56.875" y1="362.5" x2="93.875" y2="362.5"/>
		
			<line id="XMLID_724_" style="opacity:0.12;fill:none;stroke:#000000;stroke-miterlimit:10;" x1="140.875" y1="347.5" x2="203.875" y2="347.5"/>
		
			<line id="XMLID_723_" style="opacity:0.12;fill:none;stroke:#000000;stroke-miterlimit:10;" x1="311.875" y1="365.5" x2="374.875" y2="365.5"/>
		
			<line id="XMLID_722_" style="opacity:0.12;fill:none;stroke:#000000;stroke-miterlimit:10;" x1="295.875" y1="338.5" x2="352.875" y2="338.5"/>
		
			<line id="XMLID_721_" style="opacity:0.12;fill:none;stroke:#000000;stroke-miterlimit:10;" x1="200.875" y1="375.5" x2="264.875" y2="375.5"/>
		
			<line id="XMLID_720_" style="opacity:0.12;fill:none;stroke:#000000;stroke-miterlimit:10;" x1="77.875" y1="337.5" x2="137.875" y2="337.5"/>
		
			<line id="XMLID_719_" style="opacity:0.12;fill:none;stroke:#000000;stroke-miterlimit:10;" x1="764.875" y1="336.5" x2="822.875" y2="336.5"/>
		
			<line id="XMLID_718_" style="opacity:0.12;fill:none;stroke:#000000;stroke-miterlimit:10;" x1="1124.875" y1="341.5" x2="1170.875" y2="341.5"/>
		
			<line id="XMLID_717_" style="opacity:0.12;fill:none;stroke:#000000;stroke-miterlimit:10;" x1="1196.875" y1="374.5" x2="1240.875" y2="374.5"/>
		
			<line id="XMLID_716_" style="opacity:0.12;fill:none;stroke:#000000;stroke-miterlimit:10;" x1="1108.875" y1="363.5" x2="1153.875" y2="363.5"/>
		
			<line id="XMLID_715_" style="opacity:0.12;fill:none;stroke:#000000;stroke-miterlimit:10;" x1="927.875" y1="368.5" x2="975.875" y2="368.5"/>
		
			<line id="XMLID_714_" style="opacity:0.12;fill:none;stroke:#000000;stroke-miterlimit:10;" x1="897.875" y1="358.5" x2="941.875" y2="358.5"/>
		
			<line id="XMLID_713_" style="opacity:0.12;fill:none;stroke:#000000;stroke-miterlimit:10;" x1="1014.875" y1="372.5" x2="1063.875" y2="372.5"/>
		
			<line id="XMLID_712_" style="opacity:0.12;fill:none;stroke:#000000;stroke-miterlimit:10;" x1="840.875" y1="373.5" x2="886.875" y2="373.5"/>
		
			<line id="XMLID_711_" style="opacity:0.12;fill:none;stroke:#000000;stroke-miterlimit:10;" x1="786.875" y1="359.5" x2="832.875" y2="359.5"/>
		
			<line id="XMLID_710_" style="opacity:0.12;fill:none;stroke:#000000;stroke-miterlimit:10;" x1="654.875" y1="362.5" x2="698.875" y2="362.5"/>
		
			<line id="XMLID_709_" style="opacity:0.12;fill:none;stroke:#000000;stroke-miterlimit:10;" x1="682.875" y1="345.5" x2="728.875" y2="345.5"/>
		
			<line id="XMLID_708_" style="opacity:0.12;fill:none;stroke:#000000;stroke-miterlimit:10;" x1="1066.875" y1="333.5" x2="1110.875" y2="333.5"/>
		
			<line id="XMLID_707_" style="opacity:0.12;fill:none;stroke:#000000;stroke-miterlimit:10;" x1="361.875" y1="346.5" x2="407.875" y2="346.5"/>
		
			<line id="XMLID_706_" style="opacity:0.12;fill:none;stroke:#000000;stroke-miterlimit:10;" x1="977.875" y1="340.5" x2="1023.875" y2="340.5"/>
		
			<line id="XMLID_705_" style="opacity:0.12;fill:none;stroke:#000000;stroke-miterlimit:10;" x1="904.875" y1="334.5" x2="952.875" y2="334.5"/>
		
			<line id="XMLID_704_" style="opacity:0.12;fill:none;stroke:#000000;stroke-miterlimit:10;" x1="1215.875" y1="351.5" x2="1259.875" y2="351.5"/>
		
			<line id="XMLID_686_" style="opacity:0.12;fill:none;stroke:#000000;stroke-miterlimit:10;" x1="1204.875" y1="332.5" x2="1248.875" y2="332.5"/>
		
			<line id="XMLID_685_" style="opacity:0.12;fill:none;stroke:#000000;stroke-miterlimit:10;" x1="468.875" y1="334.5" x2="515.875" y2="334.5"/>
		
			<line id="XMLID_684_" style="opacity:0.12;fill:none;stroke:#000000;stroke-miterlimit:10;" x1="429.875" y1="373.5" x2="474.875" y2="373.5"/>
		
			<line id="XMLID_683_" style="opacity:0.12;fill:none;stroke:#000000;stroke-miterlimit:10;" x1="251.875" y1="355.5" x2="298.875" y2="355.5"/>
		
			<line id="XMLID_682_" style="opacity:0.12;fill:none;stroke:#000000;stroke-miterlimit:10;" x1="443.875" y1="355.5" x2="485.875" y2="355.5"/>
		
			<line id="XMLID_681_" style="opacity:0.12;fill:none;stroke:#000000;stroke-miterlimit:10;" x1="193.875" y1="332.5" x2="235.875" y2="332.5"/>
		
			<line id="XMLID_680_" style="opacity:0.12;fill:none;stroke:#000000;stroke-miterlimit:10;" x1="529.875" y1="367.5" x2="571.875" y2="367.5"/>
		
			<line id="XMLID_679_" style="opacity:0.12;fill:none;stroke:#000000;stroke-miterlimit:10;" x1="149.875" y1="365.5" x2="189.875" y2="365.5"/>
		
			<line id="XMLID_678_" style="opacity:0.12;fill:none;stroke:#000000;stroke-miterlimit:10;" x1="601.875" y1="339.5" x2="645.875" y2="339.5"/>
		
			<line id="XMLID_677_" style="opacity:0.12;fill:none;stroke:#000000;stroke-miterlimit:10;" x1="665.875" y1="372.5" x2="759.875" y2="372.5"/>
		
			<line id="XMLID_676_" style="opacity:0.12;fill:none;stroke:#000000;stroke-miterlimit:10;" x1="840.875" y1="347.5" x2="901.875" y2="347.5"/>
		
			<line id="XMLID_675_" style="opacity:0.12;fill:none;stroke:#000000;stroke-miterlimit:10;" x1="558.875" y1="354.5" x2="621.875" y2="354.5"/>
		
			<line id="XMLID_674_" style="opacity:0.12;fill:none;stroke:#000000;stroke-miterlimit:10;" x1="1018.875" y1="352.5" x2="1081.875" y2="352.5"/>
		
			<line id="XMLID_673_" style="opacity:0.12;fill:none;stroke:#000000;stroke-miterlimit:10;" x1="58.875" y1="53.5" x2="96.875" y2="53.5"/>
		
			<line id="XMLID_672_" style="opacity:0.12;fill:none;stroke:#000000;stroke-miterlimit:10;" x1="144.875" y1="38.5" x2="207.875" y2="38.5"/>
		
			<line id="XMLID_671_" style="opacity:0.12;fill:none;stroke:#000000;stroke-miterlimit:10;" x1="312.875" y1="56.5" x2="376.875" y2="56.5"/>
		
			<line id="XMLID_670_" style="opacity:0.12;fill:none;stroke:#000000;stroke-miterlimit:10;" x1="295.875" y1="29.5" x2="355.875" y2="29.5"/>
		
			<line id="XMLID_666_" style="opacity:0.12;fill:none;stroke:#000000;stroke-miterlimit:10;" x1="203.875" y1="66.5" x2="266.875" y2="66.5"/>
		
			<line id="XMLID_665_" style="opacity:0.12;fill:none;stroke:#000000;stroke-miterlimit:10;" x1="80.875" y1="28.5" x2="140.875" y2="28.5"/>
		
			<line id="XMLID_664_" style="opacity:0.12;fill:none;stroke:#000000;stroke-miterlimit:10;" x1="765.875" y1="27.5" x2="826.875" y2="27.5"/>
		
			<line id="XMLID_662_" style="opacity:0.12;fill:none;stroke:#000000;stroke-miterlimit:10;" x1="1128.875" y1="32.5" x2="1173.875" y2="32.5"/>
		
			<line id="XMLID_661_" style="opacity:0.12;fill:none;stroke:#000000;stroke-miterlimit:10;" x1="1197.875" y1="65.5" x2="1244.875" y2="65.5"/>
		
			<line id="XMLID_660_" style="opacity:0.12;fill:none;stroke:#000000;stroke-miterlimit:10;" x1="1110.875" y1="54.5" x2="1156.875" y2="54.5"/>
		
			<line id="XMLID_659_" style="opacity:0.12;fill:none;stroke:#000000;stroke-miterlimit:10;" x1="931.875" y1="59.5" x2="977.875" y2="59.5"/>
		
			<line id="XMLID_658_" style="opacity:0.12;fill:none;stroke:#000000;stroke-miterlimit:10;" x1="898.875" y1="49.5" x2="943.875" y2="49.5"/>
		
			<line id="XMLID_657_" style="opacity:0.12;fill:none;stroke:#000000;stroke-miterlimit:10;" x1="1018.875" y1="63.5" x2="1064.875" y2="63.5"/>
		
			<line id="XMLID_656_" style="opacity:0.12;fill:none;stroke:#000000;stroke-miterlimit:10;" x1="843.875" y1="64.5" x2="889.875" y2="64.5"/>
		
			<line id="XMLID_655_" style="opacity:0.12;fill:none;stroke:#000000;stroke-miterlimit:10;" x1="788.875" y1="50.5" x2="836.875" y2="50.5"/>
		
			<line id="XMLID_654_" style="opacity:0.12;fill:none;stroke:#000000;stroke-miterlimit:10;" x1="658.875" y1="53.5" x2="701.875" y2="53.5"/>
		
			<line id="XMLID_653_" style="opacity:0.12;fill:none;stroke:#000000;stroke-miterlimit:10;" x1="683.875" y1="36.5" x2="730.875" y2="36.5"/>
		
			<line id="XMLID_652_" style="opacity:0.12;fill:none;stroke:#000000;stroke-miterlimit:10;" x1="1070.875" y1="24.5" x2="1114.875" y2="24.5"/>
		
			<line id="XMLID_651_" style="opacity:0.12;fill:none;stroke:#000000;stroke-miterlimit:10;" x1="362.875" y1="37.5" x2="410.875" y2="37.5"/>
		
			<line id="XMLID_650_" style="opacity:0.12;fill:none;stroke:#000000;stroke-miterlimit:10;" x1="981.875" y1="31.5" x2="1024.875" y2="31.5"/>
		
			<line id="XMLID_649_" style="opacity:0.12;fill:none;stroke:#000000;stroke-miterlimit:10;" x1="907.875" y1="25.5" x2="955.875" y2="25.5"/>
		
			<line id="XMLID_648_" style="opacity:0.12;fill:none;stroke:#000000;stroke-miterlimit:10;" x1="1217.875" y1="42.5" x2="1261.875" y2="42.5"/>
		
			<line id="XMLID_647_" style="opacity:0.12;fill:none;stroke:#000000;stroke-miterlimit:10;" x1="1206.875" y1="23.5" x2="1250.875" y2="23.5"/>
		
			<line id="XMLID_646_" style="opacity:0.12;fill:none;stroke:#000000;stroke-miterlimit:10;" x1="472.875" y1="25.5" x2="519.875" y2="25.5"/>
		
			<line id="XMLID_645_" style="opacity:0.12;fill:none;stroke:#000000;stroke-miterlimit:10;" x1="432.875" y1="64.5" x2="477.875" y2="64.5"/>
		
			<line id="XMLID_644_" style="opacity:0.12;fill:none;stroke:#000000;stroke-miterlimit:10;" x1="253.875" y1="46.5" x2="301.875" y2="46.5"/>
		
			<line id="XMLID_643_" style="opacity:0.12;fill:none;stroke:#000000;stroke-miterlimit:10;" x1="444.875" y1="46.5" x2="489.875" y2="46.5"/>
		
			<line id="XMLID_642_" style="opacity:0.12;fill:none;stroke:#000000;stroke-miterlimit:10;" x1="195.875" y1="23.5" x2="236.875" y2="23.5"/>
		
			<line id="XMLID_641_" style="opacity:0.12;fill:none;stroke:#000000;stroke-miterlimit:10;" x1="531.875" y1="58.5" x2="574.875" y2="58.5"/>
		
			<line id="XMLID_640_" style="opacity:0.12;fill:none;stroke:#000000;stroke-miterlimit:10;" x1="151.875" y1="56.5" x2="193.875" y2="56.5"/>
		
			<line id="XMLID_639_" style="opacity:0.12;fill:none;stroke:#000000;stroke-miterlimit:10;" x1="588.875" y1="30.5" x2="629.875" y2="30.5"/>
		
			<line id="XMLID_638_" style="opacity:0.12;fill:none;stroke:#000000;stroke-miterlimit:10;" x1="669.875" y1="63.5" x2="764.875" y2="63.5"/>
		
			<line id="XMLID_602_" style="opacity:0.12;fill:none;stroke:#000000;stroke-miterlimit:10;" x1="843.875" y1="38.5" x2="904.875" y2="38.5"/>
		
			<line id="XMLID_601_" style="opacity:0.12;fill:none;stroke:#000000;stroke-miterlimit:10;" x1="559.875" y1="45.5" x2="625.875" y2="45.5"/>
		
			<line id="XMLID_600_" style="opacity:0.12;fill:none;stroke:#000000;stroke-miterlimit:10;" x1="1020.875" y1="43.5" x2="1082.875" y2="43.5"/>
		
			<line id="XMLID_599_" style="opacity:0.12;fill:none;stroke:#000000;stroke-miterlimit:10;" x1="219.875" y1="12.5" x2="280.875" y2="12.5"/>
		
			<line id="XMLID_598_" style="opacity:0.12;fill:none;stroke:#000000;stroke-miterlimit:10;" x1="1197.875" y1="16.5" x2="1244.875" y2="16.5"/>
		
			<line id="XMLID_597_" style="opacity:0.12;fill:none;stroke:#000000;stroke-miterlimit:10;" x1="1110.875" y1="71.5" x2="1156.875" y2="71.5"/>
		
			<line id="XMLID_596_" style="opacity:0.12;fill:none;stroke:#000000;stroke-miterlimit:10;" x1="931.875" y1="10.5" x2="977.875" y2="10.5"/>
		
			<line id="XMLID_595_" style="opacity:0.12;fill:none;stroke:#000000;stroke-miterlimit:10;" x1="1018.875" y1="14.5" x2="1064.875" y2="14.5"/>
		
			<line id="XMLID_594_" style="opacity:0.12;fill:none;stroke:#000000;stroke-miterlimit:10;" x1="843.875" y1="15.5" x2="889.875" y2="15.5"/>
		
			<line id="XMLID_580_" style="opacity:0.12;fill:none;stroke:#000000;stroke-miterlimit:10;" x1="432.875" y1="15.5" x2="477.875" y2="15.5"/>
		
			<line id="XMLID_579_" style="opacity:0.12;fill:none;stroke:#000000;stroke-miterlimit:10;" x1="352.875" y1="16.5" x2="393.875" y2="16.5"/>
		
			<line id="XMLID_578_" style="opacity:0.12;fill:none;stroke:#000000;stroke-miterlimit:10;" x1="645.875" y1="16.5" x2="740.875" y2="16.5"/>
		
			<line id="XMLID_577_" style="opacity:0.12;fill:none;stroke:#000000;stroke-miterlimit:10;" x1="56.875" y1="453.5" x2="93.875" y2="453.5"/>
		
			<line id="XMLID_576_" style="opacity:0.12;fill:none;stroke:#000000;stroke-miterlimit:10;" x1="141.875" y1="438.5" x2="203.875" y2="438.5"/>
		
			<line id="XMLID_575_" style="opacity:0.12;fill:none;stroke:#000000;stroke-miterlimit:10;" x1="311.875" y1="456.5" x2="374.875" y2="456.5"/>
		
			<line id="XMLID_574_" style="opacity:0.12;fill:none;stroke:#000000;stroke-miterlimit:10;" x1="295.875" y1="429.5" x2="352.875" y2="429.5"/>
		
			<line id="XMLID_573_" style="opacity:0.12;fill:none;stroke:#000000;stroke-miterlimit:10;" x1="200.875" y1="466.5" x2="264.875" y2="466.5"/>
		
			<line id="XMLID_501_" style="opacity:0.12;fill:none;stroke:#000000;stroke-miterlimit:10;" x1="77.875" y1="428.5" x2="137.875" y2="428.5"/>
		
			<line id="XMLID_500_" style="opacity:0.12;fill:none;stroke:#000000;stroke-miterlimit:10;" x1="764.875" y1="427.5" x2="822.875" y2="427.5"/>
		
			<line id="XMLID_499_" style="opacity:0.12;fill:none;stroke:#000000;stroke-miterlimit:10;" x1="1124.875" y1="432.5" x2="1170.875" y2="432.5"/>
		
			<line id="XMLID_498_" style="opacity:0.12;fill:none;stroke:#000000;stroke-miterlimit:10;" x1="1196.875" y1="465.5" x2="1240.875" y2="465.5"/>
		
			<line id="XMLID_497_" style="opacity:0.12;fill:none;stroke:#000000;stroke-miterlimit:10;" x1="1108.875" y1="454.5" x2="1153.875" y2="454.5"/>
		
			<line id="XMLID_496_" style="opacity:0.12;fill:none;stroke:#000000;stroke-miterlimit:10;" x1="927.875" y1="459.5" x2="975.875" y2="459.5"/>
		
			<line id="XMLID_495_" style="opacity:0.12;fill:none;stroke:#000000;stroke-miterlimit:10;" x1="897.875" y1="449.5" x2="941.875" y2="449.5"/>
		
			<line id="XMLID_494_" style="opacity:0.12;fill:none;stroke:#000000;stroke-miterlimit:10;" x1="1014.875" y1="463.5" x2="1063.875" y2="463.5"/>
		
			<line id="XMLID_493_" style="opacity:0.12;fill:none;stroke:#000000;stroke-miterlimit:10;" x1="840.875" y1="464.5" x2="886.875" y2="464.5"/>
		
			<line id="XMLID_492_" style="opacity:0.12;fill:none;stroke:#000000;stroke-miterlimit:10;" x1="786.875" y1="450.5" x2="832.875" y2="450.5"/>
		
			<line id="XMLID_491_" style="opacity:0.12;fill:none;stroke:#000000;stroke-miterlimit:10;" x1="654.875" y1="453.5" x2="698.875" y2="453.5"/>
		
			<line id="XMLID_490_" style="opacity:0.12;fill:none;stroke:#000000;stroke-miterlimit:10;" x1="682.875" y1="436.5" x2="728.875" y2="436.5"/>
		
			<line id="XMLID_489_" style="opacity:0.12;fill:none;stroke:#000000;stroke-miterlimit:10;" x1="1066.875" y1="424.5" x2="1110.875" y2="424.5"/>
		
			<line id="XMLID_488_" style="opacity:0.12;fill:none;stroke:#000000;stroke-miterlimit:10;" x1="361.875" y1="437.5" x2="407.875" y2="437.5"/>
		
			<line id="XMLID_487_" style="opacity:0.12;fill:none;stroke:#000000;stroke-miterlimit:10;" x1="977.875" y1="431.5" x2="1023.875" y2="431.5"/>
		
			<line id="XMLID_486_" style="opacity:0.12;fill:none;stroke:#000000;stroke-miterlimit:10;" x1="904.875" y1="425.5" x2="952.875" y2="425.5"/>
		
			<line id="XMLID_362_" style="opacity:0.12;fill:none;stroke:#000000;stroke-miterlimit:10;" x1="1215.875" y1="442.5" x2="1259.875" y2="442.5"/>
		
			<line id="XMLID_356_" style="opacity:0.12;fill:none;stroke:#000000;stroke-miterlimit:10;" x1="1204.875" y1="423.5" x2="1248.875" y2="423.5"/>
		
			<line id="XMLID_236_" style="opacity:0.12;fill:none;stroke:#000000;stroke-miterlimit:10;" x1="468.875" y1="425.5" x2="515.875" y2="425.5"/>
		
			<line id="XMLID_227_" style="opacity:0.12;fill:none;stroke:#000000;stroke-miterlimit:10;" x1="429.875" y1="464.5" x2="474.875" y2="464.5"/>
		
			<line id="XMLID_226_" style="opacity:0.12;fill:none;stroke:#000000;stroke-miterlimit:10;" x1="251.875" y1="446.5" x2="298.875" y2="446.5"/>
		
			<line id="XMLID_225_" style="opacity:0.12;fill:none;stroke:#000000;stroke-miterlimit:10;" x1="443.875" y1="446.5" x2="486.875" y2="446.5"/>
		
			<line id="XMLID_222_" style="opacity:0.12;fill:none;stroke:#000000;stroke-miterlimit:10;" x1="193.875" y1="423.5" x2="235.875" y2="423.5"/>
		
			<line id="XMLID_221_" style="opacity:0.12;fill:none;stroke:#000000;stroke-miterlimit:10;" x1="529.875" y1="458.5" x2="571.875" y2="458.5"/>
		
			<line id="XMLID_205_" style="opacity:0.12;fill:none;stroke:#000000;stroke-miterlimit:10;" x1="149.875" y1="456.5" x2="189.875" y2="456.5"/>
		
			<line id="XMLID_202_" style="opacity:0.12;fill:none;stroke:#000000;stroke-miterlimit:10;" x1="584.875" y1="430.5" x2="626.875" y2="430.5"/>
		
			<line id="XMLID_201_" style="opacity:0.12;fill:none;stroke:#000000;stroke-miterlimit:10;" x1="665.875" y1="463.5" x2="759.875" y2="463.5"/>
		
			<line id="XMLID_200_" style="opacity:0.12;fill:none;stroke:#000000;stroke-miterlimit:10;" x1="840.875" y1="438.5" x2="901.875" y2="438.5"/>
		
			<line id="XMLID_196_" style="opacity:0.12;fill:none;stroke:#000000;stroke-miterlimit:10;" x1="558.875" y1="445.5" x2="621.875" y2="445.5"/>
		
			<line id="XMLID_163_" style="opacity:0.12;fill:none;stroke:#000000;stroke-miterlimit:10;" x1="1018.875" y1="443.5" x2="1081.875" y2="443.5"/>
		
			<line id="XMLID_123_" style="opacity:0.12;fill:none;stroke:#000000;stroke-miterlimit:10;" x1="216.875" y1="412.5" x2="279.875" y2="412.5"/>
		
			<line id="XMLID_122_" style="opacity:0.12;fill:none;stroke:#000000;stroke-miterlimit:10;" x1="1196.875" y1="416.5" x2="1240.875" y2="416.5"/>
		
			<line id="XMLID_83_" style="opacity:0.12;fill:none;stroke:#000000;stroke-miterlimit:10;" x1="927.875" y1="410.5" x2="975.875" y2="410.5"/>
		
			<line id="XMLID_81_" style="opacity:0.12;fill:none;stroke:#000000;stroke-miterlimit:10;" x1="1014.875" y1="414.5" x2="1063.875" y2="414.5"/>
		
			<line id="XMLID_66_" style="opacity:0.12;fill:none;stroke:#000000;stroke-miterlimit:10;" x1="840.875" y1="415.5" x2="886.875" y2="415.5"/>
		
			<line id="XMLID_34_" style="opacity:0.12;fill:none;stroke:#000000;stroke-miterlimit:10;" x1="429.875" y1="415.5" x2="474.875" y2="415.5"/>
		
			<line id="XMLID_32_" style="opacity:0.12;fill:none;stroke:#000000;stroke-miterlimit:10;" x1="351.875" y1="416.5" x2="392.875" y2="416.5"/>
		
			<line id="XMLID_1_" style="opacity:0.12;fill:none;stroke:#000000;stroke-miterlimit:10;" x1="641.875" y1="416.5" x2="736.875" y2="416.5"/>
		
			<line id="XMLID_1123_" style="opacity:0.12;fill:none;stroke:#000000;stroke-miterlimit:10;" x1="1554.875" y1="118.5" x2="1600.875" y2="118.5"/>
		
			<line id="XMLID_1122_" style="opacity:0.12;fill:none;stroke:#000000;stroke-miterlimit:10;" x1="1626.875" y1="151.5" x2="1669.875" y2="151.5"/>
		
			<line id="XMLID_1121_" style="opacity:0.12;fill:none;stroke:#000000;stroke-miterlimit:10;" x1="1538.875" y1="140.5" x2="1583.875" y2="140.5"/>
		
			<line id="XMLID_1120_" style="opacity:0.12;fill:none;stroke:#000000;stroke-miterlimit:10;" x1="1357.875" y1="145.5" x2="1405.875" y2="145.5"/>
		
			<line id="XMLID_1119_" style="opacity:0.12;fill:none;stroke:#000000;stroke-miterlimit:10;" x1="1327.875" y1="135.5" x2="1371.875" y2="135.5"/>
		
			<line id="XMLID_1118_" style="opacity:0.12;fill:none;stroke:#000000;stroke-miterlimit:10;" x1="1443.875" y1="149.5" x2="1493.875" y2="149.5"/>
		
			<line id="XMLID_1117_" style="opacity:0.12;fill:none;stroke:#000000;stroke-miterlimit:10;" x1="1270.875" y1="150.5" x2="1316.875" y2="150.5"/>
		
			<line id="XMLID_1116_" style="opacity:0.12;fill:none;stroke:#000000;stroke-miterlimit:10;" x1="1496.875" y1="110.5" x2="1540.875" y2="110.5"/>
		
			<line id="XMLID_1113_" style="opacity:0.12;fill:none;stroke:#000000;stroke-miterlimit:10;" x1="1407.875" y1="117.5" x2="1452.875" y2="117.5"/>
		
			<line id="XMLID_1112_" style="opacity:0.12;fill:none;stroke:#000000;stroke-miterlimit:10;" x1="1333.875" y1="111.5" x2="1382.875" y2="111.5"/>
		
			<line id="XMLID_1110_" style="opacity:0.12;fill:none;stroke:#000000;stroke-miterlimit:10;" x1="1644.875" y1="128.5" x2="1689.875" y2="128.5"/>
		
			<line id="XMLID_1109_" style="opacity:0.12;fill:none;stroke:#000000;stroke-miterlimit:10;" x1="1634.875" y1="109.5" x2="1678.875" y2="109.5"/>
		
			<line id="XMLID_1108_" style="opacity:0.12;fill:none;stroke:#000000;stroke-miterlimit:10;" x1="1270.875" y1="124.5" x2="1331.875" y2="124.5"/>
		
			<line id="XMLID_1105_" style="opacity:0.12;fill:none;stroke:#000000;stroke-miterlimit:10;" x1="1447.875" y1="129.5" x2="1511.875" y2="129.5"/>
		
			<line id="XMLID_1100_" style="opacity:0.12;fill:none;stroke:#000000;stroke-miterlimit:10;" x1="1554.875" y1="193.5" x2="1600.875" y2="193.5"/>
		
			<line id="XMLID_1096_" style="opacity:0.12;fill:none;stroke:#000000;stroke-miterlimit:10;" x1="1626.875" y1="226.5" x2="1669.875" y2="226.5"/>
		
			<line id="XMLID_1095_" style="opacity:0.12;fill:none;stroke:#000000;stroke-miterlimit:10;" x1="1538.875" y1="215.5" x2="1583.875" y2="215.5"/>
		
			<line id="XMLID_1090_" style="opacity:0.12;fill:none;stroke:#000000;stroke-miterlimit:10;" x1="1357.875" y1="220.5" x2="1405.875" y2="220.5"/>
		
			<line id="XMLID_1088_" style="opacity:0.12;fill:none;stroke:#000000;stroke-miterlimit:10;" x1="1327.875" y1="210.5" x2="1371.875" y2="210.5"/>
		
			<line id="XMLID_1083_" style="opacity:0.12;fill:none;stroke:#000000;stroke-miterlimit:10;" x1="1443.875" y1="224.5" x2="1493.875" y2="224.5"/>
		
			<line id="XMLID_1082_" style="opacity:0.12;fill:none;stroke:#000000;stroke-miterlimit:10;" x1="1270.875" y1="225.5" x2="1316.875" y2="225.5"/>
		
			<line id="XMLID_1081_" style="opacity:0.12;fill:none;stroke:#000000;stroke-miterlimit:10;" x1="1496.875" y1="185.5" x2="1540.875" y2="185.5"/>
		
			<line id="XMLID_1078_" style="opacity:0.12;fill:none;stroke:#000000;stroke-miterlimit:10;" x1="1407.875" y1="192.5" x2="1452.875" y2="192.5"/>
		
			<line id="XMLID_1077_" style="opacity:0.12;fill:none;stroke:#000000;stroke-miterlimit:10;" x1="1333.875" y1="186.5" x2="1382.875" y2="186.5"/>
		
			<line id="XMLID_1075_" style="opacity:0.12;fill:none;stroke:#000000;stroke-miterlimit:10;" x1="1644.875" y1="203.5" x2="1689.875" y2="203.5"/>
		
			<line id="XMLID_1074_" style="opacity:0.12;fill:none;stroke:#000000;stroke-miterlimit:10;" x1="1634.875" y1="184.5" x2="1678.875" y2="184.5"/>
		
			<line id="XMLID_1073_" style="opacity:0.12;fill:none;stroke:#000000;stroke-miterlimit:10;" x1="1270.875" y1="199.5" x2="1331.875" y2="199.5"/>
		
			<line id="XMLID_1070_" style="opacity:0.12;fill:none;stroke:#000000;stroke-miterlimit:10;" x1="1447.875" y1="204.5" x2="1511.875" y2="204.5"/>
		
			<line id="XMLID_1065_" style="opacity:0.12;fill:none;stroke:#000000;stroke-miterlimit:10;" x1="1554.875" y1="266.5" x2="1600.875" y2="266.5"/>
		
			<line id="XMLID_1061_" style="opacity:0.12;fill:none;stroke:#000000;stroke-miterlimit:10;" x1="1626.875" y1="299.5" x2="1669.875" y2="299.5"/>
		
			<line id="XMLID_1060_" style="opacity:0.12;fill:none;stroke:#000000;stroke-miterlimit:10;" x1="1538.875" y1="288.5" x2="1583.875" y2="288.5"/>
		
			<line id="XMLID_1055_" style="opacity:0.12;fill:none;stroke:#000000;stroke-miterlimit:10;" x1="1357.875" y1="293.5" x2="1405.875" y2="293.5"/>
		
			<line id="XMLID_1053_" style="opacity:0.12;fill:none;stroke:#000000;stroke-miterlimit:10;" x1="1327.875" y1="283.5" x2="1371.875" y2="283.5"/>
		
			<line id="XMLID_1048_" style="opacity:0.12;fill:none;stroke:#000000;stroke-miterlimit:10;" x1="1443.875" y1="297.5" x2="1493.875" y2="297.5"/>
		
			<line id="XMLID_1047_" style="opacity:0.12;fill:none;stroke:#000000;stroke-miterlimit:10;" x1="1270.875" y1="298.5" x2="1316.875" y2="298.5"/>
		
			<line id="XMLID_1046_" style="opacity:0.12;fill:none;stroke:#000000;stroke-miterlimit:10;" x1="1496.875" y1="258.5" x2="1540.875" y2="258.5"/>
		
			<line id="XMLID_1043_" style="opacity:0.12;fill:none;stroke:#000000;stroke-miterlimit:10;" x1="1407.875" y1="265.5" x2="1452.875" y2="265.5"/>
		
			<line id="XMLID_1042_" style="opacity:0.12;fill:none;stroke:#000000;stroke-miterlimit:10;" x1="1333.875" y1="259.5" x2="1382.875" y2="259.5"/>
		
			<line id="XMLID_1040_" style="opacity:0.12;fill:none;stroke:#000000;stroke-miterlimit:10;" x1="1644.875" y1="276.5" x2="1689.875" y2="276.5"/>
		
			<line id="XMLID_1039_" style="opacity:0.12;fill:none;stroke:#000000;stroke-miterlimit:10;" x1="1634.875" y1="257.5" x2="1678.875" y2="257.5"/>
		
			<line id="XMLID_1038_" style="opacity:0.12;fill:none;stroke:#000000;stroke-miterlimit:10;" x1="1270.875" y1="272.5" x2="1331.875" y2="272.5"/>
		
			<line id="XMLID_1035_" style="opacity:0.12;fill:none;stroke:#000000;stroke-miterlimit:10;" x1="1447.875" y1="277.5" x2="1511.875" y2="277.5"/>
		
			<line id="XMLID_1030_" style="opacity:0.12;fill:none;stroke:#000000;stroke-miterlimit:10;" x1="1554.875" y1="346.5" x2="1600.875" y2="346.5"/>
		
			<line id="XMLID_1026_" style="opacity:0.12;fill:none;stroke:#000000;stroke-miterlimit:10;" x1="1626.875" y1="379.5" x2="1669.875" y2="379.5"/>
		
			<line id="XMLID_1025_" style="opacity:0.12;fill:none;stroke:#000000;stroke-miterlimit:10;" x1="1538.875" y1="368.5" x2="1583.875" y2="368.5"/>
		
			<line id="XMLID_1020_" style="opacity:0.12;fill:none;stroke:#000000;stroke-miterlimit:10;" x1="1357.875" y1="373.5" x2="1405.875" y2="373.5"/>
		
			<line id="XMLID_1018_" style="opacity:0.12;fill:none;stroke:#000000;stroke-miterlimit:10;" x1="1327.875" y1="363.5" x2="1371.875" y2="363.5"/>
		
			<line id="XMLID_1013_" style="opacity:0.12;fill:none;stroke:#000000;stroke-miterlimit:10;" x1="1443.875" y1="377.5" x2="1493.875" y2="377.5"/>
		
			<line id="XMLID_1012_" style="opacity:0.12;fill:none;stroke:#000000;stroke-miterlimit:10;" x1="1270.875" y1="378.5" x2="1316.875" y2="378.5"/>
		
			<line id="XMLID_1011_" style="opacity:0.12;fill:none;stroke:#000000;stroke-miterlimit:10;" x1="1496.875" y1="338.5" x2="1540.875" y2="338.5"/>
		
			<line id="XMLID_1008_" style="opacity:0.12;fill:none;stroke:#000000;stroke-miterlimit:10;" x1="1407.875" y1="345.5" x2="1452.875" y2="345.5"/>
		
			<line id="XMLID_1007_" style="opacity:0.12;fill:none;stroke:#000000;stroke-miterlimit:10;" x1="1333.875" y1="339.5" x2="1382.875" y2="339.5"/>
		
			<line id="XMLID_1005_" style="opacity:0.12;fill:none;stroke:#000000;stroke-miterlimit:10;" x1="1644.875" y1="356.5" x2="1689.875" y2="356.5"/>
		
			<line id="XMLID_1004_" style="opacity:0.12;fill:none;stroke:#000000;stroke-miterlimit:10;" x1="1634.875" y1="337.5" x2="1678.875" y2="337.5"/>
		
			<line id="XMLID_889_" style="opacity:0.12;fill:none;stroke:#000000;stroke-miterlimit:10;" x1="1270.875" y1="352.5" x2="1331.875" y2="352.5"/>
		
			<line id="XMLID_888_" style="opacity:0.12;fill:none;stroke:#000000;stroke-miterlimit:10;" x1="1447.875" y1="357.5" x2="1511.875" y2="357.5"/>
		
			<line id="XMLID_887_" style="opacity:0.12;fill:none;stroke:#000000;stroke-miterlimit:10;" x1="1557.875" y1="37.5" x2="1603.875" y2="37.5"/>
		
			<line id="XMLID_886_" style="opacity:0.12;fill:none;stroke:#000000;stroke-miterlimit:10;" x1="1627.875" y1="70.5" x2="1673.875" y2="70.5"/>
		
			<line id="XMLID_885_" style="opacity:0.12;fill:none;stroke:#000000;stroke-miterlimit:10;" x1="1540.875" y1="59.5" x2="1585.875" y2="59.5"/>
		
			<line id="XMLID_884_" style="opacity:0.12;fill:none;stroke:#000000;stroke-miterlimit:10;" x1="1360.875" y1="64.5" x2="1407.875" y2="64.5"/>
		
			<line id="XMLID_883_" style="opacity:0.12;fill:none;stroke:#000000;stroke-miterlimit:10;" x1="1328.875" y1="54.5" x2="1373.875" y2="54.5"/>
		
			<line id="XMLID_882_" style="opacity:0.12;fill:none;stroke:#000000;stroke-miterlimit:10;" x1="1447.875" y1="68.5" x2="1494.875" y2="68.5"/>
		
			<line id="XMLID_881_" style="opacity:0.12;fill:none;stroke:#000000;stroke-miterlimit:10;" x1="1273.875" y1="69.5" x2="1319.875" y2="69.5"/>
		
			<line id="XMLID_880_" style="opacity:0.12;fill:none;stroke:#000000;stroke-miterlimit:10;" x1="1499.875" y1="29.5" x2="1544.875" y2="29.5"/>
		
			<line id="XMLID_879_" style="opacity:0.12;fill:none;stroke:#000000;stroke-miterlimit:10;" x1="1411.875" y1="36.5" x2="1454.875" y2="36.5"/>
		
			<line id="XMLID_878_" style="opacity:0.12;fill:none;stroke:#000000;stroke-miterlimit:10;" x1="1336.875" y1="30.5" x2="1385.875" y2="30.5"/>
		
			<line id="XMLID_877_" style="opacity:0.12;fill:none;stroke:#000000;stroke-miterlimit:10;" x1="1646.875" y1="47.5" x2="1691.875" y2="47.5"/>
		
			<line id="XMLID_876_" style="opacity:0.12;fill:none;stroke:#000000;stroke-miterlimit:10;" x1="1636.875" y1="28.5" x2="1680.875" y2="28.5"/>
		
			<line id="XMLID_875_" style="opacity:0.12;fill:none;stroke:#000000;stroke-miterlimit:10;" x1="1273.875" y1="43.5" x2="1333.875" y2="43.5"/>
		
			<line id="XMLID_874_" style="opacity:0.12;fill:none;stroke:#000000;stroke-miterlimit:10;" x1="1449.875" y1="48.5" x2="1512.875" y2="48.5"/>
		
			<line id="XMLID_873_" style="opacity:0.12;fill:none;stroke:#000000;stroke-miterlimit:10;" x1="1627.875" y1="21.5" x2="1673.875" y2="21.5"/>
		
			<line id="XMLID_872_" style="opacity:0.12;fill:none;stroke:#000000;stroke-miterlimit:10;" x1="1540.875" y1="76.5" x2="1585.875" y2="76.5"/>
		
			<line id="XMLID_871_" style="opacity:0.12;fill:none;stroke:#000000;stroke-miterlimit:10;" x1="1360.875" y1="15.5" x2="1407.875" y2="15.5"/>
		
			<line id="XMLID_870_" style="opacity:0.12;fill:none;stroke:#000000;stroke-miterlimit:10;" x1="1447.875" y1="19.5" x2="1494.875" y2="19.5"/>
		
			<line id="XMLID_869_" style="opacity:0.12;fill:none;stroke:#000000;stroke-miterlimit:10;" x1="1273.875" y1="20.5" x2="1319.875" y2="20.5"/>
		
			<line id="XMLID_868_" style="opacity:0.12;fill:none;stroke:#000000;stroke-miterlimit:10;" x1="1554.875" y1="437.5" x2="1600.875" y2="437.5"/>
		
			<line id="XMLID_867_" style="opacity:0.12;fill:none;stroke:#000000;stroke-miterlimit:10;" x1="1626.875" y1="470.5" x2="1669.875" y2="470.5"/>
		
			<line id="XMLID_866_" style="opacity:0.12;fill:none;stroke:#000000;stroke-miterlimit:10;" x1="1538.875" y1="459.5" x2="1583.875" y2="459.5"/>
		
			<line id="XMLID_865_" style="opacity:0.12;fill:none;stroke:#000000;stroke-miterlimit:10;" x1="1357.875" y1="464.5" x2="1405.875" y2="464.5"/>
		
			<line id="XMLID_864_" style="opacity:0.12;fill:none;stroke:#000000;stroke-miterlimit:10;" x1="1327.875" y1="454.5" x2="1371.875" y2="454.5"/>
		
			<line id="XMLID_863_" style="opacity:0.12;fill:none;stroke:#000000;stroke-miterlimit:10;" x1="1443.875" y1="468.5" x2="1493.875" y2="468.5"/>
		
			<line id="XMLID_862_" style="opacity:0.12;fill:none;stroke:#000000;stroke-miterlimit:10;" x1="1270.875" y1="469.5" x2="1316.875" y2="469.5"/>
		
			<line id="XMLID_861_" style="opacity:0.12;fill:none;stroke:#000000;stroke-miterlimit:10;" x1="1496.875" y1="429.5" x2="1540.875" y2="429.5"/>
		
			<line id="XMLID_860_" style="opacity:0.12;fill:none;stroke:#000000;stroke-miterlimit:10;" x1="1407.875" y1="436.5" x2="1452.875" y2="436.5"/>
		
			<line id="XMLID_859_" style="opacity:0.12;fill:none;stroke:#000000;stroke-miterlimit:10;" x1="1333.875" y1="430.5" x2="1382.875" y2="430.5"/>
		
			<line id="XMLID_858_" style="opacity:0.12;fill:none;stroke:#000000;stroke-miterlimit:10;" x1="1644.875" y1="447.5" x2="1689.875" y2="447.5"/>
		
			<line id="XMLID_857_" style="opacity:0.12;fill:none;stroke:#000000;stroke-miterlimit:10;" x1="1634.875" y1="428.5" x2="1678.875" y2="428.5"/>
		
			<line id="XMLID_856_" style="opacity:0.12;fill:none;stroke:#000000;stroke-miterlimit:10;" x1="1270.875" y1="443.5" x2="1331.875" y2="443.5"/>
		
			<line id="XMLID_855_" style="opacity:0.12;fill:none;stroke:#000000;stroke-miterlimit:10;" x1="1447.875" y1="448.5" x2="1511.875" y2="448.5"/>
		
			<line id="XMLID_854_" style="opacity:0.12;fill:none;stroke:#000000;stroke-miterlimit:10;" x1="1626.875" y1="421.5" x2="1669.875" y2="421.5"/>
		
			<line id="XMLID_853_" style="opacity:0.12;fill:none;stroke:#000000;stroke-miterlimit:10;" x1="1357.875" y1="415.5" x2="1405.875" y2="415.5"/>
		
			<line id="XMLID_852_" style="opacity:0.12;fill:none;stroke:#000000;stroke-miterlimit:10;" x1="1443.875" y1="419.5" x2="1493.875" y2="419.5"/>
		
			<line id="XMLID_851_" style="opacity:0.12;fill:none;stroke:#000000;stroke-miterlimit:10;" x1="1270.875" y1="420.5" x2="1316.875" y2="420.5"/>
	</g>
</g>
<g id="Layer_1">
</g>
</svg>
