<svg id="Layer_1" data-name="Layer 1" xmlns="http://www.w3.org/2000/svg" viewBox="0 0 300 300"><defs><style>.cls-1{fill:#000;}</style></defs><title>shop_icon</title><path class="cls-1" d="M109.57,210.63c-16.2,0-32.4.06-48.59,0-6.6,0-10.27-5.09-7.82-10.6,1.73-3.86,5.16-4.35,9-4.35q56.85.09,113.7,0a38.56,38.56,0,0,0,8.18-.74c3.72-.82,6.59-2.95,7-7.09.4-4.39-2.31-6.87-6-8.46a18.87,18.87,0,0,0-4.65-1.33Q138.15,171.59,96,165.23c-13.08-2-26.13-4.11-39.23-5.94-5.65-.79-9.14-3.27-10.26-9.14-.87-4.59-2.34-9.08-3.67-13.58-4.46-15-9-30.06-13.44-45.12-2-6.66,1.13-10.67,8.07-10.91,1.46-.05,2.91,0,4.37,0,51.18,0,102.37-.08,153.55.14,4.87,0,6.85-1.53,7.82-6s2.59-9,4-13.48c3.66-11.5,11.38-18.51,23.5-19.36,10.32-.71,20.7-.46,31.06-.52,6,0,9.41,2.75,9.5,7.41.09,4.81-3.53,7.7-9.68,7.72-8.25,0-16.51-.24-24.74.08-8.78.33-13.7,4-16,11.66-9.2,30.85-18.26,61.74-27.51,92.58-1,3.5-.29,5.36,2.77,7.54,9.65,6.89,12.79,18.29,8,28.31s-13.46,14-24.12,14c-19.59.1-39.19,0-58.79,0Zm14-114.8v22.71l30.93,1.54c1.38-8.17,2.71-16,4.11-24.25Zm63.06,25.77a3.57,3.57,0,0,0,2.83-1.75c2.5-7.81,4.77-15.7,7.24-24H166.3c-1.35,8-2.69,15.92-4.16,24.6C170.83,120.89,178.73,121.36,186.63,121.6ZM115.52,95.91H81.1c1.05,6.49,2,12.79,3.22,19,.15.78,1.85,1.72,2.88,1.78,9.3.56,18.6.94,28.32,1.4Zm59.18,65.9c1,.12,2.91-1.74,3.31-3,2.11-6.95,3.88-14,6-21.86l-24.22-1.58c-1.32,7.87-2.61,15.55-3.95,23.5C162.36,159.93,168.5,161.12,174.7,161.81Zm-51.46-28.05c0,6.23-.13,12,.12,17.69a4,4,0,0,0,2.66,2.68c7.26,1.33,14.56,2.38,22.31,3.59,1.24-7.61,2.4-14.72,3.68-22.64ZM73.71,98.27a4.31,4.31,0,0,0-3.12-2.6c-7.73-.23-15.46-.12-24.14-.12C48.34,102,50,107.9,51.9,113.77c.2.62,1.46,1.24,2.26,1.29,7.22.44,14.44.76,22.54,1.15C75.65,109.66,74.88,103.93,73.71,98.27Zm13.38,33.61c1,5.84,2,11,3,16.86l25.35,4.1V133.28Zm-30.35-1.51c1.37,4.41,2.45,8.23,3.79,12a3.78,3.78,0,0,0,2.31,2.14c6.11,1.18,12.27,2.15,19.2,3.32l-2.81-16.27Z"/><path class="cls-1" d="M85.4,214a22.71,22.71,0,0,1,22.41,22.21c.08,12.08-10.67,22.73-22.7,22.48A22.35,22.35,0,0,1,85.4,214Zm7.12,22.44a7.16,7.16,0,0,0-14.32-.26,7.16,7.16,0,0,0,14.32.26Z"/><path class="cls-1" d="M163.85,258.73A22.36,22.36,0,1,1,164.2,214a22.36,22.36,0,0,1-.35,44.71Zm.14-15.28a7.11,7.11,0,1,0-.13-14.21,7.11,7.11,0,1,0,.13,14.21Z"/></svg>