<svg id="Layer_1" data-name="Layer 1" xmlns="http://www.w3.org/2000/svg" viewBox="0 0 300 100"><title>title_watercraft</title><path d="M30.37,55.71l-5.62-18c-.36-1.1-1-3.59-2-7.49h-.22q-1.12,4.89-2,7.55L14.8,55.71H9.43L1.07,25.07H5.93q3,11.55,4.52,17.58a72.16,72.16,0,0,1,1.77,8.14h.23c.2-1.06.53-2.44,1-4.13s.85-3,1.19-4l5.62-17.58h5l5.48,17.58a59.57,59.57,0,0,1,2.12,8.08h.23a27.59,27.59,0,0,1,.6-3.1q.48-2.1,5.82-22.56h4.81L35.87,55.71Z"/><path d="M68.72,55.71l-.92-4.36h-.23A12.89,12.89,0,0,1,63,55.25a13.92,13.92,0,0,1-5.69,1,10.28,10.28,0,0,1-7.14-2.35,8.58,8.58,0,0,1-2.58-6.68q0-9.29,14.84-9.73l5.2-.17v-1.9c0-2.4-.52-4.18-1.55-5.32s-2.69-1.72-5-1.72a20.25,20.25,0,0,0-8.67,2.34L51,27.19a21.56,21.56,0,0,1,5-1.92,21.25,21.25,0,0,1,5.41-.7c3.65,0,6.35.81,8.12,2.43s2.64,4.22,2.64,7.8V55.71ZM58.24,52.44A9.44,9.44,0,0,0,65,50.06a8.78,8.78,0,0,0,2.48-6.65V40.64l-4.64.2q-5.54.19-8,1.72a5.15,5.15,0,0,0-2.45,4.73A4.79,4.79,0,0,0,54,51.12,6.32,6.32,0,0,0,58.24,52.44Z"/><path d="M91.61,52.44A14.25,14.25,0,0,0,94,52.25a15.84,15.84,0,0,0,1.82-.37v3.55a8.78,8.78,0,0,1-2.23.6,16.45,16.45,0,0,1-2.64.24q-8.88,0-8.89-9.37V28.68H77.66V26.44l4.39-1.93L84,18h2.68v7.1h8.89v3.61H86.69v18A6.2,6.2,0,0,0,88,51,4.57,4.57,0,0,0,91.61,52.44Z"/><path d="M114.87,56.27q-6.8,0-10.72-4.14t-3.93-11.49q0-7.41,3.65-11.77a12.11,12.11,0,0,1,9.8-4.36,11.52,11.52,0,0,1,9.11,3.79q3.36,3.78,3.36,10v2.94H105q.14,5.39,2.73,8.19A9.43,9.43,0,0,0,115,52.21a24.62,24.62,0,0,0,9.78-2.07v4.14a23.91,23.91,0,0,1-4.65,1.52A25.92,25.92,0,0,1,114.87,56.27ZM113.61,28.4a7.57,7.57,0,0,0-5.88,2.4,11.09,11.09,0,0,0-2.59,6.65h16q0-4.38-2-6.72A6.86,6.86,0,0,0,113.61,28.4Z"/><path d="M148,24.51a17.84,17.84,0,0,1,3.67.34l-.65,4.3a15.68,15.68,0,0,0-3.35-.42,8.17,8.17,0,0,0-6.36,3,11,11,0,0,0-2.64,7.52V55.71h-4.64V25.07h3.83l.53,5.67h.22a13.55,13.55,0,0,1,4.11-4.61A9.24,9.24,0,0,1,148,24.51Z"/><path d="M169.66,56.27q-6.65,0-10.3-4.1t-3.65-11.59q0-7.68,3.71-11.88T170,24.51a20.68,20.68,0,0,1,4.41.48,14.61,14.61,0,0,1,3.47,1.11l-1.42,3.95a22.08,22.08,0,0,0-3.36-1,15,15,0,0,0-3.21-.41q-9.35,0-9.34,11.91,0,5.64,2.28,8.66a7.91,7.91,0,0,0,6.75,3,20.61,20.61,0,0,0,7.85-1.65v4.11A16.63,16.63,0,0,1,169.66,56.27Z"/><path d="M198.65,24.51a17.67,17.67,0,0,1,3.66.34l-.64,4.3a15.84,15.84,0,0,0-3.36-.42,8.17,8.17,0,0,0-6.36,3,11,11,0,0,0-2.64,7.52V55.71h-4.64V25.07h3.83l.53,5.67h.23a13.35,13.35,0,0,1,4.11-4.61A9.24,9.24,0,0,1,198.65,24.51Z"/><path d="M226.88,55.71,226,51.35h-.22a12.89,12.89,0,0,1-4.57,3.9,14,14,0,0,1-5.69,1,10.24,10.24,0,0,1-7.14-2.35,8.55,8.55,0,0,1-2.59-6.68q0-9.29,14.84-9.73l5.2-.17v-1.9c0-2.4-.51-4.18-1.55-5.32s-2.69-1.72-5-1.72a20.32,20.32,0,0,0-8.67,2.34l-1.42-3.55a22.44,22.44,0,0,1,10.37-2.62q5.48,0,8.12,2.43t2.64,7.8V55.71ZM216.4,52.44a9.44,9.44,0,0,0,6.81-2.38,8.77,8.77,0,0,0,2.47-6.65V40.64l-4.64.2q-5.53.19-8,1.72a5.17,5.17,0,0,0-2.45,4.73,4.76,4.76,0,0,0,1.53,3.83A6.28,6.28,0,0,0,216.4,52.44Z"/><path d="M253.69,28.68h-7.8v27h-4.64v-27h-5.48v-2.1l5.48-1.68V23.2q0-11.29,9.87-11.3a20.39,20.39,0,0,1,5.7,1l-1.2,3.72a15.32,15.32,0,0,0-4.59-.87,4.47,4.47,0,0,0-3.88,1.75c-.84,1.17-1.26,3-1.26,5.6v2h7.8Z"/><path d="M269.18,52.44a14,14,0,0,0,2.37-.19,15.4,15.4,0,0,0,1.82-.37v3.55a8.56,8.56,0,0,1-2.22.6,16.55,16.55,0,0,1-2.64.24q-8.89,0-8.89-9.37V28.68h-4.39V26.44l4.39-1.93L261.57,18h2.69v7.1h8.89v3.61h-8.89v18A6.2,6.2,0,0,0,265.57,51,4.61,4.61,0,0,0,269.18,52.44Z"/><path d="M8.3,87.49a6,6,0,0,1-4.72-1.88A7.72,7.72,0,0,1,1.9,80.29a8,8,0,0,1,1.7-5.45,6.14,6.14,0,0,1,4.84-1.92,9.92,9.92,0,0,1,2,.21,6.56,6.56,0,0,1,1.59.52l-.65,1.81A9.58,9.58,0,0,0,9.87,75a6.59,6.59,0,0,0-1.48-.19q-4.28,0-4.28,5.47a6.54,6.54,0,0,0,1,4,3.63,3.63,0,0,0,3.1,1.39,9.4,9.4,0,0,0,3.61-.76v1.89A7.67,7.67,0,0,1,8.3,87.49Z"/><path d="M27.33,80.19a7.79,7.79,0,0,1-1.73,5.37,6.1,6.1,0,0,1-4.79,1.93,6.35,6.35,0,0,1-3.35-.89,5.84,5.84,0,0,1-2.26-2.54,8.83,8.83,0,0,1-.79-3.87,7.74,7.74,0,0,1,1.72-5.36,6.08,6.08,0,0,1,4.77-1.91,5.94,5.94,0,0,1,4.69,2A7.72,7.72,0,0,1,27.33,80.19Zm-10.71,0a6.64,6.64,0,0,0,1.07,4.1,3.73,3.73,0,0,0,3.17,1.42A3.77,3.77,0,0,0,24,84.3a6.65,6.65,0,0,0,1.08-4.11A6.52,6.52,0,0,0,24,76.12a3.81,3.81,0,0,0-3.2-1.39,3.73,3.73,0,0,0-3.16,1.37A6.59,6.59,0,0,0,16.62,80.19Z"/><path d="M40.68,87.23V78.14a3.69,3.69,0,0,0-.78-2.57,3.2,3.2,0,0,0-2.45-.84,4,4,0,0,0-3.23,1.19,6,6,0,0,0-1,3.94v7.37H31.06V73.17h1.73l.35,1.93h.1a4.32,4.32,0,0,1,1.84-1.61,5.92,5.92,0,0,1,2.62-.57,5.39,5.39,0,0,1,3.83,1.22,5.24,5.24,0,0,1,1.28,3.92v9.17Z"/><path d="M53.52,74.83H49.94v12.4H47.81V74.83H45.3v-1l2.51-.77v-.79q0-5.18,4.53-5.18a9.34,9.34,0,0,1,2.62.45l-.55,1.71a6.94,6.94,0,0,0-2.11-.4,2.05,2.05,0,0,0-1.78.8,4.41,4.41,0,0,0-.58,2.57v.91h3.58Zm2.39-5.47a1.43,1.43,0,0,1,.36-1.07,1.28,1.28,0,0,1,.89-.34,1.26,1.26,0,0,1,.89.35,1.37,1.37,0,0,1,.37,1.06,1.39,1.39,0,0,1-.37,1.07,1.23,1.23,0,0,1-.89.36,1.21,1.21,0,0,1-.89-.36A1.43,1.43,0,0,1,55.91,69.36Zm2.31,17.87H56.09V73.17h2.13Z"/><path d="M74.24,73.17v1.35l-2.61.31A4.55,4.55,0,0,1,72.28,76a4.7,4.7,0,0,1,.28,1.64,4.15,4.15,0,0,1-1.41,3.29,5.72,5.72,0,0,1-3.88,1.24,6.31,6.31,0,0,1-1.18-.11,2.11,2.11,0,0,0-1.36,1.81.9.9,0,0,0,.48.85,3.37,3.37,0,0,0,1.63.28h2.48a5.56,5.56,0,0,1,3.51,1,3.35,3.35,0,0,1,1.23,2.8,4,4,0,0,1-1.87,3.56,10.1,10.1,0,0,1-5.47,1.22,7.48,7.48,0,0,1-4.25-1,3.32,3.32,0,0,1-1.5-2.9,3.28,3.28,0,0,1,.82-2.22,4.21,4.21,0,0,1,2.31-1.27,2.19,2.19,0,0,1-.9-.76,2,2,0,0,1-.37-1.19,2.32,2.32,0,0,1,.41-1.35,4.5,4.5,0,0,1,1.3-1.11,3.8,3.8,0,0,1-1.78-1.53,5.08,5.08,0,0,1,.7-6,5.64,5.64,0,0,1,3.93-1.25,7.23,7.23,0,0,1,2,.25ZM63,89.59a1.9,1.9,0,0,0,1,1.73,5.24,5.24,0,0,0,2.76.59,7.66,7.66,0,0,0,4-.8A2.45,2.45,0,0,0,72,88.94a1.74,1.74,0,0,0-.71-1.59,5.55,5.55,0,0,0-2.65-.44H66.09a3.39,3.39,0,0,0-2.26.69A2.52,2.52,0,0,0,63,89.59Zm1.15-11.91A2.89,2.89,0,0,0,65,79.91a3.37,3.37,0,0,0,2.33.76q3.1,0,3.11-3T67.3,74.47a3.13,3.13,0,0,0-2.31.81A3.26,3.26,0,0,0,64.18,77.68Z"/><path d="M79.13,73.17v9.12a3.69,3.69,0,0,0,.78,2.57,3.21,3.21,0,0,0,2.45.85,4,4,0,0,0,3.22-1.21,6.08,6.08,0,0,0,1-3.94V73.17h2.13V87.23H87l-.31-1.88h-.12a4.25,4.25,0,0,1-1.81,1.59,6.24,6.24,0,0,1-2.65.55,5.38,5.38,0,0,1-3.84-1.22A5.18,5.18,0,0,1,77,82.37v-9.2Z"/><path d="M99.66,72.92a8.46,8.46,0,0,1,1.68.15l-.29,2a7.23,7.23,0,0,0-1.54-.2,3.77,3.77,0,0,0-2.92,1.39,5,5,0,0,0-1.21,3.45v7.54H93.25V73.17H95l.24,2.61h.1a6.13,6.13,0,0,1,1.89-2.12A4.26,4.26,0,0,1,99.66,72.92Z"/><path d="M112.62,87.23l-.42-2h-.11A5.94,5.94,0,0,1,110,87a6.46,6.46,0,0,1-2.62.47,4.67,4.67,0,0,1-3.27-1.08,3.93,3.93,0,0,1-1.19-3.06q0-4.26,6.81-4.47l2.39-.08v-.87a3.57,3.57,0,0,0-.71-2.44,2.93,2.93,0,0,0-2.28-.79,9.28,9.28,0,0,0-4,1.08l-.65-1.63a10.17,10.17,0,0,1,4.76-1.21A5.31,5.31,0,0,1,113,74.06a4.65,4.65,0,0,1,1.22,3.58v9.59Zm-4.81-1.5a4.31,4.31,0,0,0,3.12-1.09,4,4,0,0,0,1.14-3V80.32l-2.13.09a7.72,7.72,0,0,0-3.67.79,2.38,2.38,0,0,0-1.12,2.17,2.22,2.22,0,0,0,.7,1.76A2.93,2.93,0,0,0,107.81,85.73Z"/><path d="M123.12,85.73a7.66,7.66,0,0,0,1.09-.08,5.88,5.88,0,0,0,.84-.18V87.1a3.45,3.45,0,0,1-1,.28,8,8,0,0,1-1.21.11q-4.08,0-4.08-4.3V74.83h-2v-1l2-.88.9-3h1.23v3.25H125v1.66h-4.08V83.1a2.84,2.84,0,0,0,.6,2A2.1,2.1,0,0,0,123.12,85.73Z"/><path d="M140,80.19a7.74,7.74,0,0,1-1.73,5.37,6.08,6.08,0,0,1-4.78,1.93,6.33,6.33,0,0,1-3.35-.89,5.78,5.78,0,0,1-2.26-2.54,8.83,8.83,0,0,1-.79-3.87,7.79,7.79,0,0,1,1.71-5.36,6.12,6.12,0,0,1,4.78-1.91,5.92,5.92,0,0,1,4.68,2A7.72,7.72,0,0,1,140,80.19Zm-10.71,0a6.64,6.64,0,0,0,1.08,4.1,4.26,4.26,0,0,0,6.34,0,6.58,6.58,0,0,0,1.09-4.11,6.46,6.46,0,0,0-1.09-4.07,3.8,3.8,0,0,0-3.2-1.39,3.73,3.73,0,0,0-3.15,1.37A6.59,6.59,0,0,0,129.28,80.19Z"/><path d="M150.14,72.92a8.6,8.6,0,0,1,1.68.15l-.3,2a7.15,7.15,0,0,0-1.53-.2,3.77,3.77,0,0,0-2.92,1.39,5,5,0,0,0-1.21,3.45v7.54h-2.13V73.17h1.75l.25,2.61h.1a6.13,6.13,0,0,1,1.89-2.12A4.26,4.26,0,0,1,150.14,72.92Z"/></svg>