<svg id="Layer_1" data-name="Layer 1" xmlns="http://www.w3.org/2000/svg" viewBox="0 0 300 100"><defs><style>.cls-1{fill:#000;}</style></defs><title>title_plymotion</title><path class="cls-1" d="M26,71.26q-9.1,0-14.14-6.55h-.6q.6,6.06.6,7.37V91.73H1.64V22.42H9.88q.34,1.33,1.43,6.42h.52q4.77-7.29,14.32-7.29,9,0,14,6.51t5,18.26q0,11.74-5.09,18.34T26,71.26ZM23.5,29.88q-6.08,0-8.87,3.55c-1.87,2.38-2.8,6.16-2.8,11.37v1.52q0,8.76,2.78,12.68t9.06,3.93a9.22,9.22,0,0,0,8.16-4.34q2.87-4.34,2.86-12.36T31.85,34A9.49,9.49,0,0,0,23.5,29.88Z"/><path class="cls-1" d="M57.23,70.39H47V2.9h10.2Z"/><path class="cls-1" d="M59.45,22.42h11.1l9.76,27.19a51.31,51.31,0,0,1,3,10.93h.35A46.22,46.22,0,0,1,85,54.75q1-3.41,11-32.33h11L86.56,76.76q-5.59,15-18.65,15A29.39,29.39,0,0,1,61.32,91V82.92a23.65,23.65,0,0,0,5.24.52q7.38,0,10.37-8.54l1.78-4.51Z"/><path class="cls-1" d="M149.9,70.39H139.66V40.81q0-5.51-2.08-8.22c-1.39-1.81-3.55-2.71-6.5-2.71q-5.91,0-8.66,3.84t-2.75,12.77v23.9H109.48v-48h8l1.43,6.29h.52a13.31,13.31,0,0,1,5.79-5.3,18.7,18.7,0,0,1,8.35-1.86q11.05,0,14.66,7.55h.69a14.71,14.71,0,0,1,6-5.56,19.1,19.1,0,0,1,8.85-2q8.58,0,12.51,4.34t3.92,13.23V70.39H170V40.81q0-5.51-2.1-8.22c-1.41-1.81-3.58-2.71-6.53-2.71q-5.94,0-8.7,3.71T149.9,45Z"/><path class="cls-1" d="M205,63a24.86,24.86,0,0,0,7.46-1.17v7.68a21.13,21.13,0,0,1-4.36,1.24,30.25,30.25,0,0,1-5.53.5q-14.49,0-14.49-15.27V30.14h-6.55V25.63l7-3.73L192,11.75h6.29V22.42H212v7.72H198.31V55.81q0,3.69,1.84,5.45A6.72,6.72,0,0,0,205,63Z"/><path class="cls-1" d="M256.59,70.39H246.36V40.89c0-3.7-.75-6.46-2.23-8.28s-3.86-2.73-7.1-2.73q-6.47,0-9.45,3.81t-3,12.8v23.9h-10.2v-48h8l1.43,6.29h.52a14.24,14.24,0,0,1,6.16-5.3,20.69,20.69,0,0,1,8.85-1.86q17.27,0,17.26,17.57Z"/></svg>