<?xml version="1.0" encoding="utf-8"?>
<!-- Generator: Adobe Illustrator 21.1.0, SVG Export Plug-In . SVG Version: 6.00 Build 0)  -->
<svg version="1.1" id="Layer_1" xmlns="http://www.w3.org/2000/svg" xmlns:xlink="http://www.w3.org/1999/xlink" x="0px" y="0px"
	 viewBox="0 0 540 535" style="enable-background:new 0 0 540 535;" xml:space="preserve">
<style type="text/css">
	.st0{fill:#FF0086;fill-opacity:0;}
	.st1{fill:#DEB074;}
	.st2{fill:#DBDBDA;}
	.st3{opacity:0.45;}
	.st4{opacity:0.1;}
	.st5{fill:#FFFFFF;}
	.st6{opacity:0.15;}
	.st7{fill:none;}
	.st8{fill:url(#XMLID_2_);}
	.st9{opacity:0.6;}
	.st10{fill:none;stroke:#B2B2B2;stroke-width:4.4866;stroke-miterlimit:10;}
	.st11{fill:url(#XMLID_3_);}
	.st12{opacity:0.12;}
	.st13{fill:url(#XMLID_4_);}
	.st14{fill:url(#XMLID_5_);}
	.st15{fill:url(#XMLID_6_);}
	.st16{fill:url(#XMLID_7_);}
	.st17{opacity:0.2;fill:none;stroke:#000000;stroke-width:4;stroke-miterlimit:10;enable-background:new    ;}
	.st18{opacity:0.2;fill:none;stroke:#000000;stroke-width:2;stroke-miterlimit:10;enable-background:new    ;}
	.st19{fill:none;stroke:#000000;stroke-miterlimit:10;}
</style>
<g id="seat-1">
	<rect id="bounds_10_" x="-0.1" y="0" class="st0" width="540" height="535"/>
	<g id="style1">
		<g id="XMLID_1874_">
			<polygon id="XMLID_583_" class="st1" points="83.9,137 454.9,137 454.9,91.3 480.9,23.6 480.9,0 57.9,0 57.9,23.6 83.5,91 			"/>
		</g>
		<g id="XMLID_1872_">
			<rect id="XMLID_1873_" x="29.9" y="453" class="st1" width="479" height="82"/>
		</g>
		<g id="XMLID_1870_">
			<rect id="XMLID_1871_" x="29.9" y="151" class="st1" width="479" height="61"/>
		</g>
		<g id="XMLID_1868_">
			<rect id="XMLID_1869_" x="29.9" y="227" class="st1" width="479" height="61"/>
		</g>
		<g id="XMLID_1866_">
			<rect id="XMLID_1867_" x="29.9" y="302" class="st1" width="479" height="61"/>
		</g>
		<g id="XMLID_1864_">
			<rect id="XMLID_1865_" x="29.9" y="378" class="st1" width="479" height="61"/>
		</g>
	</g>
	<g id="style2">
		<g id="XMLID_1862_">
			<path id="XMLID_582_" class="st2" d="M509,90.5l29.1-67.1c0,0,2-2.6-4.7-6.6C526,12.3,480.9,0,480.9,0v23.6l-26,66.9V137h-45v14
				h47.3h51.7"/>
		</g>
		<g id="XMLID_1860_">
			<path id="XMLID_581_" class="st2" d="M29.9,151h51.9h48.1v-14h-46V90.5l-26-66.9V0c0,0-44.6,11.6-52,16.8s-5.2,6.8-5.2,6.8
				L29.5,90"/>
		</g>
	</g>
	<g id="accent_10_">
		<g id="XMLID_1858_" class="st3">
			<polygon id="XMLID_301_" points="480.6,23.6 454.5,90.5 84.4,91 57.6,23.6 			"/>
		</g>
		<g id="XMLID_1856_" class="st4">
			<polygon id="XMLID_1857_" class="st5" points="476,33.8 475,36.2 62.8,36.3 61.4,33.9 			"/>
		</g>
		<g id="XMLID_1854_" class="st4">
			<polygon id="XMLID_1855_" class="st5" points="470.9,47.8 469.9,50.2 68.5,50.3 67.2,47.9 			"/>
		</g>
		<g id="XMLID_1852_" class="st4">
			<polygon id="XMLID_1853_" class="st5" points="465.1,62.5 464.1,64.9 74.3,64.9 73,62.5 			"/>
		</g>
		<g id="XMLID_1850_" class="st4">
			<polygon id="XMLID_1851_" class="st5" points="460,76.5 459,78.9 79.7,78.9 78.4,76.5 			"/>
		</g>
		<g id="XMLID_1702_" class="st6">
			<line id="XMLID_294_" class="st7" x1="84" y1="90.5" x2="48" y2="16.6"/>
		</g>
		<g id="XMLID_1700_">
			
				<linearGradient id="XMLID_2_" gradientUnits="userSpaceOnUse" x1="873.209" y1="652.89" x2="918.8441" y2="652.89" gradientTransform="matrix(1 0 0 -1 -464.181 796.89)">
				<stop  offset="0" style="stop-color:#000000;stop-opacity:0.45"/>
				<stop  offset="1" style="stop-color:#000000;stop-opacity:0.6"/>
			</linearGradient>
			<rect id="XMLID_1701_" x="409" y="137" class="st8" width="45.6" height="14"/>
		</g>
		<g id="XMLID_1698_" class="st9">
			<polygon id="XMLID_293_" points="480.6,23.8 538,23.4 508.9,90.2 454.7,90.2 			"/>
		</g>
		<g id="XMLID_1696_">
			<path id="XMLID_1697_" class="st10" d="M27.3,531.2"/>
		</g>
		<g id="XMLID_1694_" class="st9">
			<polygon id="XMLID_292_" points="57.6,23.6 0.6,23.4 28.8,90.1 84.1,90.1 			"/>
		</g>
		<g id="XMLID_1692_">
			
				<linearGradient id="XMLID_3_" gradientUnits="userSpaceOnUse" x1="547.949" y1="652.89" x2="593.584" y2="652.89" gradientTransform="matrix(1 0 0 -1 -464.181 796.89)">
				<stop  offset="0" style="stop-color:#000000;stop-opacity:0.6"/>
				<stop  offset="1" style="stop-color:#000000;stop-opacity:0.45"/>
			</linearGradient>
			<rect id="XMLID_1693_" x="83.8" y="137" class="st11" width="45.6" height="14"/>
		</g>
		<g id="XMLID_1690_" class="st12">
			<rect id="XMLID_1691_" x="29.9" y="529" width="479" height="6"/>
		</g>
		<g id="XMLID_1688_" class="st12">
			<rect id="XMLID_1689_" x="29.9" y="209" width="479" height="3"/>
		</g>
		<g id="XMLID_1683_" class="st12">
			<rect id="XMLID_1687_" x="29.9" y="285" width="479" height="3"/>
		</g>
		<g id="XMLID_1681_" class="st12">
			<rect id="XMLID_1682_" x="29.9" y="360" width="479" height="3"/>
		</g>
		<g id="XMLID_1678_" class="st12">
			<rect id="XMLID_1679_" x="29.9" y="436" width="479" height="3"/>
		</g>
		<g id="XMLID_1676_" class="st12">
			<rect id="XMLID_1677_" x="83.9" y="134" width="371" height="3"/>
		</g>
		
			<linearGradient id="XMLID_4_" gradientUnits="userSpaceOnUse" x1="945.781" y1="682.723" x2="945.781" y2="703.729" gradientTransform="matrix(1 0 0 -1 -464.181 796.89)">
			<stop  offset="0" style="stop-color:#000000;stop-opacity:0"/>
			<stop  offset="1" style="stop-color:#000000;stop-opacity:0.6"/>
		</linearGradient>
		<rect id="XMLID_1675_" x="454.5" y="90.2" class="st13" width="54.1" height="24"/>
		
			<linearGradient id="XMLID_5_" gradientUnits="userSpaceOnUse" x1="520.8895" y1="682.89" x2="520.8895" y2="703.896" gradientTransform="matrix(1 0 0 -1 -464.181 796.89)">
			<stop  offset="0" style="stop-color:#000000;stop-opacity:0"/>
			<stop  offset="1" style="stop-color:#000000;stop-opacity:0.6"/>
		</linearGradient>
		<rect id="XMLID_1674_" x="29.4" y="90" class="st14" width="54.6" height="24"/>
		
			<linearGradient id="XMLID_6_" gradientUnits="userSpaceOnUse" x1="476.7636" y1="779.6642" x2="466.8687" y2="769.5904" gradientTransform="matrix(1 0 0 -1 -464.181 796.89)">
			<stop  offset="0" style="stop-color:#000000;stop-opacity:0"/>
			<stop  offset="1" style="stop-color:#000000;stop-opacity:0.35"/>
		</linearGradient>
		<path id="XMLID_291_" class="st15" d="M13.7,12.8c0,0-15.3,4.8-13.5,10.7l15.3-0.3L13.7,12.8z"/>
		
			<linearGradient id="XMLID_7_" gradientUnits="userSpaceOnUse" x1="491.6523" y1="780.351" x2="481.221" y2="769.731" gradientTransform="matrix(-1 0 0 -1 1016.7655 796.89)">
			<stop  offset="0" style="stop-color:#000000;stop-opacity:0"/>
			<stop  offset="1" style="stop-color:#000000;stop-opacity:0.35"/>
		</linearGradient>
		<path id="XMLID_286_" class="st16" d="M523,12.8c0,0,17.5,5,15.1,10.3l-15.3,0.1L523,12.8z"/>
		<line id="XMLID_1671_" class="st17" x1="506.9" y1="90" x2="506.9" y2="535"/>
		<line id="XMLID_1670_" class="st18" x1="453.9" y1="90" x2="453.9" y2="137"/>
		<line id="XMLID_1669_" class="st17" x1="31.9" y1="90" x2="31.9" y2="535"/>
		<line id="XMLID_1668_" class="st18" x1="84.9" y1="91" x2="84.9" y2="138"/>
	</g>
	<g id="texture" class="st12">
		<line id="XMLID_10_" class="st19" x1="39.9" y1="189.5" x2="54.9" y2="189.5"/>
		<line id="XMLID_11_" class="st19" x1="72.9" y1="174.5" x2="95.9" y2="174.5"/>
		<line id="XMLID_86_" class="st19" x1="136.9" y1="192.5" x2="160.9" y2="192.5"/>
		<line id="XMLID_93_" class="st19" x1="129.9" y1="165.5" x2="153.9" y2="165.5"/>
		<line id="XMLID_94_" class="st19" x1="94.9" y1="202.5" x2="118.9" y2="202.5"/>
		<line id="XMLID_95_" class="st19" x1="47.9" y1="164.5" x2="71.9" y2="164.5"/>
		<line id="XMLID_96_" class="st19" x1="308.9" y1="163.5" x2="331.9" y2="163.5"/>
		<line id="XMLID_97_" class="st19" x1="446.9" y1="168.5" x2="463.9" y2="168.5"/>
		<line id="XMLID_98_" class="st19" x1="472.9" y1="201.5" x2="490.9" y2="201.5"/>
		<line id="XMLID_118_" class="st19" x1="440.9" y1="190.5" x2="457.9" y2="190.5"/>
		<line id="XMLID_99_" class="st19" x1="371.9" y1="195.5" x2="388.9" y2="195.5"/>
		<line id="XMLID_113_" class="st19" x1="359.9" y1="185.5" x2="376.9" y2="185.5"/>
		<line id="XMLID_100_" class="st19" x1="404.9" y1="199.5" x2="421.9" y2="199.5"/>
		<line id="XMLID_107_" class="st19" x1="337.9" y1="200.5" x2="355.9" y2="200.5"/>
		<line id="XMLID_108_" class="st19" x1="317.9" y1="186.5" x2="334.9" y2="186.5"/>
		<line id="XMLID_112_" class="st19" x1="267.9" y1="189.5" x2="284.9" y2="189.5"/>
		<line id="XMLID_109_" class="st19" x1="277.9" y1="172.5" x2="295.9" y2="172.5"/>
		<line id="XMLID_110_" class="st19" x1="423.9" y1="160.5" x2="441.9" y2="160.5"/>
		<line id="XMLID_111_" class="st19" x1="156.9" y1="173.5" x2="173.9" y2="173.5"/>
		<line id="XMLID_101_" class="st19" x1="390.9" y1="167.5" x2="407.9" y2="167.5"/>
		<line id="XMLID_117_" class="st19" x1="362.9" y1="161.5" x2="379.9" y2="161.5"/>
		<line id="XMLID_102_" class="st19" x1="479.9" y1="178.5" x2="497.9" y2="178.5"/>
		<line id="XMLID_119_" class="st19" x1="475.9" y1="159.5" x2="493.9" y2="159.5"/>
		<line id="XMLID_103_" class="st19" x1="197.9" y1="161.5" x2="214.9" y2="161.5"/>
		<line id="XMLID_104_" class="st19" x1="181.9" y1="200.5" x2="199.9" y2="200.5"/>
		<line id="XMLID_105_" class="st19" x1="114.9" y1="182.5" x2="131.9" y2="182.5"/>
		<line id="XMLID_87_" class="st19" x1="186.9" y1="182.5" x2="203.9" y2="182.5"/>
		<line id="XMLID_121_" class="st19" x1="91.9" y1="159.5" x2="108.9" y2="159.5"/>
		<line id="XMLID_91_" class="st19" x1="219.9" y1="194.5" x2="235.9" y2="194.5"/>
		<line id="XMLID_120_" class="st19" x1="74.9" y1="192.5" x2="90.9" y2="192.5"/>
		<line id="XMLID_92_" class="st19" x1="247.9" y1="166.5" x2="263.9" y2="166.5"/>
		<line id="XMLID_88_" class="st19" x1="271.9" y1="199.5" x2="307.9" y2="199.5"/>
		<line id="XMLID_89_" class="st19" x1="337.9" y1="174.5" x2="361.9" y2="174.5"/>
		<line id="XMLID_106_" class="st19" x1="230.9" y1="181.5" x2="254.9" y2="181.5"/>
		<line id="XMLID_90_" class="st19" x1="405.9" y1="179.5" x2="428.9" y2="179.5"/>
		<line id="XMLID_355_" class="st19" x1="95.9" y1="119.5" x2="106.9" y2="119.5"/>
		<line id="XMLID_354_" class="st19" x1="120.9" y1="109.5" x2="137.9" y2="109.5"/>
		<line id="XMLID_353_" class="st19" x1="168.9" y1="120.5" x2="186.9" y2="120.5"/>
		<line id="XMLID_352_" class="st19" x1="163.9" y1="103.5" x2="180.9" y2="103.5"/>
		<line id="XMLID_351_" class="st19" x1="136.9" y1="127.5" x2="155.9" y2="127.5"/>
		<line id="XMLID_350_" class="st19" x1="102.9" y1="102.5" x2="119.9" y2="102.5"/>
		<line id="XMLID_349_" class="st19" x1="296.9" y1="102.5" x2="314.9" y2="102.5"/>
		<line id="XMLID_348_" class="st19" x1="400.9" y1="105.5" x2="412.9" y2="105.5"/>
		<line id="XMLID_347_" class="st19" x1="419.9" y1="126.5" x2="432.9" y2="126.5"/>
		<line id="XMLID_346_" class="st19" x1="395.9" y1="119.5" x2="408.9" y2="119.5"/>
		<line id="XMLID_345_" class="st19" x1="344.9" y1="122.5" x2="357.9" y2="122.5"/>
		<line id="XMLID_344_" class="st19" x1="334.9" y1="116.5" x2="347.9" y2="116.5"/>
		<line id="XMLID_343_" class="st19" x1="368.9" y1="125.5" x2="380.9" y2="125.5"/>
		<line id="XMLID_342_" class="st19" x1="318.9" y1="126.5" x2="331.9" y2="126.5"/>
		<line id="XMLID_341_" class="st19" x1="304.9" y1="117.5" x2="316.9" y2="117.5"/>
		<line id="XMLID_340_" class="st19" x1="266.9" y1="119.5" x2="279.9" y2="119.5"/>
		<line id="XMLID_339_" class="st19" x1="273.9" y1="107.5" x2="286.9" y2="107.5"/>
		<line id="XMLID_338_" class="st19" x1="382.9" y1="100.5" x2="396.9" y2="100.5"/>
		<line id="XMLID_337_" class="st19" x1="182.9" y1="108.5" x2="195.9" y2="108.5"/>
		<line id="XMLID_336_" class="st19" x1="357.9" y1="104.5" x2="370.9" y2="104.5"/>
		<line id="XMLID_335_" class="st19" x1="336.9" y1="100.5" x2="350.9" y2="100.5"/>
		<line id="XMLID_334_" class="st19" x1="424.9" y1="111.5" x2="438.9" y2="111.5"/>
		<line id="XMLID_333_" class="st19" x1="421.9" y1="99.5" x2="434.9" y2="99.5"/>
		<line id="XMLID_332_" class="st19" x1="213.9" y1="100.5" x2="226.9" y2="100.5"/>
		<line id="XMLID_331_" class="st19" x1="202.9" y1="126.5" x2="215.9" y2="126.5"/>
		<line id="XMLID_330_" class="st19" x1="152.9" y1="114.5" x2="165.9" y2="114.5"/>
		<line id="XMLID_329_" class="st19" x1="206.9" y1="114.5" x2="218.9" y2="114.5"/>
		<line id="XMLID_328_" class="st19" x1="134.9" y1="99.5" x2="146.9" y2="99.5"/>
		<line id="XMLID_327_" class="st19" x1="229.9" y1="122.5" x2="241.9" y2="122.5"/>
		<line id="XMLID_326_" class="st19" x1="122.9" y1="120.5" x2="133.9" y2="120.5"/>
		<line id="XMLID_325_" class="st19" x1="251.9" y1="104.5" x2="262.9" y2="104.5"/>
		<line id="XMLID_324_" class="st19" x1="269.9" y1="125.5" x2="296.9" y2="125.5"/>
		<line id="XMLID_323_" class="st19" x1="318.9" y1="109.5" x2="336.9" y2="109.5"/>
		<line id="XMLID_322_" class="st19" x1="238.9" y1="113.5" x2="256.9" y2="113.5"/>
		<line id="XMLID_321_" class="st19" x1="368.9" y1="112.5" x2="386.9" y2="112.5"/>
		<line id="XMLID_390_" class="st19" x1="87.9" y1="12.5" x2="108.9" y2="12.5"/>
		<line id="XMLID_388_" class="st19" x1="138.9" y1="8.5" x2="159.9" y2="8.5"/>
		<line id="XMLID_386_" class="st19" x1="65.9" y1="7.5" x2="85.9" y2="7.5"/>
		<line id="XMLID_385_" class="st19" x1="298.9" y1="7.5" x2="320.9" y2="7.5"/>
		<line id="XMLID_384_" class="st19" x1="423.9" y1="9.5" x2="438.9" y2="9.5"/>
		<line id="XMLID_382_" class="st19" x1="417.9" y1="18.5" x2="432.9" y2="18.5"/>
		<line id="XMLID_380_" class="st19" x1="345.9" y1="16.5" x2="359.9" y2="16.5"/>
		<line id="XMLID_377_" class="st19" x1="308.9" y1="17.5" x2="322.9" y2="17.5"/>
		<line id="XMLID_376_" class="st19" x1="262.9" y1="18.5" x2="278.9" y2="18.5"/>
		<line id="XMLID_375_" class="st19" x1="271.9" y1="10.5" x2="286.9" y2="10.5"/>
		<line id="XMLID_374_" class="st19" x1="402.9" y1="6.5" x2="418.9" y2="6.5"/>
		<line id="XMLID_373_" class="st19" x1="162.9" y1="11.5" x2="177.9" y2="11.5"/>
		<line id="XMLID_372_" class="st19" x1="371.9" y1="8.5" x2="387.9" y2="8.5"/>
		<line id="XMLID_371_" class="st19" x1="347.9" y1="6.5" x2="363.9" y2="6.5"/>
		<line id="XMLID_370_" class="st19" x1="452.9" y1="13.5" x2="468.9" y2="13.5"/>
		<line id="XMLID_369_" class="st19" x1="449.9" y1="5.5" x2="464.9" y2="5.5"/>
		<line id="XMLID_368_" class="st19" x1="199.9" y1="6.5" x2="214.9" y2="6.5"/>
		<line id="XMLID_366_" class="st19" x1="125.9" y1="15.5" x2="140.9" y2="15.5"/>
		<line id="XMLID_365_" class="st19" x1="189.9" y1="15.5" x2="205.9" y2="15.5"/>
		<line id="XMLID_364_" class="st19" x1="104.9" y1="5.5" x2="119.9" y2="5.5"/>
		<line id="XMLID_361_" class="st19" x1="243.9" y1="8.5" x2="257.9" y2="8.5"/>
		<line id="XMLID_359_" class="st19" x1="325.9" y1="12.5" x2="347.9" y2="12.5"/>
		<line id="XMLID_358_" class="st19" x1="229.9" y1="14.5" x2="250.9" y2="14.5"/>
		<line id="XMLID_357_" class="st19" x1="384.9" y1="13.5" x2="407.9" y2="13.5"/>
		<line id="XMLID_162_" class="st19" x1="39.9" y1="263.5" x2="54.9" y2="263.5"/>
		<line id="XMLID_161_" class="st19" x1="72.9" y1="248.5" x2="95.9" y2="248.5"/>
		<line id="XMLID_160_" class="st19" x1="136.9" y1="266.5" x2="160.9" y2="266.5"/>
		<line id="XMLID_159_" class="st19" x1="129.9" y1="239.5" x2="153.9" y2="239.5"/>
		<line id="XMLID_156_" class="st19" x1="94.9" y1="276.5" x2="118.9" y2="276.5"/>
		<line id="XMLID_155_" class="st19" x1="47.9" y1="238.5" x2="71.9" y2="238.5"/>
		<line id="XMLID_154_" class="st19" x1="308.9" y1="237.5" x2="331.9" y2="237.5"/>
		<line id="XMLID_153_" class="st19" x1="446.9" y1="242.5" x2="463.9" y2="242.5"/>
		<line id="XMLID_152_" class="st19" x1="472.9" y1="275.5" x2="490.9" y2="275.5"/>
		<line id="XMLID_151_" class="st19" x1="440.9" y1="264.5" x2="457.9" y2="264.5"/>
		<line id="XMLID_150_" class="st19" x1="371.9" y1="269.5" x2="388.9" y2="269.5"/>
		<line id="XMLID_149_" class="st19" x1="359.9" y1="259.5" x2="376.9" y2="259.5"/>
		<line id="XMLID_148_" class="st19" x1="404.9" y1="273.5" x2="421.9" y2="273.5"/>
		<line id="XMLID_147_" class="st19" x1="337.9" y1="274.5" x2="355.9" y2="274.5"/>
		<line id="XMLID_146_" class="st19" x1="317.9" y1="260.5" x2="334.9" y2="260.5"/>
		<line id="XMLID_143_" class="st19" x1="267.9" y1="263.5" x2="284.9" y2="263.5"/>
		<line id="XMLID_142_" class="st19" x1="277.9" y1="246.5" x2="295.9" y2="246.5"/>
		<line id="XMLID_141_" class="st19" x1="423.9" y1="234.5" x2="441.9" y2="234.5"/>
		<line id="XMLID_140_" class="st19" x1="156.9" y1="247.5" x2="173.9" y2="247.5"/>
		<line id="XMLID_139_" class="st19" x1="390.9" y1="241.5" x2="407.9" y2="241.5"/>
		<line id="XMLID_138_" class="st19" x1="362.9" y1="235.5" x2="379.9" y2="235.5"/>
		<line id="XMLID_137_" class="st19" x1="479.9" y1="252.5" x2="497.9" y2="252.5"/>
		<line id="XMLID_136_" class="st19" x1="475.9" y1="233.5" x2="493.9" y2="233.5"/>
		<line id="XMLID_135_" class="st19" x1="197.9" y1="235.5" x2="214.9" y2="235.5"/>
		<line id="XMLID_134_" class="st19" x1="181.9" y1="274.5" x2="199.9" y2="274.5"/>
		<line id="XMLID_133_" class="st19" x1="114.9" y1="256.5" x2="131.9" y2="256.5"/>
		<line id="XMLID_132_" class="st19" x1="186.9" y1="256.5" x2="203.9" y2="256.5"/>
		<line id="XMLID_131_" class="st19" x1="91.9" y1="233.5" x2="108.9" y2="233.5"/>
		<line id="XMLID_130_" class="st19" x1="219.9" y1="268.5" x2="235.9" y2="268.5"/>
		<line id="XMLID_129_" class="st19" x1="74.9" y1="266.5" x2="90.9" y2="266.5"/>
		<line id="XMLID_128_" class="st19" x1="247.9" y1="240.5" x2="263.9" y2="240.5"/>
		<line id="XMLID_127_" class="st19" x1="271.9" y1="273.5" x2="307.9" y2="273.5"/>
		<line id="XMLID_126_" class="st19" x1="337.9" y1="248.5" x2="361.9" y2="248.5"/>
		<line id="XMLID_125_" class="st19" x1="230.9" y1="255.5" x2="254.9" y2="255.5"/>
		<line id="XMLID_124_" class="st19" x1="405.9" y1="253.5" x2="428.9" y2="253.5"/>
		<line id="XMLID_204_" class="st19" x1="39.9" y1="336.5" x2="54.9" y2="336.5"/>
		<line id="XMLID_203_" class="st19" x1="72.9" y1="321.5" x2="95.9" y2="321.5"/>
		<line id="XMLID_199_" class="st19" x1="136.9" y1="339.5" x2="160.9" y2="339.5"/>
		<line id="XMLID_198_" class="st19" x1="129.9" y1="312.5" x2="153.9" y2="312.5"/>
		<line id="XMLID_197_" class="st19" x1="94.9" y1="349.5" x2="118.9" y2="349.5"/>
		<line id="XMLID_195_" class="st19" x1="47.9" y1="311.5" x2="71.9" y2="311.5"/>
		<line id="XMLID_194_" class="st19" x1="308.9" y1="310.5" x2="331.9" y2="310.5"/>
		<line id="XMLID_193_" class="st19" x1="446.9" y1="315.5" x2="463.9" y2="315.5"/>
		<line id="XMLID_192_" class="st19" x1="472.9" y1="348.5" x2="490.9" y2="348.5"/>
		<line id="XMLID_191_" class="st19" x1="440.9" y1="337.5" x2="457.9" y2="337.5"/>
		<line id="XMLID_190_" class="st19" x1="371.9" y1="342.5" x2="388.9" y2="342.5"/>
		<line id="XMLID_188_" class="st19" x1="359.9" y1="332.5" x2="376.9" y2="332.5"/>
		<line id="XMLID_187_" class="st19" x1="404.9" y1="346.5" x2="421.9" y2="346.5"/>
		<line id="XMLID_185_" class="st19" x1="337.9" y1="347.5" x2="355.9" y2="347.5"/>
		<line id="XMLID_184_" class="st19" x1="317.9" y1="333.5" x2="334.9" y2="333.5"/>
		<line id="XMLID_183_" class="st19" x1="267.9" y1="336.5" x2="284.9" y2="336.5"/>
		<line id="XMLID_182_" class="st19" x1="277.9" y1="319.5" x2="295.9" y2="319.5"/>
		<line id="XMLID_181_" class="st19" x1="423.9" y1="307.5" x2="441.9" y2="307.5"/>
		<line id="XMLID_180_" class="st19" x1="156.9" y1="320.5" x2="173.9" y2="320.5"/>
		<line id="XMLID_179_" class="st19" x1="390.9" y1="314.5" x2="407.9" y2="314.5"/>
		<line id="XMLID_178_" class="st19" x1="362.9" y1="308.5" x2="379.9" y2="308.5"/>
		<line id="XMLID_177_" class="st19" x1="479.9" y1="325.5" x2="497.9" y2="325.5"/>
		<line id="XMLID_176_" class="st19" x1="475.9" y1="306.5" x2="493.9" y2="306.5"/>
		<line id="XMLID_175_" class="st19" x1="197.9" y1="308.5" x2="214.9" y2="308.5"/>
		<line id="XMLID_174_" class="st19" x1="181.9" y1="347.5" x2="199.9" y2="347.5"/>
		<line id="XMLID_173_" class="st19" x1="114.9" y1="329.5" x2="131.9" y2="329.5"/>
		<line id="XMLID_172_" class="st19" x1="186.9" y1="329.5" x2="203.9" y2="329.5"/>
		<line id="XMLID_171_" class="st19" x1="91.9" y1="306.5" x2="108.9" y2="306.5"/>
		<line id="XMLID_170_" class="st19" x1="219.9" y1="341.5" x2="235.9" y2="341.5"/>
		<line id="XMLID_169_" class="st19" x1="74.9" y1="339.5" x2="90.9" y2="339.5"/>
		<line id="XMLID_168_" class="st19" x1="247.9" y1="313.5" x2="263.9" y2="313.5"/>
		<line id="XMLID_167_" class="st19" x1="271.9" y1="346.5" x2="307.9" y2="346.5"/>
		<line id="XMLID_166_" class="st19" x1="337.9" y1="321.5" x2="361.9" y2="321.5"/>
		<line id="XMLID_165_" class="st19" x1="230.9" y1="328.5" x2="254.9" y2="328.5"/>
		<line id="XMLID_164_" class="st19" x1="405.9" y1="326.5" x2="428.9" y2="326.5"/>
		<line id="XMLID_261_" class="st19" x1="39.9" y1="415.5" x2="54.9" y2="415.5"/>
		<line id="XMLID_260_" class="st19" x1="72.9" y1="400.5" x2="95.9" y2="400.5"/>
		<line id="XMLID_259_" class="st19" x1="136.9" y1="418.5" x2="160.9" y2="418.5"/>
		<line id="XMLID_258_" class="st19" x1="129.9" y1="391.5" x2="153.9" y2="391.5"/>
		<line id="XMLID_257_" class="st19" x1="94.9" y1="428.5" x2="118.9" y2="428.5"/>
		<line id="XMLID_256_" class="st19" x1="47.9" y1="390.5" x2="71.9" y2="390.5"/>
		<line id="XMLID_255_" class="st19" x1="308.9" y1="389.5" x2="331.9" y2="389.5"/>
		<line id="XMLID_254_" class="st19" x1="446.9" y1="394.5" x2="463.9" y2="394.5"/>
		<line id="XMLID_253_" class="st19" x1="472.9" y1="427.5" x2="490.9" y2="427.5"/>
		<line id="XMLID_252_" class="st19" x1="440.9" y1="416.5" x2="457.9" y2="416.5"/>
		<line id="XMLID_251_" class="st19" x1="371.9" y1="421.5" x2="388.9" y2="421.5"/>
		<line id="XMLID_250_" class="st19" x1="359.9" y1="411.5" x2="376.9" y2="411.5"/>
		<line id="XMLID_249_" class="st19" x1="404.9" y1="425.5" x2="421.9" y2="425.5"/>
		<line id="XMLID_248_" class="st19" x1="337.9" y1="426.5" x2="355.9" y2="426.5"/>
		<line id="XMLID_247_" class="st19" x1="317.9" y1="412.5" x2="334.9" y2="412.5"/>
		<line id="XMLID_246_" class="st19" x1="267.9" y1="415.5" x2="284.9" y2="415.5"/>
		<line id="XMLID_245_" class="st19" x1="277.9" y1="398.5" x2="295.9" y2="398.5"/>
		<line id="XMLID_244_" class="st19" x1="423.9" y1="386.5" x2="441.9" y2="386.5"/>
		<line id="XMLID_243_" class="st19" x1="156.9" y1="399.5" x2="173.9" y2="399.5"/>
		<line id="XMLID_242_" class="st19" x1="390.9" y1="393.5" x2="407.9" y2="393.5"/>
		<line id="XMLID_241_" class="st19" x1="362.9" y1="387.5" x2="379.9" y2="387.5"/>
		<line id="XMLID_220_" class="st19" x1="479.9" y1="404.5" x2="497.9" y2="404.5"/>
		<line id="XMLID_219_" class="st19" x1="475.9" y1="385.5" x2="493.9" y2="385.5"/>
		<line id="XMLID_218_" class="st19" x1="197.9" y1="387.5" x2="214.9" y2="387.5"/>
		<line id="XMLID_217_" class="st19" x1="181.9" y1="426.5" x2="199.9" y2="426.5"/>
		<line id="XMLID_216_" class="st19" x1="114.9" y1="408.5" x2="131.9" y2="408.5"/>
		<line id="XMLID_215_" class="st19" x1="186.9" y1="408.5" x2="203.9" y2="408.5"/>
		<line id="XMLID_214_" class="st19" x1="91.9" y1="385.5" x2="108.9" y2="385.5"/>
		<line id="XMLID_213_" class="st19" x1="219.9" y1="420.5" x2="235.9" y2="420.5"/>
		<line id="XMLID_212_" class="st19" x1="74.9" y1="418.5" x2="90.9" y2="418.5"/>
		<line id="XMLID_210_" class="st19" x1="247.9" y1="392.5" x2="263.9" y2="392.5"/>
		<line id="XMLID_209_" class="st19" x1="271.9" y1="425.5" x2="307.9" y2="425.5"/>
		<line id="XMLID_208_" class="st19" x1="337.9" y1="400.5" x2="361.9" y2="400.5"/>
		<line id="XMLID_207_" class="st19" x1="230.9" y1="407.5" x2="254.9" y2="407.5"/>
		<line id="XMLID_206_" class="st19" x1="405.9" y1="405.5" x2="428.9" y2="405.5"/>
		<line id="XMLID_319_" class="st19" x1="44.9" y1="497.5" x2="58.9" y2="497.5"/>
		<line id="XMLID_318_" class="st19" x1="72.9" y1="482.5" x2="95.9" y2="482.5"/>
		<line id="XMLID_317_" class="st19" x1="139.9" y1="500.5" x2="162.9" y2="500.5"/>
		<line id="XMLID_316_" class="st19" x1="129.9" y1="473.5" x2="153.9" y2="473.5"/>
		<line id="XMLID_315_" class="st19" x1="98.9" y1="510.5" x2="121.9" y2="510.5"/>
		<line id="XMLID_314_" class="st19" x1="47.9" y1="472.5" x2="71.9" y2="472.5"/>
		<line id="XMLID_313_" class="st19" x1="308.9" y1="471.5" x2="331.9" y2="471.5"/>
		<line id="XMLID_312_" class="st19" x1="446.9" y1="476.5" x2="463.9" y2="476.5"/>
		<line id="XMLID_311_" class="st19" x1="468.9" y1="509.5" x2="485.9" y2="509.5"/>
		<line id="XMLID_310_" class="st19" x1="436.9" y1="498.5" x2="453.9" y2="498.5"/>
		<line id="XMLID_309_" class="st19" x1="369.9" y1="503.5" x2="386.9" y2="503.5"/>
		<line id="XMLID_308_" class="st19" x1="359.9" y1="493.5" x2="376.9" y2="493.5"/>
		<line id="XMLID_307_" class="st19" x1="401.9" y1="507.5" x2="418.9" y2="507.5"/>
		<line id="XMLID_306_" class="st19" x1="336.9" y1="508.5" x2="353.9" y2="508.5"/>
		<line id="XMLID_305_" class="st19" x1="316.9" y1="494.5" x2="333.9" y2="494.5"/>
		<line id="XMLID_304_" class="st19" x1="267.9" y1="497.5" x2="284.9" y2="497.5"/>
		<line id="XMLID_303_" class="st19" x1="277.9" y1="480.5" x2="295.9" y2="480.5"/>
		<line id="XMLID_300_" class="st19" x1="423.9" y1="468.5" x2="441.9" y2="468.5"/>
		<line id="XMLID_299_" class="st19" x1="156.9" y1="481.5" x2="173.9" y2="481.5"/>
		<line id="XMLID_298_" class="st19" x1="390.9" y1="475.5" x2="407.9" y2="475.5"/>
		<line id="XMLID_297_" class="st19" x1="362.9" y1="469.5" x2="379.9" y2="469.5"/>
		<line id="XMLID_296_" class="st19" x1="479.9" y1="486.5" x2="497.9" y2="486.5"/>
		<line id="XMLID_295_" class="st19" x1="475.9" y1="467.5" x2="493.9" y2="467.5"/>
		<line id="XMLID_290_" class="st19" x1="197.9" y1="469.5" x2="214.9" y2="469.5"/>
		<line id="XMLID_289_" class="st19" x1="183.9" y1="508.5" x2="200.9" y2="508.5"/>
		<line id="XMLID_288_" class="st19" x1="114.9" y1="490.5" x2="131.9" y2="490.5"/>
		<line id="XMLID_287_" class="st19" x1="186.9" y1="490.5" x2="203.9" y2="490.5"/>
		<line id="XMLID_276_" class="st19" x1="91.9" y1="467.5" x2="108.9" y2="467.5"/>
		<line id="XMLID_275_" class="st19" x1="220.9" y1="502.5" x2="236.9" y2="502.5"/>
		<line id="XMLID_271_" class="st19" x1="78.9" y1="500.5" x2="94.9" y2="500.5"/>
		<line id="XMLID_267_" class="st19" x1="247.9" y1="474.5" x2="263.9" y2="474.5"/>
		<line id="XMLID_266_" class="st19" x1="271.9" y1="507.5" x2="306.9" y2="507.5"/>
		<line id="XMLID_265_" class="st19" x1="337.9" y1="482.5" x2="361.9" y2="482.5"/>
		<line id="XMLID_264_" class="st19" x1="230.9" y1="489.5" x2="254.9" y2="489.5"/>
		<line id="XMLID_263_" class="st19" x1="405.9" y1="487.5" x2="428.9" y2="487.5"/>
	</g>
</g>
<g id="Layer_1_1_">
</g>
</svg>
