<svg xmlns="http://www.w3.org/2000/svg" xmlns:xlink="http://www.w3.org/1999/xlink" viewBox="0 0 1140.5 535"><defs><style>.a{fill:#A07B5D;}.b{fill:#5F635E;}.c{opacity:0.45;}.d{fill:#fff;opacity:0.1;}.e{opacity:0.15;}.f,.o,.p{fill:none;}.g{fill:url(#a);}.h{opacity:0.6;}.i{fill:url(#b);}.j{opacity:0.12;}.k{fill:url(#c);}.l{fill:url(#d);}.m{fill:url(#e);}.n{fill:url(#f);}.o,.p{stroke:#000;stroke-miterlimit:10;isolation:isolate;}.o{stroke-width:4px;opacity:0.2;}.p{opacity:0.24;}</style><linearGradient id="a" x1="2071.2" y1="346.89" x2="2116.8" y2="346.89" gradientTransform="matrix(-1, 0, 0, 1, 2201.95, 44.11)" gradientUnits="userSpaceOnUse"><stop offset="0" stop-opacity="0.45"/><stop offset="1" stop-opacity="0.6"/></linearGradient><linearGradient id="b" x1="1144.95" y1="346.89" x2="1190.55" y2="346.89" gradientTransform="matrix(-1, 0, 0, 1, 2201.95, 44.11)" gradientUnits="userSpaceOnUse"><stop offset="0" stop-opacity="0.6"/><stop offset="1" stop-opacity="0.45"/></linearGradient><linearGradient id="c" x1="2143.75" y1="376.72" x2="2143.75" y2="397.73" gradientTransform="matrix(-1, 0, 0, 1, 2201.95, 44.11)" gradientUnits="userSpaceOnUse"><stop offset="0" stop-opacity="0"/><stop offset="1" stop-opacity="0.6"/></linearGradient><linearGradient id="d" x1="1117.9" y1="376.89" x2="1117.9" y2="397.9" xlink:href="#c"/><linearGradient id="e" x1="1073.73" y1="473.7" x2="1063.83" y2="463.63" gradientTransform="matrix(-1, 0, 0, 1, 2201.95, 44.11)" gradientUnits="userSpaceOnUse"><stop offset="0" stop-opacity="0"/><stop offset="1" stop-opacity="0.35"/></linearGradient><linearGradient id="f" x1="1579.64" y1="474.36" x2="1569.21" y2="463.74" gradientTransform="translate(-1565 44.1)" xlink:href="#e"/></defs><title>02</title><path class="a" d="M1057,398H84.9v45.7l-26,67.7V535h1024V511.4L1057.4,444Zm53.9-316H30.9V0h1080Zm0,302H30.9V323h1080Zm0-76H30.9V247h1080Zm0-75H30.9V172h1080Zm0-76H30.9V96h1080Z"/><path class="b" d="M31.8,444.5,2.7,511.6s-2,2.6,4.7,6.6S60,535,60,535V511.4l26-66.9V398h45V384H32"/><path class="b" d="M1110.9,384h-100v14h46v46.5l26,66.9V535s44.6-11.6,52-16.8,5.2-6.8,5.2-6.8L1111.3,445"/><g class="c"><polygon points="59.2 511.4 85.3 444.5 1056.5 444 1083.2 511.4 59.2 511.4"/></g><path class="d" d="M63.8,501.2l1.1-2.4H1078.1l1.3,2.4Zm5.1-14,1-2.4H1072.3l1.3,2.4Zm5.8-14.7,1-2.4h990.9l1.3,2.4Zm5.1-14,1-2.4h980.4l1.2,2.4Z"/><g class="e"><line class="f" x1="1056.8" y1="444.5" x2="1092.9" y2="518.4"/></g><rect class="g" x="85.2" y="384" width="45.6" height="14"/><g class="h"><polygon points="59.2 511.2 1.8 511.6 30.9 444.8 85.2 444.8 59.2 511.2"/></g><g class="h"><polygon points="1083.2 511.4 1140.3 511.6 1111.4 445 1056.7 444.9 1083.2 511.4"/></g><rect class="i" x="1011.5" y="384" width="45.6" height="14"/><path class="j" d="M1110.9,6H30.9V0h1080Zm0,320H30.9v-3h1080Zm0-76H30.9v-3h1080Zm0-75H30.9v-3h1080Zm0-76H30.9V96h1080Zm-54,302H84.9v-3h972Z"/><rect class="k" x="31.2" y="420.8" width="54.1" height="24"/><rect class="l" x="1056.8" y="421" width="54.6" height="24"/><path class="m" d="M1127.1,522.2s15.3-4.8,13.5-10.7l-15.3.3Z"/><path class="n" d="M16.9,522.2s-17.5-5-15.1-10.3H17.1Z"/><path class="o" d="M32.9,445V0m53,398v47M1108.9,0V445m-53-1V397"/><path class="p" d="M1092.9,345.5h-34m-41,15h-52m-94-18h-54m70,27h-55m134-37h-54m162,38h-54m-540,1h-52m-262-5h-38m-21-33h-41m114,11h-40m197-5h-39m66,10h-38m-65-14h-37m191-1h-41m86,14h-40m154-3h-39m16,17h-42m-291,12h-40m648-13h-39m-493,6h-39m102,6h-39m-226-17h-43m51,19h-41m673-2h-38m75-39h-41m193,18h-38m-125,0h-39m255,23h-40m-252-35h-36m366,2h-36m-357,26h-37m-19-33h-81m-67,25h-55m298-7h-55m-343,2h-53m827,60h-29m-37,10h-47m-83-11h-48m61,17h-45m118-24h-50m141,25h-46m-475,0h-47m-231-3h-32m-18-21h-36m101,7h-36m171-3h-35m61,6h-34m-56-9h-32m166-1h-34m71,9h-32m134-2h-34m16,12h-36m-257,7h-37m574-8h-35m-435,4h-34m91,4h-38m-198-11h-38m46,12h-34m592-1h-35m63-26h-34m168,12h-33m-111,0h-31m223,15h-31m-222-23h-33m319,2h-29m-317,16h-28m-20-21h-73m-58,16h-48m263-4h-49m-300,1h-47m682,100h-43m-60,4h-42m189,1h-39m-432,0h-45m-208-2h-30m43-9h-31m176,2h-28m103-1h-28m122-1h-33m13,8h-30m-234,4h-33m518-5h-30m-392,3h-33m81,2h-32m-180-7h-32m38,8h-30m536-1h-31m181-9h-31m-99,0h-33m204,10h-30m-250-3h-28m-139-4h-44m239-2h-43m-271,1h-46m802-250h-34m-41,15h-52m-94-18h-54m70,27h-55m134-37h-54m162,38h-54m-540,1h-52m-262-5h-38m-21-33h-41m114,11h-40m197-5h-39m66,10h-38m-65-14h-37m191-1h-41m86,14h-40m154-3h-39m16,17h-42m-291,12h-40m648-13h-39m-493,6h-39m102,6h-39m-226-17h-43m51,19h-41m673-2h-38m75-39h-41m193,18h-38m-125,0h-39m255,23h-40m-252-35h-36m366,2h-36m-357,26h-37m-19-33h-81m-67,25h-55m298-7h-55m-343,2h-53m885-83h-34m-41,15h-52m-94-18h-54m70,27h-55m134-37h-54m162,38h-54m-540,1h-52m-262-5h-38m-21-33h-41m114,11h-40m197-5h-39m66,10h-38m-65-14h-37m191-1h-41m86,14h-40m154-3h-39m16,17h-42m-291,12h-40m648-13h-39m-493,6h-39m102,6h-39m-226-17h-43m51,19h-41m673-2h-38m75-39h-41m193,18h-38m-125,0h-39m255,23h-40m-252-35h-36m366,2h-36m-357,26h-37m-19-33h-81m-67,25h-55m298-7h-55m-343,2h-53m885-89h-34m-41,15h-52m-94-18h-54m70,27h-55m134-37h-54m162,38h-54m-540,1h-52m-262-5h-38m-21-33h-41m114,11h-40m197-5h-39m66,10h-38m-65-14h-37m191-1h-41m86,14h-40m154-3h-39m16,17h-42m-291,12h-40m648-13h-39m-493,6h-39m102,6h-39m-226-17h-43m51,19h-41m673-2h-38m75-39h-41m193,18h-38m-125,0h-39m255,23h-40m-252-35h-36m366,2h-36m-357,26h-37m-19-33h-81m-67,25h-55m298-7h-55m-343,2h-53m873-92h-31m-32,15h-52m-100-18h-53m75,27h-55m126-37h-53m169,38h-54m-540,1h-52m-262-5h-38m-11-33h-40m112,11h-40m192-5h-38m61,10h-38m-57-14h-40m188-1h-39m84,14h-38m150-3h-39m16,17h-42m-291,12h-40m648-13h-39m-493,6h-39m102,6h-39m-226-17h-43m51,19h-41m673-2h-38m69-39h-37m195,18h-38m-125,0h-39m255,23h-40m-254-35h-37m360,2h-37m-347,26h-37m-19-33h-77m-71,25h-55m298-7h-55m-343,2h-53"/></svg>