<?xml version="1.0" encoding="iso-8859-1"?>
<!-- Generator: Adobe Illustrator 23.0.1, SVG Export Plug-In . SVG Version: 6.00 Build 0)  -->
<svg version="1.1" xmlns="http://www.w3.org/2000/svg" xmlns:xlink="http://www.w3.org/1999/xlink" x="0px" y="0px"
	 viewBox="0 0 302.105 512" style="enable-background:new 0 0 302.105 512;" xml:space="preserve">
<g id="powerme1-5">
	<rect id="bounds" style="opacity:0;fill:#FFFFFF;" width="302" height="512"/>
	<g id="style1">
		<path id="asdf_1_" style="fill:#194A82;" d="M20.705,23.284h260.801c11.33,0,20.6,9.282,20.6,16.054v447.259
			c0,15.918-9.27,25.2-20.6,25.2H20.705c-11.33,0-20.6-9.282-20.6-25.2l0-447.259C0.105,32.566,9.375,23.284,20.705,23.284z"/>
	</g>
	<g id="style2">
		<path id="asdf3_3_" style="fill:#8E8E8E;" d="M148.64,262.542h4.93c10.344,0,18.807,8.474,18.807,18.832v70.743
			c0,10.358-8.463,18.832-18.807,18.832h-4.93c-10.344,0-18.807-8.474-18.807-18.832v-70.743
			C129.833,271.016,138.297,262.542,148.64,262.542z"/>
	</g>
	<g id="accent">
		<g id="XMLID_283_">
			<path id="asdf3_2_" style="fill:#8E8E8E;" d="M145.437,192.108h11.336c23.785,0,43.246,19.486,43.246,43.303V398.08
				c0,23.817-19.461,43.303-43.246,43.303h-11.336c-23.785,0-43.246-19.486-43.246-43.303V235.411
				C102.192,211.594,121.652,192.108,145.437,192.108z"/>
		</g>
	</g>
</g>
<g id="Layer_1">
</g>
</svg>
