<svg xmlns="http://www.w3.org/2000/svg" xmlns:xlink="http://www.w3.org/1999/xlink" viewBox="0 0 540 483"><defs><style>.a{fill:#fff;fill-opacity:0;}.b{fill:#5F635E;}.c,.e{fill:none;stroke-miterlimit:10;}.c{stroke:#000;stroke-width:4px;opacity:0.2;}.c,.f{isolation:isolate;}.d{fill:url(#a);}.e{stroke:#fff;stroke-linecap:round;stroke-width:12px;}.f{opacity:0.12;}</style><linearGradient id="a" x1="33.88" y1="240.5" x2="505.88" y2="240.5" gradientUnits="userSpaceOnUse"><stop offset="0" stop-opacity="0.2"/><stop offset="1" stop-opacity="0.4"/></linearGradient></defs><title>08-</title><rect class="a" width="540" height="483"/><rect class="b" x="30.3" width="480" height="483"/><path class="c" d="M31.9,0V482M507.9,0V482" transform="translate(0.1 0)"/><path class="d" d="M454.9,319h51v3h-51Zm0-9h51v3h-51Zm0-67h51v3h-51Zm0-9h51v3h-51Zm0-67h51v3h-51Zm0-9h51v3h-51Zm0-67h51v3h-51Zm0-9h51v3h-51Zm0,314h51v3h-51Zm0-9h51v3h-51ZM33.9,159h51v3h-51Zm0,9h51v3h-51Zm0,67h51v3h-51Zm0,9h51v3h-51Zm0,67h51v3h-51Zm0,9h51v3h-51Zm0,67h51v3h-51Zm0,9h51v3h-51Zm0-314h51v3h-51Zm0,9h51v3h-51Z" transform="translate(0.1 0)"/><path class="e" d="M87.9,165h364m-364,76h364m-364,76h364m-364,76h364M87.9,88h364" transform="translate(0.1 0)"/><path class="f" d="M29.9,472h480v11H29.9Zm0-472h480V10H29.9Z" transform="translate(0.1 0)"/></svg>