<svg xmlns="http://www.w3.org/2000/svg" xmlns:xlink="http://www.w3.org/1999/xlink" viewBox="0 0 434 507.7"><defs><style>.a{fill:#fff;fill-opacity:0;}.b{fill:#5F635E;}.c,.d,.e,.f,.g,.h,.i,.j,.k,.l,.m,.n,.o{fill:none;stroke-miterlimit:10;}.c,.d,.e,.f,.g,.h,.i,.j,.k,.l,.m,.o{stroke-width:4px;}.c{stroke:url(#a);}.d{stroke:url(#b);}.e{stroke:url(#c);}.f{stroke:url(#d);}.g{stroke:url(#e);}.h{stroke:url(#f);}.i{stroke:url(#g);}.j{stroke:url(#h);}.k{stroke:url(#i);}.l{stroke:url(#j);}.m{stroke:url(#k);}.n{stroke:#fff;stroke-linecap:round;stroke-width:12px;}.o{stroke:#000;opacity:0.2;isolation:isolate;}</style><linearGradient id="a" x1="694.84" y1="68.9" x2="726.66" y2="37.09" gradientTransform="matrix(0, 1, 1, 0, 6.11, -289)" gradientUnits="userSpaceOnUse"><stop offset="0" stop-opacity="0.7"/><stop offset="1" stop-opacity="0.2"/></linearGradient><linearGradient id="b" x1="617.83" y1="71.58" x2="651.79" y2="37.63" xlink:href="#a"/><linearGradient id="c" x1="540.41" y1="71.8" x2="574.81" y2="37.4" xlink:href="#a"/><linearGradient id="d" x1="465.89" y1="72.15" x2="501.02" y2="37.03" xlink:href="#a"/><linearGradient id="e" x1="386.43" y1="72.8" x2="422.9" y2="36.33" xlink:href="#a"/><linearGradient id="f" x1="1342.61" y1="513.24" x2="1374.43" y2="481.42" gradientTransform="translate(-256.7 -1011.4) rotate(45)" xlink:href="#a"/><linearGradient id="g" x1="1265.68" y1="515.84" x2="1299.63" y2="481.89" gradientTransform="translate(-256.7 -1011.4) rotate(45)" xlink:href="#a"/><linearGradient id="h" x1="1188.33" y1="515.99" x2="1222.72" y2="481.6" gradientTransform="translate(-256.7 -1011.4) rotate(45)" xlink:href="#a"/><linearGradient id="i" x1="1113.87" y1="516.27" x2="1149" y2="481.15" gradientTransform="translate(-256.7 -1011.4) rotate(45)" xlink:href="#a"/><linearGradient id="j" x1="1034.51" y1="516.82" x2="1070.97" y2="480.36" gradientTransform="translate(-256.7 -1011.4) rotate(45)" xlink:href="#a"/><linearGradient id="k" x1="3.59" y1="389.04" x2="242.27" y2="150.36" gradientUnits="userSpaceOnUse"><stop offset="0" stop-opacity="0.25"/><stop offset="1" stop-opacity="0.2"/></linearGradient></defs><title>10-</title><rect class="a" x="-0.1" y="-0.3" width="433" height="507"/><path class="b" d="M93.9.7A90.7,90.7,0,0,1,30.4,26.6s.5.2-.5.2V507.7c157-.1,300-64.1,403.2-167.5Z"/><path class="c" d="M30.8,423.3A496.3,496.3,0,0,0,87.4,420"/><path class="d" d="M30.8,347.8a413.5,413.5,0,0,0,59.9-4.3"/><path class="e" d="M30.8,271.1a339.3,339.3,0,0,0,59.9-5.3"/><path class="f" d="M30.8,197.7a262.1,262.1,0,0,0,59.9-6.9"/><path class="g" d="M30.8,120.2a186.3,186.3,0,0,0,59.9-9.8"/><path class="h" d="M373.3,281.8A497.6,497.6,0,0,1,331,319.7"/><path class="i" d="M320.1,228.5a414.3,414.3,0,0,1-45.4,39.3"/><path class="j" d="M265.9,174.2a340,340,0,0,1-46.1,38.7"/><path class="k" d="M214.1,122.3a262.6,262.6,0,0,1-47.2,37.5"/><path class="l" d="M159.5,67.6a186.7,186.7,0,0,1-49.3,35.5"/><path class="m" d="M30.8,414.2A496.3,496.3,0,0,0,87.4,411M30.8,338.8a413.5,413.5,0,0,0,59.9-4.3M30.8,262.1a339.3,339.3,0,0,0,59.9-5.3M30.8,188.7a262.1,262.1,0,0,0,59.9-6.9M30.8,111.2a186.3,186.3,0,0,0,59.9-9.8M367,275.5a497.7,497.7,0,0,1-42.3,37.8m-10.9-91.2a414.3,414.3,0,0,1-45.4,39.3m-8.8-93.6a340,340,0,0,1-46.1,38.7m-5.7-90.6a262.6,262.6,0,0,1-47.2,37.5m-7.4-92.3a186.7,186.7,0,0,1-49.3,35.5"/><path class="n" d="M327.2,316.3A478.3,478.3,0,0,1,90.7,414.9M272.8,263.4A403.7,403.7,0,0,1,90.7,339.1M216.9,210.5c-37.6,26.1-79.5,42.9-126.2,51.5m73-107a253.5,253.5,0,0,1-73,30.3m16.3-86Q99,103,90.7,106"/><path class="o" d="M31.9,506.7V26.7M432.7,341.2,93.5,1.4M33.6,31.2c25.7,0,46.1-8.8,63.1-25.5"/></svg>