<?xml version="1.0" encoding="iso-8859-1"?>
<!-- Generator: Adobe Illustrator 19.0.0, SVG Export Plug-In . SVG Version: 6.00 Build 0)  -->
<svg version="1.1" xmlns="http://www.w3.org/2000/svg" xmlns:xlink="http://www.w3.org/1999/xlink" x="0px" y="0px"
	 viewBox="0 0 433.958 507.676" style="enable-background:new 0 0 433.958 507.676;" xml:space="preserve">
<g id="panel-45">
	<rect id="bounds_12_" x="-0.125" y="-0.324" style="opacity:0;fill:#FFFFFF;" width="433" height="507"/>
	<g id="style1">
		<path id="path" style="fill:#6D6D6D;" d="M93.927,0.679C77.575,16.693,55.011,26.563,30.415,26.563
			c-0.028,0,0.46,0.249-0.54,0.249v480.864c157-0.123,299.964-64.111,403.207-167.45L93.927,0.679z"/>
	</g>
	<g id="accent_11_">
		<g id="XMLID_1369_">
			
				<linearGradient id="XMLID_2_" gradientUnits="userSpaceOnUse" x1="607.843" y1="685.9879" x2="639.6592" y2="717.8041" gradientTransform="matrix(4.489700e-011 1 -1 4.489700e-011 761 -202)">
				<stop  offset="0" style="stop-color:#000000;stop-opacity:0.7"/>
				<stop  offset="1" style="stop-color:#000000;stop-opacity:0.2"/>
			</linearGradient>
			<path id="XMLID_1390_" style="fill:none;stroke:url(#XMLID_2_);stroke-width:4;stroke-miterlimit:10;" d="M30.789,423.252
				c19.161,0,38.062-1.096,56.644-3.23"/>
			
				<linearGradient id="XMLID_3_" gradientUnits="userSpaceOnUse" x1="530.8336" y1="683.308" x2="564.786" y2="717.2605" gradientTransform="matrix(4.489700e-011 1 -1 4.489700e-011 761 -202)">
				<stop  offset="0" style="stop-color:#000000;stop-opacity:0.7"/>
				<stop  offset="1" style="stop-color:#000000;stop-opacity:0.2"/>
			</linearGradient>
			<path id="XMLID_1389_" style="fill:none;stroke:url(#XMLID_3_);stroke-width:4;stroke-miterlimit:10;" d="M30.789,347.835
				c20.339,0,40.331-1.481,59.875-4.34"/>
			
				<linearGradient id="XMLID_4_" gradientUnits="userSpaceOnUse" x1="453.4138" y1="683.0922" x2="487.8083" y2="717.4866" gradientTransform="matrix(4.489700e-011 1 -1 4.489700e-011 761 -202)">
				<stop  offset="0" style="stop-color:#000000;stop-opacity:0.7"/>
				<stop  offset="1" style="stop-color:#000000;stop-opacity:0.2"/>
			</linearGradient>
			<path id="XMLID_1388_" style="fill:none;stroke:url(#XMLID_4_);stroke-width:4;stroke-miterlimit:10;" d="M30.789,271.084
				c20.438,0,40.447-1.817,59.875-5.298"/>
			
				<linearGradient id="XMLID_5_" gradientUnits="userSpaceOnUse" x1="378.8877" y1="682.7352" x2="414.0164" y2="717.8639" gradientTransform="matrix(4.489700e-011 1 -1 4.489700e-011 761 -202)">
				<stop  offset="0" style="stop-color:#000000;stop-opacity:0.7"/>
				<stop  offset="1" style="stop-color:#000000;stop-opacity:0.2"/>
			</linearGradient>
			<path id="XMLID_1387_" style="fill:none;stroke:url(#XMLID_5_);stroke-width:4;stroke-miterlimit:10;" d="M30.789,197.669
				c20.604,0,40.649-2.383,59.876-6.89"/>
			
				<linearGradient id="XMLID_6_" gradientUnits="userSpaceOnUse" x1="299.4311" y1="682.0925" x2="335.8999" y2="718.5613" gradientTransform="matrix(4.489700e-011 1 -1 4.489700e-011 761 -202)">
				<stop  offset="0" style="stop-color:#000000;stop-opacity:0.7"/>
				<stop  offset="1" style="stop-color:#000000;stop-opacity:0.2"/>
			</linearGradient>
			<path id="XMLID_1386_" style="fill:none;stroke:url(#XMLID_6_);stroke-width:4;stroke-miterlimit:10;" d="M30.789,120.25
				c20.952,0,41.09-3.449,59.874-9.81"/>
			
				<linearGradient id="XMLID_7_" gradientUnits="userSpaceOnUse" x1="598.833" y1="685.9879" x2="630.6492" y2="717.8041" gradientTransform="matrix(4.489700e-011 1 -1 4.489700e-011 761 -202)">
				<stop  offset="0" style="stop-color:#000000;stop-opacity:0.25"/>
				<stop  offset="1" style="stop-color:#000000;stop-opacity:0.2"/>
			</linearGradient>
			<path id="XMLID_1385_" style="fill:none;stroke:url(#XMLID_7_);stroke-width:4;stroke-miterlimit:10;" d="M30.789,414.242
				c19.161,0,38.062-1.096,56.644-3.23"/>
			
				<linearGradient id="XMLID_8_" gradientUnits="userSpaceOnUse" x1="521.8236" y1="683.308" x2="555.776" y2="717.2605" gradientTransform="matrix(4.489700e-011 1 -1 4.489700e-011 761 -202)">
				<stop  offset="0" style="stop-color:#000000;stop-opacity:0.25"/>
				<stop  offset="1" style="stop-color:#000000;stop-opacity:0.2"/>
			</linearGradient>
			<path id="XMLID_1384_" style="fill:none;stroke:url(#XMLID_8_);stroke-width:4;stroke-miterlimit:10;" d="M30.789,338.825
				c20.339,0,40.331-1.481,59.875-4.34"/>
			
				<linearGradient id="XMLID_9_" gradientUnits="userSpaceOnUse" x1="444.4039" y1="683.0922" x2="478.7983" y2="717.4866" gradientTransform="matrix(4.489700e-011 1 -1 4.489700e-011 761 -202)">
				<stop  offset="0" style="stop-color:#000000;stop-opacity:0.25"/>
				<stop  offset="1" style="stop-color:#000000;stop-opacity:0.2"/>
			</linearGradient>
			<path id="XMLID_1383_" style="fill:none;stroke:url(#XMLID_9_);stroke-width:4;stroke-miterlimit:10;" d="M30.789,262.074
				c20.438,0,40.447-1.817,59.875-5.298"/>
			
				<linearGradient id="XMLID_10_" gradientUnits="userSpaceOnUse" x1="369.8777" y1="682.7352" x2="405.0064" y2="717.8639" gradientTransform="matrix(4.489700e-011 1 -1 4.489700e-011 761 -202)">
				<stop  offset="0" style="stop-color:#000000;stop-opacity:0.25"/>
				<stop  offset="1" style="stop-color:#000000;stop-opacity:0.2"/>
			</linearGradient>
			<path id="XMLID_1382_" style="fill:none;stroke:url(#XMLID_10_);stroke-width:4;stroke-miterlimit:10;" d="M30.789,188.659
				c20.604,0,40.649-2.383,59.876-6.89"/>
			
				<linearGradient id="XMLID_11_" gradientUnits="userSpaceOnUse" x1="290.4211" y1="682.0925" x2="326.89" y2="718.5613" gradientTransform="matrix(4.489700e-011 1 -1 4.489700e-011 761 -202)">
				<stop  offset="0" style="stop-color:#000000;stop-opacity:0.25"/>
				<stop  offset="1" style="stop-color:#000000;stop-opacity:0.2"/>
			</linearGradient>
			<path id="XMLID_1381_" style="fill:none;stroke:url(#XMLID_11_);stroke-width:4;stroke-miterlimit:10;" d="M30.789,111.24
				c20.952,0,41.09-3.449,59.874-9.81"/>
			<g id="XMLID_1370_">
				
					<linearGradient id="XMLID_12_" gradientUnits="userSpaceOnUse" x1="1247.9453" y1="223.1714" x2="1279.7606" y2="254.9867" gradientTransform="matrix(0.7071 0.7071 0.7071 -0.7071 -710.4999 -423.7943)">
					<stop  offset="0" style="stop-color:#000000;stop-opacity:0.7"/>
					<stop  offset="1" style="stop-color:#000000;stop-opacity:0.2"/>
				</linearGradient>
				<path id="XMLID_1380_" style="fill:none;stroke:url(#XMLID_12_);stroke-width:4;stroke-miterlimit:10;" d="M373.315,281.831
					c-13.549,13.575-27.687,26.19-42.333,37.846"/>
				
					<linearGradient id="XMLID_13_" gradientUnits="userSpaceOnUse" x1="1171.0107" y1="220.5633" x2="1204.9613" y2="254.5139" gradientTransform="matrix(0.7071 0.7071 0.7071 -0.7071 -710.4999 -423.7943)">
					<stop  offset="0" style="stop-color:#000000;stop-opacity:0.7"/>
					<stop  offset="1" style="stop-color:#000000;stop-opacity:0.2"/>
				</linearGradient>
				<path id="XMLID_1379_" style="fill:none;stroke:url(#XMLID_13_);stroke-width:4;stroke-miterlimit:10;" d="M320.089,228.503
					c-14.382,14.41-29.563,27.526-45.401,39.35"/>
				
					<linearGradient id="XMLID_14_" gradientUnits="userSpaceOnUse" x1="1093.6654" y1="220.4219" x2="1128.0571" y2="254.8136" gradientTransform="matrix(0.7071 0.7071 0.7071 -0.7071 -710.4999 -423.7943)">
					<stop  offset="0" style="stop-color:#000000;stop-opacity:0.7"/>
					<stop  offset="1" style="stop-color:#000000;stop-opacity:0.2"/>
				</linearGradient>
				<path id="XMLID_1378_" style="fill:none;stroke:url(#XMLID_14_);stroke-width:4;stroke-miterlimit:10;" d="M265.922,174.232
					c-14.452,14.479-29.882,27.371-46.077,38.673"/>
				
					<linearGradient id="XMLID_15_" gradientUnits="userSpaceOnUse" x1="1019.2112" y1="220.1367" x2="1054.3358" y2="255.2613" gradientTransform="matrix(0.7071 0.7071 0.7071 -0.7071 -710.4999 -423.7943)">
					<stop  offset="0" style="stop-color:#000000;stop-opacity:0.7"/>
					<stop  offset="1" style="stop-color:#000000;stop-opacity:0.2"/>
				</linearGradient>
				<path id="XMLID_1377_" style="fill:none;stroke:url(#XMLID_15_);stroke-width:4;stroke-miterlimit:10;" d="M214.109,122.32
					c-14.569,14.597-30.425,27.113-47.202,37.548"/>
				
					<linearGradient id="XMLID_16_" gradientUnits="userSpaceOnUse" x1="939.8315" y1="219.5708" x2="976.2936" y2="256.033" gradientTransform="matrix(0.7071 0.7071 0.7071 -0.7071 -710.4999 -423.7943)">
					<stop  offset="0" style="stop-color:#000000;stop-opacity:0.7"/>
					<stop  offset="1" style="stop-color:#000000;stop-opacity:0.2"/>
				</linearGradient>
				<path id="XMLID_1376_" style="fill:none;stroke:url(#XMLID_16_);stroke-width:4;stroke-miterlimit:10;" d="M159.471,67.576
					c-14.815,14.844-31.489,26.672-49.261,35.482"/>
				
					<linearGradient id="XMLID_17_" gradientUnits="userSpaceOnUse" x1="1238.944" y1="223.18" x2="1270.7593" y2="254.9953" gradientTransform="matrix(0.7071 0.7071 0.7071 -0.7071 -710.4999 -423.7943)">
					<stop  offset="0" style="stop-color:#000000;stop-opacity:0.25"/>
					<stop  offset="1" style="stop-color:#000000;stop-opacity:0.2"/>
				</linearGradient>
				<path id="XMLID_1375_" style="fill:none;stroke:url(#XMLID_17_);stroke-width:4;stroke-miterlimit:10;" d="M366.956,275.46
					c-13.549,13.575-27.688,26.19-42.333,37.846"/>
				
					<linearGradient id="XMLID_18_" gradientUnits="userSpaceOnUse" x1="1162.0094" y1="220.5719" x2="1195.96" y2="254.5225" gradientTransform="matrix(0.7071 0.7071 0.7071 -0.7071 -710.4999 -423.7943)">
					<stop  offset="0" style="stop-color:#000000;stop-opacity:0.25"/>
					<stop  offset="1" style="stop-color:#000000;stop-opacity:0.2"/>
				</linearGradient>
				<path id="XMLID_1374_" style="fill:none;stroke:url(#XMLID_18_);stroke-width:4;stroke-miterlimit:10;" d="M313.73,222.132
					c-14.382,14.41-29.563,27.526-45.401,39.35"/>
				
					<linearGradient id="XMLID_19_" gradientUnits="userSpaceOnUse" x1="1084.6641" y1="220.4305" x2="1119.0559" y2="254.8223" gradientTransform="matrix(0.7071 0.7071 0.7071 -0.7071 -710.4999 -423.7943)">
					<stop  offset="0" style="stop-color:#000000;stop-opacity:0.25"/>
					<stop  offset="1" style="stop-color:#000000;stop-opacity:0.2"/>
				</linearGradient>
				<path id="XMLID_1373_" style="fill:none;stroke:url(#XMLID_19_);stroke-width:4;stroke-miterlimit:10;" d="M259.563,167.861
					c-14.452,14.479-29.882,27.371-46.077,38.673"/>
				
					<linearGradient id="XMLID_20_" gradientUnits="userSpaceOnUse" x1="1010.2098" y1="220.1453" x2="1045.3345" y2="255.2699" gradientTransform="matrix(0.7071 0.7071 0.7071 -0.7071 -710.4999 -423.7943)">
					<stop  offset="0" style="stop-color:#000000;stop-opacity:0.25"/>
					<stop  offset="1" style="stop-color:#000000;stop-opacity:0.2"/>
				</linearGradient>
				<path id="XMLID_1372_" style="fill:none;stroke:url(#XMLID_20_);stroke-width:4;stroke-miterlimit:10;" d="M207.751,115.949
					c-14.569,14.597-30.425,27.113-47.202,37.548"/>
				
					<linearGradient id="XMLID_21_" gradientUnits="userSpaceOnUse" x1="930.8302" y1="219.5795" x2="967.2923" y2="256.0416" gradientTransform="matrix(0.7071 0.7071 0.7071 -0.7071 -710.4999 -423.7943)">
					<stop  offset="0" style="stop-color:#000000;stop-opacity:0.25"/>
					<stop  offset="1" style="stop-color:#000000;stop-opacity:0.2"/>
				</linearGradient>
				<path id="XMLID_1371_" style="fill:none;stroke:url(#XMLID_21_);stroke-width:4;stroke-miterlimit:10;" d="M153.112,61.205
					c-14.815,14.844-31.489,26.672-49.261,35.482"/>
			</g>
		</g>
		<path id="XMLID_687_" style="fill:none;stroke:#FFFFFF;stroke-width:12;stroke-linecap:round;stroke-miterlimit:10;" d="
			M327.161,316.287c-66.872,52.465-147.953,87.584-236.496,98.597"/>
		<path id="XMLID_669_" style="fill:none;stroke:#FFFFFF;stroke-width:12;stroke-linecap:round;stroke-miterlimit:10;" d="
			M272.82,263.388c-52.433,39.041-114.584,65.716-182.156,75.719"/>
		<path id="XMLID_668_" style="fill:none;stroke:#FFFFFF;stroke-width:12;stroke-linecap:round;stroke-miterlimit:10;" d="
			M216.887,210.501c-37.647,26.084-79.462,42.906-126.224,51.487"/>
		<path id="XMLID_667_" style="fill:none;stroke:#FFFFFF;stroke-width:12;stroke-linecap:round;stroke-miterlimit:10;" d="
			M163.652,155.003c-22.306,13.648-46.865,23.962-72.988,30.253"/>
		<path id="XMLID_302_" style="fill:none;stroke:#FFFFFF;stroke-width:12;stroke-linecap:round;stroke-miterlimit:10;" d="
			M107.009,99.258c-5.309,2.501-10.761,4.749-16.34,6.728"/>
		
			<line id="XMLID_1363_" style="opacity:0.2;fill:none;stroke:#000000;stroke-width:4;stroke-miterlimit:10;" x1="31.875" y1="506.676" x2="31.875" y2="26.676"/>
		
			<line id="XMLID_1362_" style="opacity:0.2;fill:none;stroke:#000000;stroke-width:4;stroke-miterlimit:10;" x1="432.667" y1="341.2" x2="93.532" y2="1.413"/>
		<path id="XMLID_1140_" style="opacity:0.2;fill:none;stroke:#000000;stroke-width:10;stroke-miterlimit:10;" d="M33.62,31.151
			c25.743,0,46.133-8.786,63.123-25.529"/>
	</g>
</g>
<g id="Layer_1">
</g>
</svg>
