<?xml version="1.0" encoding="utf-8"?>
<!-- Generator: Adobe Illustrator 21.1.0, SVG Export Plug-In . SVG Version: 6.00 Build 0)  -->
<svg version="1.1" id="Layer_1" xmlns="http://www.w3.org/2000/svg" xmlns:xlink="http://www.w3.org/1999/xlink" x="0px" y="0px"
	 viewBox="0 0 840 840" style="enable-background:new 0 0 840 840;" xml:space="preserve">
<style type="text/css">
	.st0{fill-rule:evenodd;clip-rule:evenodd;fill:#FF0000;}
</style>
<path class="st0" d="M417.3,449.5v-27h-30v-5h30V40.4l-0.6,0.2c-0.9,0.2-1.7,0.5-2.4,0.8c-1.2,0.4-2.4,0.9-4.4,1.1
	c2.1-2.9,6.6-9.2,9.9-18.6c1.8,6.4,4.9,12.7,9.2,18.9c-1.7-0.2-3-0.9-4.1-1.4c-0.7-0.3-1.3-0.6-1.8-0.8l-0.6-0.2v377.2h380.3
	l-0.3-0.7c-1-2.1-1.4-3.4-1.6-6.3c6,4.3,13.5,7.9,18.4,9.6c-4.8,1.6-11.8,5.2-18.6,9.6c0.2-1.2,0.6-2.2,0.9-3.3
	c0.4-1.1,0.7-2.2,0.9-3.3l0.1-0.6H422.3v27H417.3z"/>
</svg>
