<svg xmlns="http://www.w3.org/2000/svg" xmlns:xlink="http://www.w3.org/1999/xlink" viewBox="0 0 1741.7 535"><defs><style>.a,.g{fill:#fff;}.a{fill-opacity:0;}.b{fill:#A07B5D;}.c{fill:#5F635E;}.d{opacity:0.45;}.e{opacity:0.15;}.f,.p,.q{fill:none;}.g{opacity:0.15;}.h{fill:url(#a);}.i{opacity:0.6;}.j{fill:url(#b);}.k{opacity:0.12;}.l{fill:url(#c);}.m{fill:url(#d);}.n{fill:url(#e);}.o{fill:url(#f);}.p,.q{stroke:#000;stroke-miterlimit:10;isolation:isolate;}.p{stroke-width:4px;opacity:0.2;}.q{opacity:0.24;}</style><linearGradient id="a" x1="3276.5" y1="346.89" x2="3322.1" y2="346.89" gradientTransform="matrix(-1, 0, 0, 1, 3405.83, 44.11)" gradientUnits="userSpaceOnUse"><stop offset="0" stop-opacity="0.45"/><stop offset="1" stop-opacity="0.6"/></linearGradient><linearGradient id="b" x1="1748.2" y1="346.89" x2="1793.8" y2="346.89" gradientTransform="matrix(-1, 0, 0, 1, 3405.83, 44.11)" gradientUnits="userSpaceOnUse"><stop offset="0" stop-opacity="0.6"/><stop offset="1" stop-opacity="0.45"/></linearGradient><linearGradient id="c" x1="3349.05" y1="376.72" x2="3349.05" y2="397.73" gradientTransform="matrix(-1, 0, 0, 1, 3405.83, 44.11)" gradientUnits="userSpaceOnUse"><stop offset="0" stop-opacity="0"/><stop offset="1" stop-opacity="0.6"/></linearGradient><linearGradient id="d" x1="1721.1" y1="376.89" x2="1721.1" y2="397.9" xlink:href="#c"/><linearGradient id="e" x1="1677.02" y1="473.7" x2="1667.13" y2="463.63" gradientTransform="matrix(-1, 0, 0, 1, 3405.83, 44.11)" gradientUnits="userSpaceOnUse"><stop offset="0" stop-opacity="0"/><stop offset="1" stop-opacity="0.35"/></linearGradient><linearGradient id="f" x1="2782.33" y1="474.38" x2="2771.9" y2="463.76" gradientTransform="translate(-2769.1 44.1)" xlink:href="#e"/></defs><title>03</title><rect class="a" x="1.8" width="1740" height="535"/><path class="b" d="M1711.8,82H29.8V0h1682Zm0,302H29.8V323h1682Zm0-76H29.8V247h1682Zm0-75H29.8V172h1682Zm0-76H29.8V96h1682Zm-53.3,241H82.8v45.7l-26,67.7V535h1628V511.4L1659,444Z"/><path class="c" d="M29.5,444.5.3,511.6s-1.8,2.6,4.8,6.6S57.8,535,57.8,535V511.4l26-66.9V398h45V384h-99"/><path class="c" d="M1711.8,384h-101v14h46v46.5l26,66.9V535s44.4-11.6,51.9-16.8,5.1-6.8,5.1-6.8l-28-66.9"/><path class="c" d="M893.9,397H847.5V383h46.4Zm0-75H847.5V307h46.4Zm0-76H847.5V231h46.4Zm0-75H847.5V156h46.4Zm0-75H847.5V81h46.4Z"/><g class="d"><polygon points="57.7 511.4 83.8 444.5 1657 444 1683.7 511.4 57.7 511.4"/></g><g class="e"><line class="f" x1="1657.3" y1="444.5" x2="1693.4" y2="518.4"/></g><path class="g" d="M62.4,501.2l1-2.4H1678.6l1.4,2.4Zm5.1-14,1-2.4H1672.9l1.3,2.4Zm5.8-14.7.9-2.4H1667.1l1.3,2.4Zm5.1-14,.9-2.4H1661.7l1.2,2.4Z"/><rect class="h" x="83.7" y="384" width="45.6" height="14"/><g class="i"><polygon points="57.7 511.2 0.3 511.6 29.5 444.8 83.7 444.8 57.7 511.2"/></g><g class="i"><polygon points="1683.7 511.4 1740.8 511.6 1712.5 444.9 1657.3 444.9 1683.7 511.4"/></g><rect class="j" x="1612" y="384" width="45.6" height="14"/><path class="k" d="M1711.8,6H29.8V0h1682Zm0,320H29.8v-3h1682Zm0-76H29.8v-3h1682Zm0-75H29.8v-3h1682Zm0-76H29.8V96h1682Zm-54,302H83.8v-3h1574Z"/><rect class="l" x="29.7" y="420.8" width="54.1" height="24"/><rect class="m" x="1657.4" y="421" width="54.6" height="24"/><path class="n" d="M1727.6,522.2s15.3-4.8,13.5-10.7l-15.3.3Z"/><path class="o" d="M15.4,522.2s-17.5-5-15.1-10.3H15.6Z"/><path class="p" d="M31.8,445V0m53,398v47m1625,0V0m-53,444V397"/><path class="q" d="M1683.8,345.5h-53m-64,15h-81m-146-18h-84m109,27h-86m209-37h-84m252,38h-84m-840,1h-81m-409-5h-59m-33-33h-64m178,11h-62m307-5h-61m103,10h-59m-102-14h-57m297-1h-64m134,14h-62m240-3h-61m25,17h-65m-454,12h-62m1009-13h-61m-767,6h-61m159,6h-61m-352-17h-67m79,19h-63m1047-2h-59m117-39h-64m301,18h-59m-195,0h-61m397,23h-62m-393-35h-56m571,2h-57m-555,26h-58m-29-33h-126m-105,25h-85m463-7h-85m-534,2h-83m1288,60h-45m-58,10h-73m-130-11h-74m95,17h-70m183-24h-78m220,25h-71m-740,0h-73m-360-3h-50m-28-21h-56m158,7h-57m267-3h-55m95,6h-53m-87-9h-50m259-1h-53m111,9h-50m209-2h-53m25,12h-57m-400,7h-58m894-8h-55m-677,4h-53m142,4h-59m-309-11h-59m72,12h-53m921-1h-54m98-26h-53m262,12h-52m-173,0h-48m348,15h-49m-346-23h-51m497,2h-45m-493,16h-44m-31-21h-114m-90,16h-75m409-4h-75m-468,1h-73m1199,100h-83m-117,4h-80m365,1h-76m-835,0h-87m-403-2h-58m83-9h-60m341,2h-54m199-1h-53m236-1h-65m25,8h-57m-454,4h-63m1002-5h-59m-758,3h-63m156,2h-62m-348-7h-62m73,8h-58m1038-1h-61m351-9h-60m-192,0h-64m395,10h-58m-483-3h-54m-269-4h-86m462-2h-82m-525,1h-88m1355-250h-53m-64,15h-81m-146-18h-84m109,27h-86m209-37h-84m252,38h-84m-840,1h-81m-409-5h-59m-33-33h-64m178,11h-62m307-5h-61m103,10h-59m-102-14h-57m297-1h-64m134,14h-62m240-3h-61m25,17h-65m-454,12h-62m1009-13h-61m-767,6h-61m159,6h-61m-352-17h-67m79,19h-63m1047-2h-59m117-39h-64m301,18h-59m-195,0h-61m397,23h-62m-393-35h-56m571,2h-57m-555,26h-58m-29-33h-126m-105,25h-85m463-7h-85m-534,2h-83m1378-83h-53m-64,15h-81m-146-18h-84m109,27h-86m209-37h-84m252,38h-84m-840,1h-81m-409-5h-59m-33-33h-64m178,11h-62m307-5h-61m103,10h-59m-102-14h-57m297-1h-64m134,14h-62m240-3h-61m25,17h-65m-454,12h-62m1009-13h-61m-767,6h-61m159,6h-61m-352-17h-67m79,19h-63m1047-2h-59m117-39h-64m301,18h-59m-195,0h-61m397,23h-62m-393-35h-56m571,2h-57m-555,26h-58m-29-33h-126m-105,25h-85m463-7h-85m-534,2h-83m1378-89h-53m-64,15h-81m-146-18h-84m109,27h-86m209-37h-84m252,38h-84m-840,1h-81m-409-5h-59m-33-33h-64m178,11h-62m307-5h-61m103,10h-59m-102-14h-57m297-1h-64m134,14h-62m240-3h-61m25,17h-65m-454,12h-62m1009-13h-61m-767,6h-61m159,6h-61m-352-17h-67m79,19h-63m1047-2h-59m117-39h-64m301,18h-59m-195,0h-61m397,23h-62m-393-35h-56m571,2h-57m-555,26h-58m-29-33h-126m-105,25h-85m463-7h-85m-534,2h-83m1359-92h-48m-50,15h-81m-156-18h-82m117,27h-86m196-37h-82m263,38h-84m-840,1h-81m-409-5h-59m-17-33h-62m174,11h-62m299-5h-59m95,10h-59m-89-14h-63m293-1h-60m131,14h-60m234-3h-61m25,17h-65m-454,12h-62m1009-13h-61m-767,6h-61m159,6h-61m-352-17h-67m79,19h-63m1047-2h-59m108-39h-58m304,18h-59m-195,0h-61m397,23h-62m-396-35h-57m560,2h-57m-540,26h-58m-29-33h-120m-111,25h-85m463-7h-85m-534,2h-83"/></svg>